<svg width="0" height="0" class="hidden">
  <symbol viewBox="0 0 30 30" fill="none" xmlns="http://www.w3.org/2000/svg" id="logo-circle">
    <path d="M27.571 18.572a14.902 14.902 0 0 0-4.182-8.456 14.763 14.763 0 0 0-3.486-2.604 9.028 9.028 0 0 1 3.674 7.292l-.001.121a9.037 9.037 0 0 1-1.359 4.666 14.923 14.923 0 0 1-2.853 4.048A14.575 14.575 0 0 1 9 27.976c-.47 0-.936-.023-1.396-.067a14.47 14.47 0 0 0 7.08 1.84c5.634 0 10.525-3.212 12.987-7.927a15.271 15.271 0 0 0-.1-3.25z"
      fill="url(#paint0_linear)"></path>
    <path d="M14.686 23.808a8.822 8.822 0 0 1-3.723-.826 14.675 14.675 0 0 1-4.795-3.064 14.9 14.9 0 0 1-4.462-8.73 15.128 15.128 0 0 1-.112-3.06A14.927 14.927 0 0 0 0 14.875a14.9 14.9 0 0 0 7.604 13.034 14.614 14.614 0 0 0 3.501-.085 14.578 14.578 0 0 0 8.26-4.185 14.922 14.922 0 0 0 2.852-4.047c-1.574 2.533-4.358 4.216-7.531 4.216z"
      fill="url(#paint1_linear)"></path>
    <path d="M21.044 1.463a14.71 14.71 0 0 0-2.729.138 14.597 14.597 0 0 0-8.625 4.57 14.894 14.894 0 0 0-2.684 4.096c1.441-2.5 4.038-4.232 7.049-4.446a8.773 8.773 0 0 1 5.848 1.69 14.749 14.749 0 0 1 3.486 2.604 14.906 14.906 0 0 1 4.182 8.456 15.13 15.13 0 0 1 .1 3.25 14.94 14.94 0 0 0 1.666-5.973c.02-.322.032-.647.032-.973 0-5.908-3.4-11.01-8.325-13.412z"
      fill="url(#paint2_linear)"></path>
    <path d="M16.081.068C15.621.024 15.156 0 14.685 0 8.972 0 4.023 3.303 1.595 8.128a15.285 15.285 0 0 0 .112 3.06 14.905 14.905 0 0 0 4.46 8.73 14.66 14.66 0 0 0 4.796 3.064 9.01 9.01 0 0 1-5.165-8.023l-.002-.157c0-1.654.44-3.204 1.209-4.536A14.917 14.917 0 0 1 9.689 6.17a14.597 14.597 0 0 1 8.626-4.57 14.56 14.56 0 0 1 2.729-.138A14.457 14.457 0 0 0 16.08.068z"
      fill="url(#paint3_linear)"></path>
    <defs>
      <linearGradient id="paint0_linear" x1="12.899" y1="28.484" x2="24.705" y2="14.118" gradientUnits="userSpaceOnUse">
        <stop offset=".028" stop-color="#A1D4C5"></stop>
        <stop offset=".382" stop-color="#62BDA4"></stop>
        <stop offset=".573" stop-color="#4CA98C"></stop>
        <stop offset=".81" stop-color="#309676"></stop>
        <stop offset=".948" stop-color="#238F6E"></stop>
      </linearGradient>
      <linearGradient id="paint1_linear" y1="18.052" x2="22.217" y2="18.052" gradientUnits="userSpaceOnUse">
        <stop offset=".014" stop-color="#7698CC"></stop>
        <stop offset=".382" stop-color="#4B6DB1"></stop>
        <stop offset=".96" stop-color="#305893"></stop>
      </linearGradient>
      <linearGradient id="paint2_linear" x1="28.888" y1="14.72" x2="11.542" y2="4.614" gradientUnits="userSpaceOnUse">
        <stop offset=".014" stop-color="#7698CC"></stop>
        <stop offset=".382" stop-color="#4B6DB1"></stop>
        <stop offset=".96" stop-color="#305893"></stop>
      </linearGradient>
      <linearGradient id="paint3_linear" x1="19.276" y1="1.97" x2="5.268" y2="15.688" gradientUnits="userSpaceOnUse">
        <stop offset=".036" stop-color="#F2B065"></stop>
        <stop offset=".093" stop-color="#F2A951"></stop>
        <stop offset=".156" stop-color="#F2A341"></stop>
        <stop offset=".221" stop-color="#F2A037"></stop>
        <stop offset=".29" stop-color="#F29E34"></stop>
        <stop offset=".937" stop-color="#E1821E"></stop>
      </linearGradient>
    </defs>
  </symbol>
  <symbol viewBox="0 0 84 27" fill="none" xmlns="http://www.w3.org/2000/svg" id="logo-text">
    <path d="M1.131 25.436v-4.662h3.63v4.662h-.52v-4.183H1.65v4.183h-.52zm4.846 1.066v-4.508h.507v.692c.342-.51.775-.766 1.301-.766.433 0 .813.164 1.138.49.324.326.486.763.486 1.308 0 .538-.162.971-.486 1.3-.324.328-.704.492-1.138.492-.534 0-.969-.244-1.301-.733v1.725h-.507zm1.717-1.452c.342 0 .626-.12.855-.363.227-.242.342-.567.342-.976 0-.395-.116-.716-.349-.962a1.123 1.123 0 0 0-.847-.37c-.329 0-.617.127-.862.38s-.369.572-.369.958c0 .387.123.705.37.956.243.252.53.377.86.377zm5.47-.063c-.342.353-.765.53-1.27.53-.504 0-.924-.176-1.259-.526a1.772 1.772 0 0 1-.502-1.273c0-.492.17-.915.51-1.268.34-.353.761-.53 1.265-.53.504 0 .925.176 1.262.526.338.351.507.775.507 1.272 0 .493-.171.916-.513 1.27zm-1.256.07c.363 0 .663-.129.898-.386a1.36 1.36 0 0 0 .351-.953c0-.373-.122-.69-.365-.952a1.18 1.18 0 0 0-.898-.393c-.364 0-.662.13-.894.39a1.38 1.38 0 0 0-.349.955c0 .374.12.69.361.95.243.259.541.39.896.39zm2.682.379v-3.444h.48l1.27 1.811 1.27-1.81h.486v3.443h-.514v-2.625l-1.256 1.746-1.242-1.746v2.625h-.493zm4.637 0v-3.444h.507v1.293h.907c.394 0 .717.085.967.256.25.171.375.43.375.776 0 .342-.116.613-.349.816-.233.202-.544.303-.934.303h-1.473zm.506-.452h.92c.258 0 .459-.056.6-.167.143-.11.214-.273.214-.486a.518.518 0 0 0-.22-.45c-.146-.104-.351-.156-.615-.156h-.9v1.259zm2.86.452v-3.444h.506v3.444h-.507zm1.637 0v-3.444h.506v2.991h1.658v-2.99h.507v2.99h1.657v-2.99h.513v3.443H24.23zm5.806.054c-.131 0-.267-.018-.408-.054l.06-.44a.84.84 0 0 0 .243.047.641.641 0 0 0 .237-.036.505.505 0 0 0 .2-.193c.073-.104.13-.252.169-.443.04-.19.073-.462.102-.813.028-.35.042-.777.042-1.278v-.287h2.406v3.444h-.506v-2.99h-1.42v.08c0 .523-.02.97-.06 1.338-.04.369-.09.657-.148.866a1.2 1.2 0 0 1-.246.486.768.768 0 0 1-.306.223c-.099.034-.22.05-.365.05zm5.668.027a1.62 1.62 0 0 1-1.207-.503c-.326-.334-.49-.767-.49-1.296 0-.501.156-.926.467-1.275a1.496 1.496 0 0 1 1.164-.523c.487 0 .873.174 1.157.52.285.347.427.781.427 1.305 0 .067-.002.127-.006.18H34.52c.035.35.165.63.39.836.226.207.495.31.806.31.408 0 .765-.162 1.072-.486l.315.286c-.38.43-.846.646-1.399.646zm-1.183-2.005h2.19c-.032-.333-.14-.61-.326-.83-.186-.22-.44-.33-.76-.33a.987.987 0 0 0-.742.327 1.373 1.373 0 0 0-.362.833zm3.589 1.924v-3.444h.508v1.485h1.959v-1.485h.506v3.444h-.506V23.93h-1.96v1.506h-.506zm4.103 0v-3.444h.507v1.485h1.96v-1.485h.506v3.444h-.507V23.93H42.72v1.506h-.507zm4.103 0v-3.444h.507v1.293h.907c.395 0 .718.085.967.256.25.171.375.43.375.776 0 .342-.116.613-.348.816-.233.202-.544.303-.934.303h-1.474zm.507-.452h.92c.258 0 .46-.056.601-.167.143-.11.214-.273.214-.486a.518.518 0 0 0-.22-.45c-.147-.104-.352-.156-.615-.156h-.9v1.259zm2.86.452v-3.444h.507v3.444h-.507zm1.637 0v-3.444h.507v2.724l2.019-2.724h.493v3.444h-.507v-2.724l-2.025 2.724h-.487zm2.108-4.162a.892.892 0 0 1-.615.226.892.892 0 0 1-.615-.226.97.97 0 0 1-.313-.587l.349-.073c.087.31.28.466.579.466.298 0 .49-.155.579-.466l.348.073a.982.982 0 0 1-.312.587zm4.014 4.162v-3.444h.506v1.985l1.862-1.985h.624l-1.421 1.493 1.46 1.951h-.599l-1.21-1.578-.717.746v.833h-.505v-.001zm3.563.054c-.132 0-.268-.018-.408-.054l.06-.44c.1.032.18.047.243.047a.642.642 0 0 0 .236-.036c.062-.025.129-.089.201-.193a1.21 1.21 0 0 0 .168-.443c.04-.19.073-.462.102-.813.029-.35.043-.777.043-1.278v-.287h2.406v3.444h-.507v-2.99h-1.42v.08c0 .523-.02.97-.06 1.338-.04.369-.09.657-.148.866a1.2 1.2 0 0 1-.246.486.77.77 0 0 1-.306.223c-.098.034-.219.05-.364.05zm4.182-.054v-3.444h.507v2.724l2.019-2.724h.493v3.444h-.507v-2.724l-2.025 2.724h-.487zm4.149 0v-3.444h.506v1.485h1.96v-1.485h.506v3.444h-.507V23.93h-1.959v1.506h-.506zm4.103 0v-3.444h.507v2.724l2.018-2.724h.493v3.444h-.507v-2.724l-2.025 2.724h-.486zm4.149 0v-3.444h.507v1.485h1.96v-1.485h.506v3.444h-.507V23.93h-1.959v1.506h-.507zm4.103 0v-3.444H84v.453h-1.802v2.991h-.506zm-67.882-9.368h-3.802L4.28 7.958v8.11H.93V.07h3.35v7.747L9.942.07h3.566L7.749 7.752l6.06 8.316zm12.705-6.139c0 1.992-.518 3.549-1.556 4.672-1.037 1.124-2.48 1.686-4.332 1.686-1.16 0-2.182-.257-3.068-.771-.885-.514-1.567-1.254-2.042-2.216-.475-.963-.713-2.086-.713-3.37 0-2 .515-3.553 1.545-4.662 1.03-1.109 2.478-1.663 4.343-1.663 1.16 0 2.183.255 3.068.766.886.511 1.567 1.245 2.042 2.2.476.954.713 2.074.713 3.358zm-8.351 0c0 1.211.196 2.127.588 2.746.392.62 1.032.93 1.918.93.878 0 1.51-.308 1.895-.925.386-.616.579-1.534.579-2.752 0-1.212-.195-2.12-.584-2.725-.389-.605-1.026-.908-1.912-.908-.879 0-1.513.3-1.902.903-.388.603-.582 1.513-.582 2.73zm26.295 6.139h-3.08v-9.64l-.172.679c-.39 1.539-.738 2.703-1.048 3.49l-2.139 5.47h-2.344l-2.171-5.515c-.31-.802-.641-1.929-.994-3.38l-.205-.745v9.64h-3.068V3.835h4.537l2.074 5.22c.216.561.416 1.207.6 1.937.184.729.308 1.353.373 1.87a46.82 46.82 0 0 1 .556-2.358c.133-.478.279-.917.437-1.319.159-.401.876-2.185 2.15-5.351h4.495v12.235zm9.809 0h-3.348V2.893h-4.29V.07h11.927v2.823h-4.289v13.175zm11.171.219c-1.945 0-3.464-.544-4.56-1.63-1.094-1.087-1.64-2.627-1.64-4.619 0-2.05.505-3.635 1.517-4.754 1.011-1.12 2.41-1.68 4.197-1.68 1.706 0 3.036.493 3.986 1.478.95.985 1.426 2.346 1.426 4.082v1.62h-7.789c.037.948.313 1.688.832 2.22.519.533 1.246.8 2.183.8.727 0 1.415-.077 2.063-.23a10.242 10.242 0 0 0 2.031-.733v2.583a7.677 7.677 0 0 1-1.847.65c-.656.142-1.456.213-2.399.213zm-.464-10.309c-.699 0-1.246.224-1.642.673-.396.448-.622 1.085-.68 1.91h4.624c-.014-.825-.227-1.462-.637-1.91-.412-.448-.966-.673-1.665-.673zM75.518 9.82L71.63 3.832h3.739l2.344 3.895 2.365-3.895h3.739l-3.933 5.986L84 16.068h-3.75l-2.538-4.192-2.55 4.192h-3.737l4.092-6.249z"
      fill="#333"></path>
  </symbol>
  <symbol viewBox="0 0 13 14" fill="none" xmlns="http://www.w3.org/2000/svg" id="circle">
    <circle cx="6.489" cy="6.96" r="5.822" stroke="#fff"></circle>
  </symbol>
  <symbol viewBox="0 0 10 10" fill="none" xmlns="http://www.w3.org/2000/svg" id="rhombus">
    <path fill="#3ED9B0" d="M5.275.741l4.47 4.47-4.47 4.47-4.47-4.47z"></path>
  </symbol>
</svg>