<svg width="832" height="247" viewBox="0 0 832 247" fill="none" xmlns="http://www.w3.org/2000/svg">
<circle r="2.5" transform="matrix(1 -1.74846e-07 -1.74846e-07 -1 607.4 2.5)" fill="#4C73EB"/>
<circle r="2.5" transform="matrix(1 -1.74846e-07 -1.74846e-07 -1 218.5 16.6006)" fill="#4C73EB"/>
<circle r="2.5" transform="matrix(1 -1.74846e-07 -1.74846e-07 -1 449.5 137.601)" fill="#4C73EB"/>
<circle r="2.5" transform="matrix(1 -1.74846e-07 -1.74846e-07 -1 776.5 244.5)" fill="#4C73EB"/>
<circle r="6.5" transform="matrix(1 -1.74846e-07 -1.74846e-07 -1 825 50.0002)" stroke="#3ED9B0"/>
<circle r="6.5" transform="matrix(1 -1.74846e-07 -1.74846e-07 -1 513 24.1006)" stroke="#3ED9B0"/>
<circle r="6.5" transform="matrix(1 -1.74846e-07 -1.74846e-07 -1 7 128.101)" stroke="#3ED9B0"/>
<rect width="7" height="7" transform="matrix(0.707107 -0.707107 -0.707107 -0.707107 218.95 192)" fill="#FFAF49"/>
<rect width="7" height="7" transform="matrix(0.707107 -0.707107 -0.707107 -0.707107 692.95 163)" fill="#FFAF49"/>
</svg>
