<svg width="266" height="184" viewBox="0 0 266 184" fill="none" xmlns="http://www.w3.org/2000/svg">
<circle cx="245.267" cy="24.9053" r="0.858176" fill="#F8F9FE"/>
<circle cx="66.4229" cy="8.77163" r="0.858176" fill="#F8F9FE"/>
<circle cx="124.264" cy="28.8529" r="1.90289" stroke="white"/>
<circle cx="242.006" cy="59.404" r="1.90289" stroke="white"/>
<circle cx="231.708" cy="168.564" r="1.90289" stroke="white"/>
<rect x="143.659" y="17.2874" width="2.40289" height="2.40289" transform="rotate(45 143.659 17.2874)" fill="#3ED9B0"/>
<rect x="257.092" y="149.684" width="2.40289" height="2.40289" transform="rotate(45 257.092 149.684)" fill="#3ED9B0"/>
<rect x="264.301" y="86.5224" width="2.40289" height="2.40289" transform="rotate(45 264.301 86.5224)" fill="#3ED9B0"/>
<circle cx="1.54466" cy="0.876427" r="0.858176" transform="rotate(-180 1.54466 0.876427)" fill="#4C73EB"/>
<circle cx="0.858132" cy="178.691" r="0.858176" transform="rotate(-180 0.858132 178.691)" fill="#4C73EB"/>
<circle cx="12.7009" cy="131.491" r="1.90289" transform="rotate(-180 12.7009 131.491)" stroke="#3ED9B0"/>
<circle cx="66.5944" cy="65.2397" r="1.90289" transform="rotate(-180 66.5944 65.2397)" stroke="#3ED9B0"/>
<rect x="91.6357" y="183.977" width="2.40289" height="2.40289" transform="rotate(-135 91.6357 183.977)" fill="#FFAF49"/>
<rect x="57.9954" y="103.651" width="2.40289" height="2.40289" transform="rotate(-135 57.9954 103.651)" fill="#FFAF49"/>
</svg>
