<svg width="754" height="536" viewBox="0 0 754 536" fill="none" xmlns="http://www.w3.org/2000/svg">
<circle cx="719.5" cy="66.5" r="2.5" fill="#F8F9FE"/>
<circle cx="218.5" cy="23.5" r="2.5" fill="#F8F9FE"/>
<circle cx="377" cy="114" r="6.5" stroke="white"/>
<circle cx="710" cy="203" r="6.5" stroke="white"/>
<circle cx="675" cy="491" r="6.5" stroke="white"/>
<rect x="481.95" y="13" width="7" height="7" transform="rotate(45 481.95 13)" fill="#3ED9B0"/>
<rect x="748.95" y="436" width="7" height="7" transform="rotate(45 748.95 436)" fill="#3ED9B0"/>
<circle cx="4.5" cy="2.50002" r="2.5" transform="rotate(-180 4.5 2.50002)" fill="#4C73EB"/>
<circle cx="2.5" cy="520.5" r="2.5" transform="rotate(-180 2.5 520.5)" fill="#4C73EB"/>
<circle cx="37" cy="383" r="6.5" transform="rotate(-180 37 383)" stroke="#3ED9B0"/>
<circle cx="194" cy="190" r="6.5" transform="rotate(-180 194 190)" stroke="#3ED9B0"/>
<rect x="266.95" y="535.9" width="7" height="7" transform="rotate(-135 266.95 535.9)" fill="#FFAF49"/>
<rect x="168.95" y="301.9" width="7" height="7" transform="rotate(-135 168.95 301.9)" fill="#FFAF49"/>
</svg>
