<svg width="0" height="0" class="hidden">
    <symbol viewBox="0 0 20 20" fill="none" xmlns="http://www.w3.org/2000/svg" id="close">
      <path fill="currentColor" d="M1.414 0l17.678 17.677-1.414 1.415L0 1.414z"></path>
      <path fill="currentColor" d="M.414 18L18.092.323l1.414 1.414L1.828 19.414z"></path>
    </symbol>
  <symbol viewBox="0 0 607 655" fill="inherit" xmlns="http://www.w3.org/2000/svg" id="faq-sect-img">
    <path d="M606.149 0v655c-52.836-10.57-97.987-48.685-125.847-93.846-15.37-25.303-26.258-53.169-32.982-81.995-6.725-28.826-6.085-59.575-15.691-87.44-6.405-18.577-17.612-30.108-32.983-41.638-10.888-8.328-19.854-16.976-26.258-29.147-13.129-25.303-10.567-43.24-7.365-79.112 3.202-33.631-6.725-69.184-22.736-99.612-14.41-27.545-33.303-45.802-60.202-61.496-30.1-17.296-65.965-18.257-94.145-39.076C168.727 27.225 161.362 15.374 157.519 0h448.63z" fill="inherit"></path>
    <path d="M606.528 651V61c-47.816 9.52-88.676 43.853-113.888 84.533-13.91 22.792-23.763 47.892-29.849 73.858-6.086 25.966-5.506 53.663-14.2 78.763-5.796 16.734-15.938 27.12-29.849 37.506-9.853 7.501-17.967 15.291-23.763 26.254-11.881 22.793-9.563 38.949-6.665 71.262 2.898 30.293-6.085 62.318-20.575 89.726-13.041 24.812-30.139 41.257-54.481 55.394-27.241 15.579-59.698 16.445-85.199 35.198-17.388 12.983-24.053 23.658-27.531 37.506h406z" fill="currentColor"></path>
    <g opacity=".5" fill="#277863">
      <path opacity=".5" d="M200.934 586.234l47.378 27.489c2.115 1.269 6.346 1.269 8.884-.423l15.651-9.304c2.539-1.692 2.962-3.806.424-5.075l-47.379-27.489c-2.115-1.269-6.345-1.269-8.883.423l-15.652 9.304c-2.538 1.692-2.538 3.806-.423 5.075zm-145.941-66.82C24.535 519.414 0 532.524 0 548.595c0 16.07 24.535 29.181 54.993 29.181 30.457 0 54.992-13.111 54.992-29.181 0-16.494-24.535-29.181-54.992-29.181z"></path>
      <path opacity=".5" d="M219.125 483.889c-10.576 1.269-27.496 15.648-45.263 21.992-17.767 6.766-64.722 13.11-73.606 16.916-8.883 3.806-13.96 11.419-2.538 18.608 11.845 7.19 29.612-9.727 50.763-15.647 21.574-5.921 84.181-15.225 93.064-24.952 8.883-9.727-10.152-18.608-22.42-16.917zm47.378 35.525c-16.075 7.189-16.498 17.762 3.384 24.951 19.882 7.19 37.649 13.534 47.801 23.683 10.153 10.15 23.689 21.146 41.456 12.265 7.614-3.383 9.73-10.573 10.999-16.917 1.692-10.149 1.269-18.185-7.615-21.991-21.151-9.304-42.302-20.3-53.723-23.683-10.999-3.383-28.343-4.652-42.302 1.692zM518.2 587.079l-52.455 30.45c-2.961 1.692-8.037 1.269-10.998-.423l-58.377-33.833c-3.384-1.691-3.807-4.652-.846-6.343l52.454-30.45c2.961-1.692 8.038-1.269 10.999.423l58.377 33.833c3.384 2.114 3.807 4.652.846 6.343z"></path>
    </g>
    <path d="M219.548 293.579c-11.422-5.074-17.344-22.837-18.613-34.255-1.269-11.419.423-23.683-3.807-34.679-3.384-8.458-10.153-12.687-19.459-12.265-4.653 0-9.307 1.692-12.268 4.23-2.538 1.691-3.807 4.652-3.384 7.612v1.269c.423.846.846 2.114 1.692 2.96l.423.423c1.692 1.692 3.807 2.537 5.5 2.115 3.384.422 7.191.845 8.883 2.537 4.23 3.806 2.961 13.11 3.807 18.608.846 5.075 1.269 14.379 2.115 19.454 3.807 13.11 17.344 27.066 35.111 21.991z" fill="#2C1D1B"></path>
    <path d="M154.826 224.222s5.076-6.767 11.844-2.115c8.884 5.921 6.346 12.265 3.807 13.533-2.115 1.692-15.651-11.418-15.651-11.418z" fill="#FFB049"></path>
    <path d="M223.355 467.396l4.23 8.881s-2.115 5.921-3.807 9.304c-1.692 3.384-4.653 2.961-7.614 7.613-2.538 4.229.423 7.189 8.46 7.612 8.037.423 10.153-3.806 12.691-9.304 2.538-5.498 6.345-12.264 6.345-16.916 0-7.19-5.922-6.767-9.306-9.304-2.539-1.269-10.999 2.114-10.999 2.114zm-98.986 35.102c-1.269 3.383-3.385 7.612-10.153 8.881-8.883 1.268-10.998 0-14.806 2.537-3.807 2.538 1.692 7.613 5.923 10.573 6.345 4.652 13.536 2.537 18.189 1.269 6.346-1.269 12.691-3.384 12.268-9.727-.423-6.344 2.115-10.15 2.115-10.15s-10.998-8.881-13.536-3.383z" fill="#FFC9B6"></path>
    <path d="M113.37 511.802s0 2.961 3.384 4.652c3.807 1.692 10.998 2.115 13.536 0 2.539-2.114 5.923-3.383 5.923-3.383s2.538 7.19-5.923 11.419c-8.883 3.806-13.536 6.766-22.42 4.229-8.883-2.538-14.382-8.458-9.73-14.379 2.116-2.961 15.23-2.538 15.23-2.538zm104.063-74.855c-3.807-2.537-7.191-3.383-11.422-4.229 10.999-19.031 10.999-37.639 6.769-59.208-1.269-5.921-3.807-19.454-9.73-22.837-2.538-1.269-30.88-.423-33.841-1.269-2.538 8.881-5.5 20.723-5.923 25.375-.846 12.687 9.307 15.648 9.307 15.648s.423 6.766 1.692 12.264c2.538 12.265 7.614 29.604 15.229 39.331-.423 6.767 3.807 8.458 9.306 9.727 4.23.846 19.882 16.916 28.765 24.106 0 0 9.307-1.269 9.307-9.727-5.922-6.344-6.345-19.877-19.459-29.181z" fill="#729CF0"></path>
    <path d="M162.863 375.202c.423-5.075 3.385-16.494 5.923-25.375-5.076-1.692-12.268-2.96-14.383-3.806-16.921 25.374-21.997 57.516-22.42 87.542-3.807 6.344-2.538 14.379-2.538 21.569 0 13.956-2.961 27.912-4.653 41.868-.423 2.115-.846 4.652-1.692 7.613 2.961 1.691 12.69 3.806 13.536 3.806 4.653-13.956 13.537-29.181 16.075-43.983.846-3.806.846-8.035.423-12.264-.423-3.807-2.115-7.613-.846-11.419 1.269-2.96 4.653-6.344 6.345-8.881 2.538-4.229 5.077-8.881 7.615-13.533 2.538-4.652 5.076-10.15 7.191-15.225-1.269-5.921-1.692-12.265-1.692-12.265s-9.73-2.96-8.884-15.647z" fill="#5985DD"></path>
    <path d="M143.404 269.474c7.615-9.727 11.845-8.458 21.151-2.961 11.422 6.344 20.305 10.573 25.382 14.802 8.46 6.767 13.113 21.146 14.805 39.331.423 2.538 1.692 12.265 2.961 14.802 3.385 9.727 1.693 11.419-.846 13.956 1.269 1.269 2.539 7.19 0 8.881-13.113 7.613-42.302 8.881-52.031-9.727-.423-1.268.846-5.075 1.692-6.343-2.115-1.269-3.807-4.229-3.807-6.767-3.807-2.114-7.192-5.075-8.038-10.573-7.614-1.691-16.074-5.92-13.536-15.647 1.269-4.652 5.076-14.802 6.345-20.3 2.961-10.573 3.807-16.494 5.922-19.454z" fill="#FFB049"></path>
    <path d="M149.326 274.548c2.115-.423 7.615-3.383 5.923-13.533-.423-2.96 12.69-10.573 12.69-10.15 0 9.304 1.269 19.877 5.5 24.952-6.346 6.344-13.114 22.837-23.69 20.723-5.922-1.692-4.653-10.15-.423-21.992z" fill="#FFB9A4"></path>
    <path d="M144.25 271.588s-1.692 9.727-2.961 13.11c-1.269 3.384-3.807 11.419-3.807 11.419s3.384-1.692 5.499-.846c1.692.846 3.384 3.383 5.076 3.806 1.693.423 3.808 0 3.808 0l1.269-4.652s-3.384-.845-3.384-6.766c0-5.498.423-13.533.423-13.533l-5.923-2.538z" fill="#FDA32D"></path>
    <path d="M169.208 267.359s-2.961 6.766-5.499 11.841c-2.961 5.075-8.883 10.573-11.844 13.111-4.654 3.806-2.962 10.149-2.962 10.149s1.693-3.806 3.808-3.383c2.115.423 4.23 2.538 6.768 4.652 1.692-2.96 6.345-5.921 9.729-11.418 2.962-5.075 8.038-13.956 5.923-20.3-1.692-5.921-5.923-4.652-5.923-4.652z" fill="#FDA32D"></path>
    <path d="M138.328 239.447c8.46-1.692 12.69-2.115 19.882.846 4.23 1.269 8.037 2.96 11.844 5.498.423 0 .423.423.423.846-1.692 10.995-5.499 22.414-17.767 27.066-10.152 3.806-15.651-7.19-17.343-14.379-2.115-8.458-2.962-18.608 2.961-19.877z" fill="#FFC9B6"></path>
    <path d="M164.978 228.451c-8.037-6.344-17.767-5.498-23.266-1.269-5.922 4.652-10.152 11.419-7.614 19.031 2.538.423 6.345-1.691 8.46-3.383 3.384 3.806 9.307 8.035 16.498 7.19 1.269 4.652 4.23 14.379 8.46 14.379 8.038-17.34 10.153-25.798-2.538-35.948z" fill="#3F2A28"></path>
    <path d="M156.941 255.094s2.115-6.766 6.345-3.383c4.23 3.383-1.692 10.15-1.692 10.15l-4.653-6.767z" fill="#FFC9B6"></path>
    <path d="M223.355 486.004s-.424 1.692-4.654 4.23c-4.23 2.537-5.076 6.343-5.076 8.458 0 2.114 4.653 5.075 10.999 4.652 6.345-.423 10.152-2.961 13.113-8.881 2.961-6.344 7.615-19.877 6.346-22.838-.847-1.691-3.385-2.537-3.808-2.96 0 0 .846 2.96 0 5.921-1.269 4.652-2.961 8.035-5.076 11.418-2.115 3.807-5.922 4.23-8.883 2.961-2.538-1.269-2.961-2.961-2.961-2.961z" fill="#729CF0"></path>
    <path d="M4.23 517.722v27.067c0 14.379 21.575 25.797 48.225 25.797 26.65 0 48.224-11.418 48.224-25.797v-27.067H4.23z" fill="#352221"></path>
    <path d="M52.455 559.168c-26.65 0-48.225-11.419-48.225-25.798v3.806c0 14.379 21.575 25.798 48.225 25.798 26.65 0 48.224-11.419 48.224-25.798v-3.806c.423 14.379-21.574 25.798-48.224 25.798z" fill="#6E8FF4"></path>
    <path d="M153.979 359.976s-5.076 14.379-11.844 29.604c-7.192 14.802-19.036 20.3-36.803 12.264-17.767-8.035 19.036-60.053 19.036-60.053l29.611 18.185z" fill="#352221"></path>
    <path d="M52.455 493.194c-26.65 0-48.225 11.418-48.225 25.797 0 14.379 21.575 25.798 48.225 25.798 26.65 0 48.224-11.419 48.224-25.798.423-14.379-21.574-25.797-48.224-25.797z" fill="#472F2E"></path>
    <path d="M93.91 507.15c-4.653-9.727-21.573-16.917-41.455-16.917-19.882 0-36.803 7.19-41.456 16.917h-1.27v5.498c0 12.687 19.036 22.837 42.726 22.837 23.689 0 42.725-10.15 42.725-22.837v-5.498h-1.27z" fill="#6E8FF4"></path>
    <path d="M52.455 483.89c-23.69 0-42.726 10.15-42.726 22.837s19.036 22.837 42.726 22.837c23.689 0 42.725-10.15 42.725-22.837S76.144 483.89 52.454 483.89z" fill="#4C73EB"></path>
    <path d="M32.996 502.075c-6.346-3.384-8.884-6.767-8.884-9.727 0-3.384 3.808-5.921 6.769-8.036 2.96-1.691 6.345-2.96 9.73-4.652 5.075-2.114 10.575-4.652 13.536-7.189 5.499-5.075 6.345-7.19 8.037-16.917 2.538-13.533 15.229-15.224 15.229-15.224l.423 2.537c-.423 0-10.576 1.269-13.114 13.11-2.115 9.727-2.96 12.265-8.883 18.186-2.961 2.96-8.46 5.497-14.383 7.612-3.384 1.269-6.768 2.96-9.306 4.652-3.807 2.114-5.5 3.806-5.5 5.498 0 1.269 1.27 3.806 7.615 7.612l-1.27 2.538z" fill="#F4EBEA"></path>
    <path d="M79.951 557.476c0-7.613 4.653-16.494 10.576-19.877 1.269-.846 2.96-1.269 4.653-1.269 1.269 0 3.807 0 6.768 1.692 3.384 2.115 3.807 6.767 3.807 6.767l-11.844 24.106s-3.807 1.691-7.615-.423c-2.538-1.269-3.807-3.384-4.653-4.652-.423-.423-.846-1.692-.846-2.115-.846-.846-.846-2.537-.846-4.229z" fill="#281818"></path>
    <path d="M105.332 548.172c0 7.612-4.653 16.493-10.575 19.877-5.923 3.383-10.576 0-10.576-8.036 0-7.612 4.653-16.493 10.576-19.877 5.922-2.96 10.575.423 10.575 8.036z" fill="#3F2A28"></path>
    <path d="M104.063 549.44c0 6.767-4.23 14.379-9.306 17.34-5.077 2.96-9.307 0-9.307-6.767 0-6.766 4.23-14.379 9.307-17.339 5.076-2.961 9.306 0 9.306 6.766z" fill="#6E8FF4"></path>
    <path d="M101.525 551.978c0 3.384-2.115 7.19-4.653 8.458-2.538 1.269-4.653 0-4.653-3.383s2.115-7.189 4.653-8.458c2.538-1.269 4.653 0 4.653 3.383z" fill="#fff"></path>
    <path d="M98.36 401.772l-37.19 86.216 14.374 6.196 37.188-86.216-14.373-6.196z" fill="#352221"></path>
    <path d="M85.873 499.537l-36.38 21.146-25.38-14.802 36.38-21.146 25.38 14.802z" fill="#352221"></path>
    <path d="M28.343 493.617c-3.385 2.114-4.23 8.035-4.23 12.264 4.23 0 17.343-4.652 17.343-4.652l-2.115-5.498-10.998-2.114z" fill="#352221"></path>
    <path d="M85.873 489.387l-6.345 8.881-26.228 10.15-24.958-14.802 32.15-18.608 25.381 14.379z" fill="#543A3A"></path>
    <path d="M85.873 489.387s1.27 1.269 1.27 4.23v4.652l-9.307 5.497 2.538-8.035 5.5-6.344z" fill="#472F2E"></path>
    <path d="M85.873 489.387s-28.765 16.917-32.15 18.609c-3.383 1.691-4.23 8.035-4.23 12.264 5.5-3.383 37.65-21.568 37.65-21.568l-1.27-9.305z" fill="#472F2E"></path>
    <path d="M43.571 480.506v9.727c0 4.229 6.769 8.035 15.229 8.035 8.46 0 15.229-3.383 15.229-8.035v-9.727H43.57z" fill="#6E8FF4"></path>
    <path d="M58.377 472.471c-8.46 0-15.229 3.383-15.229 8.036 0 4.229 6.769 8.035 15.23 8.035 8.46 0 15.228-3.383 15.228-8.035 0-4.23-6.768-8.036-15.229-8.036z" fill="#4C73EB"></path>
    <path d="M72.76 517.722c-8.46 0-16.921-3.383-17.344-3.806-.846-.423-.846-.846-.846-1.692.423-.845.846-.845 1.692-.845 0 0 13.114 5.075 22.42 2.537 10.153-2.96 15.229-8.881 13.537-16.071-.846-2.96-2.115-5.497-3.384-7.612-1.27-2.537-2.962-4.652-2.539-7.189.423-8.036 4.23-13.534 7.192-17.34.846-.846 1.269-1.691 1.692-2.537 4.23-6.767 2.115-13.956 2.115-14.379-.423-.846 0-1.269.846-1.692.846-.423 1.269 0 1.692.846 0 .423 2.538 8.458-2.115 16.493-.423.846-1.27 1.692-2.115 2.538-2.538 3.383-6.346 8.458-6.346 15.648 0 1.691.846 3.806 2.539 5.92 1.269 2.115 2.96 4.652 3.807 8.036 2.115 8.458-3.807 15.647-15.229 19.031-2.961 1.691-5.5 2.114-7.614 2.114z" fill="#F4EBEA"></path>
    <path d="M135.79 349.827c-2.961-3.383-7.191-5.921-7.191-5.921s-.424-.423-1.693-.846c-4.653-2.96-10.998-5.075-10.998-5.075s-21.574 37.217-29.189 55.402c-5.499 13.956-16.497 46.943-16.497 46.943s0 16.916 1.692 22.414v.846c.846 5.921 5.076 8.881 9.73 5.921 1.691-.846 4.23-2.538 6.768-4.652 10.998-8.036 22.843-33.833 30.034-52.018 7.614-18.186 22.42-52.018 22.42-52.018s-2.115-7.613-5.076-10.996z" fill="#6E8FF4"></path>
    <path d="M131.138 347.712c-2.961-3.384-7.191-5.921-7.191-5.921s-3.807-2.538-8.038-3.806c-3.807-.846-10.998.845-10.998.845s-10.576 26.221-18.19 44.406c-7.614 18.185-17.344 45.252-16.075 60.899.423 3.807.846 7.19 1.27 9.727.845 5.921 5.076 8.882 9.729 5.921 1.692-1.269 4.23-2.537 6.768-4.652 10.999-8.035 22.843-33.833 30.034-52.018 7.615-18.185 18.19-44.406 18.19-44.406s-2.538-7.612-5.499-10.995z" fill="#4C73EB"></path>
    <path d="M170.478 374.355l-22.844-12.687-4.23 6.343 23.689 13.534 3.385-7.19z" fill="#6E8FF4"></path>
    <path d="M171.324 376.47c0 2.114-1.269 4.229-2.538 5.075-1.269.845-2.538 0-2.538-2.115s1.269-4.229 2.538-5.075c1.269-.423 2.538.423 2.538 2.115z" fill="#4C73EB"></path>
    <path d="M110.408 339.677l-23.266-13.11-3.384 7.189 23.266 13.11 3.384-7.189z" fill="#6E8FF4"></path>
    <path d="M87.988 328.681c0 2.115-1.269 4.229-2.538 5.075-1.269.846-2.538 0-2.538-2.114 0-2.115 1.27-4.23 2.538-5.075 1.27-.846 2.538 0 2.538 2.114z" fill="#6E8FF4"></path>
    <path d="M126.06 302.883s-2.538 6.344-3.807 9.304l-.846 2.961s-11.421 8.881-16.075 12.687c-4.653 3.806-8.037 1.269-13.113 4.229-5.922 3.383-5.5 5.498-5.5 9.727s5.5 7.612 5.5 7.612 14.382-10.149 20.305-13.11c11.421-5.498 21.151-16.916 21.151-16.916s-3.807-2.961-3.384-7.19c0-2.96 1.692-6.766 1.692-6.766s-1.692-2.961-5.923-2.538z" fill="#FFB9A4"></path>
    <path d="M153.557 361.245v.846l-19.882-11.419-25.382-14.802s-8.46 5.498-13.536 10.996c-.423.423-.846.846-.846 1.269h-1.27v5.075c0 3.383 2.116 6.343 4.23 8.458 3.385 3.806 15.23 10.996 21.998 12.687 6.768 1.692 15.229 3.384 24.112 0 8.883-3.383 16.498-9.304 16.498-9.304v-4.652l-5.922.846z" fill="#352221"></path>
    <path d="M159.479 360.399l-25.381-14.801-25.381-14.802s-8.46 5.497-13.537 10.995c-4.653 5.921-1.692 10.996 1.692 15.225 3.385 3.806 15.229 10.996 21.998 12.688 6.768 1.691 15.228 3.383 24.112 0 8.46-3.384 16.497-9.305 16.497-9.305z" fill="#472F2E"></path>
    <path d="M182.745 322.338c-.846 4.229.423 10.995 0 14.802-7.192 3.806-19.459 16.493-27.497 22.837-5.499 1.269-8.883 0-12.69 7.189-2.115 4.229.846 9.304 4.653 11.419 4.653 2.114 8.037-.423 8.46-3.383-2.115-2.115-2.115-5.075 3.385-7.19 7.191-.846 22.843-9.727 28.342-13.956 5.076-4.229 7.614-3.383 8.46-6.344 2.539-7.612 7.615-22.414 7.615-22.414s-17.767-2.115-20.728-2.96z" fill="#FFC9B6"></path>
    <path d="M188.667 280.047c-7.614 4.229-10.998 17.762-9.306 29.181 1.269 9.727 2.538 13.533 2.538 13.533s12.267 1.691 21.997 3.806c5.922-11.841 5.076-20.3 4.653-30.45 0-10.149-12.691-16.493-19.882-16.07z" fill="#FDA32D"></path>
    <path d="M181.476 322.761s5.076-1.692 11.421-.846 11.845 2.537 11.845 2.537l-2.538 5.921s-7.192-2.115-10.999-2.115c-3.807-.422-8.46.846-8.46.846l-1.269-6.343z" fill="#FFCB87"></path>
    <path d="M137.482 265.668s-3.384 4.229-5.499 8.881c-2.115 4.652-2.961 10.996-3.807 15.225-.423 4.229 0 6.766 0 6.766l5.922 2.961c.846-2.115 2.115-7.19 3.807-11.419 2.115-6.344 4.653-16.071 4.653-16.071s-3.384-3.383-5.076-6.343z" fill="#FDA32D"></path>
    <path d="M128.176 296.541l-2.115 6.343 5.922 2.538 2.538-6.767s-2.538-2.114-6.345-2.114z" fill="#FFCB87"></path>
    <path d="M509.74 454.285v88.812c0 .845 1.269 1.691 2.961 1.691s2.962-.846 2.962-1.691v-88.812h-5.923z" fill="#3D2828"></path>
    <path d="M513.125 452.594c-1.692 0-2.961.846-2.961 1.691 0 .846 1.269 1.692 2.961 1.692s2.961-.846 2.961-1.692c0-.845-1.269-1.691-2.961-1.691z" fill="#593D3D"></path>
    <path d="M510.586 453.863h4.653V430.18c0-8.036-5.076-17.763-11.421-21.569l-23.69-13.533c-3.384-1.692-6.345-2.115-8.883-.423-2.961 1.692-4.653 5.498-4.653 10.15v109.111h4.653V404.805c0-2.96.846-5.498 2.538-6.344 1.269-.846 2.538-.423 4.653.423l23.689 13.533c5.077 2.961 9.307 10.996 9.307 17.763v23.683h-.846z" fill="#fff"></path>
    <path d="M512.701 453.017c-1.269 0-2.115.423-2.115 1.269 0 .846.846 1.269 2.115 1.269 1.269 0 2.115-.423 2.115-1.269.423-.846-.846-1.269-2.115-1.269z" fill="#D8C4C3"></path>
    <path d="M524.123 551.132s0 9.304-4.23 11.842c-4.654 2.96-13.537-16.071-13.537-16.071l17.344 2.115.423 2.114z" fill="#2B1B1A"></path>
    <path d="M452.632 607.379c0-4.652 2.961-10.15 6.346-12.264.846-.423 2.115-.846 2.961-.846.846 0 2.538 0 4.23 1.269 2.115 1.268 2.115 4.229 2.115 4.229l-7.191 14.802s-2.115 1.269-4.653 0c-1.27-.846-2.539-2.115-2.962-2.961 0-.422-.423-.845-.423-1.268 0-.846-.423-1.692-.423-2.961z" fill="#281818"></path>
    <path d="M468.707 601.881c0 4.652-2.961 10.15-6.345 12.265-3.384 2.114-6.345 0-6.345-4.652s2.961-10.15 6.345-12.265c3.384-2.537 6.345 0 6.345 4.652z" fill="#3F2A28"></path>
    <path d="M466.169 603.573c0 2.538-1.692 5.498-3.384 6.767-2.116 1.269-3.385 0-3.385-2.538 0-2.537 1.692-5.497 3.385-6.766 1.692-1.269 3.384 0 3.384 2.537z" fill="#fff"></path>
    <path d="M465.746 595.115h-4.23v12.264c0 .846.423 1.269.846 1.692l1.269.845 1.269-1.691h-.423c.846-.846 1.269-2.115 1.269-2.961v-10.149z" fill="#D8C4C3"></path>
    <path d="M462.785 595.115v12.687c0 1.692.846 2.114 2.115 1.692 1.269-.846 2.115-2.538 2.115-3.807v-10.572h-4.23z" fill="#EDDCDA"></path>
    <path d="M399.332 576.084c0-4.652 2.961-10.15 6.345-12.264.846-.423 2.115-.846 2.961-.846.846 0 2.538 0 4.23 1.269 2.115 1.268 2.115 4.229 2.115 4.229l-7.191 14.802s-2.115 1.268-4.653 0c-1.269-.846-2.538-2.115-2.961-2.961 0-.423-.423-.846-.423-1.268-.423-1.269-.423-2.115-.423-2.961z" fill="#281818"></path>
    <path d="M414.983 570.163c0 4.652-2.961 10.15-6.345 12.265-3.384 2.114-6.346 0-6.346-4.652s2.962-10.15 6.346-12.265c3.384-2.114 6.345 0 6.345 4.652z" fill="#3F2A28"></path>
    <path d="M412.445 572.278c0 2.538-1.692 5.498-3.384 6.767-2.115 1.268-3.384 0-3.384-2.538 0-2.537 1.692-5.498 3.384-6.766 2.115-1.269 3.384-.423 3.384 2.537z" fill="#fff"></path>
    <path d="M412.022 563.397h-4.23v12.265c0 .845.423 1.268.846 1.691l1.269.846 1.269-1.692h-.423c.846-.845 1.269-2.114 1.269-2.96v-10.15z" fill="#D8C4C3"></path>
    <path d="M409.061 563.397v12.688c0 1.691.846 2.114 2.115 1.691 1.269-.846 2.115-2.537 2.115-3.806v-10.573h-4.23z" fill="#EDDCDA"></path>
    <path d="M499.588 572.278c0-7.613 4.653-16.917 10.575-20.3 1.693-.846 3.385-1.269 4.654-1.269 1.269 0 3.807 0 6.768 2.115 3.384 2.114 3.807 7.189 3.807 7.189l-11.844 24.106s-3.808 1.692-7.615-.423c-2.538-1.268-3.807-3.383-4.653-4.652-.423-.423-.846-1.691-.846-2.114-.423-1.692-.846-2.961-.846-4.652z" fill="#281818"></path>
    <path d="M525.815 562.551c0 7.612-4.653 16.916-10.575 20.299-5.923 3.384-10.576 0-10.576-8.035 0-7.612 4.653-16.916 10.576-20.3 5.499-3.383 10.575.423 10.575 8.036z" fill="#3F2A28"></path>
    <path d="M521.585 565.934c0 4.229-2.538 9.304-5.922 10.996-3.384 1.691-5.922 0-5.922-4.229 0-4.23 2.538-9.305 5.922-10.996 3.384-2.115 5.922 0 5.922 4.229z" fill="#fff"></path>
    <path d="M521.162 567.203c0 2.96-1.692 6.344-3.807 7.612-2.115 1.269-3.807 0-3.807-2.96s1.692-6.344 3.807-7.612c2.115-1.269 3.807 0 3.807 2.96z" fill="#3F2A28"></path>
    <path d="M501.28 570.587l-2.538-8.881-38.072-21.992c-6.769-3.806-17.344-4.229-23.266-.846l-30.881 17.763v-.423h-10.152v10.15c.423 2.537 2.115 5.075 5.499 7.189l42.725 24.529c6.768 3.806 17.344 4.229 23.266.846l33.419-19.031c-.423-1.269-.423-2.961-.423-4.229 0-1.692 0-3.384.423-5.075z" fill="#352221"></path>
    <path d="M457.709 518.568c-1.692.423-3.385.846-4.654 1.692l-52.031 30.45c-5.922 3.383-5.076 9.304 1.692 13.533l42.725 24.529c6.768 3.806 17.344 4.229 23.266.846l33.419-19.031c0-2.538 3.807-22.838 4.653-23.684l-49.07-28.335z" fill="#472F2E"></path>
    <path d="M456.44 518.568l5.076-24.952-5.076-2.96s-3.808 2.114-10.999 6.343c-7.614 4.23-9.306 4.652-14.806 15.648-4.653 9.304-8.883 23.26-10.152 26.644l5.076 2.96 30.881-23.683z" fill="#593D3D"></path>
    <path d="M461.516 521.528v-27.912s-3.807 2.115-10.999 6.344c-7.614 4.229-9.306 4.652-14.805 15.647-4.654 9.304-8.884 23.261-10.153 26.644l35.957-20.723z" fill="#352221"></path>
    <path d="M453.478 524.911c-19.882 0-36.379-8.458-36.379-19.453v51.595c0 10.573 16.074 19.454 36.379 19.454 19.882 0 36.38-8.459 36.38-19.454v-51.595c0 10.572-16.075 19.453-36.38 19.453z" fill="#D8C4C3"></path>
    <path d="M417.099 505.458c0 10.573 16.074 19.454 36.379 19.454 19.882 0 36.38-8.458 36.38-19.454v-51.172h-72.759v51.172z" fill="#352221"></path>
    <path d="M417.099 499.96c0 10.573 16.074 19.454 36.379 19.454 19.882 0 36.38-8.458 36.38-19.454v-51.172h-72.759v51.172z" fill="#4C73EB"></path>
    <path d="M453.478 557.053c-19.882 0-36.379-8.458-36.379-19.454v2.961c0 10.573 16.074 19.454 36.379 19.454 19.882 0 36.38-8.459 36.38-19.454v-2.961c0 10.573-16.075 19.454-36.38 19.454z" fill="#CCB5B4"></path>
    <path d="M453.478 545.635c-19.882 0-36.379-8.458-36.379-19.454v2.96c0 10.573 16.074 19.454 36.379 19.454 19.882 0 36.38-8.458 36.38-19.454v-2.96c0 10.573-16.075 19.454-36.38 19.454z" fill="#CCB5B4"></path>
    <path d="M508.048 545.634l16.075-16.07-5.076-2.961s-3.808 2.115-10.999 6.344c-7.614 4.229-9.306 4.652-14.806 15.648-4.653 9.304-8.883 23.26-10.152 26.643l5.076 2.96 10.999-8.458 8.883-24.106z" fill="#593D3D"></path>
    <path d="M432.328 502.498l-16.075-9.304v-15.648l16.075 9.304v15.648z" fill="#3D2828"></path>
    <path d="M422.175 474.163l-5.922 3.383 16.075 9.304 5.922-3.383-16.075-9.304z" fill="#593D3D"></path>
    <path d="M432.328 486.85v15.647l5.922-2.96v-16.071l-5.922 3.384zm81.642 63.436c4.23-2.537 8.038-2.114 10.153.846v-21.569s-3.808 2.115-10.999 6.344c-7.614 4.229-9.306 4.652-14.806 15.648-4.653 9.304-8.883 23.26-10.152 26.643l13.114-7.612c1.692-8.458 6.768-16.917 12.69-20.3z" fill="#352221"></path>
    <path d="M431.481 578.622l-16.075-9.304V540.56l16.075 9.304v28.758z" fill="#3D2828"></path>
    <path d="M421.329 537.599l-5.923 2.961 16.075 9.304 5.922-2.961-16.074-9.304z" fill="#593D3D"></path>
    <path d="M431.481 549.863v28.758l5.923-3.383v-28.335l-5.923 2.96z" fill="#352221"></path>
    <path d="M432.75 591.732c-1.692 0-3.384-.423-4.653-.846-8.883-2.538-12.268-7.612-13.537-11.419-2.115-6.766 0-15.647 5.5-23.683.846-1.268 2.538-1.268 3.807-.423 1.269.846 1.269 2.538.423 3.807-3.807 5.075-6.769 12.687-5.076 19.031 1.269 3.806 4.653 6.766 10.152 8.458 3.384.846 6.345.423 9.729-1.269 6.346-3.806 11.422-13.11 13.537-25.375 2.961-15.224 1.269-48.634.423-70.626-.423-7.612-.423-13.956-.423-17.339 0-1.269 1.269-2.538 2.538-2.538s2.538 1.269 2.538 2.538c0 3.383.423 9.304.423 17.339.846 22.414 2.115 56.247-.423 71.895-2.538 13.533-8.46 24.106-16.074 29.181-2.962.423-5.923 1.269-8.884 1.269z" fill="#593D3D"></path>
    <path d="M494.511 452.171v-4.652h-1.269c-4.23-9.727-20.305-16.916-39.764-16.916-19.459 0-35.533 7.189-39.764 16.916h-1.269v5.075c0 11.842 18.19 21.568 41.033 21.568s41.033-9.726 41.033-21.991c0 0 0 .423 0 0z" fill="#352221"></path>
    <path d="M453.478 425.104c-22.42 0-41.033 9.727-41.033 21.569 0 11.841 18.19 21.568 41.033 21.568 22.42 0 41.033-9.727 41.033-21.568 0-11.842-18.19-21.569-41.033-21.569z" fill="#472F2E"></path>
    <path d="M453.478 455.554c-19.459 0-35.11-8.035-36.379-18.185v8.035c1.269 10.15 16.92 18.185 36.379 18.185 19.882 0 36.38-8.458 36.38-19.453v-7.19c-.846 10.15-16.498 18.608-36.38 18.608z" fill="#4C73EB"></path>
    <path d="M458.132 406.497h-8.883c-17.344 0-31.304 13.956-31.727 30.872 1.27 10.15 16.921 18.185 36.38 18.185 19.459 0 35.534-8.458 36.38-18.608-1.269-16.916-15.229-30.449-32.15-30.449z" fill="#352221"></path>
    <path d="M458.978 587.503c3.504 0 6.345-1.515 6.345-3.384 0-1.868-2.841-3.383-6.345-3.383-3.505 0-6.346 1.515-6.346 3.383 0 1.869 2.841 3.384 6.346 3.384zm-51.609-27.49c3.504 0 6.345-1.514 6.345-3.383 0-1.868-2.841-3.383-6.345-3.383-3.505 0-6.346 1.515-6.346 3.383 0 1.869 2.841 3.383 6.346 3.383z" fill="#3D2828"></path>
    <path d="M474.629 420.03l-38.071 21.991c4.653 2.114 10.998 3.383 17.767 3.383 15.651 0 27.919-6.766 27.919-14.802 0-4.229-2.961-8.035-7.615-10.572z" fill="#472F2E"></path>
    <path d="M436.558 442.021s0-12.687 16.92-21.991c15.229-8.036 20.728 0 20.728 0l-37.648 21.991z" fill="#3D2828"></path>
    <path d="M449.671 438.215c-1.269 0-2.538.423-2.538 1.269 0 .846 1.269 1.269 2.538 1.269s2.538-.423 2.538-1.269c0-.846-1.269-1.269-2.538-1.269zm7.192-4.652c-1.269 0-2.538.423-2.538 1.268 0 .846 1.269 1.269 2.538 1.269s2.538-.423 2.538-1.269c0-.422-.846-1.268-2.538-1.268zm7.614-4.23c-1.269 0-2.538.423-2.538 1.269 0 .846 1.269 1.269 2.538 1.269s2.538-.423 2.538-1.269c0-.846-1.269-1.269-2.538-1.269zm7.615-4.229c-1.269 0-2.538.423-2.538 1.269 0 .846 1.269 1.269 2.538 1.269s2.538-.423 2.538-1.269c0-.846-1.269-1.269-2.538-1.269zm7.19 7.19l-18.612 10.573-4.231-2.114 18.613-10.996 4.23 2.537z" fill="#D8C4C3"></path>
    <path d="M334.186 266.513l-13.959-9.304s-7.615 3.806-11.422 9.304c-3.807 5.075-6.768 13.956-4.653 19.031-4.23 11.841-5.076 31.718-5.499 35.947-2.539 12.265-10.153 49.481-10.153 56.248 2.115 2.96 9.306 8.458 13.96 3.806 4.653-4.652 17.767-73.164 17.767-73.164l-2.116-.846c7.615-18.608 16.075-41.022 16.075-41.022z" fill="#FDA32D"></path>
    <path d="M288.077 377.739s-2.538 5.497-4.23 8.881c-1.692 3.383-1.269 9.727 0 13.956 1.269 4.229 7.191 7.612 12.691 2.114 5.499-5.92 3.807-21.145 3.807-21.145s-8.038-.846-12.268-3.806z" fill="#FFC9B6"></path>
    <path d="M307.536 340.522s-12.267 30.873-13.959 43.56c-1.692 12.687-5.5 31.296-8.038 47.366-2.115 15.648-2.115 31.296-1.269 46.52.423 5.921 2.538 21.992 1.269 30.873 1.269 5.498 14.383 6.344 16.075 0 .846-4.229 10.999-40.177 12.268-51.595.846-11.419-1.692-19.454-1.692-19.454s16.497-35.525 22.42-49.481c5.922-13.956 1.692-31.295 1.692-31.295l-28.766-16.494z" fill="#2C1D1B"></path>
    <path d="M302.037 507.15s.423 3.806 1.692 7.612-.423 9.304-.423 9.304-.846 2.537-4.653 2.96c-3.384.846-5.922 0-5.922 0s-3.385 3.807-7.615 7.19c-4.23 2.96-13.959 5.498-16.498 5.075-4.23-.846-6.345-3.806-5.922-5.921.423-2.115 5.076-8.035 9.307-10.573 2.538-1.691 8.46-7.189 10.575-9.304 2.961-3.383 5.076-6.766 5.076-6.766l14.383.423zm62.184 31.717s2.115 8.459 2.115 13.111c-.423 4.652-1.269 5.92-2.961 7.612-1.27 1.692-2.962.846-2.962.846s-.846 9.727-5.499 13.956c-4.653 3.806-13.113 4.229-17.344 2.96-3.807-1.268-1.269-8.458 2.538-15.647 3.808-6.767 8.884-14.379 10.153-20.723 9.306-1.269 13.96-2.115 13.96-2.115z" fill="#2C1D1B"></path>
    <path d="M351.107 353.633s5.923 8.458 10.576 23.26c3.384 10.572 2.961 35.524 2.961 35.524s.846 24.529-.846 32.987c-1.692 8.459-1.269 10.15-1.269 10.15s6.768 20.3 5.922 44.406c-.846 24.106-2.961 41.445-2.961 41.445s-1.269 4.652-7.614 5.075c-5.5.423-9.73-3.383-9.73-3.383s-10.152-50.749-13.959-62.591c-3.808-11.419-5.077-24.952-5.077-24.952l-8.46-57.516s-15.652-10.15-7.614-35.524c5.076-16.071 38.071-8.881 38.071-8.881z" fill="#3F2A28"></path>
    <path d="M370.989 288.504c-7.614-15.225-30.88-26.221-47.378-23.683-8.038 6.343-11.422 10.572-14.383 18.185-2.538 6.766-3.807 14.802-2.961 21.991 2.538 21.569-2.538 42.291-4.653 50.75 8.883 9.304 20.305 15.225 33.418 17.339 7.192 1.269 12.268-1.269 19.036-3.806.846-.423 1.269-.846 1.692-2.115 2.115-17.339 8.461-32.141 14.383-48.212 3.384-8.881 5.499-21.991.846-30.449z" fill="#E89223"></path>
    <path d="M324.034 264.821s-5.076 5.921-8.46 12.687c-3.385 6.344-4.231 13.956-4.231 13.956l21.997 11.842s7.615-13.533 13.537-20.3c5.922-7.19 9.73-10.15 9.73-10.15l3.807 2.96s-7.192 8.036-10.576 14.379c-1.692 3.384-8.037 13.111-9.306 21.146-.423 2.96 1.269 20.723 2.538 29.604 2.115 16.071 16.075 13.11 16.075 13.11s2.538 10.996 6.345 28.758c2.538 13.11 2.115 24.952 2.115 44.829-.423 15.225-.846 32.987-.846 32.987s-23.266 7.612-39.341 4.652c-19.459-3.383-33.418-11.842-38.072-14.802-7.614-5.075-10.152-10.996-10.152-10.996s7.614-28.758 14.383-56.67c4.653-18.608 5.499-29.181 8.037-42.291 1.692-8.035 3.384-25.375 3.384-36.793 0-11.419 5.922-28.758 9.73-34.679 5.076-8.035 9.729-9.304 9.729-9.304l-.423 5.075z" fill="#6E8FF4"></path>
    <path d="M328.687 255.094s1.692 10.573-2.115 13.956c-3.807 3.806-3.807 10.996 3.807 13.533 9.307 2.961 16.075-3.806 21.574-8.458-2.538-5.498-3.807-5.498-3.807-20.3 0-11.418-19.459 1.269-19.459 1.269z" fill="#F9BBA7"></path>
    <path d="M272.426 598.498V593h-7.615l-36.803-21.145c-2.115-1.269-5.499-.846-8.037.423l-8.883 5.075v-.423l-7.615.423v5.074c0 .846.423 1.692 1.269 2.115l43.148 24.952c2.115 1.269 5.5.846 8.038-.423l14.382-8.458c1.269 0 2.116-1.269 2.116-2.115z" fill="#352221"></path>
    <path d="M205.165 579.467l43.149 24.952c2.115 1.269 5.499.846 8.037-.423l14.383-8.458c2.538-1.269 2.538-3.383.423-4.652l-43.148-24.952c-2.115-1.268-5.5-.846-8.038.423l-14.382 8.458c-2.116 1.269-2.539 3.384-.424 4.652z" fill="#472F2E"></path>
    <path d="M240.276 583.274l-3.807-5.498c13.537-9.727 15.229-13.11 24.112-32.987 5.923-12.688 18.613-44.829 29.612-73.164 10.575-26.643 20.305-52.018 23.689-58.362l.846-1.691c6.768-14.379 10.575-22.415 20.728-26.221 8.883-3.806 26.65-11.419 26.65-11.841l2.538 5.92s-18.19 8.036-27.073 11.842c-7.614 2.96-10.576 9.304-17.344 23.26l-.846 1.692c-2.961 6.343-13.113 31.295-23.266 57.939-11.845 30.026-24.112 60.476-29.611 73.586-8.884 19.454-11.422 24.952-26.228 35.525z" fill="#D8C4C3"></path>
    <path d="M234.777 582.005c-2.115-1.692-1.269-3.806 2.961-7.189 2.961-2.538 9.729-7.613 13.113-13.534 4.231-6.766 21.574-49.903 27.92-65.551.846-2.537 10.152 1.269 9.306 3.806-2.538 5.921-23.266 58.362-28.765 67.243-5.922 9.727-13.96 14.802-14.383 15.225-2.115 1.269-6.768 2.96-10.152 0z" fill="#593D3D"></path>
    <path d="M281.732 493.194l-.846 2.537c-.423.846.846 2.115 2.538 2.538 1.692.422 3.384.422 3.807-.423l.846-2.538-6.345-2.114z" fill="#D8C4C3"></path>
    <path d="M251.697 584.12v-4.229s-5.076 1.268-7.614 3.806c-2.538 2.537-4.23 7.612-4.23 7.612l11.844-7.189z" fill="#352221"></path>
    <path d="M244.506 584.12c2.961-2.538 6.768-4.652 6.768-4.652l-15.228-8.881s-3.808 2.537-6.769 4.652c-2.538 1.691-4.653 6.766-4.653 6.766l15.229 8.881s2.538-4.652 4.653-6.766zm138.751 9.303h-2.962c-9.306-1.268-16.497-5.497-21.151-13.11-8.883-14.802-7.191-41.022 4.654-71.472 2.115-5.498 4.653-11.841 7.614-18.608 11.422-27.066 25.381-60.899 22.843-80.776-1.692-13.533-6.345-22.837-12.691-27.49-5.922-3.806-12.267-3.383-16.497-2.114-9.307 2.537-19.036 7.189-19.459 7.189-1.269.423-2.538 0-3.384-1.268-.423-1.269 0-2.538 1.269-3.384.423 0 10.152-4.652 19.882-7.189 7.614-2.115 14.805-1.269 20.728 2.537 8.037 5.075 13.113 15.648 14.805 30.873 2.961 21.146-11.421 55.824-23.266 83.314-2.961 6.766-5.499 13.11-7.614 18.608-10.999 28.758-13.114 54.132-5.076 67.243 3.807 5.92 9.729 9.727 17.343 10.572 5.077.423 8.884-.422 12.268-3.383 11.422-9.727 11.422-38.485 11.422-55.401 0-5.075 0-9.304.423-11.842 2.961-30.449 18.189-30.449 18.612-30.449 1.27 0 2.539 1.268 2.539 2.537s-1.269 2.537-2.539 2.537c0 0-11.421.846-13.959 26.221-.423 2.537-.423 6.767-.423 11.419 0 19.031-.423 47.366-13.114 58.784-2.961 2.961-7.191 4.652-12.267 4.652z" fill="#593D3D"></path>
    <path d="M380.296 299.077c-.423-13.11-14.806-18.608-14.806-18.608s-10.152 8.458-8.883 36.37c.423 2.538 4.653 5.075 5.922 7.613-.423 10.995 2.115 16.07 5.922 21.568-3.807 2.538-12.267 16.071-17.344 22.838 7.615 2.114 7.615 10.572 7.615 10.572s19.459-8.881 29.611-21.145c4.23-5.075 2.538-9.727 4.23-15.225 2.538-9.727-11.844-32.141-12.267-43.983zm-31.727-34.679s-1.692 6.344-6.768 10.15c-5.923 4.229-16.921 5.075-16.921 8.035 3.384 0 3.807 0 3.807 2.538 0 4.229 1.269 5.075 1.269 5.075s8.037-2.115 13.537-4.652c7.191-2.961 10.575-12.688 10.575-12.688s-1.269-8.881-5.499-8.458z" fill="#FDA32D"></path>
    <path d="M325.303 264.821s-4.653 5.075-6.768 7.19c-2.115 2.114-.846 6.766-1.692 8.458a68.576 68.576 0 0 0-1.269 3.383s4.23-.845 5.076-3.383c.846-2.537 5.076 2.115 5.076 2.115l2.961-2.538s-4.23-2.96-2.961-5.921a775.316 775.316 0 0 0 3.807-6.766l-4.23-2.538z" fill="#FDA32D"></path>
    <path d="M345.608 229.296c-5.922-6.343-21.151-8.881-26.65.423-4.23 7.19-4.23 19.454-2.961 25.375 2.538 12.264 12.267 19.454 23.689 10.15 10.998-8.881 15.651-24.952 5.922-35.948z" fill="#FFC9B6"></path>
    <path d="M358.299 237.332c-.846-4.229-6.346-9.304-11.422-8.459.846-4.652-1.269-9.727-5.922-11.418-10.153-2.961-19.036 2.96-28.766 5.498-2.538.423-3.384 2.114 1.27 5.075-2.539.423-5.077 1.691-4.654 4.652.423 2.114 1.692 2.96 3.384 3.383-2.538 3.806 1.27 7.189 4.654 8.458 5.922 2.538 14.382 2.115 19.882-1.691 1.269 5.497 6.345 12.687 11.421 14.379 5.076-3.807 11.422-13.957 10.153-19.877z" fill="#2C1D1B"></path>
    <path d="M339.686 250.865s3.384-5.075 6.345-1.269c2.962 3.806-2.961 7.613-2.961 7.613l-3.384-6.344z" fill="#FFC9B6"></path>
    <path d="M319.804 357.015c1.269 0 7.191 5.075 13.959 6.344 7.192.846 10.576-.846 13.537-2.114-1.692 0-6.345.845-13.114-.846-6.768-2.115-14.382-3.384-14.382-3.384z" fill="#729CF0"></path>
    <path d="M351.531 368.012c-3.808 2.537-6.769 5.498-10.153 6.766-4.23 1.692-5.922 1.692-8.46 5.075-2.539 3.384-.846 7.19-.846 7.19l5.499-2.538s1.692 3.384-.423 5.921c-1.269 1.269-5.499 5.075-5.499 5.075s5.922 4.652 14.382 1.269c8.461-2.961 6.769-8.881 9.307-13.11 2.538-3.807 5.076-5.075 5.076-5.075s1.269-2.115-1.692-5.921c-2.961-5.075-4.653-4.652-7.191-4.652z" fill="#FFC9B6"></path>
    <path d="M308.805 339.253s3.807 5.498 9.307 8.882c5.499 3.383 10.998 4.229 10.998 4.229s-5.499-4.652-9.306-7.19c-3.384-2.96-10.999-5.921-10.999-5.921zm27.074 62.591s-5.923 15.225-10.999 28.758c-2.961 7.613-7.614 17.763-7.614 17.763s6.345-3.384 11.421-14.802c6.345-12.687 7.192-31.719 7.192-31.719z" fill="#729CF0"></path>
  </symbol>
  <symbol viewBox="0 0 30 30" fill="none" xmlns="http://www.w3.org/2000/svg" id="logo-circle">
    <path d="M27.571 18.572a14.902 14.902 0 0 0-4.182-8.456 14.763 14.763 0 0 0-3.486-2.604 9.028 9.028 0 0 1 3.674 7.292l-.001.121a9.037 9.037 0 0 1-1.359 4.666 14.923 14.923 0 0 1-2.853 4.048A14.575 14.575 0 0 1 9 27.976c-.47 0-.936-.023-1.396-.067a14.47 14.47 0 0 0 7.08 1.84c5.634 0 10.525-3.212 12.987-7.927a15.271 15.271 0 0 0-.1-3.25z" fill="url(#paint0_linear)"></path>
    <path d="M14.686 23.808a8.822 8.822 0 0 1-3.723-.826 14.675 14.675 0 0 1-4.795-3.064 14.9 14.9 0 0 1-4.462-8.73 15.128 15.128 0 0 1-.112-3.06A14.927 14.927 0 0 0 0 14.875a14.9 14.9 0 0 0 7.604 13.034 14.614 14.614 0 0 0 3.501-.085 14.578 14.578 0 0 0 8.26-4.185 14.922 14.922 0 0 0 2.852-4.047c-1.574 2.533-4.358 4.216-7.531 4.216z" fill="url(#paint1_linear)"></path>
    <path d="M21.044 1.463a14.71 14.71 0 0 0-2.729.138 14.597 14.597 0 0 0-8.625 4.57 14.894 14.894 0 0 0-2.684 4.096c1.441-2.5 4.038-4.232 7.049-4.446a8.773 8.773 0 0 1 5.848 1.69 14.749 14.749 0 0 1 3.486 2.604 14.906 14.906 0 0 1 4.182 8.456 15.13 15.13 0 0 1 .1 3.25 14.94 14.94 0 0 0 1.666-5.973c.02-.322.032-.647.032-.973 0-5.908-3.4-11.01-8.325-13.412z" fill="url(#paint2_linear)"></path>
    <path d="M16.081.068C15.621.024 15.156 0 14.685 0 8.972 0 4.023 3.303 1.595 8.128a15.285 15.285 0 0 0 .112 3.06 14.905 14.905 0 0 0 4.46 8.73 14.66 14.66 0 0 0 4.796 3.064 9.01 9.01 0 0 1-5.165-8.023l-.002-.157c0-1.654.44-3.204 1.209-4.536A14.917 14.917 0 0 1 9.689 6.17a14.597 14.597 0 0 1 8.626-4.57 14.56 14.56 0 0 1 2.729-.138A14.457 14.457 0 0 0 16.08.068z" fill="url(#paint3_linear)"></path>
    <defs>
      <linearGradient id="paint0_linear" x1="12.899" y1="28.484" x2="24.705" y2="14.118" gradientUnits="userSpaceOnUse">
        <stop offset=".028" stop-color="#A1D4C5"></stop>
        <stop offset=".382" stop-color="#62BDA4"></stop>
        <stop offset=".573" stop-color="#4CA98C"></stop>
        <stop offset=".81" stop-color="#309676"></stop>
        <stop offset=".948" stop-color="#238F6E"></stop>
      </linearGradient>
      <linearGradient id="paint1_linear" y1="18.052" x2="22.217" y2="18.052" gradientUnits="userSpaceOnUse">
        <stop offset=".014" stop-color="#7698CC"></stop>
        <stop offset=".382" stop-color="#4B6DB1"></stop>
        <stop offset=".96" stop-color="#305893"></stop>
      </linearGradient>
      <linearGradient id="paint2_linear" x1="28.888" y1="14.72" x2="11.542" y2="4.614" gradientUnits="userSpaceOnUse">
        <stop offset=".014" stop-color="#7698CC"></stop>
        <stop offset=".382" stop-color="#4B6DB1"></stop>
        <stop offset=".96" stop-color="#305893"></stop>
      </linearGradient>
      <linearGradient id="paint3_linear" x1="19.276" y1="1.97" x2="5.268" y2="15.688" gradientUnits="userSpaceOnUse">
        <stop offset=".036" stop-color="#F2B065"></stop>
        <stop offset=".093" stop-color="#F2A951"></stop>
        <stop offset=".156" stop-color="#F2A341"></stop>
        <stop offset=".221" stop-color="#F2A037"></stop>
        <stop offset=".29" stop-color="#F29E34"></stop>
        <stop offset=".937" stop-color="#E1821E"></stop>
      </linearGradient>
    </defs>
  </symbol>
  <symbol viewBox="0 0 84 27" fill="none" xmlns="http://www.w3.org/2000/svg" id="logo-text">
    <path d="M1.131 25.436v-4.662h3.63v4.662h-.52v-4.183H1.65v4.183h-.52zm4.846 1.066v-4.508h.507v.692c.342-.51.775-.766 1.301-.766.433 0 .813.164 1.138.49.324.326.486.763.486 1.308 0 .538-.162.971-.486 1.3-.324.328-.704.492-1.138.492-.534 0-.969-.244-1.301-.733v1.725h-.507zm1.717-1.452c.342 0 .626-.12.855-.363.227-.242.342-.567.342-.976 0-.395-.116-.716-.349-.962a1.123 1.123 0 0 0-.847-.37c-.329 0-.617.127-.862.38s-.369.572-.369.958c0 .387.123.705.37.956.243.252.53.377.86.377zm5.47-.063c-.342.353-.765.53-1.27.53-.504 0-.924-.176-1.259-.526a1.772 1.772 0 0 1-.502-1.273c0-.492.17-.915.51-1.268.34-.353.761-.53 1.265-.53.504 0 .925.176 1.262.526.338.351.507.775.507 1.272 0 .493-.171.916-.513 1.27zm-1.256.07c.363 0 .663-.129.898-.386a1.36 1.36 0 0 0 .351-.953c0-.373-.122-.69-.365-.952a1.18 1.18 0 0 0-.898-.393c-.364 0-.662.13-.894.39a1.38 1.38 0 0 0-.349.955c0 .374.12.69.361.95.243.259.541.39.896.39zm2.682.379v-3.444h.48l1.27 1.811 1.27-1.81h.486v3.443h-.514v-2.625l-1.256 1.746-1.242-1.746v2.625h-.493zm4.637 0v-3.444h.507v1.293h.907c.394 0 .717.085.967.256.25.171.375.43.375.776 0 .342-.116.613-.349.816-.233.202-.544.303-.934.303h-1.473zm.506-.452h.92c.258 0 .459-.056.6-.167.143-.11.214-.273.214-.486a.518.518 0 0 0-.22-.45c-.146-.104-.351-.156-.615-.156h-.9v1.259zm2.86.452v-3.444h.506v3.444h-.507zm1.637 0v-3.444h.506v2.991h1.658v-2.99h.507v2.99h1.657v-2.99h.513v3.443H24.23zm5.806.054c-.131 0-.267-.018-.408-.054l.06-.44a.84.84 0 0 0 .243.047.641.641 0 0 0 .237-.036.505.505 0 0 0 .2-.193c.073-.104.13-.252.169-.443.04-.19.073-.462.102-.813.028-.35.042-.777.042-1.278v-.287h2.406v3.444h-.506v-2.99h-1.42v.08c0 .523-.02.97-.06 1.338-.04.369-.09.657-.148.866a1.2 1.2 0 0 1-.246.486.768.768 0 0 1-.306.223c-.099.034-.22.05-.365.05zm5.668.027a1.62 1.62 0 0 1-1.207-.503c-.326-.334-.49-.767-.49-1.296 0-.501.156-.926.467-1.275a1.496 1.496 0 0 1 1.164-.523c.487 0 .873.174 1.157.52.285.347.427.781.427 1.305 0 .067-.002.127-.006.18H34.52c.035.35.165.63.39.836.226.207.495.31.806.31.408 0 .765-.162 1.072-.486l.315.286c-.38.43-.846.646-1.399.646zm-1.183-2.005h2.19c-.032-.333-.14-.61-.326-.83-.186-.22-.44-.33-.76-.33a.987.987 0 0 0-.742.327 1.373 1.373 0 0 0-.362.833zm3.589 1.924v-3.444h.508v1.485h1.959v-1.485h.506v3.444h-.506V23.93h-1.96v1.506h-.506zm4.103 0v-3.444h.507v1.485h1.96v-1.485h.506v3.444h-.507V23.93H42.72v1.506h-.507zm4.103 0v-3.444h.507v1.293h.907c.395 0 .718.085.967.256.25.171.375.43.375.776 0 .342-.116.613-.348.816-.233.202-.544.303-.934.303h-1.474zm.507-.452h.92c.258 0 .46-.056.601-.167.143-.11.214-.273.214-.486a.518.518 0 0 0-.22-.45c-.147-.104-.352-.156-.615-.156h-.9v1.259zm2.86.452v-3.444h.507v3.444h-.507zm1.637 0v-3.444h.507v2.724l2.019-2.724h.493v3.444h-.507v-2.724l-2.025 2.724h-.487zm2.108-4.162a.892.892 0 0 1-.615.226.892.892 0 0 1-.615-.226.97.97 0 0 1-.313-.587l.349-.073c.087.31.28.466.579.466.298 0 .49-.155.579-.466l.348.073a.982.982 0 0 1-.312.587zm4.014 4.162v-3.444h.506v1.985l1.862-1.985h.624l-1.421 1.493 1.46 1.951h-.599l-1.21-1.578-.717.746v.833h-.505v-.001zm3.563.054c-.132 0-.268-.018-.408-.054l.06-.44c.1.032.18.047.243.047a.642.642 0 0 0 .236-.036c.062-.025.129-.089.201-.193a1.21 1.21 0 0 0 .168-.443c.04-.19.073-.462.102-.813.029-.35.043-.777.043-1.278v-.287h2.406v3.444h-.507v-2.99h-1.42v.08c0 .523-.02.97-.06 1.338-.04.369-.09.657-.148.866a1.2 1.2 0 0 1-.246.486.77.77 0 0 1-.306.223c-.098.034-.219.05-.364.05zm4.182-.054v-3.444h.507v2.724l2.019-2.724h.493v3.444h-.507v-2.724l-2.025 2.724h-.487zm4.149 0v-3.444h.506v1.485h1.96v-1.485h.506v3.444h-.507V23.93h-1.959v1.506h-.506zm4.103 0v-3.444h.507v2.724l2.018-2.724h.493v3.444h-.507v-2.724l-2.025 2.724h-.486zm4.149 0v-3.444h.507v1.485h1.96v-1.485h.506v3.444h-.507V23.93h-1.959v1.506h-.507zm4.103 0v-3.444H84v.453h-1.802v2.991h-.506zm-67.882-9.368h-3.802L4.28 7.958v8.11H.93V.07h3.35v7.747L9.942.07h3.566L7.749 7.752l6.06 8.316zm12.705-6.139c0 1.992-.518 3.549-1.556 4.672-1.037 1.124-2.48 1.686-4.332 1.686-1.16 0-2.182-.257-3.068-.771-.885-.514-1.567-1.254-2.042-2.216-.475-.963-.713-2.086-.713-3.37 0-2 .515-3.553 1.545-4.662 1.03-1.109 2.478-1.663 4.343-1.663 1.16 0 2.183.255 3.068.766.886.511 1.567 1.245 2.042 2.2.476.954.713 2.074.713 3.358zm-8.351 0c0 1.211.196 2.127.588 2.746.392.62 1.032.93 1.918.93.878 0 1.51-.308 1.895-.925.386-.616.579-1.534.579-2.752 0-1.212-.195-2.12-.584-2.725-.389-.605-1.026-.908-1.912-.908-.879 0-1.513.3-1.902.903-.388.603-.582 1.513-.582 2.73zm26.295 6.139h-3.08v-9.64l-.172.679c-.39 1.539-.738 2.703-1.048 3.49l-2.139 5.47h-2.344l-2.171-5.515c-.31-.802-.641-1.929-.994-3.38l-.205-.745v9.64h-3.068V3.835h4.537l2.074 5.22c.216.561.416 1.207.6 1.937.184.729.308 1.353.373 1.87a46.82 46.82 0 0 1 .556-2.358c.133-.478.279-.917.437-1.319.159-.401.876-2.185 2.15-5.351h4.495v12.235zm9.809 0h-3.348V2.893h-4.29V.07h11.927v2.823h-4.289v13.175zm11.171.219c-1.945 0-3.464-.544-4.56-1.63-1.094-1.087-1.64-2.627-1.64-4.619 0-2.05.505-3.635 1.517-4.754 1.011-1.12 2.41-1.68 4.197-1.68 1.706 0 3.036.493 3.986 1.478.95.985 1.426 2.346 1.426 4.082v1.62h-7.789c.037.948.313 1.688.832 2.22.519.533 1.246.8 2.183.8.727 0 1.415-.077 2.063-.23a10.242 10.242 0 0 0 2.031-.733v2.583a7.677 7.677 0 0 1-1.847.65c-.656.142-1.456.213-2.399.213zm-.464-10.309c-.699 0-1.246.224-1.642.673-.396.448-.622 1.085-.68 1.91h4.624c-.014-.825-.227-1.462-.637-1.91-.412-.448-.966-.673-1.665-.673zM75.518 9.82L71.63 3.832h3.739l2.344 3.895 2.365-3.895h3.739l-3.933 5.986L84 16.068h-3.75l-2.538-4.192-2.55 4.192h-3.737l4.092-6.249z" fill="#333"></path>
  </symbol>
  <symbol viewBox="0 0 13 14" fill="inherit" xmlns="http://www.w3.org/2000/svg" id="circle">
    <circle cx="6.489" cy="6.96" r="5.822" stroke="inherit" fill="inherit"></circle>
  </symbol>
  <symbol viewBox="0 0 10 10" fill="none" xmlns="http://www.w3.org/2000/svg" id="rhombus">
    <path fill="#3ED9B0" d="M5.275.741l4.47 4.47-4.47 4.47-4.47-4.47z"></path>
  </symbol>
</svg>