<svg width="40" height="40" viewBox="0 0 40 40" fill="none" xmlns="http://www.w3.org/2000/svg">
<rect y="20" width="20" height="20" rx="8" fill="#3ED9B0"/>
<path d="M17.1711 29.0625C17.3343 29.349 17.5708 29.5869 17.8564 29.7517C18.142 29.9165 18.4664 30.0022 18.7961 30H21.8749C22.0406 30 22.1996 29.9341 22.3168 29.8169C22.434 29.6997 22.4999 29.5407 22.4999 29.375C22.4999 29.2092 22.434 29.0503 22.3168 28.933C22.1996 28.8158 22.0406 28.75 21.8749 28.75H18.7949C18.6852 28.75 18.5774 28.7211 18.4824 28.6662C18.3874 28.6114 18.3085 28.5325 18.2536 28.4375C18.1988 28.3425 18.1699 28.2347 18.1699 28.125C18.1699 28.0153 18.1988 27.9075 18.2536 27.8125L19.3474 25.9175L19.6136 26.9112C19.6565 27.0714 19.7613 27.2079 19.9049 27.2907C20.0485 27.3736 20.2191 27.396 20.3792 27.3531C20.5394 27.3102 20.6759 27.2054 20.7587 27.0618C20.8416 26.9182 20.864 26.7476 20.8211 26.5875L20.1336 24.025C20.1124 23.9457 20.0757 23.8714 20.0257 23.8062C19.9757 23.7411 19.9134 23.6865 19.8423 23.6455C19.7712 23.6044 19.6927 23.5778 19.6114 23.5671C19.53 23.5564 19.4473 23.5618 19.368 23.5831L16.8055 24.2706C16.6454 24.3135 16.5088 24.4183 16.426 24.5619C16.3431 24.7055 16.3207 24.8761 16.3636 25.0362C16.4065 25.1964 16.5113 25.3329 16.6549 25.4157C16.7985 25.4986 16.9691 25.521 17.1292 25.4781L18.343 25.1525L17.1711 27.1875C17.0046 27.4718 16.9168 27.7954 16.9168 28.125C16.9168 28.4545 17.0046 28.7781 17.1711 29.0625Z" fill="#333333"/>
<path d="M29.0786 29.0624C29.245 28.778 29.3327 28.4544 29.3327 28.1249C29.3327 27.7954 29.245 27.4719 29.0786 27.1874L27.4999 24.4474C27.4591 24.3758 27.4046 24.3129 27.3395 24.2624C27.2743 24.2119 27.1998 24.1748 27.1203 24.1532C27.0408 24.1316 26.9577 24.1259 26.876 24.1366C26.7942 24.1472 26.7154 24.1739 26.644 24.2151C26.5727 24.2563 26.5101 24.3112 26.4601 24.3767C26.41 24.4422 26.3734 24.5169 26.3523 24.5966C26.3312 24.6763 26.3261 24.7593 26.3373 24.841C26.3485 24.9227 26.3757 25.0013 26.4174 25.0724L27.9961 27.8124C28.051 27.9074 28.0799 28.0152 28.0799 28.1249C28.0799 28.2346 28.051 28.3424 27.9961 28.4374C27.9413 28.5324 27.8624 28.6113 27.7674 28.6662C27.6724 28.7211 27.5646 28.7499 27.4549 28.7499H25.8836L26.6917 27.9418C26.8056 27.8239 26.8686 27.6661 26.8672 27.5022C26.8657 27.3383 26.8 27.1816 26.6841 27.0657C26.5682 26.9498 26.4115 26.8841 26.2476 26.8826C26.0837 26.8812 25.9259 26.9442 25.808 27.0581L23.933 28.9331C23.8158 29.0503 23.75 29.2092 23.75 29.3749C23.75 29.5407 23.8158 29.6996 23.933 29.8168L25.808 31.6918C25.9259 31.8057 26.0837 31.8687 26.2476 31.8672C26.4115 31.8658 26.5682 31.8001 26.6841 31.6842C26.8 31.5683 26.8657 31.4116 26.8672 31.2477C26.8686 31.0838 26.8056 30.9259 26.6917 30.8081L25.8836 29.9999H27.4549C27.7844 30.0019 28.1084 29.916 28.3938 29.7513C28.6792 29.5865 28.9155 29.3488 29.0786 29.0624Z" fill="#333333"/>
<path d="M26.7849 19.9906C26.6249 19.9479 26.4544 19.9704 26.3109 20.0532C26.1675 20.1361 26.0628 20.2725 26.0199 20.4325L25.7536 21.4275L24.7499 19.6875C24.5855 19.4019 24.3487 19.1647 24.0634 18.9997C23.7782 18.8348 23.4544 18.7479 23.1249 18.7479C22.7954 18.7479 22.4716 18.8348 22.1863 18.9997C21.9011 19.1647 21.6643 19.4019 21.4999 19.6875L19.9999 22.2819C19.9582 22.353 19.931 22.4316 19.9198 22.5133C19.9087 22.595 19.9138 22.678 19.9348 22.7577C19.9559 22.8374 19.9925 22.9121 20.0426 22.9776C20.0926 23.0431 20.1552 23.098 20.2266 23.1392C20.2979 23.1805 20.3768 23.2071 20.4585 23.2178C20.5402 23.2284 20.6233 23.2227 20.7028 23.2011C20.7824 23.1795 20.8569 23.1424 20.922 23.0919C20.9871 23.0414 21.0416 22.9785 21.0824 22.9069L22.5824 20.3125C22.6372 20.2175 22.7161 20.1386 22.8112 20.0838C22.9062 20.0289 23.0139 20 23.1236 20C23.2333 20 23.3411 20.0289 23.4361 20.0838C23.5311 20.1386 23.61 20.2175 23.6649 20.3125L24.7499 22.1906L23.5374 21.8656C23.3776 21.8237 23.2076 21.8467 23.0647 21.9297C22.9218 22.0127 22.8176 22.1489 22.7749 22.3086C22.7322 22.4682 22.7544 22.6383 22.8368 22.7816C22.9191 22.9248 23.0548 23.0297 23.2143 23.0731L25.7768 23.7606C25.8298 23.7747 25.8844 23.7819 25.9393 23.7819C26.0767 23.7818 26.2103 23.7363 26.3194 23.6526C26.4284 23.5689 26.5068 23.4515 26.5424 23.3188L27.2299 20.7563C27.2511 20.6768 27.2564 20.5939 27.2455 20.5123C27.2346 20.4308 27.2077 20.3522 27.1664 20.281C27.125 20.2099 27.0701 20.1476 27.0046 20.0978C26.9391 20.048 26.8645 20.0115 26.7849 19.9906Z" fill="#333333"/>
<path d="M23.125 34.9999C24.9792 34.9999 26.7918 34.4501 28.3335 33.4199C29.8752 32.3898 31.0768 30.9256 31.7864 29.2125C32.496 27.4995 32.6816 25.6145 32.3199 23.7959C31.9581 21.9773 31.0653 20.3069 29.7541 18.9958C28.443 17.6846 26.7726 16.7918 24.954 16.43C23.1354 16.0683 21.2504 16.2539 19.5374 16.9635C17.8243 17.6731 16.3601 18.8747 15.33 20.4164C14.2998 21.9581 13.75 23.7707 13.75 25.6249C13.7475 27.6486 14.4059 29.6178 15.625 31.233C15.6743 31.2987 15.7359 31.354 15.8066 31.3958C15.8772 31.4376 15.9554 31.4651 16.0366 31.4767C16.1179 31.4883 16.2006 31.4838 16.2801 31.4635C16.3596 31.4431 16.4343 31.4073 16.5 31.358C16.5657 31.3088 16.621 31.2471 16.6628 31.1764C16.7046 31.1058 16.7321 31.0277 16.7437 30.9464C16.7553 30.8652 16.7508 30.7824 16.7305 30.7029C16.7101 30.6234 16.6743 30.5487 16.625 30.483C15.5688 29.0838 14.9982 27.378 15 25.6249C15 24.0179 15.4765 22.447 16.3693 21.1109C17.2621 19.7747 18.5311 18.7333 20.0157 18.1184C21.5004 17.5034 23.134 17.3425 24.7101 17.656C26.2862 17.9695 27.7339 18.7433 28.8703 19.8796C30.0066 21.0159 30.7804 22.4637 31.0939 24.0398C31.4074 25.6159 31.2465 27.2495 30.6315 28.7342C30.0166 30.2188 28.9752 31.4878 27.639 32.3806C26.3029 33.2734 24.732 33.7499 23.125 33.7499C21.3718 33.7522 19.6659 33.1816 18.2669 32.1249C18.1343 32.0254 17.9676 31.9827 17.8035 32.0062C17.6394 32.0296 17.4913 32.1173 17.3919 32.2499C17.2924 32.3825 17.2497 32.5492 17.2732 32.7133C17.2966 32.8774 17.3843 33.0254 17.5169 33.1249C19.1323 34.3437 21.1014 35.002 23.125 34.9999Z" fill="#333333"/>
<path d="M35.738 32.3125C35.5485 32.177 35.394 31.9982 35.2873 31.791C35.1807 31.5838 35.125 31.3542 35.1249 31.1212V26.875C35.1249 26.7092 35.0591 26.5502 34.9419 26.433C34.8246 26.3158 34.6657 26.25 34.4999 26.25C34.3342 26.25 34.1752 26.3158 34.058 26.433C33.9408 26.5502 33.8749 26.7092 33.8749 26.875V31.1212C33.8753 31.5531 33.9787 31.9787 34.1764 32.3627C34.3741 32.7467 34.6605 33.0781 35.0118 33.3293C35.2364 33.4898 35.4111 33.7106 35.5156 33.9662C35.6201 34.2217 35.6502 34.5016 35.6024 34.7735C35.5547 35.0455 35.431 35.2983 35.2456 35.503C35.0603 35.7076 34.8208 35.8556 34.5549 35.93C27.0788 38.0241 19.171 38.0241 11.6949 35.93C11.4291 35.8555 11.1897 35.7074 11.0044 35.5028C10.8191 35.2981 10.6955 35.0452 10.6478 34.7733C10.6001 34.5014 10.6302 34.2215 10.7348 33.966C10.8393 33.7105 11.014 33.4898 11.2387 33.3293C11.5898 33.0779 11.876 32.7465 12.0736 32.3625C12.2711 31.9786 12.3744 31.553 12.3749 31.1212V22.0849C12.3718 20.0991 12.9208 18.1515 13.9606 16.4595C15.0004 14.7676 16.4899 13.398 18.263 12.5037C18.4014 12.8609 18.6565 13.1609 18.9868 13.355C20.248 14.0722 21.674 14.4494 23.1249 14.4494C24.5758 14.4494 26.0018 14.0722 27.263 13.355C27.5828 13.1666 27.8321 12.8789 27.973 12.5356C29.7509 13.4886 31.238 14.9045 32.2769 16.6335C33.3159 18.3626 33.868 20.3403 33.8749 22.3574V24.375C33.8749 24.5407 33.9408 24.6997 34.058 24.8169C34.1752 24.9341 34.3342 25 34.4999 25C34.6657 25 34.8246 24.9341 34.9419 24.8169C35.0591 24.6997 35.1249 24.5407 35.1249 24.375V22.3574C35.1373 19.9952 34.4667 17.6798 33.1939 15.6897C31.921 13.6997 30.1002 12.1199 27.9505 11.1406C27.852 10.9268 27.7099 10.7359 27.5333 10.5802C27.3568 10.4245 27.1497 10.3073 26.9252 10.2362C26.7008 10.165 26.464 10.1415 26.23 10.1672C25.996 10.1928 25.7699 10.267 25.5662 10.3849C25.2686 10.5514 24.9544 10.6861 24.6287 10.7868L24.9962 8.2137C25.0078 8.13245 25.0034 8.04969 24.983 7.97016C24.9627 7.89063 24.9269 7.81588 24.8777 7.75018C24.8285 7.68449 24.7668 7.62913 24.6962 7.58726C24.6256 7.5454 24.5474 7.51786 24.4662 7.5062C24.3021 7.48266 24.1353 7.52528 24.0026 7.62467C23.9369 7.67389 23.8816 7.73556 23.8397 7.80617C23.7979 7.87678 23.7703 7.95495 23.7587 8.0362L23.333 11.0175C23.2162 11.0218 23.0999 11.0243 22.983 11.0212L22.4968 6.18745C22.4886 6.10578 22.4644 6.02654 22.4255 5.95423C22.3867 5.88192 22.334 5.81797 22.2704 5.76602C22.2069 5.71408 22.1337 5.67516 22.0552 5.6515C21.9766 5.62783 21.8941 5.61987 21.8124 5.62808C21.7307 5.63628 21.6515 5.6605 21.5792 5.69933C21.5069 5.73817 21.4429 5.79086 21.391 5.85441C21.339 5.91796 21.3001 5.99112 21.2765 6.06971C21.2528 6.1483 21.2448 6.23078 21.253 6.31245L21.703 10.8125C21.348 10.7088 21.006 10.5649 20.6837 10.3837C20.6064 10.3451 20.5264 10.3123 20.4443 10.2856L18.6737 4.75433C18.5623 4.40695 18.5643 4.03315 18.6794 3.687C18.7945 3.34084 19.0167 3.04026 19.3139 2.82873C19.6111 2.61719 19.9679 2.50566 20.3327 2.51026C20.6974 2.51486 21.0513 2.63536 21.343 2.85433C21.858 3.23725 22.4826 3.44404 23.1243 3.44404C23.766 3.44404 24.3906 3.23725 24.9055 2.85433C25.1973 2.63536 25.5511 2.51486 25.9159 2.51026C26.2807 2.50566 26.6374 2.61719 26.9346 2.82873C27.2318 3.04026 27.454 3.34084 27.5691 3.687C27.6842 4.03315 27.6863 4.40695 27.5749 4.75433L26.478 8.18745C26.4526 8.26575 26.4429 8.3483 26.4494 8.43038C26.456 8.51244 26.4787 8.59241 26.5162 8.66568C26.5538 8.73895 26.6054 8.80408 26.6682 8.85733C26.731 8.91058 26.8037 8.9509 26.8821 8.97597C26.9605 9.00104 27.0431 9.01037 27.1252 9.00342C27.2072 8.99647 27.2871 8.97338 27.3602 8.93548C27.4332 8.89758 27.4981 8.84561 27.5511 8.78256C27.604 8.71951 27.644 8.64662 27.6687 8.56808L28.7662 5.13745C28.9585 4.5376 28.9551 3.89212 28.7563 3.29435C28.5576 2.69659 28.1739 2.17754 27.6606 1.81226C27.1474 1.44699 26.5313 1.25444 25.9014 1.26245C25.2716 1.27046 24.6605 1.47862 24.1568 1.85683C23.8586 2.07843 23.497 2.1981 23.1255 2.1981C22.754 2.1981 22.3924 2.07843 22.0943 1.85683C21.5905 1.47881 20.9795 1.27081 20.3496 1.26288C19.7198 1.25495 19.1038 1.4475 18.5906 1.8127C18.0774 2.17791 17.6936 2.69685 17.4948 3.2945C17.2959 3.89216 17.2922 4.53757 17.4843 5.13745L19.1437 10.325C19.0872 10.3453 19.0319 10.3686 18.978 10.395C18.6923 10.5623 18.462 10.8098 18.3155 11.1068C18.1585 10.9201 17.9655 10.7669 17.748 10.6562C17.5362 10.5483 17.3049 10.4839 17.0678 10.4667C16.8307 10.4495 16.5926 10.48 16.3674 10.5562C16.2462 10.5962 16.1224 10.6293 15.9987 10.6624L16.8518 7.67495C16.8778 7.59504 16.8875 7.5107 16.8802 7.42697C16.8729 7.34324 16.8488 7.26184 16.8094 7.18764C16.7699 7.11344 16.7158 7.04797 16.6505 6.99513C16.5851 6.9423 16.5098 6.90319 16.4289 6.88014C16.3481 6.8571 16.2635 6.85059 16.1801 6.86101C16.0967 6.87143 16.0162 6.89857 15.9436 6.94079C15.8709 6.98302 15.8075 7.03947 15.7571 7.10676C15.7068 7.17406 15.6705 7.25082 15.6505 7.33245L14.6393 10.8624C14.498 10.8681 14.3568 10.87 14.2155 10.8668L13.7412 8.02245C13.7299 7.93955 13.7022 7.85974 13.6595 7.78777C13.6169 7.71579 13.5602 7.65311 13.4929 7.60344C13.4256 7.55377 13.349 7.51813 13.2676 7.49861C13.1862 7.4791 13.1018 7.47612 13.0193 7.48984C12.9367 7.50357 12.8578 7.53373 12.7872 7.57852C12.7165 7.62332 12.6556 7.68185 12.6079 7.75063C12.5603 7.81942 12.527 7.89707 12.5099 7.97897C12.4929 8.06088 12.4925 8.14537 12.5087 8.22745L12.9212 10.7025C12.7399 10.66 12.5599 10.6106 12.383 10.5518C12.2561 10.511 12.1251 10.484 11.9924 10.4712L10.7943 6.72558C10.7072 6.45964 10.7073 6.17282 10.7947 5.90697C10.8821 5.64113 11.0522 5.41018 11.2802 5.24784C11.5081 5.0855 11.782 5.00027 12.0618 5.00458C12.3416 5.0089 12.6127 5.10254 12.8355 5.27183C13.2806 5.6027 13.8204 5.78138 14.3749 5.78138C14.9295 5.78138 15.4693 5.6027 15.9143 5.27183C16.0469 5.17237 16.1346 5.02431 16.158 4.86021C16.1814 4.69612 16.1387 4.52943 16.0393 4.39683C15.9398 4.26422 15.7918 4.17655 15.6277 4.15311C15.4636 4.12967 15.2969 4.17237 15.1643 4.27183C14.936 4.44138 14.6592 4.53294 14.3749 4.53294C14.0906 4.53294 13.8138 4.44138 13.5855 4.27183C13.1506 3.94324 12.6223 3.76189 12.0773 3.75412C11.5323 3.74635 10.999 3.91257 10.5549 4.22862C10.1108 4.54468 9.7791 4.9941 9.60792 5.51159C9.43674 6.02908 9.43503 6.58767 9.60303 7.1062L10.7805 10.7856C10.7712 10.7918 10.7612 10.795 10.7518 10.8012C10.3696 11.077 10.1123 11.493 10.0362 11.9581C8.39027 12.7679 7.00358 14.0218 6.03269 15.5781C5.06181 17.1345 4.5454 18.9312 4.54178 20.7656V25.625C4.54178 25.7907 4.60763 25.9497 4.72484 26.0669C4.84205 26.1841 5.00102 26.25 5.16678 26.25C5.33254 26.25 5.49152 26.1841 5.60873 26.0669C5.72594 25.9497 5.79178 25.7907 5.79178 25.625V20.7656C5.7945 19.2223 6.21303 17.7083 7.00337 16.3828C7.79372 15.0573 8.92666 13.9692 10.283 13.2331C10.5043 13.5878 10.8418 13.8547 11.238 13.9881C12.0837 14.2683 12.9637 14.4315 13.8537 14.4731C13.2654 15.185 12.762 15.9629 12.3537 16.7912C11.1048 17.3151 10.0378 18.1951 9.2858 19.3215C8.53379 20.4478 8.13004 21.7706 8.12491 23.125C8.1234 24.2412 8.3962 25.3407 8.91932 26.3268C9.44243 27.3128 10.1998 28.1553 11.1249 28.7799V31.1212C11.1247 31.3541 11.069 31.5836 10.9625 31.7908C10.856 31.9979 10.7017 32.1767 10.5124 32.3125C10.3076 32.459 10.1238 32.6329 9.96616 32.8293C8.34085 32.6212 6.73256 32.2969 5.15366 31.8587C4.96 31.8045 4.78561 31.6966 4.65063 31.5476C4.51565 31.3985 4.42557 31.2143 4.39081 31.0162C4.35604 30.8182 4.378 30.6143 4.45415 30.4282C4.5303 30.242 4.65753 30.0812 4.82116 29.9643C5.12096 29.7501 5.36535 29.4674 5.53404 29.1398C5.70274 28.8122 5.79088 28.4491 5.79116 28.0806C5.79116 27.9148 5.72531 27.7558 5.6081 27.6386C5.49089 27.5214 5.33192 27.4556 5.16616 27.4556C5.0004 27.4556 4.84143 27.5214 4.72422 27.6386C4.60701 27.7558 4.54116 27.9148 4.54116 28.0806C4.54101 28.2501 4.50046 28.4172 4.42285 28.568C4.34525 28.7187 4.23283 28.8488 4.09491 28.9475C3.73814 29.2006 3.46049 29.5497 3.2942 29.9544C3.12791 30.359 3.0798 30.8025 3.15545 31.2333C3.2311 31.6642 3.42741 32.0648 3.72159 32.3885C4.01576 32.7123 4.39574 32.946 4.81741 33.0625C6.33099 33.4825 7.87085 33.8013 9.42678 34.0168C9.29756 34.6841 9.42458 35.3756 9.78252 35.9534C10.1405 36.5312 10.703 36.9529 11.358 37.1343C15.1883 38.2068 19.1473 38.7504 23.1249 38.75C27.1026 38.75 31.0616 38.206 34.8918 37.1331C35.3847 36.9952 35.8285 36.7208 36.172 36.3415C36.5156 35.9621 36.7448 35.4934 36.8333 34.9893C36.9218 34.4852 36.8659 33.9664 36.6721 33.4928C36.4783 33.0191 36.1545 32.6099 35.738 32.3125ZM22.3862 12.2331C22.3943 12.2331 22.4018 12.2375 22.4105 12.2375H22.4387C23.7382 12.3853 25.0511 12.1172 26.1887 11.4718C26.2586 11.432 26.3377 11.4113 26.4182 11.4116C26.4987 11.412 26.5776 11.4335 26.6472 11.4739C26.7168 11.5143 26.7746 11.5723 26.8147 11.642C26.8549 11.7117 26.8761 11.7907 26.8762 11.8712C26.876 11.9524 26.8544 12.0322 26.8136 12.1024C26.7728 12.1726 26.7142 12.2309 26.6437 12.2712C25.5715 12.8807 24.3594 13.2012 23.1262 13.2012C21.8929 13.2012 20.6808 12.8807 19.6087 12.2712C19.5382 12.2309 19.4795 12.1726 19.4387 12.1024C19.3979 12.0322 19.3763 11.9524 19.3762 11.8712C19.3754 11.7904 19.3962 11.7109 19.4366 11.6409C19.4769 11.5708 19.5352 11.5129 19.6055 11.4731C19.7023 11.4141 19.8183 11.3954 19.9287 11.4212C19.9355 11.4212 19.9424 11.4243 19.9493 11.4243C19.99 11.4351 20.0291 11.4513 20.0655 11.4725C20.7806 11.8783 21.5696 12.137 22.3862 12.2331ZM11.2612 12.3531C11.2612 12.3412 11.2562 12.3293 11.2555 12.3175C11.2549 12.3056 11.2499 12.2868 11.2499 12.2706C11.2495 12.1815 11.2704 12.0936 11.311 12.0144C11.3515 11.9351 11.4105 11.8667 11.483 11.815C11.5525 11.7656 11.6322 11.7327 11.7162 11.7187C11.7224 11.7187 11.7287 11.7187 11.7343 11.7187C11.8182 11.707 11.9038 11.7147 11.9843 11.7412C12.5216 11.9192 13.0775 12.0354 13.6412 12.0875C13.6537 12.0875 13.6649 12.0943 13.6774 12.0943H13.6874C14.1591 12.1362 14.6336 12.1343 15.1049 12.0887H15.1149C15.1355 12.0887 15.1549 12.0806 15.1774 12.0787C15.7155 12.0239 16.2461 11.9109 16.7599 11.7418C16.8624 11.7066 16.9732 11.7038 17.0774 11.7337C16.3564 12.153 15.6811 12.6463 15.0624 13.2056C13.9038 13.3043 12.7372 13.1672 11.633 12.8025C11.5358 12.7691 11.4498 12.7094 11.3845 12.6301C11.3192 12.5508 11.2771 12.4549 11.263 12.3531H11.2612ZM9.37491 23.125C9.37856 22.2539 9.58402 21.3956 9.97516 20.6173C10.3663 19.839 10.9325 19.162 11.6293 18.6393C11.2949 19.7573 11.125 20.918 11.1249 22.0849V27.1824C10.5715 26.6616 10.1307 26.0328 9.82972 25.3349C9.52874 24.6371 9.37395 23.8849 9.37491 23.125Z" fill="#333333"/>
</svg>
