<svg width="866" height="378" viewBox="0 0 866 378" fill="none" xmlns="http://www.w3.org/2000/svg">
<rect width="7" height="7" transform="matrix(0.707107 -0.707107 -0.707107 -0.707107 860.152 319.829)" fill="#3ED9B0"/>
<circle r="2.5" transform="matrix(-1 8.91769e-08 8.91769e-08 1 712.425 250.57)" fill="#4C73EB"/>
<circle r="2.5" transform="matrix(-1 8.91769e-08 8.91769e-08 1 363.862 46.0356)" fill="#4C73EB"/>
<circle r="2.5" transform="matrix(-1 8.91769e-08 8.91769e-08 1 13.8771 3.01904)" fill="#4C73EB"/>
<circle r="6.5" transform="matrix(-1 8.91769e-08 8.91769e-08 1 7.40625 370.618)" stroke="#3ED9B0"/>
<circle r="6.5" transform="matrix(-1 8.74228e-08 8.74228e-08 1 297.7 227.555)" stroke="#3ED9B0"/>
<circle r="6.5" transform="matrix(-1 8.91769e-08 8.91769e-08 1 787.429 77.9369)" stroke="#3ED9B0"/>
<rect width="7" height="7" transform="matrix(-0.707107 0.707107 0.707107 0.707107 570.111 166.356)" fill="#FFAF49"/>
<rect width="7" height="7" transform="matrix(-0.707107 0.707107 0.707107 0.707107 107.292 171.554)" fill="#FFAF49"/>
</svg>
