<svg width="247" height="429" viewBox="0 0 247 429" fill="none" xmlns="http://www.w3.org/2000/svg">
<path d="M78.2178 416.294C78.2178 408.252 82.9552 398.791 89.1139 395.48C90.5352 394.534 92.4302 394.06 93.8514 394.06C94.7989 394.06 97.6414 394.06 100.958 395.953C104.274 397.845 104.748 403.049 104.748 403.049L92.4301 428.121C92.4301 428.121 88.6402 430.013 84.3765 427.648C82.0078 426.229 80.1128 423.863 79.639 422.917C79.1653 422.444 78.6915 421.025 78.6915 421.025C78.6915 419.606 78.2178 417.713 78.2178 416.294Z" fill="black"/>
<path d="M105.221 406.36C105.221 414.402 100.484 423.863 94.3251 427.175C88.1664 430.486 83.429 427.175 83.429 419.133C83.429 411.091 88.1664 401.629 94.3251 398.318C100.01 395.006 105.221 398.318 105.221 406.36Z" fill="#3F2A28"/>
<path d="M100.957 409.671C100.957 413.929 98.1149 419.133 94.7987 421.025C91.4825 422.917 88.64 421.025 88.64 416.294C88.64 412.037 91.4825 406.833 94.7987 404.941C98.1149 403.049 100.957 405.414 100.957 409.671Z" fill="white"/>
<path d="M100.01 395.007H92.9039V415.821C92.9039 417.241 93.3777 418.187 93.8514 418.66L96.2201 420.079L98.5889 417.714L98.1151 417.24C99.0626 415.821 100.01 413.929 100.01 412.037V395.007Z" fill="#D8C4C3"/>
<path d="M95.2728 395.007V416.767C95.2728 419.606 96.694 420.552 98.589 419.606C100.484 418.66 101.905 415.348 101.905 412.983V395.48H95.2728V395.007Z" fill="#EDDCDA"/>
<path d="M189.548 351.958C189.548 343.916 194.286 334.455 200.445 331.143C201.866 330.197 203.761 329.724 205.182 329.724C206.13 329.724 208.972 329.724 212.288 331.616C215.604 333.509 216.078 338.712 216.078 338.712L203.761 363.784C203.761 363.784 199.971 365.677 195.707 363.311C193.338 361.892 191.443 359.527 190.97 358.581C190.496 358.108 190.022 356.689 190.022 356.689C190.022 355.269 189.548 353.377 189.548 351.958Z" fill="black"/>
<path d="M216.552 342.024C216.552 350.066 211.814 359.527 205.656 362.838C199.497 366.15 194.76 362.838 194.76 354.796C194.76 346.754 199.497 337.293 205.656 333.982C211.814 330.197 216.552 333.982 216.552 342.024Z" fill="#3F2A28"/>
<path d="M212.288 345.335C212.288 349.593 209.446 354.796 206.129 356.689C202.813 358.581 199.971 356.689 199.971 351.958C199.971 347.7 202.813 342.497 206.129 340.604C209.446 338.712 212.288 341.077 212.288 345.335Z" fill="white"/>
<path d="M211.341 330.67H204.235V351.485C204.235 352.904 204.708 353.85 205.182 354.323L207.551 355.742L209.92 353.377L209.446 352.904C210.393 351.485 211.341 349.593 211.341 347.7V330.67Z" fill="#D8C4C3"/>
<path d="M206.603 330.67V352.431C206.603 355.269 208.025 356.216 209.92 355.269C211.815 354.323 213.236 351.012 213.236 348.647V331.143H206.603V330.67Z" fill="#EDDCDA"/>
<path d="M7.15588 375.138C7.15588 367.096 11.8934 357.635 18.052 354.323C19.4733 353.377 21.3683 352.904 22.7895 352.904C23.737 352.904 26.5795 352.904 29.8957 354.796C33.2119 356.689 33.6857 361.892 33.6857 361.892L21.3683 386.964C21.3683 386.964 17.5783 388.857 13.3146 386.491C10.9459 385.072 9.05088 382.707 8.57714 381.761C8.10339 381.288 7.62966 379.869 7.62966 379.869C7.62966 378.449 7.15588 377.03 7.15588 375.138Z" fill="black"/>
<path d="M34.1593 365.677C34.1593 373.719 29.4219 383.18 23.2632 386.491C17.1045 389.803 12.3671 386.491 12.3671 378.449C12.3671 370.407 17.1045 360.946 23.2632 357.635C29.4219 353.85 34.1593 357.635 34.1593 365.677Z" fill="#3F2A28"/>
<path d="M29.8955 368.515C29.8955 372.772 27.053 377.976 23.7368 379.868C20.4206 381.761 17.5781 379.868 17.5781 375.138C17.5781 370.88 20.4206 365.677 23.7368 363.784C27.5268 362.365 29.8955 364.257 29.8955 368.515Z" fill="white"/>
<path d="M28.9482 353.85H21.842V374.665C21.842 376.084 22.3158 377.03 22.7895 377.503L25.1583 378.922L27.527 376.557L27.0532 376.084C28.0007 374.665 28.9482 372.773 28.9482 370.88V353.85Z" fill="#D8C4C3"/>
<path d="M24.2108 353.85V375.611C24.2108 378.449 25.632 379.395 27.527 378.449C29.422 377.503 30.8433 374.192 30.8433 371.827V354.323H24.2108V353.85Z" fill="#EDDCDA"/>
<path d="M199.971 312.694L161.597 290.46C153.544 285.729 140.752 285.256 133.646 289.514L17.5785 356.689V356.215H0.0499268V371.827C0.523666 374.665 2.89244 377.976 6.6824 380.342L57.8469 409.671C65.9006 414.402 78.6917 414.875 85.7979 410.618L214.657 336.347C217.973 334.455 219.394 331.616 219.394 328.778V313.64L199.971 312.694Z" fill="#EDDCDA"/>
<path d="M214.657 320.736L85.7979 395.007C78.6917 399.264 65.9005 398.791 57.8468 394.06L6.68234 364.731C-1.37132 360 -2.31886 352.904 4.78732 348.646L133.646 274.376C140.752 270.118 153.543 270.591 161.597 275.322L212.762 304.652C220.815 309.382 221.763 316.951 214.657 320.736Z" fill="#F4EBEA"/>
<path d="M244.976 108.804L172.019 66.7017C171.072 66.2287 170.124 66.2287 169.177 66.7017L244.502 110.223L244.976 108.804Z" fill="#E3EDFF"/>
<path d="M165.86 71.4324L242.133 115.427L243.555 112.116L167.282 68.121C166.808 69.5402 166.334 70.4863 165.86 71.4324Z" fill="#E3EDFF"/>
<path d="M166.808 77.109L240.713 119.685L241.66 117.792L165.861 74.2706C165.861 75.6898 166.335 76.6359 166.808 77.109Z" fill="#E3EDFF"/>
<path d="M165.387 74.2707L241.186 118.265L242.134 115.9L165.861 71.9054C165.861 72.3785 165.387 73.3246 165.387 74.2707Z" fill="#92B1FF"/>
<path d="M169.651 66.7013C168.703 67.1744 168.229 67.6474 167.756 68.5935L244.029 112.588L244.976 110.223L169.651 66.7013Z" fill="#92B1FF"/>
<path d="M238.818 116.373C238.818 119.212 240.713 120.631 242.608 119.212C244.976 117.792 246.398 114.481 246.398 111.643C246.398 108.804 244.503 107.385 242.608 108.804C240.713 110.223 238.818 113.535 238.818 116.373Z" fill="#778DFD"/>
<path d="M206.129 118.265C215.13 113.062 225.553 106.912 225.553 106.912C226.027 106.912 226.5 106.912 226.974 106.912L206.129 118.738V118.265Z" fill="#352221"/>
<path d="M206.129 120.158L227.922 107.858C228.395 108.331 228.395 108.804 228.395 109.277L206.129 122.05V120.158Z" fill="#352221"/>
<path d="M206.129 123.469L228.869 110.696C228.869 111.169 228.869 111.642 228.395 112.116L206.603 124.888V123.469H206.129Z" fill="#352221"/>
<path d="M206.129 122.05L228.395 109.277C228.395 109.75 228.395 110.223 228.395 110.223L205.656 122.996V122.05H206.129Z" fill="#352221"/>
<path d="M206.13 118.738L226.974 106.912C227.448 106.912 227.448 107.385 227.922 107.858L206.13 120.158V118.738Z" fill="#352221"/>
<path d="M158.281 89.4087C167.282 84.205 177.704 78.0552 177.704 78.0552C178.178 78.0552 178.652 78.0552 179.125 78.0552L158.281 89.8818V89.4087Z" fill="#352221"/>
<path d="M158.281 91.301L180.073 79.0013C180.547 79.4744 180.547 79.9475 180.547 80.4205L158.281 93.1932V91.301Z" fill="#352221"/>
<path d="M158.281 94.6123L181.021 81.8397C181.021 82.3127 181.021 82.7858 180.547 83.2588L158.754 96.0315V94.6123H158.281Z" fill="#352221"/>
<path d="M158.281 93.1932L180.547 80.4205C180.547 80.8936 180.547 81.3667 180.547 81.3667L157.807 94.1393V93.1932H158.281Z" fill="#352221"/>
<path d="M158.281 89.8818L179.126 78.0552C179.6 78.0552 179.599 78.5283 180.073 79.0014L158.281 91.301V89.8818Z" fill="#352221"/>
<path d="M72.6033 198.63L77.156 197.321L93.4106 253.693L88.8579 255.002L72.6033 198.63Z" fill="#593D3D"/>
<path d="M61.6366 181.183C62.1103 178.817 65.4265 178.817 67.3215 181.656C66.374 178.817 65.4266 175.033 68.7428 174.087C70.6378 173.614 72.059 175.033 73.4803 175.979C73.954 175.033 74.4278 174.56 75.3753 174.087C76.3228 174.087 77.2703 175.033 77.744 175.979C78.2178 174.087 79.639 172.194 81.0602 171.721C83.429 171.248 84.3765 172.667 84.8502 174.56C85.324 174.087 86.2714 173.614 87.6926 173.614C89.1139 173.614 91.0089 174.087 91.9564 175.506C93.8514 178.344 90.5351 181.183 88.6401 183.075C89.5876 184.494 90.0614 186.386 89.1139 188.278C91.0089 188.278 92.4301 189.698 92.4301 191.59C92.4301 194.428 90.0614 196.321 87.6926 196.794C89.5876 197.74 91.0089 198.686 89.5877 200.578C88.1664 202.47 85.3239 201.997 83.429 201.524C83.9027 203.89 83.9027 206.255 81.0602 206.255C79.1652 206.255 76.7965 204.363 75.3753 202.47C74.4278 204.363 72.5328 205.309 70.6378 204.836C69.2166 204.363 68.2691 203.416 68.2691 202.47C65.4266 203.89 62.1104 204.836 59.7416 201.997C58.7941 200.578 58.7941 198.686 59.7416 197.267C58.7941 197.267 57.3729 196.321 56.8991 194.901C56.4254 193.955 56.8992 193.009 57.3729 192.063C55.4779 191.117 54.5304 189.225 54.5304 186.859C54.5304 185.913 55.0041 184.494 55.4779 183.548C55.4779 182.602 57.8466 180.709 61.6366 181.183Z" fill="#3ED9B0"/>
<path d="M33.2122 114.954C34.1597 114.008 35.5809 114.008 36.5284 114.481C36.0547 113.062 36.0547 111.643 37.476 110.223C38.4235 109.277 39.8447 109.277 41.7397 110.223C40.7922 107.385 44.1084 104.073 47.4246 106.439C48.8458 104.073 53.1096 103.6 54.0571 105.493C55.9521 98.3968 61.637 102.181 61.637 105.493C63.5319 105.02 66.3744 105.493 67.7957 107.385C68.7432 108.804 68.7432 110.223 68.2694 111.643C69.2169 111.643 69.6907 112.116 70.6382 112.589C72.5332 114.008 72.5331 115.427 71.5856 117.319C73.0069 117.319 74.4281 118.265 74.9019 119.685C75.8493 121.577 74.9019 123.469 73.9544 124.888C74.4281 125.361 74.9019 125.834 75.3756 126.307C76.3231 127.727 75.8494 129.146 75.3756 130.565C76.3231 130.565 77.7443 131.038 78.6918 131.511C80.5868 133.403 80.113 136.242 79.1655 138.134C80.5868 138.134 82.0081 139.08 82.4818 140.499C83.4293 142.392 82.4818 144.284 81.5343 146.176C80.113 147.122 78.6918 148.068 78.2181 149.487C77.2706 148.541 76.3231 147.595 74.9019 148.068C73.0069 148.068 72.0594 149.487 71.1119 150.907C70.6381 150.434 69.6906 149.961 68.7431 149.961C67.7957 149.961 67.3219 150.907 66.8482 151.853C64.9532 150.434 63.0582 150.434 60.6895 151.853C59.742 152.799 59.2682 153.745 59.2682 155.164C58.3207 153.272 54.057 152.799 53.1095 156.583C48.8458 154.691 46.9509 156.583 44.5822 159.895H44.1084C43.1609 159.422 42.2134 158.476 41.2659 157.53C40.3184 156.11 40.7921 154.218 41.2659 153.272C40.3184 152.799 39.3709 151.853 38.8971 150.907C38.4234 149.961 38.4234 148.541 38.8971 147.595C37.0022 147.595 35.581 147.122 36.0547 144.757C36.0547 143.338 36.5285 141.918 37.476 140.499C34.6335 140.499 32.2647 139.553 32.2647 136.715C32.2647 134.823 33.686 133.403 35.1072 132.457C33.2123 131.511 31.3173 129.146 31.3173 126.78C31.3173 125.361 31.791 123.942 33.2122 122.996C32.7385 122.523 32.7385 121.577 32.2647 121.104C31.3172 118.265 31.791 116.373 33.2122 114.954Z" fill="#4C73EB"/>
<path d="M52.6357 156.11C53.5832 152.799 57.847 153.272 58.7944 154.691C58.7944 153.272 59.2681 152.326 60.2156 151.38C62.1106 149.961 64.4793 149.961 66.3743 151.38C66.8481 150.434 67.3218 149.961 68.2693 149.488C69.2168 149.488 70.1643 149.487 70.6381 150.434C71.5856 149.014 72.533 148.068 74.428 147.595C75.8492 147.595 77.2705 148.068 77.7442 149.014C78.6917 148.068 80.1129 146.649 81.0604 145.703C82.4817 145.703 83.9029 146.649 84.3766 148.068C85.3241 149.961 84.8504 151.853 83.4292 153.272C84.3766 154.218 85.3241 155.164 85.3241 157.056C85.3241 158.003 84.3766 159.422 83.9029 159.895C85.3241 159.895 86.7453 160.368 87.6928 161.787C88.6403 163.679 87.2191 166.045 85.7979 167.937C87.2191 167.937 88.1666 167.937 88.6403 169.356C89.1141 170.775 88.6404 172.194 88.1666 173.141C88.1666 173.141 88.1666 173.141 88.6403 173.141C87.6928 173.141 86.7454 173.614 85.7979 174.087C85.3241 172.194 84.3766 170.775 82.0079 171.248C80.5867 171.721 79.1655 173.614 78.6917 175.506C78.218 174.56 77.7442 173.614 76.323 173.614C75.3755 173.614 74.9017 174.56 74.428 175.506C73.0067 174.087 71.1117 173.141 69.6905 173.614C66.3743 174.087 67.3218 178.344 68.2693 181.183C66.3744 178.344 62.5843 178.344 62.5843 180.71C58.7944 179.763 56.8994 182.129 55.9519 183.075C55.4782 183.075 54.5307 182.602 54.057 182.602C52.6358 181.656 51.6883 179.29 52.6357 177.398C49.3195 176.452 47.4246 172.668 49.3195 169.829C46.9508 168.883 45.0558 166.991 44.5821 164.152C44.1084 162.733 44.5821 160.841 45.5296 159.895C46.4771 156.11 48.372 154.218 52.6357 156.11Z" fill="#FDA12D"/>
<path d="M188.601 271.537C187.653 272.484 186.706 272.957 185.758 273.903C184.337 263.022 180.547 251.196 173.915 239.842L166.809 227.543C167.756 226.597 169.177 226.123 170.125 226.123L177.231 237.95C183.39 248.83 187.18 260.184 188.601 271.537C188.601 271.064 188.601 271.537 188.601 271.537Z" fill="#3F2A28"/>
<path d="M185.759 248.83L182.442 299.921L181.021 318.844C173.915 325.939 159.703 331.143 143.595 331.143C127.014 331.143 112.802 325.939 106.169 318.844L104.748 299.921L101.432 248.83H185.759Z" fill="#FFAF49"/>
<path d="M143.595 226.596C166.809 226.596 185.759 236.531 185.759 248.83C185.759 261.13 166.809 271.064 143.595 271.064C120.382 271.064 101.432 261.13 101.432 248.83C101.906 236.531 120.382 226.596 143.595 226.596Z" fill="#FFBD69"/>
<path d="M143.595 244.1C127.014 244.1 112.802 249.304 107.117 256.399C105.222 254.034 104.274 251.196 104.274 248.83C104.274 237.477 122.277 228.489 144.069 228.489C165.861 228.489 183.864 237.477 183.864 248.83C183.864 251.669 182.916 254.034 181.021 256.399C174.389 249.304 160.176 244.1 143.595 244.1Z" fill="#EFA500"/>
<path d="M143.595 269.172C127.014 269.172 112.802 263.968 107.117 256.873C113.275 249.777 127.488 244.573 143.595 244.573C160.176 244.573 174.389 249.777 180.073 256.873C174.389 263.968 160.176 269.172 143.595 269.172Z" fill="#EFA500"/>
<path d="M143.595 298.029C164.44 298.029 181.021 307.017 181.021 317.897C181.021 328.778 164.44 337.766 143.595 337.766C122.75 337.766 106.169 328.778 106.169 317.897C106.169 307.017 123.224 298.029 143.595 298.029Z" fill="#FFAF49"/>
<path d="M120.381 260.184C118.288 260.184 116.591 258.489 116.591 256.399C116.591 254.309 118.288 252.615 120.381 252.615C122.475 252.615 124.171 254.309 124.171 256.399C124.171 258.489 122.475 260.184 120.381 260.184Z" fill="#3F2A28"/>
<path d="M111.38 250.25L112.802 249.303C112.802 249.303 112.802 249.303 113.275 249.303C114.223 248.83 115.17 248.83 116.592 249.776C119.434 251.196 121.803 255.453 121.803 259.238V266.334L119.908 267.28C118.96 266.334 111.38 263.495 111.38 259.711V253.088C111.38 252.142 111.38 251.669 111.854 251.196L111.38 250.25ZM116.118 260.657C116.592 261.13 117.065 261.13 117.539 261.13C117.539 260.657 117.539 260.184 117.539 259.711C117.539 257.345 116.118 254.507 114.223 253.088C113.749 252.615 113.275 252.615 112.802 252.615C112.802 253.088 112.802 253.561 112.802 254.034C112.802 256.399 114.223 259.238 116.118 260.657Z" fill="#FFBD69"/>
<path d="M114.696 250.723C117.539 252.142 119.908 256.399 119.908 260.184V267.28L109.959 263.022V254.507C109.485 250.723 111.854 248.83 114.696 250.723ZM116.118 260.657C116.591 261.13 117.065 261.13 117.539 261.13C117.539 260.657 117.539 260.184 117.539 259.711C117.539 257.345 116.118 254.507 114.223 253.088C113.749 252.615 113.275 252.615 112.801 252.615C112.801 253.088 112.801 253.561 112.801 254.034C112.801 256.399 114.223 259.238 116.118 260.657Z" fill="#FFAF49"/>
<path d="M113.275 252.615C113.275 253.088 113.275 253.561 113.275 254.034C113.275 256.399 114.697 259.238 116.592 260.657C117.065 261.13 117.539 261.13 118.013 261.13C117.539 262.549 116.118 263.022 114.697 262.549C112.802 261.603 111.38 258.765 111.38 255.926C110.907 253.561 111.854 252.615 113.275 252.615Z" fill="#FFBD69"/>
<path d="M165.861 219.028L167.282 218.081C167.282 218.081 167.282 218.081 167.756 218.081C168.704 217.608 169.651 217.608 171.072 218.554C173.915 219.974 176.283 224.231 176.283 228.016V235.112L174.388 236.058C173.441 235.112 165.861 232.273 165.861 228.489V221.866C165.861 220.92 165.861 220.447 166.335 219.974L165.861 219.028ZM170.599 228.962C171.072 229.435 171.546 229.435 172.02 229.435C172.02 228.962 172.02 228.489 172.02 228.016C172.02 225.65 170.599 222.812 168.704 221.393C168.23 220.92 167.756 220.92 167.282 220.92C167.282 221.393 167.282 221.866 167.282 222.339C167.282 225.177 168.704 228.016 170.599 228.962Z" fill="#FFBD69"/>
<path d="M169.177 219.028C172.02 220.447 174.388 224.704 174.388 228.489V235.585L164.44 231.327V222.812C163.966 219.501 166.335 217.608 169.177 219.028ZM170.598 228.962C171.072 229.435 171.546 229.435 172.02 229.435C172.02 228.962 172.02 228.489 172.02 228.016C172.02 225.65 170.598 222.812 168.703 221.393C168.23 220.92 167.756 220.92 167.282 220.92C167.282 221.393 167.282 221.866 167.282 222.339C167.282 225.177 168.703 228.016 170.598 228.962Z" fill="#FFAF49"/>
<path d="M167.282 221.393C167.282 221.866 167.282 222.339 167.282 222.812C167.282 225.177 168.703 228.016 170.598 229.435C171.072 229.908 171.546 229.908 172.02 229.908C171.546 231.327 170.125 231.8 168.703 231.327C166.808 230.381 165.387 227.543 165.387 224.704C165.387 222.339 166.335 221.393 167.282 221.393Z" fill="#FFBD69"/>
<path d="M129.383 279.106C138.857 295.664 152.122 307.017 163.966 309.382C169.651 310.329 173.915 308.909 177.705 306.071C185.758 299.448 187.653 284.783 184.337 268.226C184.811 263.495 184.811 261.13 185.285 256.873C192.391 278.633 190.969 299.448 180.073 308.436C176.283 311.748 172.02 313.167 167.282 313.167C165.861 313.167 164.44 313.167 163.019 312.694C150.227 310.329 136.015 298.502 125.593 280.999L113.749 260.657C112.801 258.292 113.275 256.872 116.118 255.453C117.065 256.872 117.539 259.238 117.539 259.238L129.383 279.106Z" fill="#3F2A28"/>
<path d="M167.756 232.273C165.663 232.273 163.966 230.579 163.966 228.489C163.966 226.399 165.663 224.704 167.756 224.704C169.849 224.704 171.546 226.399 171.546 228.489C171.546 230.579 169.849 232.273 167.756 232.273Z" fill="#3F2A28"/>
<path d="M91.4828 46.36H96.6941L95.2728 280.052H90.0616L91.4828 46.36Z" fill="#352221"/>
<path d="M154.491 119.685V343.443C154.491 344.389 153.07 344.862 151.648 344.862C150.227 344.862 148.806 344.389 148.806 343.443V119.685H154.491Z" fill="#352221"/>
<path d="M122.75 119.685V343.443C122.75 344.389 121.329 344.862 119.908 344.862C118.486 344.862 117.065 344.389 117.065 343.443V119.685H122.75Z" fill="#352221"/>
<path d="M219.394 229.435C219.394 229.435 219.394 237.004 219.394 237.95C219.394 238.423 215.131 240.788 215.131 240.788C215.131 240.788 217.499 235.112 213.236 232.273C208.972 229.435 167.282 204.836 161.124 201.997C154.965 198.686 144.542 195.375 135.068 200.105C125.119 204.836 73.9544 235.585 73.9544 235.585L71.5857 229.435C71.5857 229.435 131.278 194.428 137.436 191.59C143.595 189.225 151.175 190.644 157.334 193.009C163.492 195.375 219.394 229.435 219.394 229.435Z" fill="#778DFD"/>
<path d="M133.173 197.74C140.279 193.482 153.07 193.955 161.124 198.686L212.288 228.016C220.342 232.747 221.289 239.842 214.183 244.1L138.858 287.149L59.7421 239.842L133.173 197.74ZM206.603 240.316C212.762 237.004 211.814 234.166 204.708 229.908L158.755 203.417C151.649 199.632 141.226 199.159 135.541 202.471L73.007 238.896L139.331 278.633L206.603 240.316Z" fill="#778DFD"/>
<path d="M133.173 189.698C140.279 185.44 153.07 185.913 161.124 190.644L212.288 219.974C220.342 224.704 221.289 231.8 214.183 236.058L138.858 279.107L59.7421 231.8L133.173 189.698ZM206.603 232.273C212.762 228.962 211.814 226.124 204.708 221.866L158.755 195.375C151.649 191.59 141.226 191.117 135.541 194.428L73.007 230.854L139.331 270.591L206.603 232.273Z" fill="#729CF0"/>
<path d="M139.331 363.311L145.49 359.527V171.721L139.331 175.506V363.311Z" fill="#729CF0"/>
<path d="M139.331 363.311L132.698 359.527V171.721L139.331 175.506V363.311Z" fill="#4C73EB"/>
<path d="M66.3742 320.736L73.0067 316.951V128.2L66.3742 131.984V320.736Z" fill="#4C73EB"/>
<path d="M66.3743 320.736L60.2156 316.951V128.2L66.3743 131.984V320.736Z" fill="#729CF0"/>
<path d="M21.3683 314.113C22.3158 315.059 23.737 316.005 24.6845 316.478C26.1057 304.179 30.3695 290.933 37.4757 278.633L45.5293 264.915C44.5818 263.968 43.1606 263.495 41.7393 263.495L34.1594 276.741C27.527 289.041 22.7895 301.813 21.3683 314.113Z" fill="#3F2A28"/>
<path d="M24.6848 355.743C24.6848 360 26.5798 363.785 29.896 367.096L28.4747 346.281C25.6323 349.12 24.6848 352.431 24.6848 355.743Z" fill="#D3BCBA"/>
<path d="M114.223 346.281L112.801 367.096C116.117 363.785 118.012 360 118.012 355.743C118.012 352.431 116.591 349.12 114.223 346.281Z" fill="#D3BCBA"/>
<path d="M24.6846 289.041L28.4745 346.281L29.8958 367.096C37.4757 375.138 53.5831 380.815 71.5854 380.815C90.0615 380.815 105.695 375.138 113.275 367.096L114.696 346.281L118.486 289.041H24.6846Z" fill="#3ED9B0"/>
<path d="M71.1116 264.442C45.0556 264.442 24.2108 275.795 24.2108 289.514C24.2108 303.233 45.0556 314.586 71.1116 314.586C97.1676 314.586 118.012 303.233 118.012 289.514C118.012 275.322 97.1676 264.442 71.1116 264.442Z" fill="#6BF2CE"/>
<path d="M71.1118 283.837C89.5879 283.837 105.222 289.514 111.854 297.556C114.223 294.718 115.17 291.879 115.17 289.041C115.17 276.741 95.2728 266.334 71.1118 266.334C46.4771 266.334 27.0535 276.268 27.0535 289.041C27.0535 291.879 28.4748 295.191 30.3697 297.556C37.0022 289.514 53.1095 283.837 71.1118 283.837Z" fill="#39BF9C"/>
<path d="M71.112 311.748C89.588 311.748 105.222 306.071 111.854 298.029C105.222 289.987 89.588 284.31 71.112 284.31C52.6359 284.31 37.0023 289.987 30.3699 298.029C37.0023 306.071 53.1096 311.748 71.112 311.748Z" fill="#BBCDFF"/>
<path d="M91.9562 276.741C91.9562 277.687 91.0086 278.633 90.0612 278.633C89.1137 278.633 88.1662 277.687 88.1662 276.741C88.1662 275.795 89.1137 274.849 90.0612 274.849C91.0086 275.322 91.9562 275.795 91.9562 276.741Z" fill="white"/>
<path d="M85.7977 301.813C85.7977 302.76 84.8502 303.706 83.9027 303.706C82.9552 303.706 82.0077 302.76 82.0077 301.813C82.0077 300.867 82.9552 299.921 83.9027 299.921C84.8502 299.921 85.7977 300.867 85.7977 301.813Z" fill="white"/>
<path d="M64.0056 286.203C63.5318 285.256 62.1106 283.364 60.6894 282.891C61.1631 280.526 60.2156 278.16 57.8469 276.741C55.0044 275.322 50.267 277.214 49.7932 280.053C48.8457 279.107 47.4245 279.107 46.0032 279.58C44.1083 280.526 43.6345 282.418 44.1083 283.837C41.7396 283.364 38.8971 284.31 37.4759 286.676C36.5284 288.095 37.4758 290.933 38.8971 291.879C37.9496 293.298 38.4233 296.137 40.3183 297.083C42.2133 298.029 44.1083 298.029 46.0032 297.083C47.4245 298.029 48.8457 298.975 50.7407 298.502C52.6357 298.029 54.057 297.083 55.0044 295.664C57.8469 296.61 61.1632 295.191 63.5319 292.825C65.4269 291.406 65.4268 289.041 64.0056 286.203Z" fill="white"/>
<path d="M109.011 287.622C108.064 287.148 107.116 287.148 105.695 287.148C105.695 285.256 104.748 283.364 102.379 282.418C100.958 281.945 99.5363 281.945 98.5888 282.891C98.115 281.472 96.6938 280.526 94.7988 280.526C93.3776 280.526 92.9038 281.472 92.4301 282.891C91.0088 281.472 88.1664 280.999 86.7451 280.999C84.8502 281.472 83.429 282.418 82.4815 284.31C80.5865 282.891 77.2702 282.891 76.3228 284.783C74.4278 287.622 77.744 289.041 80.1127 289.987C79.639 290.46 79.1652 290.933 79.1652 291.406C78.6914 293.298 80.1127 295.19 82.0077 295.664C83.9027 296.61 86.2714 296.137 88.1664 295.19C88.1664 297.556 89.5876 298.975 92.9039 298.975C93.8514 298.975 95.2726 298.502 96.2201 297.556C97.1676 299.921 99.0626 301.813 102.379 301.813C103.8 301.813 106.169 301.34 107.116 299.921C107.59 298.975 108.064 298.029 108.064 297.083C108.537 297.083 109.485 296.61 109.959 296.61C111.38 295.664 112.327 293.771 112.327 291.879C111.854 289.987 110.432 288.095 109.011 287.622Z" fill="white"/>
<path d="M68.7429 276.741C68.7429 278.16 67.7954 279.107 66.3742 279.107C64.953 279.107 64.0055 278.16 64.0055 276.741C64.0055 275.322 64.953 274.376 66.3742 274.376C67.3217 274.376 68.7429 275.322 68.7429 276.741Z" fill="white"/>
<path d="M37.4753 281.945C37.4753 283.364 36.5279 284.31 35.1066 284.31C33.6854 284.31 32.7379 283.364 32.7379 281.945C32.7379 280.526 33.6854 279.58 35.1066 279.58C36.5279 279.58 37.4753 280.999 37.4753 281.945Z" fill="white"/>
<path d="M73.4801 303.706C71.1253 303.706 69.2164 301.8 69.2164 299.448C69.2164 297.097 71.1253 295.191 73.4801 295.191C75.8348 295.191 77.7438 297.097 77.7438 299.448C77.7438 301.8 75.8348 303.706 73.4801 303.706Z" fill="white"/>
<path d="M67.3215 303.233C67.3215 304.652 65.9004 306.071 64.4792 306.071C63.058 306.071 61.6367 304.652 61.6367 303.233C61.6367 301.814 63.058 300.394 64.4792 300.394C65.9004 299.921 67.3215 301.341 67.3215 303.233Z" fill="white"/>
<path d="M78.6915 278.16C77.3833 278.16 76.3228 277.101 76.3228 275.795C76.3228 274.489 77.3833 273.43 78.6915 273.43C79.9998 273.43 81.0603 274.489 81.0603 275.795C81.0603 277.101 79.9998 278.16 78.6915 278.16Z" fill="white"/>
<path d="M40.792 277.687C40.792 278.633 39.8445 279.579 38.897 279.579C37.9495 279.579 37.0021 278.633 37.0021 277.687C37.0021 276.741 37.9495 275.795 38.897 275.795C39.8445 275.795 40.792 276.741 40.792 277.687Z" fill="white"/>
<path d="M75.3752 273.43C74.3287 273.43 73.4802 272.583 73.4802 271.537C73.4802 270.492 74.3287 269.645 75.3752 269.645C76.4218 269.645 77.2701 270.492 77.2701 271.537C77.2701 272.583 76.4218 273.43 75.3752 273.43Z" fill="white"/>
<path d="M52.6355 303.706C52.6355 304.652 51.688 305.598 50.7405 305.598C49.793 305.598 48.8456 304.652 48.8456 303.706C48.8456 302.759 49.793 301.813 50.7405 301.813C51.688 301.813 52.6355 302.759 52.6355 303.706Z" fill="white"/>
<path d="M97.6415 301.34C95.2867 301.34 93.3777 299.434 93.3777 297.083C93.3777 294.731 95.2867 292.825 97.6415 292.825C99.9963 292.825 101.905 294.731 101.905 297.083C101.905 299.434 99.9963 301.34 97.6415 301.34Z" fill="#3F2A28"/>
<path d="M107.59 290.933L106.169 289.987C106.169 289.987 106.169 289.987 105.695 289.987C104.747 289.514 103.326 289.514 101.905 290.46C99.0625 292.352 96.22 297.083 96.22 301.34V309.382L98.115 310.329C99.5362 309.382 107.59 306.071 107.59 301.813V294.717C107.59 293.771 107.59 293.298 107.116 292.825L107.59 290.933ZM101.905 302.286C101.431 302.76 100.957 302.759 100.484 302.759C100.484 302.286 100.01 301.813 100.01 301.34C100.01 298.502 101.905 295.191 103.8 294.244C104.274 293.771 104.747 293.771 105.221 293.771C105.221 294.244 105.695 294.717 105.695 295.191C105.695 297.556 103.8 300.867 101.905 302.286Z" fill="#39BF9C"/>
<path d="M103.8 290.932C100.958 292.825 98.1151 297.555 98.1151 301.813V309.855L109.485 305.124V295.663C109.485 290.932 106.643 289.04 103.8 290.932ZM101.905 302.286C101.431 302.759 100.958 302.759 100.484 302.759C100.484 302.286 100.01 301.813 100.01 301.34C100.01 298.501 101.905 295.19 103.8 294.244C104.274 293.771 104.747 293.771 105.221 293.771C105.221 294.244 105.695 294.717 105.695 295.19C105.695 297.555 103.8 300.867 101.905 302.286Z" fill="#3ED9B0"/>
<path d="M105.695 293.298C105.695 293.771 106.169 294.244 106.169 294.717C106.169 297.556 104.274 300.867 102.379 301.813C101.905 302.286 101.431 302.286 100.957 302.286C101.431 304.179 102.852 304.652 104.274 303.706C106.168 302.286 108.063 299.448 108.063 296.61C108.063 294.717 107.116 293.298 105.695 293.298Z" fill="#39BF9C"/>
<path d="M46.9508 255.926L45.5296 254.98C45.5296 254.98 45.5295 254.98 45.0558 254.98C44.1083 254.507 42.687 254.507 41.2658 255.453C38.4233 257.345 35.5809 262.076 35.5809 266.334V274.376L37.4759 275.322C38.8971 274.376 46.9508 271.064 46.9508 266.807V259.711C46.9508 258.765 46.9508 258.292 46.477 257.819L46.9508 255.926ZM41.2658 267.28C40.7921 267.753 40.3184 267.753 39.8446 267.753C39.8446 267.28 39.3708 266.807 39.3708 266.334C39.3708 263.495 41.2658 260.184 43.1608 259.238C43.6346 258.765 44.1083 258.765 44.5821 258.765C44.5821 259.238 45.0558 259.711 45.0558 260.184C45.0558 262.549 43.6345 265.861 41.2658 267.28Z" fill="#3ED9B0"/>
<path d="M43.1609 255.926C40.3184 257.818 37.476 262.549 37.476 266.806V274.848L48.8458 270.118V260.656C48.8458 255.926 46.4771 254.033 43.1609 255.926ZM41.2659 267.279C40.7921 267.752 40.3184 267.752 39.8447 267.752C39.8447 267.279 39.3709 266.806 39.3709 266.333C39.3709 263.495 41.2659 260.183 43.1609 259.237C43.6346 258.764 44.1084 258.764 44.5821 258.764C44.5821 259.237 45.0558 259.71 45.0558 260.183C45.0558 262.549 43.6346 265.86 41.2659 267.279Z" fill="#39BF9C"/>
<path d="M45.0557 258.292C45.0557 258.765 45.5295 259.238 45.5295 259.711C45.5295 262.549 43.6345 265.861 41.7395 266.807C41.2657 267.28 40.792 267.28 40.3182 267.28C40.792 269.172 42.2132 269.645 43.6345 268.699C45.5294 267.28 47.4244 264.441 47.4244 261.603C47.4244 259.711 46.4769 258.292 45.0557 258.292Z" fill="#3ED9B0"/>
<path d="M87.6928 322.628C77.2704 341.077 62.1106 353.85 48.8457 356.215C42.687 357.162 37.4758 355.742 33.2121 352.431C24.6846 344.862 22.316 328.305 25.6322 310.328C25.1584 305.125 25.1584 302.286 24.6846 297.556C16.631 321.682 18.526 344.862 30.3696 355.269C34.1596 358.581 39.3708 360.473 44.582 360.473C46.0032 360.473 47.4245 360.473 49.3195 360C63.5318 357.635 79.6391 343.916 91.009 324.52L104.274 301.813C105.695 299.448 104.748 297.556 101.905 296.137C100.958 297.556 100.484 300.394 100.484 300.394L87.6928 322.628Z" fill="#3F2A28"/>
<path d="M49.3195 266.334C49.3195 268.699 47.4244 270.591 45.0557 270.591C42.687 270.591 40.792 268.699 40.792 266.334C40.792 263.968 42.687 262.076 45.0557 262.076C47.4244 262.076 49.3195 263.968 49.3195 266.334Z" fill="#3F2A28"/>
<path d="M62.5843 233.693L135.067 276.741V286.202L62.1106 242.681L62.5843 233.693Z" fill="#4C73EB"/>
<path d="M219.394 125.361C219.394 125.361 219.394 132.93 219.394 133.877C219.394 134.35 215.131 136.715 215.131 136.715C215.131 136.715 217.499 131.038 213.236 128.2C208.972 125.361 167.282 100.762 161.124 97.9238C154.965 94.6124 144.542 91.301 135.068 96.0316C125.119 100.762 73.9544 131.511 73.9544 131.511L71.5857 125.361C71.5857 125.361 131.278 90.3548 137.436 87.5165C143.595 85.1512 151.175 86.5703 157.334 88.9357C163.492 91.301 219.394 125.361 219.394 125.361Z" fill="#778DFD"/>
<path d="M133.173 94.1394C140.279 89.8818 153.07 90.3549 161.124 95.0855L212.288 124.415C220.342 129.146 221.289 136.242 214.183 140.499L138.858 183.548L59.7421 136.242L133.173 94.1394ZM206.603 136.715C212.762 133.403 211.814 130.565 204.708 126.308L158.755 99.8161C151.649 96.0316 141.226 95.5586 135.541 98.87L73.007 135.296L139.331 175.033L206.603 136.715Z" fill="#778DFD"/>
<path d="M133.173 86.0973C140.279 81.8397 153.07 82.3128 161.124 87.0434L212.288 116.373C220.342 121.104 221.289 128.2 214.183 132.457L138.858 175.506L59.7421 128.2L133.173 86.0973ZM206.603 128.673C212.762 125.361 211.814 122.523 204.708 118.265L158.755 91.774C151.649 87.9895 141.226 87.5164 135.541 90.8279L73.007 127.254L139.331 166.991L206.603 128.673Z" fill="#729CF0"/>
<path d="M139.331 183.548L60.2155 136.242V128.2L139.331 175.506V183.548Z" fill="#4C73EB"/>
<path d="M66.3742 235.585L75.8491 241.262L82.9553 237.004L73.4804 231.327L66.3742 235.585Z" fill="#729CF0"/>
<path d="M149.28 182.602H154.491V210.039H149.28V182.602Z" fill="#352221"/>
<path d="M117.539 186.859H122.75V214.297H117.539V186.859Z" fill="#352221"/>
<path d="M149.28 74.7437H154.491V125.361H149.28V74.7437Z" fill="#352221"/>
<path d="M157.807 81.3666V84.6781C157.807 86.5703 154.965 87.9895 151.649 87.9895C148.332 87.9895 145.49 86.5703 145.49 84.6781V81.3666H157.807Z" fill="#493130"/>
<path d="M151.649 78.0552C154.965 78.0552 157.807 79.4744 157.807 81.3666C157.807 83.2589 154.965 84.678 151.649 84.678C148.332 84.678 145.49 83.2589 145.49 81.3666C145.49 79.4744 148.332 78.0552 151.649 78.0552Z" fill="#472F2E"/>
<path d="M119.908 61.4981L173.441 92.7201L191.443 82.3127L137.436 51.0907L119.908 61.4981Z" fill="#C6AFAF"/>
<path d="M173.441 92.7201V99.343L119.907 68.1209V61.498L173.441 92.7201Z" fill="#9E8282"/>
<path d="M191.443 82.3126V88.9355L173.441 99.3428V92.72L191.443 82.3126Z" fill="#B29A9A"/>
<path d="M120.382 45.8869C121.803 47.7792 122.75 52.0367 122.75 52.0367C122.75 52.0367 123.698 50.6175 124.171 49.6714C125.119 48.2522 127.014 47.7792 127.014 47.7792C127.014 47.7792 126.54 50.1445 126.54 51.5636C127.014 53.929 128.909 56.2943 128.909 56.2943C128.909 56.2943 129.383 54.8751 130.33 53.4559C131.278 52.0367 133.173 51.0906 133.173 51.0906C133.173 51.0906 134.594 53.929 135.068 54.8751C135.541 56.2943 136.963 59.1326 136.963 59.1326C136.963 59.1326 138.384 57.2404 139.331 56.2943C140.279 55.3481 142.648 54.402 142.648 54.402C142.648 54.402 142.648 55.3481 143.121 57.2404C143.595 59.1326 145.49 61.971 145.49 61.971C145.49 61.971 146.911 60.0788 147.385 59.6057C147.859 59.1326 149.28 57.2404 149.28 57.2404C149.28 57.2404 150.701 58.6596 151.175 60.5518C151.649 62.4441 152.596 63.8633 152.596 63.8633C152.596 63.8633 153.544 62.9171 155.439 61.498C156.86 60.5518 158.755 60.5518 158.755 60.5518C158.755 60.5518 158.281 61.971 157.807 63.8633C157.807 65.7555 158.755 68.1208 158.755 68.1208C158.755 68.1208 161.124 67.1747 161.124 65.7555C161.597 64.3363 161.597 61.971 161.597 61.971C161.597 61.971 163.966 64.3363 164.914 66.2286C165.861 68.1208 167.282 71.4322 167.282 71.4322C167.282 71.4322 168.23 70.0131 168.23 68.5939C168.704 67.1747 170.125 64.8094 170.125 64.8094C170.125 64.8094 171.546 66.2286 172.967 68.5939C174.388 70.9592 175.81 72.3784 175.81 72.3784C175.81 72.3784 176.757 70.0131 176.757 67.6478C176.757 65.2824 176.757 63.8633 176.757 63.8633C176.757 63.8633 178.178 64.3363 179.6 65.2824C181.021 66.2286 181.968 67.6478 181.968 67.6478C181.968 67.6478 182.442 65.7555 184.337 63.8633C185.758 61.971 189.548 59.6057 189.548 59.6057C189.548 59.6057 188.127 62.9171 188.601 68.1208C189.075 73.3245 188.127 79.4743 187.18 79.9473C186.706 80.4204 182.442 83.2588 179.126 85.151C176.757 86.5702 173.915 88.4625 172.02 87.5163C169.651 86.5702 164.44 82.7857 155.912 78.0551C151.175 75.2167 145.49 71.9053 141.226 69.54C134.12 65.7555 127.961 62.9171 123.698 60.0788C120.855 58.1865 120.855 57.2404 120.382 55.3482C119.434 50.6175 117.065 40.6832 117.065 40.6832C117.065 40.6832 118.96 43.9947 120.382 45.8869Z" fill="#FDA12D"/>
<path d="M125.119 37.8449C125.119 37.8449 128.435 39.2641 128.909 41.1564C129.856 36.4257 132.699 35.4796 132.699 35.4796C132.699 35.4796 136.015 37.3719 137.436 40.2102C138.857 38.318 144.069 36.8988 144.069 36.8988C144.069 36.8988 146.437 40.6833 147.385 43.9947C149.28 42.1025 153.544 41.6294 153.544 41.6294C153.544 41.6294 155.439 44.9408 155.439 47.7792C156.86 46.36 159.702 46.36 162.545 47.3062C164.44 49.6715 165.387 55.3482 165.387 55.3482C165.387 55.3482 169.177 53.929 172.02 53.456C173.441 55.8213 174.862 61.025 174.862 61.025C174.862 61.025 177.705 56.7674 181.021 56.7674C181.021 60.0788 182.442 61.025 182.916 64.3364L190.496 61.9711C190.496 61.9711 186.706 64.3364 185.285 66.2286C183.863 68.1209 182.916 70.0131 182.916 70.0131C182.916 70.0131 181.495 68.594 180.547 67.6478C179.126 66.7017 177.705 66.2286 177.705 66.2286C177.705 66.2286 177.705 68.1209 177.705 70.0131C177.705 72.3784 176.757 74.7438 176.757 74.7438C176.757 74.7438 175.336 72.8515 173.915 70.9593C172.493 68.594 171.072 67.1748 171.072 67.1748C171.072 67.1748 169.651 69.5401 169.177 70.9593C168.703 72.3785 168.23 73.7976 168.23 73.7976C168.23 73.7976 166.808 70.4862 165.861 68.594C164.913 66.7017 162.545 64.3364 162.545 64.3364C162.545 64.3364 162.545 66.7017 162.071 68.1209C161.597 69.5401 159.702 70.4862 159.702 70.4862C159.702 70.4862 158.755 68.1209 158.755 66.2286C158.755 64.3364 159.702 62.9172 159.702 62.9172C159.702 62.9172 157.807 62.4442 156.386 63.8633C154.965 64.8095 153.544 66.2286 153.544 66.2286C153.544 66.2286 152.596 64.3364 152.122 62.9172C151.649 61.025 150.227 59.6058 150.227 59.6058C150.227 59.6058 148.806 61.498 148.332 61.9711C147.859 62.4441 146.437 64.3364 146.437 64.3364C146.437 64.3364 145.016 61.498 144.069 59.6058C143.595 57.7135 143.595 56.7674 143.595 56.7674C143.595 56.7674 141.226 57.2405 140.279 58.6596C139.331 59.6058 137.91 61.498 137.91 61.498C137.91 61.498 136.489 58.1866 136.015 57.2405C135.541 55.8213 134.12 53.456 134.12 53.456C134.12 53.456 131.751 54.8752 131.278 55.8213C130.33 57.2405 129.856 58.6596 129.856 58.6596C129.856 58.6596 127.488 56.7674 127.488 53.929C127.488 52.5098 127.961 50.1445 127.961 50.1445C127.961 50.1445 126.066 50.6176 125.119 52.0368C124.171 52.9829 123.698 54.4021 123.698 54.4021C123.698 54.4021 122.75 50.6176 121.329 48.2523C119.908 46.36 118.013 44.9409 118.013 44.9409C118.013 44.9409 121.329 45.4139 122.276 46.8331C121.803 42.1025 125.119 37.8449 125.119 37.8449Z" fill="#FFAF49"/>
<path d="M86.2717 45.4138V48.7253C86.2717 50.6175 89.1142 52.0367 92.4304 52.0367C95.7466 52.0367 98.5891 50.6175 98.5891 48.7253V45.4138H86.2717Z" fill="#493130"/>
<path d="M92.9041 42.5756C89.5878 42.5756 86.7454 43.9948 86.7454 45.887C86.7454 47.7793 89.5878 49.1984 92.9041 49.1984C96.2203 49.1984 99.0627 47.7793 99.0627 45.887C99.0627 43.9948 96.2203 42.5756 92.9041 42.5756Z" fill="#472F2E"/>
<path d="M124.645 25.5453L70.6382 56.7673L52.6358 46.36L106.643 15.611L124.645 25.5453Z" fill="#C6AFAF"/>
<path d="M70.6382 56.7673V63.8632L124.645 32.6411V25.5452L70.6382 56.7673Z" fill="#9E8282"/>
<path d="M52.6358 46.36V53.4559L70.6382 63.8633V56.7674L52.6358 46.36Z" fill="#B29A9A"/>
<path d="M124.171 10.4073C122.75 12.2995 121.803 16.5571 121.803 16.5571C121.803 16.5571 120.855 15.1379 120.381 14.1918C119.434 12.7726 117.539 12.2995 117.539 12.2995C117.539 12.2995 118.013 14.6648 118.013 16.084C117.539 18.4493 115.644 20.8146 115.644 20.8146C115.644 20.8146 115.17 19.3955 114.223 17.9763C113.275 16.5571 111.38 15.611 111.38 15.611C111.38 15.611 109.959 18.4493 109.485 19.3955C109.011 20.8146 107.59 23.653 107.59 23.653C107.59 23.653 106.169 21.7608 105.221 20.8146C104.274 19.8685 101.905 18.9224 101.905 18.9224C101.905 18.9224 101.905 19.8685 101.432 21.7608C100.958 23.653 99.0628 26.4914 99.0628 26.4914C99.0628 26.4914 97.6415 24.5991 97.1678 24.1261C96.694 23.653 95.2728 21.7608 95.2728 21.7608C95.2728 21.7608 93.8516 23.18 93.3778 25.0722C92.9041 26.9645 91.9566 28.3836 91.9566 28.3836C91.9566 28.3836 91.0091 27.4375 89.1141 26.0183C87.6929 25.0722 85.7979 25.0722 85.7979 25.0722C85.7979 25.0722 86.2716 26.4914 86.7454 28.3836C86.7454 30.2759 85.7979 32.6412 85.7979 32.6412C85.7979 32.6412 83.4292 31.6951 83.4292 30.2759C82.9554 28.8567 82.9554 26.4914 82.9554 26.4914C82.9554 26.4914 80.5867 28.8567 79.6392 30.7489C78.6917 32.6412 77.2705 35.9526 77.2705 35.9526C77.2705 35.9526 76.323 34.5334 76.323 33.1143C75.8493 31.6951 74.428 29.3298 74.428 29.3298C74.428 29.3298 73.0068 30.7489 71.5855 33.1143C70.1643 35.4796 68.743 36.8987 68.743 36.8987C68.743 36.8987 67.7956 34.5334 67.7956 32.1681C67.7956 29.8028 67.7956 28.3836 67.7956 28.3836C67.7956 28.3836 66.3743 28.8567 64.9531 29.8028C63.5318 30.7489 62.5843 32.1681 62.5843 32.1681C62.5843 32.1681 62.1106 30.2759 60.2156 28.3836C58.7944 26.4914 55.0045 24.1261 55.0045 24.1261C55.0045 24.1261 56.4257 27.4375 55.9519 32.6412C55.4782 37.8449 56.4257 43.9947 57.3732 44.4677C57.8469 44.9408 62.1106 47.7792 65.4268 49.6714C67.7956 51.0906 70.638 52.9828 72.533 52.0367C74.9018 51.0906 80.1129 47.3061 88.6404 42.5755C93.3778 39.7371 99.0628 36.4257 103.326 34.0604C110.433 30.2759 116.591 27.4375 120.855 24.5991C123.698 22.7069 123.698 21.7608 124.171 19.8685C125.119 15.1379 127.488 5.20361 127.488 5.20361C127.488 5.20361 125.593 8.04199 124.171 10.4073Z" fill="#3ED9B0"/>
<path d="M119.434 2.36531C119.434 2.36531 116.117 3.7845 115.644 5.67675C114.696 0.946127 111.854 0 111.854 0C111.854 0 108.538 1.89225 107.116 4.73062C105.695 2.83837 100.484 1.41918 100.484 1.41918C100.484 1.41918 98.1151 5.20368 97.1676 8.51511C95.2726 6.62286 91.0089 6.1498 91.0089 6.1498C91.0089 6.1498 89.1139 9.46123 89.1139 12.2996C87.6927 10.8804 84.8502 10.8804 82.0077 11.8265C80.1127 14.1919 79.1652 19.8686 79.1652 19.8686C79.1652 19.8686 75.3753 18.4494 72.5328 17.9763C71.1116 20.3417 69.6903 25.5453 69.6903 25.5453C69.6903 25.5453 66.8479 21.2878 63.5317 21.2878C63.5317 24.5992 62.1104 25.5453 61.6367 28.8568L54.0568 26.4915C54.0568 26.4915 57.8467 28.8568 59.2679 30.749C60.6892 32.6413 61.6367 34.5335 61.6367 34.5335C61.6367 34.5335 63.0579 33.1143 64.0054 32.1682C65.4266 31.2221 66.8479 30.749 66.8479 30.749C66.8479 30.749 66.8479 32.6413 66.8479 34.5335C66.8479 36.8988 67.7954 39.2641 67.7954 39.2641C67.7954 39.2641 69.2166 37.3719 70.6379 35.4796C72.0591 33.1143 73.4803 31.6951 73.4803 31.6951C73.4803 31.6951 74.9016 34.0605 75.3753 35.4796C75.8491 36.8988 76.3228 38.318 76.3228 38.318C76.3228 38.318 77.744 35.0066 78.6915 33.1143C79.639 31.2221 82.0077 28.8568 82.0077 28.8568C82.0077 28.8568 82.0078 31.2221 82.4815 32.6413C82.9552 34.0604 84.8502 35.0066 84.8502 35.0066C84.8502 35.0066 85.7977 32.6413 85.7977 30.749C85.7977 28.8568 84.8502 27.4376 84.8502 27.4376C84.8502 27.4376 86.7452 26.9645 88.1664 28.3837C89.5877 29.3298 91.0089 30.749 91.0089 30.749C91.0089 30.749 91.9564 28.8568 92.4301 27.4376C92.9039 26.0184 94.3251 24.1261 94.3251 24.1261C94.3251 24.1261 95.7464 26.0184 96.2201 26.4915C96.6938 26.9645 98.1151 28.8568 98.1151 28.8568C98.1151 28.8568 99.5363 26.0184 100.484 24.1261C100.958 22.2339 100.958 21.2878 100.958 21.2878C100.958 21.2878 103.326 21.7608 104.274 23.18C105.221 24.1261 106.642 26.0184 106.642 26.0184C106.642 26.0184 108.064 22.707 108.538 21.7608C109.011 20.3417 110.432 17.9763 110.432 17.9763C110.432 17.9763 112.801 19.3955 113.275 20.3417C114.222 21.7608 114.696 23.18 114.696 23.18C114.696 23.18 117.065 21.2878 117.065 18.4494C117.065 17.0302 116.591 14.6649 116.591 14.6649C116.591 14.6649 118.486 15.138 119.434 16.5572C120.381 17.5033 120.855 18.9225 120.855 18.9225C120.855 18.9225 121.802 15.138 123.224 12.7727C124.645 10.8804 126.54 9.46124 126.54 9.46124C126.54 9.46124 123.224 9.93429 122.276 11.3535C122.276 6.62286 119.434 2.36531 119.434 2.36531Z" fill="#6BF2CE"/>
<path d="M91.009 132.93H96.2203L96.6941 95.0854H91.009V132.93Z" fill="#352221"/>
<path d="M90.535 205.782H95.7462V237.477H90.535V205.782Z" fill="#352221"/>
<path d="M128.435 128.2V131.511C128.435 133.404 125.592 134.823 122.276 134.823C118.96 134.823 116.117 133.404 116.117 131.511V128.2H128.435Z" fill="#493130"/>
<path d="M122.276 124.888C125.592 124.888 128.435 126.308 128.435 128.2C128.435 130.092 125.592 131.511 122.276 131.511C118.96 131.511 116.117 130.092 116.117 128.2C115.644 126.781 118.486 124.888 122.276 124.888Z" fill="#472F2E"/>
<path d="M90.0612 108.331L144.068 139.553L162.071 129.146L108.064 97.9238L90.0612 108.331Z" fill="#C6AFAF"/>
<path d="M144.068 139.553V146.649L90.0611 115.427V108.331L144.068 139.553Z" fill="#9E8282"/>
<path d="M162.071 129.146V136.242L144.068 146.649V139.553L162.071 129.146Z" fill="#B29A9A"/>
<path d="M158.755 104.547C158.755 104.547 157.333 106.439 156.386 108.331C155.438 109.75 155.912 113.062 155.912 113.062C155.912 113.062 154.491 111.17 154.017 110.223C153.07 108.331 152.122 107.858 152.122 107.858C152.122 107.858 151.175 110.223 150.227 112.116C149.753 113.062 146.437 115.427 146.437 115.427C146.437 115.427 146.437 112.589 145.964 111.643C145.49 109.75 145.964 106.439 145.964 106.439C145.964 106.439 144.542 106.912 143.121 106.912C141.7 106.912 139.805 108.331 139.805 108.331C139.805 108.331 140.279 106.439 140.279 104.547C140.279 103.128 139.331 100.762 139.331 100.762C139.331 100.762 138.384 102.181 136.962 102.654C135.541 103.601 133.646 104.074 133.646 104.074C133.646 104.074 133.646 101.235 133.646 99.8161C133.646 97.9238 133.646 95.5585 133.646 95.5585C133.646 95.5585 131.277 96.9777 130.33 97.9238C129.382 98.8699 127.961 99.343 127.961 99.343C127.961 99.343 127.961 96.9777 127.961 95.5585C127.961 93.6663 127.961 91.301 127.961 91.301C127.961 91.301 126.54 91.774 125.592 91.774C123.697 92.2471 123.224 93.1932 123.224 93.1932C123.224 93.1932 123.697 90.8279 123.697 89.4087C123.697 87.9895 123.697 85.1512 123.697 85.1512C123.697 85.1512 121.802 85.1511 120.855 85.6242C118.96 86.0973 118.013 86.5703 118.013 86.5703C118.013 86.5703 118.013 84.6781 117.539 83.2589C117.065 81.3667 116.591 78.5283 116.591 78.5283C116.591 78.5283 115.17 79.4744 114.696 79.9475C113.275 80.8936 112.328 82.7858 112.328 82.7858C112.328 82.7858 112.328 79.9475 112.328 78.0552C112.328 76.163 111.854 74.2707 111.854 74.2707C111.854 74.2707 110.433 75.6899 109.485 77.1091C108.538 78.0552 107.59 79.4744 107.59 79.4744C107.59 79.4744 108.064 77.5822 107.59 76.163C107.59 73.7977 108.064 71.9054 108.064 71.9054C108.064 71.9054 106.643 72.3785 105.221 72.8515C103.8 73.7977 102.853 75.2169 102.853 75.2169C102.853 75.2169 102.379 72.3785 102.853 70.4862C102.853 68.594 103.326 67.6479 103.326 67.6479C103.326 67.6479 101.905 67.6479 100.958 68.1209C99.5364 69.067 98.5889 70.0132 98.5889 70.0132C98.5889 70.0132 97.6414 65.2826 96.2202 63.3903C95.2727 61.4981 92.904 59.1328 92.904 59.1328C92.904 59.1328 95.2727 58.6597 96.694 61.025C98.1152 62.9172 98.5889 65.2826 98.5889 65.2826C98.5889 65.2826 99.0626 62.4442 100.484 60.5519C101.431 58.6597 103.8 56.7675 103.8 56.7675L106.169 61.9711L109.959 57.7136C109.959 57.7136 111.854 61.4981 111.854 62.9173C113.275 61.4981 116.118 60.5519 116.118 60.5519C116.118 60.5519 114.696 64.8095 115.17 67.6479C116.591 65.7556 119.434 64.3364 119.434 64.3364C119.434 64.3364 119.434 70.9593 119.907 71.9054C121.802 70.4862 123.697 71.4324 123.697 71.4324V77.5822C123.697 77.5822 127.014 76.163 128.909 76.636C128.909 79.0014 129.382 85.1512 129.382 85.1512C129.382 85.1512 131.751 83.732 134.12 83.732C135.067 85.6242 136.489 91.301 136.489 91.301C136.489 91.301 138.384 88.9356 140.752 89.4087C140.279 92.2471 142.174 96.0316 142.174 96.0316C142.174 96.0316 144.542 93.1932 146.437 93.1932C146.437 96.5046 147.858 101.235 147.858 101.235C147.858 101.235 149.28 97.4507 151.175 96.5046C152.122 99.8161 154.017 101.235 154.491 104.547C154.965 102.654 156.86 100.762 160.65 99.8161C158.755 102.181 157.807 107.385 157.807 107.385L158.755 104.547Z" fill="#6BF2CE"/>
<path d="M157.807 129.146C157.807 129.146 153.543 131.984 149.28 133.876C146.911 135.296 143.121 137.188 141.7 136.715C138.857 134.823 125.593 127.254 118.013 122.996C110.433 118.738 95.2728 110.223 93.8516 108.804C92.9041 107.385 94.3253 76.636 93.8516 70.4862C93.8516 64.3364 93.3778 60.0789 93.3778 60.0789C93.3778 60.0789 95.2729 62.4442 96.6941 64.3364C97.6416 66.2287 99.0628 70.9593 99.0628 70.9593C99.0628 70.9593 100.01 70.0131 101.432 69.067C102.379 68.594 103.8 68.594 103.8 68.594C103.8 68.594 103.8 70.0131 103.326 71.4323C103.326 73.3246 103.326 76.1629 103.326 76.1629C103.326 76.1629 103.8 74.7438 105.695 73.7976C107.116 72.8515 108.538 72.8515 108.538 72.8515C108.538 72.8515 108.064 74.7438 108.064 77.1091C108.064 78.5283 108.064 80.4205 108.064 80.4205C108.064 80.4205 109.011 79.4744 109.959 78.0552C110.906 76.636 112.328 75.2168 112.328 75.2168C112.328 75.2168 112.801 77.5821 112.801 79.0013C112.801 80.8936 112.801 83.7319 112.801 83.7319C112.801 83.7319 113.749 82.3128 115.17 80.8936C116.118 80.4205 117.065 79.4744 117.065 79.4744C117.065 79.4744 117.539 81.8397 118.013 84.205C118.013 85.6242 118.486 87.5164 118.486 87.5164C118.486 87.5164 119.434 87.0434 121.329 86.5703C122.276 86.0972 124.171 86.0973 124.171 86.0973C124.171 86.0973 124.645 88.9356 124.171 90.3548C124.171 91.774 123.698 94.1393 123.698 94.1393C123.698 94.1393 124.645 93.1932 126.066 92.7201C127.014 92.247 128.435 92.2471 128.435 92.2471C128.435 92.2471 128.435 94.6124 128.435 96.5046C128.435 97.9238 128.435 100.289 128.435 100.289C128.435 100.289 129.856 99.816 130.804 98.8699C131.751 97.9238 134.12 96.5046 134.12 96.5046C134.12 96.5046 134.12 98.8699 134.12 100.762C134.12 102.654 134.12 105.02 134.12 105.02C134.12 105.02 136.015 104.547 137.436 103.601C138.857 103.127 139.805 101.708 139.805 101.708C139.805 101.708 140.752 104.074 140.752 105.493C140.752 106.912 140.279 109.277 140.279 109.277C140.279 109.277 142.647 107.858 143.595 107.858C145.016 107.858 146.437 107.385 146.437 107.385C146.437 107.385 145.964 110.696 146.437 112.589C146.437 113.535 146.911 116.373 146.911 116.373C146.911 116.373 149.754 113.535 150.701 113.062C152.122 111.17 152.596 108.804 152.596 108.804C152.596 108.804 153.544 109.277 154.491 111.17C155.439 112.116 156.386 114.008 156.386 114.008C156.386 114.008 156.386 111.17 156.86 109.277C157.807 107.858 159.228 105.493 159.228 105.493L159.702 109.277C159.702 109.277 160.176 104.547 162.545 101.708C162.545 104.547 161.597 107.858 161.597 110.696C160.65 116.846 157.807 129.146 157.807 129.146Z" fill="#3ED9B0"/>
<path d="M79.6391 215.716H82.4816L87.6927 233.219L82.9553 234.639L78.2178 218.554L79.6391 215.716Z" fill="#593D3D"/>
<path d="M131.751 162.26C131.751 162.26 127.961 161.787 127.961 168.41C127.961 175.033 127.961 198.213 127.961 209.566C127.961 220.92 126.066 253.561 126.066 253.561C126.066 253.561 118.486 257.819 114.696 257.346C110.906 257.346 110.432 254.507 107.59 249.303C104.747 244.1 99.5362 243.627 97.1675 243.627C94.325 243.154 85.7976 244.573 84.3764 239.369C82.9551 234.166 83.4289 231.8 79.6389 231.327C75.8489 230.854 69.6902 229.908 69.6902 225.65C69.6902 221.393 68.7427 169.829 69.6902 157.056C70.6377 144.284 73.0065 136.242 78.6914 132.457C84.3764 128.673 91.4826 131.038 96.6938 134.822C101.905 138.607 110.432 143.811 116.591 147.595C126.066 153.745 133.172 154.691 136.488 157.056C139.331 159.422 136.488 164.625 136.488 164.625L131.751 162.26Z" fill="#FDA12D"/>
<path d="M118.012 166.991C118.012 166.991 117.065 182.602 116.117 189.698C115.644 196.794 112.801 230.854 110.906 237.95C109.485 244.573 109.011 247.884 109.011 247.884C109.011 247.884 106.169 240.315 107.59 227.543C108.064 220.92 109.011 207.201 110.906 193.009C113.275 178.817 118.012 166.991 118.012 166.991Z" fill="#FFAF49"/>
<path d="M87.6927 149.014C87.6927 149.014 86.7453 169.356 84.3765 183.548C82.0078 198.213 81.534 225.177 81.534 225.177C81.534 225.177 78.6916 210.512 79.1653 200.105C79.6391 190.171 82.0078 175.979 83.4291 166.518C84.8503 157.53 87.6927 149.014 87.6927 149.014Z" fill="#FFAF49"/>
</svg>
