<svg width="1137" height="483" viewBox="0 0 1137 483" fill="none" xmlns="http://www.w3.org/2000/svg">
<rect x="290.95" y="89" width="7" height="7" transform="rotate(45 290.95 89)" fill="#3ED9B0"/>
<rect x="933.95" y="454" width="7" height="7" transform="rotate(45 933.95 454)" fill="#3ED9B0"/>
<rect x="1131.95" y="23" width="7" height="7" transform="rotate(45 1131.95 23)" fill="#3ED9B0"/>
<circle cx="131.5" cy="18.5" r="2.5" transform="rotate(-180 131.5 18.5)" fill="#4C73EB"/>
<circle cx="802.5" cy="480.5" r="2.5" transform="rotate(-180 802.5 480.5)" fill="#4C73EB"/>
<circle cx="990.5" cy="78.5" r="2.5" transform="rotate(-180 990.5 78.5)" fill="#4C73EB"/>
<circle cx="211" cy="440" r="6.5" transform="rotate(-180 211 440)" stroke="#3ED9B0"/>
<circle cx="7" cy="21" r="6.5" transform="rotate(-180 7 21)" stroke="#3ED9B0"/>
<circle cx="987" cy="250" r="6.5" transform="rotate(-180 987 250)" stroke="#3ED9B0"/>
<circle cx="852" cy="7" r="6.5" transform="rotate(-180 852 7)" stroke="#3ED9B0"/>
<rect x="389.95" y="474.899" width="7" height="7" transform="rotate(-135 389.95 474.899)" fill="#FFAF49"/>
<rect x="155.95" y="185.899" width="7" height="7" transform="rotate(-135 155.95 185.899)" fill="#FFAF49"/>
<rect x="809.95" y="175.899" width="7" height="7" transform="rotate(-135 809.95 175.899)" fill="#FFAF49"/>
</svg>
