<?xml version="1.0" standalone="no"?>
<!DOCTYPE svg PUBLIC "-//W3C//DTD SVG 20010904//EN"
 "http://www.w3.org/TR/2001/REC-SVG-20010904/DTD/svg10.dtd">
<svg version="1.0" xmlns="http://www.w3.org/2000/svg"
 width="700.000000pt" height="700.000000pt" viewBox="0 0 700.000000 700.000000"
 preserveAspectRatio="xMidYMid meet">
<metadata>
Created by potrace 1.11, written by Peter Selinger 2001-2013
</metadata>
<g transform="translate(0.000000,700.000000) scale(0.100000,-0.100000)"
fill="#000000" stroke="none">
<path d="M3238 6995 c-2 -1 -39 -5 -83 -9 -44 -4 -93 -9 -110 -11 -16 -3 -48
-7 -70 -10 -191 -25 -424 -80 -605 -141 -411 -140 -775 -344 -1119 -629 -156
-128 -350 -328 -490 -504 -300 -378 -524 -827 -646 -1298 -19 -73 -37 -148
-40 -165 -3 -18 -12 -64 -20 -103 -7 -38 -17 -94 -20 -124 -4 -30 -8 -62 -10
-71 -19 -97 -27 -579 -12 -725 3 -38 9 -97 12 -130 3 -33 8 -71 11 -85 4 -14
8 -43 11 -65 19 -166 124 -542 208 -746 125 -303 296 -600 479 -834 168 -215
351 -404 536 -555 30 -25 57 -47 60 -50 24 -25 210 -154 355 -245 180 -114
567 -288 770 -345 17 -5 55 -16 85 -24 75 -22 256 -63 305 -71 23 -3 51 -7 64
-10 233 -45 690 -55 951 -20 19 2 55 7 80 10 25 3 56 7 70 10 14 3 41 7 60 10
154 26 491 120 605 170 17 7 62 25 100 41 201 81 551 277 690 386 233 182 297
237 446 389 529 535 891 1291 973 2029 3 25 9 77 13 115 4 39 8 183 7 320 0
220 -4 303 -19 420 -2 17 -7 53 -10 80 -4 28 -18 106 -31 175 -167 852 -644
1616 -1332 2132 -176 131 -517 338 -559 338 -7 0 -13 5 -13 10 0 6 -7 10 -15
10 -9 0 -26 6 -38 14 -76 49 -376 156 -587 210 -162 41 -127 35 -510 91 -44 7
-545 16 -552 10z m417 -1369 c570 -54 1111 -358 1459 -820 130 -171 238 -370
306 -563 18 -48 33 -96 35 -106 2 -9 6 -20 8 -25 8 -12 56 -233 62 -287 4 -27
10 -76 14 -108 14 -106 5 -406 -15 -512 -2 -10 -6 -37 -10 -60 -12 -81 -62
-281 -84 -330 -4 -11 -16 -40 -25 -65 -30 -80 -84 -196 -128 -275 -54 -96 -61
-108 -74 -123 -7 -7 -13 -17 -13 -22 0 -5 -6 -15 -12 -22 -7 -7 -40 -49 -73
-93 -33 -44 -112 -132 -175 -196 -180 -181 -358 -309 -583 -418 -101 -49 -334
-133 -409 -147 -18 -3 -37 -7 -43 -8 -11 -3 -65 -13 -110 -21 -16 -3 -52 -8
-80 -11 -27 -3 -66 -7 -85 -9 -126 -15 -405 0 -564 31 -249 48 -552 174 -761
318 -234 160 -434 366 -595 611 -97 148 -237 465 -264 600 -3 11 -11 49 -20
85 -8 36 -18 85 -21 110 -4 24 -8 47 -10 50 -6 10 -18 187 -19 292 -5 375 95
760 284 1086 17 28 27 52 23 52 -4 0 1 6 12 13 11 9 15 19 10 27 -5 8 -4 11 2
7 6 -4 28 19 49 51 307 449 828 782 1359 868 79 12 106 15 180 21 44 3 81 6
82 7 5 5 220 -2 288 -8z"/>
</g>
</svg>
