<svg width="832" height="247" viewBox="0 0 832 247" xmlns="http://www.w3.org/2000/svg" fill="none"><circle r="2.5" transform="matrix(1 0 0 -1 607.4 2.5)" fill="#4C73EB"/><circle r="2.5" transform="matrix(1 0 0 -1 218.5 16.601)" fill="#4C73EB"/><circle r="2.5" transform="matrix(1 0 0 -1 449.5 137.601)" fill="#4C73EB"/><circle r="2.5" transform="matrix(1 0 0 -1 776.5 244.5)" fill="#4C73EB"/><circle r="6.5" transform="matrix(1 0 0 -1 825 50)" stroke="#3ED9B0"/><circle r="6.5" transform="matrix(1 0 0 -1 513 24.101)" stroke="#3ED9B0"/><circle r="6.5" transform="matrix(1 0 0 -1 7 128.101)" stroke="#3ED9B0"/><path fill="#FFAF49" d="M218.95 192l4.95-4.95-4.95-4.95-4.95 4.95zM692.95 163l4.95-4.95-4.95-4.95-4.95 4.95z"/></svg>