<svg width="33" height="33" viewBox="0 0 33 33" xmlns="http://www.w3.org/2000/svg" fill="none"><rect y="17" width="16" height="16" rx="5" fill="#3ED9B0"/><g clip-path="url(#a)" fill="#333"><path d="M20.433 29.62c-.267 0-.484.216-.484.484v.136c0 .989-.804 1.793-1.793 1.793h-7.483c-.989 0-1.793-.805-1.793-1.793v-7.45c0-.267-.216-.484-.484-.484-.267 0-.484.216-.484.484v7.45c0 1.522 1.238 2.761 2.761 2.761h7.483c1.522 0 2.761-1.238 2.761-2.761v-.136c0-.267-.217-.484-.484-.484zM27.793 17.438h-2.7c-.128 0-.251.051-.342.142l-1.031 1.031c-.22.22-.512.341-.822.341h-1.982v-.579c0-.945-.289-1.882-.816-2.665l.332.014c.267 0 .484-.216.484-.484 0-.267-.216-.484-.484-.484-1.811 0-3.285-1.474-3.285-3.285v-1.23c0-.182-.102-.348-.264-.431l-2.4-1.223c-.18-.092-.398-.062-.546.074l-1.04.953c-.178.163-.417.24-.656.211-.239-.029-.454-.16-.588-.36-.225-.335-.177-.78.115-1.059l1.52-1.453c.327-.313.756-.485 1.208-.485h3.76c.445 0 .871.189 1.171.517l2.536 2.784c.092.101.221.158.357.158h5.472c.267 0 .484-.216.484-.484 0-.267-.216-.484-.484-.484h-5.258l-2.393-2.626c-.482-.53-1.17-.833-1.886-.833h-.127v-.75l2.967-.938c.297-.094.524-.329.609-.628.084-.3.013-.619-.192-.854l-.783-.9c-.79-.908-1.933-1.429-3.136-1.429h-.119c-.267 0-.484.216-.484.484 0 .267.216.484.484.484h.119c.923 0 1.8.4 2.406 1.096l.736.846-3.237 1.024c-.201.064-.338.25-.338.461v1.104h-2.665c-.49 0-.963.131-1.376.374l-1.474-2.832c-.083-.16-.249-.26-.429-.26h-2.768c-.052 0-.093-.042-.093-.093v-1.627c0-.052.042-.093.093-.093h6.965c.267 0 .484-.216.484-.484 0-.267-.216-.484-.484-.484h-6.965c-.3 0-.571.126-.765.327h-1.174c-.693 0-1.257.564-1.257 1.257v.589c0 .693.564 1.257 1.257 1.257h1.182l.144.122v4.162l-.086.345h-1.316c-.943 0-1.71.767-1.71 1.71s.767 1.71 1.71 1.71h2.414c-.089.2-.139.422-.139.655 0 .443.179.846.468 1.139-.289.293-.468.696-.468 1.139 0 .443.179.846.468 1.139-.289.293-.468.695-.468 1.139 0 .564.289 1.061.726 1.352l-.323.323c-.616.616-1.026 1.43-1.156 2.291-.04.264.142.51.407.55l.072.005c.235 0 .442-.172.478-.412.099-.658.412-1.28.883-1.751l.736-.736h1.569c.895 0 1.623-.728 1.623-1.623 0-.443-.179-.846-.468-1.139.289-.293.468-.696.468-1.139 0-.443-.179-.846-.468-1.139l.188-.228h3.042c.397.989 1.153 1.796 2.108 2.256l.59.782c.494.655.766 1.468.766 2.288v9.67c0 .267.216.484.484.484.267 0 .484-.216.484-.484v-8.124h1.982c.569 0 1.104-.222 1.506-.624l.889-.889h2.499c.267 0 .484-.216.484-.484 0-.267-.216-.484-.484-.484zm-15.436-10.935l-1.258 1.202c-.113.108-.208.227-.287.355h-.528c.272-.463.417-.992.417-1.542v-2.769h.222l1.434 2.754zm-3.568 1.389l.014-.117v-4.025h.931v2.769c0 .55-.212 1.069-.598 1.462l-.495.504.148-.592zm-2.569-5.718v-.589c0-.16.13-.29.29-.29h.878v1.168h-.878c-.16 0-.29-.13-.29-.29zm-.53 7.597c0-.41.333-.743.743-.743h1.08c-.044.314.104.62.387.778.12.067.251.1.38.1.2 0 .398-.08.548-.233l.634-.646h1.083c.005.338.104.677.305.976.139.207.318.379.523.51h-4.94c-.41 0-.743-.333-.743-.743zm6.411 1.71c.361 0 .655.294.655.655 0 .361-.294.655-.655.655h-1.769c-.361 0-.655-.294-.655-.655 0-.361.294-.655.655-.655h1.769zm.655 2.933c0 .361-.294.655-.655.655h-1.769c-.361 0-.655-.294-.655-.655 0-.361.294-.655.655-.655h1.769c.361 0 .655.294.655.655zm-.655 2.933h-1.769c-.361 0-.655-.294-.655-.655 0-.361.294-.655.655-.655h1.769c.361 0 .655.294.655.655 0 .361-.294.655-.655.655zm1.621-5.267c-.02-.589-.356-1.1-.843-1.367.246-.078.476-.209.671-.388l.792-.726 1.837.936v.934c0 .207.016.411.044.611h-2.502z"/></g><defs><clipPath id="a"><path fill="#fff" d="M0 0h33v33h-33z"/></clipPath></defs></svg>