<svg width="33" height="33" viewBox="0 0 33 33" xmlns="http://www.w3.org/2000/svg" fill="none"><rect y="16" width="17" height="17" rx="5" fill="#3ED9B0"/><path d="M25.306 8.457c0-4.663-3.794-8.457-8.457-8.457s-8.457 3.794-8.457 8.457c0 2.855 1.422 5.384 3.595 6.916l-.279.149-4.584 2.764c-.332-.279-.76-.448-1.226-.448h-2.81c-1.052 0-1.908.856-1.908 1.908v11.346c0 1.052.856 1.908 1.908 1.908h2.81c.487 0 .932-.184 1.269-.485.561.318 1.191.485 1.847.485h10.742c1.27 0 2.303-1.033 2.303-2.303 0-.289-.053-.572-.158-.84-.108-.275-.265-.523-.466-.737.756-.378 1.277-1.16 1.277-2.062 0-.592-.221-1.149-.625-1.577.757-.378 1.278-1.16 1.278-2.062 0-.902-.521-1.685-1.279-2.062.388-.412.626-.967.626-1.576 0-.615-.239-1.193-.675-1.628-.435-.435-1.014-.674-1.628-.674h-1.076v-.936c3.455-1.064 5.973-4.285 5.973-8.085zm-15.947 0c0-4.13 3.36-7.49 7.49-7.49 4.13 0 7.49 3.36 7.49 7.49 0 4.13-3.36 7.49-7.49 7.49-4.13 0-7.49-3.36-7.49-7.49zm3.789 9.021c-.267 0-.483.216-.483.483s.216.483.483.483h7.261c.357 0 .692.139.945.391.252.252.391.588.391.944 0 .737-.599 1.336-1.336 1.336-.267 0-.483.216-.483.483s.216.483.483.483h.653c.737 0 1.336.599 1.336 1.336 0 .737-.599 1.337-1.336 1.337h-.653c-.267 0-.483.216-.483.483s.216.483.483.483c.357 0 .693.139.945.392.252.252.391.587.391.945 0 .737-.599 1.336-1.336 1.336h-.653c-.267 0-.483.216-.483.483s.216.483.483.483c.357 0 .692.139.945.392.131.13.231.284.299.456.061.156.092.32.092.487 0 .737-.599 1.336-1.336 1.336h-10.742c-.463 0-.91-.112-1.31-.327.066-.193.102-.399.102-.614v-2.607c0-.267-.216-.483-.483-.483s-.483.216-.483.483v2.607c0 .519-.422.941-.941.941h-2.81c-.519 0-.941-.422-.941-.941v-11.346c0-.519.422-.941.941-.941h2.81c.519 0 .941.422.941.941v6.806c0 .267.216.483.483.483s.483-.216.483-.483v-6.806c0-.235-.043-.461-.121-.669l4.523-2.727c.275-.166.585-.271.903-.308.386.191.79.354 1.206.485v.951h-1.169zm5.218 0h-3.083v-.709c.508.095 1.031.146 1.566.146.518 0 1.025-.047 1.517-.137v.7zM4.405 3.483l1.561.764c.218.107.451.158.681.158.541 0 1.067-.282 1.353-.778l.08-.139c.408-.706.197-1.616-.48-2.072l-1.442-.97c-.357-.24-.802-.322-1.221-.225-.419.097-.783.366-.998.739l-.199.345c-.215.372-.266.822-.141 1.233.125.411.419.756.805.945zm.173-1.695l.199-.345c.083-.143.217-.243.379-.28l.135-.016c.116 0 .229.034.328.101l1.442.97c.257.173.337.518.182.786l-.08.139c-.155.268-.494.371-.772.235l-1.561-.764c-.149-.073-.257-.2-.306-.358-.048-.158-.029-.325.053-.468zM29.292 13.431l-1.561-.764c-.733-.358-1.626-.086-2.034.62l-.08.139c-.408.706-.197 1.616.48 2.072l1.442.97c.259.174.563.265.871.265.117 0 .234-.013.35-.04.419-.097.783-.366.998-.739l.199-.345c.215-.372.266-.822.141-1.233-.125-.412-.419-.756-.805-.945zm-.173 1.695l-.199.345c-.083.143-.217.243-.379.28-.161.037-.326.007-.463-.085l-1.442-.97c-.257-.173-.337-.518-.182-.786l.08-.139c.155-.268.494-.371.772-.235l1.561.764c.149.073.257.2.306.358.048.158.029.325-.053.468zM2.372 9.795c.289.269.671.419 1.064.419l.106-.004 1.733-.119c.814-.056 1.451-.739 1.451-1.554v-.16c0-.816-.637-1.498-1.451-1.554l-1.733-.119c-.429-.029-.855.122-1.17.416-.314.294-.495.709-.495 1.139v.398c0 .43.18.845.495 1.139zm.472-1.537c0-.166.067-.319.188-.432.111-.103.252-.159.402-.159l.042.001 1.733.119c.309.021.551.28.551.59v.16c0 .309-.242.568-.551.59l-1.733.119c-.165.011-.323-.045-.444-.158s-.188-.266-.188-.432v-.398zM31.325 7.12c-.314-.294-.741-.445-1.17-.416l-1.733.119c-.814.056-1.451.739-1.451 1.554v.16c0 .816.637 1.498 1.451 1.554l1.733.119.106.004c.393 0 .776-.15 1.064-.419.314-.294.495-.709.495-1.139v-.398c0-.43-.18-.845-.495-1.139zm-.472 1.537c0 .166-.067.319-.188.432-.121.113-.279.169-.444.158l-1.733-.119c-.309-.021-.551-.28-.551-.59v-.16c0-.31.242-.568.551-.59l1.733-.119.042-.001c.15 0 .291.056.402.159.121.113.188.266.188.432v.398zM5.966 12.667l-1.561.764c-.386.189-.68.533-.805.945-.125.411-.074.861.141 1.233l.199.345c.215.373.579.642.998.739.115.027.233.04.35.04.308 0 .613-.091.871-.265l1.442-.97c.677-.455.888-1.365.48-2.072l-.08-.139c-.408-.706-1.301-.979-2.034-.62zm1.095 2.028l-1.442.97c-.137.092-.302.123-.463.085-.161-.037-.296-.137-.379-.28l-.199-.345c-.083-.143-.102-.309-.053-.468.048-.158.157-.286.306-.358l1.561-.764c.083-.04.171-.06.258-.06.205 0 .405.107.513.295l.08.139c.155.268.075.613-.182.786zM25.698 3.627c.286.496.812.778 1.353.778.23 0 .462-.051.681-.158l1.561-.764c.386-.189.68-.533.805-.945.125-.411.074-.861-.141-1.233l-.199-.345c-.215-.372-.579-.642-.998-.739-.419-.097-.864-.015-1.221.225l-1.442.97c-.677.455-.888 1.365-.48 2.072l.08.139zm.939-1.408l1.442-.97c.099-.067.212-.101.328-.101l.135.016c.161.037.296.137.379.28l.199.345c.083.143.102.31.053.468-.048.158-.157.286-.306.358l-1.561.764c-.278.136-.617.033-.772-.235l-.08-.139c-.155-.268-.075-.613.182-.786zM18.198 13.212l2.206-4.45c.119-.239.021-.529-.219-.648-.239-.119-.529-.021-.648.218l-2.206 4.451c-.059.119-.178.196-.311.202l-1.767.07c-.134.005-.258-.063-.326-.178l-2.493-4.17c-.103-.172-.046-.397.126-.5l1.258-.752c.172-.103.397-.047.5.126l1.265 2.116c.091.152.257.242.434.235.177-.007.336-.11.414-.268l2.598-5.242c.043-.087.118-.152.21-.184.092-.031.191-.024.279.019l1.313.65c.087.043.152.118.184.21.031.092.024.191-.019.279l-.596 1.203c-.119.239-.021.529.219.648.239.119.529.021.648-.219l.596-1.203c.158-.319.183-.68.069-1.017-.114-.337-.352-.609-.67-.768l-1.313-.65c-.319-.158-.68-.183-1.017-.069-.337.114-.609.352-.768.67l-2.205 4.448-.811-1.356c-.377-.63-1.196-.836-1.826-.46l-1.258.752c-.63.377-.835 1.196-.459 1.826l2.493 4.17c.241.403.675.648 1.142.648l.053-.001 1.767-.07c.488-.019.924-.303 1.14-.739z" fill="#333"/></svg>