<svg width="33" height="33" viewBox="0 0 33 33" xmlns="http://www.w3.org/2000/svg" fill="none"><rect y="16" width="17" height="17" rx="5" fill="#3ED9B0"/><g clip-path="url(#a)" fill="#333"><path d="M26.781 28.742l-1.232-3.697c-.431-1.291-1.529-2.243-2.868-2.487l-3.557-.647v-.276c.619-.359 1.158-.84 1.587-1.409h1.075c.88 0 1.597-.716 1.597-1.597v-6.387c0-3.815-3.104-6.919-6.919-6.919-3.815 0-6.919 3.104-6.919 6.919v3.726c0 1.026.73 1.885 1.697 2.085.299 1.53 1.255 2.824 2.561 3.582v.276l-3.558.647c-1.339.244-2.438 1.197-2.868 2.487l-.213.639-1.813-1.813c-.208-.208-.208-.546 0-.753l2.102-2.102-3.946-3.946-2.376 2.376c-.704.704-1.091 1.639-1.091 2.635 0 .995.387 1.93 1.091 2.634l7.193 7.193c.704.704 1.639 1.092 2.635 1.092.995 0 1.93-.388 2.618-1.076l2.593-2.375-.808-.807h11.421zm-4.464-10.113c0 .294-.239.532-.532.532h-.448c.154-.352.271-.723.347-1.109.228-.047.438-.138.633-.252v.828zm-.532-1.745v-1.833c.317.185.532.524.532.917 0 .392-.216.732-.532.917zm-10.645 0c-.317-.185-.532-.524-.532-.917 0-.392.216-.732.532-.917v1.833zm0-3.578v.608c-.189.05-.367.124-.532.22v-1.893c0-3.228 2.627-5.855 5.855-5.855 3.228 0 5.855 2.627 5.855 5.855v1.893c-.165-.096-.343-.171-.532-.22v-.608h-.532c-1.574 0-3.054-.613-4.167-1.726l-.623-.623-.623.623c-1.114 1.113-2.593 1.726-4.167 1.726h-.532zm1.065 3.726v-2.681c1.598-.12 3.089-.78 4.258-1.892 1.169 1.112 2.66 1.772 4.258 1.892v2.681c0 .776-.212 1.502-.576 2.129h-3.682v1.064h2.807c-.751.66-1.732 1.064-2.807 1.064-2.348 0-4.258-1.91-4.258-4.258zm5.855 5.077v.025l-1.597 1.597-1.597-1.597v-.025c.505.159 1.04.245 1.597.245.556 0 1.092-.087 1.597-.245zm-9.674 3.272c.307-.922 1.092-1.603 2.049-1.777l3.72-.676 2.308 2.308 2.308-2.308 3.72.676c.956.175 1.742.855 2.049 1.777l.766 2.296h-11.009l-2.073-2.073-2.304 2.084c-.201.202-.551.202-.753 0l-1.162-1.162.381-1.144zm-4.879-6.806l2.441 2.441-.578.578-2.441-2.441.578-.578zm9.333 12.582c-.502.501-1.171.779-1.882.779-.711 0-1.379-.277-1.882-.78l-7.193-7.193c-.502-.503-.779-1.171-.779-1.882 0-.711.277-1.38.779-1.882l.293-.293 2.441 2.441-.019.019c-.622.623-.622 1.636 0 2.258l3.817 3.817c.302.301.703.468 1.129.468.427 0 .828-.166 1.11-.449l.04-.036 2.452 2.452-.306.28zm1.091-1.001l-2.447-2.447.703-.636 2.442 2.443-.699.64zM31.365 0h-7.452c-.88 0-1.597.716-1.597 1.597v4.258c0 .88.716 1.597 1.597 1.597h1.422l-.55 3.21 5.136-3.21h1.444c.88 0 1.597-.716 1.597-1.597v-4.258c0-.88-.716-1.597-1.597-1.597zm.532 5.855c0 .293-.239.532-.532.532h-1.749l-3.38 2.113.363-2.113h-2.684c-.293 0-.532-.239-.532-.532v-4.258c0-.293.239-.532.532-.532h7.452c.293 0 .532.239.532.532v4.258zM30.833 2.129h-6.387v1.065h6.387v-1.065zM28.704 4.258h-4.258v1.065h4.258v-1.065zM30.833 4.258h-1.064v1.065h1.064v-1.065zM16.462 1.597c-6.955 0-12.945 4.811-14.502 11.521l-1.009-1.681-.913.548 1.871 3.117 3.117-1.871-.548-.913-1.442.865c1.508-6.139 7.028-10.522 13.426-10.522 1.398 0 2.778.208 4.101.617l.315-1.017c-1.425-.442-2.91-.665-4.416-.665zM32.703 11.785l-3.117-1.871-1.87 3.118.913.548.931-1.553c.49 1.434.741 2.935.741 4.473 0 3.165-1.096 6.26-3.087 8.713l.827.671c2.144-2.642 3.325-5.975 3.325-9.384 0-1.628-.262-3.218-.774-4.74l1.564.938.548-.913z"/></g><defs><clipPath id="a"><path fill="#fff" d="M0 0h33v33h-33z"/></clipPath></defs></svg>