<svg width="365" height="273" viewBox="0 0 365 273" xmlns="http://www.w3.org/2000/svg" fill="none"><path d="M364.778 272.018h-87.343c-2.506-23.77-12.35-47.183-34.186-59.157-20.583-11.26-45.641-11.796-65.15-25.201-8.233-5.54-14.855-13.404-19.151-22.34-5.548-11.438-4.474-23.592-7.517-35.566-10.202-40.749-33.291-43.251-55.664-57.013-25.774-15.906-37.944-47.719-37.765-72.741h306.776v272.018z" fill="url(#a)"/><path opacity=".5" d="M1.051 186.212l45.283 26.451c1.611.894 4.296.715 6.085-.179l9.665-5.54c1.79-1.073 1.969-2.681.358-3.575l-45.282-26.451c-1.611-.893-4.296-.715-6.086.179l-9.665 5.54c-1.611 1.073-1.969 2.681-.358 3.575zm74.278-19.124c-4.475 1.966-5.906 5.183-9.844 10.724-3.938 5.54-7.696 9.115-2.685 12.332 5.011 3.396 15.035-2.502 17.361-8.579 1.074-2.681 1.969-5.183 3.401-6.613 3.759-3.753 9.844-5.183 9.486-8.042-.537-3.039-4.296-3.217-7.159-3.039-2.685.358-7.875 1.966-10.56 3.217zm57.99 15.192l47.252 27.345c3.042 1.787 8.591 1.608 12.35-.537l22.551-12.868c3.58-2.144 3.938-5.183.895-7.149l-47.251-27.344c-3.043-1.788-8.591-1.609-12.35.536l-22.552 12.868c-3.579 2.145-3.937 5.362-.895 7.149zm10.023 19.66l-41.166 23.591-24.163-13.94 41.166-23.592 24.163 13.941z" fill="#476FC7"/><path d="M187.015 203.369c0-3.038-1.79-6.613-4.117-7.864-.537-.357-1.253-.536-1.79-.536-.358 0-1.432 0-2.684.715-1.253.715-1.432 2.681-1.432 2.681l4.653 9.472s1.432.715 3.043-.178c.895-.537 1.611-1.43 1.79-1.788.179-.178.358-.714.358-.714l.179-1.788z"/><path d="M176.812 199.616c0 3.038 1.79 6.613 4.117 7.864 2.327 1.251 4.117 0 4.117-3.038 0-3.039-1.79-6.613-4.117-7.864-2.148-1.251-4.117 0-4.117 3.038z" fill="#3F2A28"/><path d="M178.423 200.867c0 1.609 1.074 3.575 2.327 4.289 1.253.715 2.327 0 2.327-1.787 0-1.608-1.074-3.574-2.327-4.289-1.253-.715-2.327.179-2.327 1.787z" fill="#fff"/><path d="M178.781 195.327h2.685v7.864c0 .536-.179.893-.358 1.072l-.895.536-.895-.894.179-.178c-.358-.536-.716-1.251-.716-1.966v-6.434z" fill="#D8C4C3"/><path d="M180.571 195.327v8.221c0 1.072-.537 1.43-1.253 1.072-.716-.357-1.253-1.608-1.253-2.502v-6.613h2.506v-.178z" fill="#EDDCDA"/><path d="M144.953 179.063c0-3.038-1.79-6.613-4.116-7.864-.537-.358-1.253-.536-1.79-.536-.358 0-1.432 0-2.685.715-1.253.715-1.432 2.681-1.432 2.681l4.654 9.472s1.432.715 3.042-.179c.895-.536 1.611-1.43 1.79-1.787.179-.179.358-.715.358-.715l.179-1.787z"/><path d="M134.751 175.31c0 3.038 1.79 6.612 4.117 7.863 2.327 1.252 4.117 0 4.117-3.038s-1.79-6.613-4.117-7.864c-2.327-1.429-4.117 0-4.117 3.039z" fill="#3F2A28"/><path d="M136.362 176.561c0 1.608 1.074 3.574 2.327 4.289 1.253.715 2.327 0 2.327-1.787 0-1.609-1.074-3.575-2.327-4.29-1.253-.714-2.327.179-2.327 1.788z" fill="#fff"/><path d="M136.72 171.02h2.685v7.864c0 .536-.179.894-.358 1.072l-.895.537-.895-.894.179-.179c-.358-.536-.716-1.251-.716-1.966v-6.434z" fill="#D8C4C3"/><path d="M138.51 171.02v8.222c0 1.072-.537 1.429-1.253 1.072-.716-.358-1.253-1.609-1.253-2.502v-6.613h2.506v-.179z" fill="#EDDCDA"/><path d="M213.862 187.82c0-3.038-1.79-6.612-4.117-7.864-.537-.357-1.253-.536-1.79-.536-.357 0-1.431 0-2.684.715-1.253.715-1.432 2.681-1.432 2.681l4.653 9.472s1.432.715 3.043-.178c.895-.536 1.611-1.43 1.79-1.788.179-.178.358-.714.358-.714 0-.537.179-1.073.179-1.788z"/><path d="M203.66 184.246c0 3.038 1.79 6.613 4.117 7.864 2.327 1.251 4.116 0 4.116-3.039 0-3.038-1.789-6.612-4.116-7.864-2.327-1.429-4.117 0-4.117 3.039z" fill="#3F2A28"/><path d="M205.271 185.318c0 1.609 1.074 3.575 2.327 4.29 1.253.714 2.327 0 2.327-1.788 0-1.608-1.074-3.574-2.327-4.289-1.432-.536-2.327.179-2.327 1.787z" fill="#fff"/><path d="M205.629 179.778h2.685v7.864c0 .536-.179.893-.358 1.072l-.895.536-.895-.894.179-.178c-.358-.536-.716-1.251-.716-1.966v-6.434z" fill="#D8C4C3"/><path d="M207.419 179.778v8.221c0 1.072-.537 1.43-1.253 1.072-.716-.357-1.253-1.608-1.253-2.502v-6.613h2.506v-.178zm-66.403-15.549l14.498-8.4c3.042-1.788 7.875-1.966 10.56-.358l43.85 25.379v-.179h6.623v5.898c-.179 1.073-1.074 2.324-2.506 3.217l-19.33 11.081c-3.043 1.787-7.875 1.966-10.56.358l-48.683-28.06c-1.253-.715-1.79-1.787-1.79-2.86v-5.719l7.338-.357z" fill="#EDDCDA"/><path d="M135.467 167.267l48.684 28.06c2.684 1.608 7.517 1.43 10.56-.358l19.33-11.081c3.042-1.787 3.4-4.468.716-6.076l-48.684-28.06c-2.684-1.608-7.517-1.43-10.56.357l-19.33 11.081c-3.042 1.788-3.4 4.647-.716 6.077z" fill="#F4EBEA"/><path d="M124.013 87.199l27.563-15.906c.358-.179.716-.179 1.074 0l-28.458 16.443-.179-.536zm29.89-14.12l-28.816 16.621-.537-1.251 28.816-16.621c.179.536.358.894.537 1.251zm-.358 2.145l-27.921 16.085-.358-.715 28.637-16.443c0 .536-.179.894-.358 1.072z" fill="#E3EDFF"/><path d="M154.082 74.152l-28.638 16.621-.358-.894 28.817-16.621c0 .179.179.536.179.894zm-1.611-2.86c.358.179.537.357.716.715l-28.816 16.621-.358-.894 28.458-16.443z" fill="#92B1FF"/><path d="M126.339 90.058c0 1.072-.716 1.609-1.432 1.072-.894-.536-1.431-1.787-1.431-2.86 0-1.072.716-1.608 1.431-1.072.716.536 1.432 1.787 1.432 2.86z" fill="#778DFD"/><path d="M138.689 90.773c-3.401-1.966-7.339-4.289-7.339-4.289h-.537l7.876 4.468v-.179zm0 .715l-8.234-4.647c-.179.179-.179.358-.179.536l8.413 4.825v-.715zm0 1.251l-8.591-4.826c0 .179 0 .357.179.536l8.233 4.825v-.536h.179zm0-.536l-8.413-4.825v.357l8.591 4.825v-.357h-.178zm0-1.251l-7.875-4.468c-.179 0-.179.179-.358.358l8.233 4.647v-.536zm18.077-11.081c-3.401-1.966-7.338-4.289-7.338-4.289h-.537l7.875 4.468v-.179zm0 .715l-8.233-4.647c-.179.179-.179.357-.179.536l8.412 4.826v-.715zm0 1.251l-8.591-4.826c0 .179 0 .358.179.536l8.233 4.826v-.536h.179zm0-.536l-8.412-4.826v.357l8.591 4.826v-.357h-.179zm0-1.251l-7.875-4.468c-.179 0-.179.179-.358.357l8.233 4.647v-.536z" fill="#352221"/><path d="M189.136 121.135l-1.72-.494-6.142 21.297 1.721.495 6.141-21.298z" fill="#593D3D"/><path d="M193.279 114.543c-.179-.893-1.432-.893-2.148.179.358-1.072.716-2.502-.537-2.86-.716-.178-1.253.358-1.79.715-.179-.357-.358-.536-.716-.715-.358 0-.716.358-.895.715-.179-.715-.716-1.429-1.253-1.608-.895-.179-1.253.357-1.432 1.072-.179-.179-.537-.357-1.074-.357-.536 0-1.252.178-1.61.715-.716 1.072.537 2.144 1.253 2.859-.358.536-.537 1.251-.179 1.966-.716 0-1.253.536-1.253 1.251 0 1.073.895 1.788 1.789 1.966-.715.358-1.252.715-.715 1.43.536.715 1.61.536 2.326.357-.179.894-.179 1.788.895 1.788.716 0 1.611-.715 2.148-1.43.358.715 1.074 1.072 1.79.894.537-.179.895-.537.895-.894 1.074.536 2.327.894 3.221-.179.358-.536.358-1.251 0-1.787.358 0 .895-.357 1.074-.894.179-.357 0-.715-.179-1.072.716-.357 1.074-1.072 1.074-1.966 0-.357-.179-.894-.358-1.251 0-.358-.895-1.072-2.326-.894z" fill="#3ED9B0"/><path d="M204.017 89.522c-.358-.357-.895-.357-1.253-.179.179-.536.179-1.072-.357-1.608-.358-.357-.895-.357-1.611 0 .358-1.072-.895-2.323-2.148-1.43-.537-.894-2.148-1.072-2.506-.357-.716-2.681-2.864-1.251-2.864 0-.716-.179-1.789 0-2.326.715-.358.536-.358 1.072-.179 1.608-.358 0-.537.179-.895.357-.716.536-.716 1.072-.358 1.787-.537 0-1.074.357-1.253.894-.358.715 0 1.43.358 1.966l-.537.536c-.358.536-.179 1.072 0 1.609-.358 0-.895.179-1.253.357-.716.715-.537 1.787-.179 2.502-.537 0-1.074.358-1.253.894-.358.715 0 1.43.358 2.145.537.357 1.074.715 1.253 1.251.358-.358.716-.715 1.253-.536.716 0 1.074.536 1.432 1.072.179-.179.537-.357.895-.357s.537.357.716.714c.716-.536 1.431-.536 2.326 0 .358.358.537.715.537 1.252.358-.715 1.969-.894 2.327.536 1.611-.715 2.327 0 3.222 1.251h.179c.358-.179.716-.536 1.074-.894.358-.536.179-1.251 0-1.608.358-.179.716-.537.895-.894.179-.357.179-.894 0-1.251.716 0 1.252-.179 1.073-1.072 0-.537-.179-1.073-.536-1.609 1.073 0 1.968-.358 1.968-1.43 0-.715-.537-1.251-1.074-1.609.716-.357 1.432-1.251 1.432-2.145 0-.536-.179-1.072-.716-1.43l.358-.715c.358-1.072.179-1.787-.358-2.323z" fill="#4C73EB"/><path d="M196.679 105.071c-.358-1.251-1.969-1.072-2.327-.536 0-.536-.179-.894-.536-1.251-.716-.536-1.611-.536-2.327 0-.179-.358-.358-.536-.716-.715-.358 0-.716 0-.895.357-.358-.536-.716-.893-1.432-1.072-.537 0-1.074.179-1.253.536l-1.253-1.251c-.537 0-1.074.357-1.253.894-.358.715-.179 1.429.358 1.966-.358.357-.716.715-.716 1.429 0 .358.358.894.537 1.073-.537 0-1.073.178-1.431.715-.358.715.179 1.608.715 2.323-.536 0-.894 0-1.073.536-.179.536 0 1.073.179 1.43h-.179c.358 0 .715.179 1.073.357.179-.714.537-1.251 1.432-1.072.537.179 1.074.894 1.253 1.609.179-.358.358-.715.895-.715.358 0 .537.357.716.715.537-.537 1.253-.894 1.79-.715 1.253.178.895 1.787.537 2.859.716-1.072 2.148-1.072 2.148-.178 1.431-.358 2.147.536 2.505.893l.716-.178c.537-.358.895-1.252.537-1.966 1.253-.358 1.969-1.788 1.253-2.86.895-.357 1.611-1.072 1.79-2.145.179-.536 0-1.251-.358-1.608-.358-1.43-1.074-2.145-2.685-1.43z" fill="#FDA12D"/><path d="M145.311 148.68l1.074.893c.537-4.11 1.969-8.578 4.474-12.868l2.685-4.647c-.358-.357-.895-.536-1.253-.536l-2.684 4.468c-2.327 4.111-3.759 8.4-4.296 12.69z" fill="#3F2A28"/><path d="M146.385 140.101l1.253 19.302.537 7.149c2.684 2.681 8.054 4.647 14.139 4.647 6.265 0 11.634-1.966 14.14-4.647l.537-7.149 1.253-19.302h-31.859z" fill="#FFAF49"/><path d="M162.314 131.701c-8.77 0-15.929 3.753-15.929 8.4s7.159 8.4 15.929 8.4 15.93-3.753 15.93-8.4c-.179-4.647-7.16-8.4-15.93-8.4z" fill="#FFBD69"/><path d="M162.314 138.314c6.265 0 11.634 1.966 13.782 4.646.716-.893 1.074-1.965 1.074-2.859 0-4.289-6.802-7.685-15.035-7.685s-15.034 3.396-15.034 7.685c0 1.072.358 1.966 1.073 2.859 2.506-2.68 7.876-4.646 14.14-4.646zm0 9.472c6.265 0 11.634-1.966 13.782-4.647-2.327-2.681-7.696-4.647-13.782-4.647-6.264 0-11.633 1.966-13.781 4.647 2.148 2.681 7.517 4.647 13.781 4.647z" fill="#EFA500"/><path d="M162.314 158.688c-7.875 0-14.139 3.396-14.139 7.507 0 4.11 6.264 7.506 14.139 7.506 7.876 0 14.14-3.396 14.14-7.506 0-4.111-6.443-7.507-14.14-7.507z" fill="#FFAF49"/><path d="M171.085 144.39c.79 0 1.432-.64 1.432-1.43 0-.789-.642-1.429-1.432-1.429-.791 0-1.432.64-1.432 1.429 0 .79.641 1.43 1.432 1.43z" fill="#3F2A28"/><path d="M174.485 140.637l-.536-.357h-.179c-.358-.179-.716-.179-1.253.178-1.074.537-1.969 2.145-1.969 3.575v2.681l.716.357c.358-.357 3.221-1.43 3.221-2.859v-2.503c0-.357 0-.536-.179-.714l.179-.358zm-1.789 3.932c-.179.179-.358.179-.537.179v-.536c0-.894.537-1.966 1.253-2.503.179-.178.358-.178.537-.178v.536c0 .893-.537 1.966-1.253 2.502z" fill="#FFBD69"/><path d="M173.232 140.816c-1.073.536-1.968 2.144-1.968 3.574v2.681l3.758-1.608v-3.217c.179-1.43-.716-2.145-1.79-1.43zm-.536 3.753c-.179.179-.358.179-.537.179v-.536c0-.894.537-1.966 1.252-2.503.179-.178.358-.178.537-.178v.536c0 .893-.537 1.966-1.252 2.502z" fill="#FFAF49"/><path d="M173.769 141.531v.536c0 .894-.537 1.966-1.253 2.502-.179.179-.358.179-.537.179.179.536.716.715 1.253.536.716-.358 1.253-1.43 1.253-2.502.179-.894-.179-1.251-.716-1.251zm-19.867-12.69l-.537-.357h-.178c-.358-.179-.716-.179-1.253.179-1.074.536-1.969 2.144-1.969 3.574v2.681l.716.357c.358-.357 3.221-1.429 3.221-2.859v-2.502c0-.358 0-.537-.179-.715l.179-.358zm-1.789 3.753c-.179.179-.358.179-.537.179v-.536c0-.894.537-1.966 1.253-2.502.179-.179.358-.179.536-.179v.536c0 1.073-.536 2.145-1.252 2.502z" fill="#FFBD69"/><path d="M152.649 128.841c-1.073.536-1.968 2.145-1.968 3.575v2.681l3.758-1.609v-3.217c.179-1.251-.716-1.966-1.79-1.43zm-.536 3.754c-.179.178-.358.178-.537.178v-.536c0-.894.537-1.966 1.252-2.502.179-.179.358-.179.537-.179v.536c0 1.073-.537 2.145-1.252 2.503z" fill="#FFAF49"/><path d="M153.366 129.735v.536c0 .894-.537 1.966-1.253 2.502-.179.179-.358.179-.537.179.179.536.716.715 1.253.536.715-.357 1.252-1.43 1.252-2.502 0-.894-.358-1.251-.715-1.251z" fill="#FFBD69"/><path d="M167.684 151.539c-3.58 6.256-8.591 10.545-13.066 11.439-2.148.357-3.758-.179-5.19-1.251-3.043-2.503-3.759-8.043-2.506-14.298-.179-1.788-.179-2.681-.358-4.29-2.685 8.222-2.148 16.085 1.969 19.481 1.432 1.251 3.043 1.787 4.832 1.787.537 0 1.074 0 1.611-.178 4.833-.894 10.202-5.362 14.14-11.975l4.474-7.685c.358-.894.179-1.43-.894-1.966-.358.536-.537 1.43-.537 1.43l-4.475 7.506zm-14.498-17.693c.791 0 1.432-.641 1.432-1.43 0-.79-.641-1.43-1.432-1.43-.791 0-1.432.64-1.432 1.43 0 .789.641 1.43 1.432 1.43z" fill="#3F2A28"/><path d="M182.003 63.607h-1.969l.537 88.29h1.968l-.536-88.29zm-23.805 27.702v84.537c0 .357.537.536 1.074.536s1.074-.179 1.074-.536v-84.537h-2.148zm11.992 0v84.537c0 .357.537.536 1.074.536s1.074-.179 1.074-.536v-84.537h-2.148z" fill="#352221"/><path d="M133.677 132.773v3.217c0 .179 1.611 1.073 1.611 1.073s-.895-2.145.716-3.217c1.611-1.073 17.361-10.366 19.688-11.439 2.327-1.251 6.264-2.502 9.844-.715 3.759 1.788 23.089 13.405 23.089 13.405l.895-2.324s-22.552-13.225-24.879-14.298c-2.327-.893-5.19-.357-7.517.536-2.327.894-23.447 13.762-23.447 13.762zm32.575-11.974c-2.685-1.609-7.517-1.43-10.56.357l-19.33 11.081c-3.043 1.787-3.401 4.468-.716 6.077l28.458 16.264 29.89-17.873-27.742-15.906zm-27.742 16.085c-2.327-1.251-1.969-2.323.716-3.932l17.361-10.009c2.685-1.429 6.622-1.608 8.77-.357l23.626 13.762-25.058 15.013-25.415-14.477z" fill="#778DFD"/><path d="M166.252 117.76c-2.685-1.608-7.517-1.429-10.56.358l-19.33 11.081c-3.043 1.787-3.401 4.468-.716 6.076l28.458 16.264 29.89-17.872-27.742-15.907zm-27.742 16.086c-2.327-1.251-1.969-2.324.716-3.932l17.361-10.009c2.685-1.43 6.622-1.608 8.77-.357l23.626 13.761-25.058 15.013-25.415-14.476zm25.415 49.506l-2.326-1.43v-70.953l2.326 1.43v70.953z" fill="#729CF0"/><path d="M163.926 183.352l2.506-1.43v-70.953l-2.506 1.43v70.953zm27.563-16.085l-2.506-1.43v-71.311l2.506 1.43v71.311z" fill="#4C73EB"/><path d="M191.489 167.267l2.327-1.43v-71.311l-2.327 1.43v71.311z" fill="#729CF0"/><path d="M208.492 164.765c-.358.357-.895.715-1.253.893-.536-4.646-2.147-9.651-4.832-14.297l-3.043-5.183c.358-.358.895-.537 1.432-.537l2.864 5.005c2.506 4.646 4.295 9.472 4.832 14.119z" fill="#3F2A28"/><path d="M207.239 180.493c0 1.608-.716 3.038-1.968 4.289l.536-7.864c1.074 1.072 1.432 2.324 1.432 3.575zm-33.828-3.575l.537 7.864c-1.253-1.251-1.969-2.681-1.969-4.289 0-1.251.537-2.503 1.432-3.575z" fill="#D3BCBA"/><path d="M207.239 155.292l-1.432 21.626-.536 7.864c-2.864 3.038-8.95 5.183-15.751 5.183-6.98 0-12.887-2.145-15.75-5.183l-.537-7.864-1.432-21.626h35.438z" fill="#3ED9B0"/><path d="M189.699 145.999c9.844 0 17.719 4.289 17.719 9.472s-7.875 9.473-17.719 9.473c-9.844 0-17.72-4.29-17.72-9.473 0-5.361 7.876-9.472 17.72-9.472z" fill="#6BF2CE"/><path d="M189.699 153.327c-6.98 0-12.887 2.144-15.392 5.183-.895-1.073-1.253-2.145-1.253-3.217 0-4.647 7.517-8.579 16.645-8.579 9.307 0 16.645 3.753 16.645 8.579 0 1.072-.536 2.323-1.252 3.217-2.506-3.039-8.592-5.183-15.393-5.183z" fill="#39BF9C"/><path d="M189.699 163.871c-6.98 0-12.887-2.144-15.392-5.183 2.505-3.038 8.412-5.183 15.392-5.183 6.98 0 12.887 2.145 15.393 5.183-2.506 3.039-8.591 5.183-15.393 5.183z" fill="#BBCDFF"/><path d="M181.824 150.646c0 .357.358.715.716.715s.716-.358.716-.715c0-.358-.358-.715-.716-.715-.358.179-.716.357-.716.715zm2.326 9.472c0 .357.358.715.716.715s.716-.358.716-.715-.358-.715-.716-.715-.716.358-.716.715zm8.234-5.898c.179-.357.716-1.072 1.253-1.251-.179-.893.179-1.787 1.074-2.323 1.073-.536 2.863.178 3.042 1.251.358-.358.895-.358 1.432-.179.716.358.895 1.072.716 1.609.895-.179 1.969.178 2.506 1.072.358.536 0 1.608-.537 1.966.358.536.179 1.608-.537 1.966-.716.357-1.432.357-2.148 0-.537.357-1.074.715-1.79.536-.716-.179-1.253-.536-1.611-1.072-1.074.357-2.326-.179-3.221-1.073-.716-.536-.716-1.429-.179-2.502zm-17.004.536c.358-.178.716-.178 1.253-.178 0-.715.358-1.43 1.253-1.788.537-.178 1.074-.178 1.432.179.179-.536.716-.894 1.432-.894.537 0 .716.358.895.894.537-.536 1.611-.715 2.147-.715.716.179 1.253.536 1.611 1.251.716-.536 1.969-.536 2.327.179.716 1.072-.537 1.608-1.432 1.966.179.179.358.357.358.536.179.715-.358 1.43-1.074 1.609-.716.357-1.611.178-2.326-.179 0 .894-.537 1.43-1.79 1.43-.358 0-.895-.179-1.253-.536-.358.893-1.074 1.608-2.327 1.608-.537 0-1.432-.179-1.79-.715-.179-.357-.358-.715-.358-1.072l-.716-.179c-.537-.357-.895-1.072-.895-1.787.179-.715.716-1.43 1.253-1.609zm15.214-4.11c0 .536.358.893.895.893s.895-.357.895-.893c0-.537-.358-.894-.895-.894-.358 0-.895.357-.895.894zm11.813 1.966c0 .536.358.893.895.893s.895-.357.895-.893-.358-.894-.895-.894-.895.536-.895.894zm-13.603 8.221c.89 0 1.611-.72 1.611-1.609 0-.888-.721-1.608-1.611-1.608-.889 0-1.611.72-1.611 1.608 0 .889.722 1.609 1.611 1.609zm2.327-.179c0 .536.537 1.073 1.074 1.073s1.074-.537 1.074-1.073c0-.536-.537-1.072-1.074-1.072-.537-.179-1.074.357-1.074 1.072zm-4.296-9.472c.495 0 .895-.4.895-.894 0-.493-.4-.893-.895-.893-.494 0-.895.4-.895.893 0 .494.401.894.895.894zm14.319-.179c0 .358.358.715.716.715s.716-.357.716-.715c0-.357-.358-.715-.716-.715s-.716.358-.716.715zm-13.066-1.608c.395 0 .716-.32.716-.715 0-.395-.321-.715-.716-.715-.395 0-.716.32-.716.715 0 .395.321.715.716.715zm8.591 11.438c0 .357.358.715.716.715s.716-.358.716-.715c0-.358-.358-.715-.716-.715s-.716.357-.716.715z" fill="#fff"/><path d="M179.676 159.939c.889 0 1.611-.72 1.611-1.608 0-.889-.722-1.609-1.611-1.609-.89 0-1.611.72-1.611 1.609 0 .888.721 1.608 1.611 1.608z" fill="#3F2A28"/><path d="M175.917 156.007l.537-.357h.179c.358-.179.895-.179 1.432.179 1.074.715 2.148 2.502 2.148 4.11v3.039l-.716.357c-.537-.357-3.58-1.608-3.58-3.217v-2.681c0-.357 0-.536.179-.715l-.179-.715zm2.148 4.29c.179.178.358.178.537.178l.179-.536c0-1.072-.716-2.323-1.432-2.681-.179-.178-.358-.178-.537-.178l-.179.536c0 .894.716 2.145 1.432 2.681z" fill="#39BF9C"/><path d="M177.349 156.007c1.074.715 2.148 2.502 2.148 4.111v3.038l-4.296-1.787v-3.575c0-1.787 1.074-2.502 2.148-1.787zm.716 4.29c.179.178.358.178.537.178l.179-.536c0-1.072-.716-2.323-1.432-2.681-.179-.178-.358-.178-.537-.178l-.179.536c0 .893.716 2.144 1.432 2.681z" fill="#3ED9B0"/><path d="M176.633 156.901l-.179.536c0 1.073.716 2.324 1.432 2.681.179.179.358.179.537.179-.179.715-.716.893-1.253.536-.716-.536-1.432-1.609-1.432-2.681 0-.715.358-1.251.895-1.251z" fill="#39BF9C"/><path d="M198.827 142.782l.537-.358h.179c.358-.178.895-.178 1.431.179 1.074.715 2.148 2.502 2.148 4.111v3.038l-.716.357c-.537-.357-3.579-1.608-3.579-3.217v-2.68c0-.358 0-.537.179-.715l-.179-.715zm2.147 4.289c.179.179.358.179.537.179l.179-.536c0-1.073-.716-2.324-1.431-2.681-.179-.179-.358-.179-.537-.179l-.179.536c0 .894.537 2.145 1.431 2.681z" fill="#3ED9B0"/><path d="M200.259 142.781c1.074.715 2.147 2.503 2.147 4.111v3.038l-4.295-1.787v-3.574c0-1.788.895-2.502 2.148-1.788zm.716 4.29c.179.179.358.179.537.179l.178-.537c0-1.072-.715-2.323-1.431-2.68-.179-.179-.358-.179-.537-.179l-.179.536c0 .894.537 2.145 1.432 2.681z" fill="#39BF9C"/><path d="M199.543 143.675l-.179.537c0 1.072.716 2.323 1.432 2.68.179.179.358.179.537.179-.179.715-.716.894-1.253.536-.716-.536-1.432-1.608-1.432-2.681 0-.714.358-1.251.895-1.251z" fill="#3ED9B0"/><path d="M183.434 167.982c3.938 6.97 9.665 11.796 14.677 12.689 2.327.358 4.296-.178 5.906-1.429 3.222-2.86 4.117-9.115 2.864-15.907.179-1.966.179-3.038.358-4.826 3.043 9.115 2.327 17.873-2.148 21.805-1.432 1.251-3.4 1.966-5.369 1.966-.537 0-1.074 0-1.79-.179-5.369-.894-11.455-6.077-15.75-13.404l-5.012-8.579c-.537-.894-.179-1.608.895-2.145.358.537.537 1.609.537 1.609l4.832 8.4zm14.498-21.268c0 .893.716 1.608 1.611 1.608s1.611-.715 1.611-1.608c0-.894-.716-1.609-1.611-1.609s-1.611.715-1.611 1.609z" fill="#3F2A28"/><path d="M192.92 134.382l-27.384 16.264v3.574l27.563-16.442-.179-3.396z" fill="#4C73EB"/><path d="M133.677 93.454v3.217c0 .179 1.611 1.072 1.611 1.072s-.895-2.145.716-3.217 17.361-10.366 19.688-11.438c2.327-1.251 6.264-2.502 9.844-.715 3.759 1.787 23.089 13.404 23.089 13.404l.895-2.323s-22.552-13.226-24.879-14.298c-2.327-.894-5.19-.357-7.517.536-2.327.894-23.447 13.762-23.447 13.762zm32.575-11.796c-2.685-1.609-7.517-1.43-10.56.357l-19.33 11.081c-3.043 1.787-3.401 4.468-.716 6.077l28.458 16.264 29.89-17.872-27.742-15.906zm-27.742 16.085c-2.327-1.251-1.969-2.323.716-3.932l17.361-10.009c2.685-1.43 6.622-1.609 8.77-.357l23.626 13.762-25.058 15.013-25.415-14.477z" fill="#778DFD"/><path d="M166.252 78.62c-2.685-1.608-7.517-1.43-10.56.358l-19.33 11.081c-3.043 1.787-3.401 4.468-.716 6.077l28.458 16.264 29.89-17.873-27.742-15.907zm-27.742 16.085c-2.327-1.251-1.969-2.323.716-3.932l17.361-10.009c2.685-1.43 6.622-1.608 8.77-.357l23.626 13.762-25.058 15.013-25.415-14.477z" fill="#729CF0"/><path d="M163.925 115.437l29.89-17.873v-3.038l-29.89 17.873v3.038z" fill="#4C73EB"/><path d="M191.489 135.097l-3.58 2.144-2.685-1.608 3.58-2.145 2.685 1.609z" fill="#729CF0"/><path d="M160.167 115.08h-1.969v10.366h1.969v-10.366zm11.992 1.608h-1.969v10.366h1.969v-10.366zm-11.992-42.358h-1.969v19.124h1.969v-19.124z" fill="#352221"/><path d="M156.945 76.832v1.251c0 .715 1.074 1.251 2.327 1.251 1.252 0 2.326-.536 2.326-1.251v-1.251h-4.653z" fill="#493130"/><path d="M159.272 75.582c-1.253 0-2.327.536-2.327 1.251 0 .715 1.074 1.251 2.327 1.251 1.252 0 2.326-.536 2.326-1.251 0-.715-1.074-1.251-2.326-1.251z" fill="#472F2E"/><path d="M171.264 69.326l-20.225 11.796-6.802-3.932 20.404-11.796 6.623 3.932z" fill="#C6AFAF"/><path d="M151.039 81.122v2.502l20.225-11.796v-2.502l-20.225 11.796z" fill="#9E8282"/><path d="M144.237 77.19v2.502l6.802 3.932v-2.502l-6.802-3.932z" fill="#B29A9A"/><path d="M171.085 63.428c-.537.715-.895 2.323-.895 2.323s-.358-.536-.537-.894c-.358-.536-1.074-.715-1.074-.715s.179.894.179 1.43c-.179.894-.895 1.787-.895 1.787s-.179-.536-.537-1.072c-.358-.536-1.074-.894-1.074-.894l-.716 1.43c-.179.536-.716 1.609-.716 1.609s-.537-.715-.895-1.072c-.358-.357-1.253-.715-1.253-.715s0 .358-.179 1.072c-.179.715-.894 1.787-.894 1.787s-.537-.715-.716-.894c-.179-.179-.716-.894-.716-.894s-.537.536-.716 1.251c-.179.715-.537 1.251-.537 1.251s-.358-.357-1.074-.894c-.537-.358-1.253-.358-1.253-.358s.179.536.358 1.251c0 .715-.358 1.608-.358 1.608s-.895-.357-.895-.894c-.179-.536-.179-1.43-.179-1.43s-.895.894-1.253 1.608c-.358.715-.895 1.966-.895 1.966s-.358-.536-.358-1.072c-.179-.536-.716-1.43-.716-1.43s-.537.536-1.073 1.43c-.537.894-1.074 1.43-1.074 1.43s-.358-.894-.358-1.787v-1.43s-.537.179-1.074.536c-.537.357-.895.894-.895.894s-.179-.715-.895-1.43c-.537-.715-1.969-1.609-1.969-1.609s.537 1.251.358 3.217c-.179 1.966.179 4.289.537 4.468.179.179 1.79 1.251 3.043 1.966.895.536 1.969 1.251 2.684.894.895-.357 2.864-1.787 6.086-3.575 1.79-1.072 3.938-2.323 5.548-3.217 2.685-1.43 5.012-2.502 6.623-3.575 1.074-.715 1.074-1.072 1.253-1.787.358-1.787 1.252-5.541 1.252-5.541s-.715 1.251-1.252 1.966z" fill="#FDA12D"/><path d="M169.295 60.39s-1.253.536-1.432 1.251c-.358-1.787-1.432-2.145-1.432-2.145s-1.253.715-1.79 1.787c-.537-.715-2.506-1.251-2.506-1.251s-.894 1.43-1.252 2.681c-.716-.715-2.327-.894-2.327-.894s-.716 1.251-.716 2.323c-.537-.536-1.611-.536-2.685-.179-.716.894-1.074 3.038-1.074 3.038s-1.432-.536-2.505-.715c-.537.894-1.074 2.86-1.074 2.86s-1.074-1.609-2.327-1.609c0 1.251-.537 1.609-.716 2.86l-2.864-.894s1.432.894 1.969 1.609c.537.715.895 1.43.895 1.43l.895-.894c.537-.357 1.074-.536 1.074-.536v1.43c0 .894.358 1.787.358 1.787l1.074-1.43c.537-.894 1.073-1.43 1.073-1.43s.537.894.716 1.43l.358 1.072s.537-1.251.895-1.966c.358-.715 1.253-1.609 1.253-1.609s0 .894.179 1.43c.179.536.895.894.895.894s.358-.894.358-1.609l-.358-1.251s.716-.179 1.253.357c.537.358 1.074.894 1.074.894s.358-.715.537-1.251c.179-.715.716-1.251.716-1.251s.537.715.716.894c.179.179.716.894.716.894l.894-1.787c.179-.715.179-1.072.179-1.072s.895.179 1.253.715c.358.357.895 1.072.895 1.072s.537-1.251.716-1.608c.179-.536.716-1.43.716-1.43s.895.536 1.074.894c.358.536.537 1.072.537 1.072s.895-.715.895-1.787c0-.536-.179-1.43-.179-1.43s.716.179 1.074.715c.358.358.537.894.537.894s.358-1.43.895-2.324c.537-.715 1.253-1.251 1.253-1.251s-1.253.179-1.611.715c.179-1.787-1.074-3.396-1.074-3.396z" fill="#FFAF49"/><path d="M183.971 63.249v1.251c0 .715-1.074 1.251-2.327 1.251s-2.327-.536-2.327-1.251v-1.251h4.654z" fill="#493130"/><path d="M181.465 62.177c1.253 0 2.327.536 2.327 1.251 0 .715-1.074 1.251-2.327 1.251-1.252 0-2.326-.536-2.326-1.251 0-.715 1.074-1.251 2.326-1.251z" fill="#472F2E"/><path d="M169.474 55.743l20.404 11.796 6.801-3.932-20.404-11.617-6.801 3.753z" fill="#C6AFAF"/><path d="M189.878 67.539v2.681l-20.404-11.796v-2.681l20.404 11.796z" fill="#9E8282"/><path d="M196.679 63.607v2.681l-6.802 3.932v-2.681l6.802-3.932z" fill="#B29A9A"/><path d="M169.653 50.024c.537.715.895 2.323.895 2.323s.358-.536.537-.894c.358-.536 1.074-.715 1.074-.715s-.179.894-.179 1.43c.179.894.894 1.787.894 1.787s.179-.536.537-1.072c.358-.536 1.074-.894 1.074-.894l.716 1.43c.179.536.716 1.609.716 1.609s.537-.715.895-1.072c.358-.357 1.253-.715 1.253-.715s0 .357.179 1.072c.179.715.895 1.787.895 1.787s.537-.715.716-.894c.179-.179.716-.894.716-.894s.537.536.716 1.251c.179.715.537 1.251.537 1.251s.358-.357 1.074-.894c.536-.357 1.252-.357 1.252-.357s-.179.536-.358 1.251c0 .715.358 1.609.358 1.609s.895-.357.895-.894c.179-.536.179-1.43.179-1.43s.895.894 1.253 1.609c.358.715.895 1.966.895 1.966s.358-.536.358-1.072c.179-.536.716-1.43.716-1.43s.537.536 1.074 1.43c.537.894 1.074 1.43 1.074 1.43s.358-.894.358-1.787v-1.43s.537.179 1.074.536c.537.357.895.894.895.894s.179-.715.894-1.43c.537-.715 1.969-1.608 1.969-1.608s-.537 1.251-.358 3.217c.179 1.966-.179 4.289-.537 4.468-.179.179-1.789 1.251-3.042 1.966-.895.536-1.969 1.251-2.685.894-.895-.357-2.864-1.787-6.086-3.574-1.789-1.072-3.937-2.323-5.548-3.217-2.685-1.43-5.011-2.502-6.622-3.575-1.074-.715-1.074-1.072-1.253-1.787-.358-1.787-1.253-5.541-1.253-5.541s.716 1.072 1.253 1.966z" fill="#3ED9B0"/><path d="M171.443 46.986s1.252.536 1.431 1.251c.358-1.787 1.432-2.145 1.432-2.145s1.253.715 1.79 1.787c.537-.715 2.506-1.251 2.506-1.251s.895 1.43 1.253 2.681c.716-.715 2.327-.894 2.327-.894s.715 1.251.715 2.323c.537-.536 1.611-.536 2.685-.179.716.894 1.074 3.038 1.074 3.038s1.432-.536 2.506-.715c.537.894 1.074 2.86 1.074 2.86s1.074-1.608 2.326-1.608c0 1.251.537 1.608.716 2.86l2.864-.894s-1.432.894-1.969 1.609c-.537.715-.895 1.43-.895 1.43l-.894-.894c-.537-.357-1.074-.536-1.074-.536v1.43c0 .894-.358 1.787-.358 1.787l-1.074-1.43c-.537-.894-1.074-1.43-1.074-1.43s-.537.894-.716 1.43l-.358 1.072s-.537-1.251-.895-1.966c-.358-.715-1.253-1.608-1.253-1.608s0 .894-.179 1.43c-.179.536-.895.894-.895.894s-.358-.894-.358-1.608c0-.715.358-1.251.358-1.251s-.716-.179-1.253.357c-.537.358-1.073.894-1.073.894s-.358-.715-.537-1.251c-.179-.536-.716-1.251-.716-1.251s-.537.715-.716.894c-.179.179-.716.894-.716.894l-.895-1.787c-.179-.715-.179-1.072-.179-1.072s-.895.179-1.253.715c-.358.357-.895 1.072-.895 1.072s-.537-1.251-.716-1.608c-.179-.536-.716-1.43-.716-1.43s-.895.536-1.074.894c-.358.536-.537 1.072-.537 1.072s-.895-.715-.895-1.787c0-.536.179-1.43.179-1.43s-.715.179-1.073.715c-.358.358-.537.894-.537.894s-.358-1.43-.895-2.324c-.537-.715-1.253-1.251-1.253-1.251s1.253.179 1.611.715c0-1.787 1.074-3.396 1.074-3.396z" fill="#6BF2CE"/><path d="M182.182 96.314h-1.969l-.179-14.298h2.148v14.298zm.179 27.523h-1.969v11.975h1.969v-11.975z" fill="#352221"/><path d="M168.042 94.526v1.251c0 .715 1.074 1.251 2.327 1.251s2.327-.536 2.327-1.251v-1.251h-4.654z" fill="#493130"/><path d="M170.37 93.275c-1.253 0-2.327.536-2.327 1.251 0 .715 1.074 1.251 2.327 1.251s2.327-.536 2.327-1.251c.179-.536-.895-1.251-2.327-1.251z" fill="#472F2E"/><path d="M182.54 87.02l-20.404 11.796-6.802-3.932 20.404-11.796 6.802 3.932z" fill="#C6AFAF"/><path d="M162.136 98.816v2.68l20.404-11.795v-2.681l-20.404 11.796z" fill="#9E8282"/><path d="M155.334 94.884v2.681l6.802 3.931v-2.68l-6.802-3.932z" fill="#B29A9A"/><path d="M156.587 85.59s.537.715.895 1.43c.358.536.179 1.787.179 1.787s.537-.715.716-1.072c.358-.715.716-.894.716-.894s.358.894.716 1.609c.179.358 1.432 1.251 1.432 1.251s0-1.072.179-1.43c.179-.715 0-1.966 0-1.966s.537.179 1.073.179c.537 0 1.253.536 1.253.536s-.179-.715-.179-1.43c0-.536.358-1.43.358-1.43s.358.536.895.715c.537.358 1.253.536 1.253.536v-3.217s.895.536 1.253.894c.358.357.895.536.895.536v-3.039s.537.179.895.179c.716.179.895.536.895.536s-.179-.894-.179-1.43v-1.609s.716 0 1.074.179c.716.179 1.074.357 1.074.357s0-.715.179-1.251c.179-.715.357-1.787.357-1.787s.537.357.716.536c.537.357.895 1.072.895 1.072v-1.787c0-.715.179-1.43.179-1.43s.537.536.895 1.072c.358.358.716.894.716.894s-.179-.715 0-1.251c0-.894-.179-1.609-.179-1.609l1.074.357c.537.357.895.894.895.894s.179-1.072 0-1.787c0-.715-.179-1.072-.179-1.072s.537 0 .895.179c.537.357.895.715.895.715s.358-1.787.895-2.502c.358-.715 1.253-1.608 1.253-1.608s-.895-.179-1.432.715c-.537.715-.716 1.608-.716 1.608s-.179-1.072-.716-1.787c-.358-.715-1.253-1.43-1.253-1.43l-.895 1.966-1.432-1.609s-.716 1.43-.716 1.966c-.537-.536-1.611-.894-1.611-.894s.537 1.609.358 2.681c-.537-.715-1.61-1.251-1.61-1.251s0 2.502-.179 2.86c-.716-.536-1.432-.179-1.432-.179v2.323s-1.253-.536-1.969-.357c0 .894-.179 3.217-.179 3.217s-.895-.536-1.79-.536c-.358.715-.895 2.859-.895 2.859s-.716-.894-1.611-.715c.179 1.072-.537 2.502-.537 2.502s-.894-1.072-1.61-1.072c0 1.251-.537 3.038-.537 3.038s-.537-1.43-1.253-1.787c-.358 1.251-1.074 1.787-1.253 3.038-.179-.715-.895-1.43-2.327-1.787.716.894 1.074 2.86 1.074 2.86l-.358-1.072z" fill="#6BF2CE"/><path d="M156.945 94.884s1.611 1.072 3.222 1.787c.895.536 2.327 1.251 2.863 1.072 1.074-.715 6.086-3.575 8.95-5.183 2.863-1.608 8.591-4.826 9.128-5.362.358-.536-.179-12.153 0-14.477 0-2.323.179-3.932.179-3.932s-.716.894-1.253 1.608c-.358.715-.895 2.502-.895 2.502s-.358-.357-.895-.715c-.358-.179-.895-.179-.895-.179s0 .536.179 1.072v1.787s-.179-.536-.895-.894c-.537-.358-1.074-.358-1.074-.358s.179.715.179 1.609v1.251s-.358-.357-.716-.894c-.358-.536-.895-1.072-.895-1.072s-.179.894-.179 1.43v1.787s-.358-.536-.894-1.072c-.358-.179-.716-.536-.716-.536l-.358 1.787c0 .536-.179 1.251-.179 1.251s-.358-.179-1.074-.358c-.358-.179-1.074-.179-1.074-.179s-.179 1.072 0 1.609c0 .536.179 1.43.179 1.43s-.358-.357-.895-.536c-.358-.179-.895-.179-.895-.179v3.038s-.537-.179-.895-.536c-.358-.358-1.253-.894-1.253-.894v3.217s-.716-.179-1.253-.536c-.537-.179-.895-.715-.895-.715s-.358.894-.358 1.43c0 .536.179 1.43.179 1.43s-.894-.536-1.252-.536c-.537 0-1.074-.179-1.074-.179s.179 1.251 0 1.966c0 .357-.179 1.43-.179 1.43s-1.074-1.072-1.432-1.251c-.537-.715-.716-1.609-.716-1.609s-.358.179-.716.894c-.358.357-.716 1.072-.716 1.072s0-1.072-.179-1.787c-.358-.536-.895-1.43-.895-1.43l-.179 1.43s-.179-1.787-1.074-2.86l.358 3.396c.358 2.323 1.432 6.97 1.432 6.97z" fill="#3ED9B0"/><path d="M161.957 111.147c-.537.715-1.253 1.43-1.79 1.788-3.043 1.966-4.475 2.681-8.77 1.251-3.401-1.073-4.475-3.575-6.802-5.719-2.327-2.145-5.19-1.788-7.517-3.396-3.58-2.681-3.938-6.256-3.938-6.256-.895 4.647 1.253 6.435 2.864 9.115-1.074 4.468-5.548 17.337-8.054 23.413-2.506 6.077-5.549 14.656-5.191 17.515.537 2.86 2.864 9.294 7.518 15.013 4.832 5.719 15.034 4.289 19.688 2.323 4.653-1.965 5.548-6.076 7.517-11.795 1.969-5.898 4.475-26.809 4.475-33.064.179-5.541.894-7.507 0-10.188z" fill="#593D3D"/><path d="M137.257 104.892c2.327 1.609 5.191 1.251 7.517 3.396 2.327 2.145 3.401 4.647 6.802 5.719 4.295 1.43 5.548.715 8.77-1.251.537-.357 1.253-1.072 1.79-1.787l-.358-1.072c-1.611-3.217-5.907-.358-5.907-.358s-1.074-3.574-2.863-4.647c-1.79-1.072-5.191 0-5.191 0s0-3.395-3.401-5.361c-3.4-1.966-5.906-.179-7.159 1.787-1.969-2.681-3.758-2.681-3.758-2.681s.179 3.753 3.758 6.255z" fill="#3F2A28"/><path d="M158.556 119.369c-1.074.715-2.864 5.719-3.58 11.081-.537 3.574-6.264 17.157-8.233 21.804-1.969 4.647-4.653 10.724-3.759 11.975.895 1.43 4.654.357 7.518-1.073 2.863-1.429 4.832-4.468 5.19-8.936.358-4.468 3.222-20.732 3.938-25.021.716-5.541 1.79-11.796-1.074-9.83zm-18.972-6.97s-2.327 2.681-3.58 4.289c-1.432 1.609-2.685 4.289-2.685 4.289s2.327-1.787 3.759-3.217c1.432-1.608 2.506-5.361 2.506-5.361zm4.832 4.289s-2.326 5.362-2.684 7.149c-.358 1.787-.716 6.077-.716 6.077s2.147-3.217 2.863-6.077c.537-2.86.537-7.149.537-7.149zm5.728 2.145s-2.148 2.144-3.759 5.361c-1.074 1.966-2.326 5.898-2.326 5.898s2.684-2.502 3.758-4.646c1.074-1.966 2.327-6.613 2.327-6.613z" fill="#472F2E"/><path d="M186.477 127.59h-1.074l-1.968 6.613 1.789.536 1.79-6.076-.537-1.073z" fill="#593D3D"/><path d="M166.789 107.394s1.432-.178 1.432 2.324v15.549c0 4.289.716 16.621.716 16.621s2.864 1.609 4.295 1.43c1.432 0 1.611-1.072 2.685-3.038 1.074-1.966 3.043-2.145 3.938-2.145 1.074-.179 4.295.357 4.832-1.609.537-1.966.358-2.859 1.79-3.038 1.432-.179 3.759-.536 3.759-2.145 0-1.608.358-21.089 0-25.915-.358-4.825-1.253-7.864-3.401-9.293-2.148-1.43-4.832-.536-6.801.894-1.969 1.43-5.191 3.396-7.517 4.826-3.58 2.323-6.265 2.681-7.518 3.574-1.074.894 0 2.86 0 2.86l1.79-.894z" fill="#FDA12D"/><path d="M171.979 109.182s.358 5.898.716 8.578c.179 2.681 1.253 15.549 1.969 18.23.537 2.502.716 3.753.716 3.753s1.074-2.859.537-7.685c-.179-2.502-.537-7.685-1.253-13.047-.895-5.361-2.685-9.829-2.685-9.829zm11.456-6.792s.358 7.685 1.252 13.047c.895 5.54 1.074 15.728 1.074 15.728s1.074-5.541.895-9.473c-.179-3.753-1.074-9.115-1.611-12.689-.537-3.396-1.61-6.613-1.61-6.613z" fill="#FFAF49"/><path d="M129.919 208.195l-2.148-1.251-.895-3.217 1.79-.894 1.253 5.362z" fill="#EFA500"/><path d="M101.639 144.748l20.404-11.796-3.937 57.549-9.486 5.362-1.074-4.826-6.444 3.753-2.684 1.609-6.264 3.574-1.074 6.077-9.486 5.362 20.046-66.664z" fill="#FDA12D"/><path d="M103.071 145.463l20.404-11.796-3.937 57.549-9.486 5.54-1.074-4.825-6.444 3.753-2.684 1.43-6.264 3.753-1.074 5.898-9.486 5.54 20.046-66.842z" fill="#EFA500"/><path d="M104.682 146.535l20.404-11.796 14.319 67.915-9.487 5.541-1.073-4.826-6.444 3.754-2.685 1.429-6.443 3.753-.895 5.898-9.486 5.541 1.79-77.209z" fill="#FDA12D"/><path d="M104.682 146.535l-3.043-1.787-20.046 66.664 1.432.893 19.867-66.664-1.79 77.209 1.79.894 1.79-77.209z" fill="#FFCB89"/><path d="M122.043 132.952l3.043 1.787-20.404 11.796-3.043-1.787 20.404-11.796z" fill="#FFAF49"/><path d="M122.759 140.637l-1.611.894c0 2.502-.358 6.97-4.295 9.829-.358.179-1.969 1.252-2.327 1.252-1.432.536-2.506.714-3.58.357 1.253 1.072 3.043 1.609 5.191.536l2.327-1.251c5.906-4.111 4.295-11.617 4.295-11.617z" fill="#FFB600"/><path d="M121.327 141.531l-1.074.536c-.537 2.502-1.969 6.255-5.906 8.757-.358.179-2.148 1.251-2.506 1.251-.358.179-.716.358-1.074.358l.358.357c.895.358 2.148.179 3.58-.357l2.326-1.251c3.759-2.681 4.296-7.149 4.296-9.651z" fill="#EFA500"/><path d="M114.347 151.003c3.937-2.502 5.369-6.255 5.906-8.757l-2.148 1.251c-.895 2.144-2.326 4.468-5.19 6.255-.358.179-2.148 1.251-2.506 1.251l-.895.357 1.074 1.43c.358 0 .716-.178 1.074-.357.537-.358 2.327-1.251 2.685-1.43z" fill="#FFB600"/><path d="M109.514 151.182c.358 0 .537-.179.895-.358l2.506-1.251c2.685-1.787 4.296-4.11 5.19-6.255l-9.665 5.54s.358 1.251 1.074 2.324z" fill="url(#b)"/><path d="M128.549 184.186c-.742.249-.989.249-1.73.747 0-1.493-.988-4.726-1.235-5.721-.988-1.492-2.965-1.741-4.2-1.989.247-1.244-.247-1.741-.494-2.985-.247-.995-.247-1.243-.247-2.238 0-.995.988-1.99 1.235-2.736.989-2.736.741-5.472-.247-7.461 0-.249-.247 0-.247.248-.247 2.239.741 3.234-.247 6.467-.494.746-.988 1.492-1.729 2.736-.247.497-.494 1.243-.494 1.492-.247-.249-.247-.498-.247-.746l.247-.746c0-.995-.741-1.99-1.235-1.99 0-.249.247-.497 0-.995-.247.498-.495.746-.742.746-.247.249-.741.498-.741.995-.247.746-.247 1.244 0 1.741-.247.497 0 .995.247 1.244.247.497.989-.249.989-.249 0 .249.247.746.247 1.243l-.742.995c-.494.746-.741 1.741-1.235 2.736-.494 1.492-.741 3.233-.988 4.725l-.741 2.488c-.247 1.492 0 1.741.494 1.492.494-.746.494-2.736.741-3.482.247-.995.741-1.99.988-3.233.247-.995.741-2.239 1.483-2.736.247.746.494 2.736 1.235 2.984 0 .995 0 1.493.247 2.487l1.482 3.482c-.247 2.239-.247 3.234-.988 5.969-.494.498-.494 1.244-.247 1.741.741.995 1.235 1.244 2.223.498.247 0 .247-.498.247-.498-.247-.497-.988-.994-1.482-1.243.494-.995 1.729-4.974 1.976-6.467.247-1.243-.247-3.482-.988-5.471.494.746 1.977.995 2.718.746.247 1.99 1.235 3.482 1.482 4.725 0 .747 0 1.244.494 1.244.741-.497 1.729-.995 2.223-2.238.495-.498.248-.747.248-.747zm-17.318 16.427l20.024-11.334-.254-1.511-19.77 11.586v1.259z"/><path d="M59.221 201.582c.179-.179.179-.536.537-.893-.179-.358-.895-.358-1.611-.358 0-.715-.895-2.145-1.611-2.681-.716 0-1.074.536-1.432.715 0-.536-.358-1.251-.716-1.608-.716-.537-2.148-.894-3.222-.358-.179-.536-.179-1.072-.537-1.43-.716 0-1.074-.178-1.611.179 0-.179-.537-.894 0-1.251-.716-.357-2.148-.179-2.685.179-.179-.358-.358-.715-.537-.894-.537-.715-1.432-1.608-2.327-1.43 0-.536-.537-1.251-.895-1.608-.716-.536-1.253-.715-2.148-.358-.358-.357-1.074-.893-1.79-.893-.179-.536-.358-1.073-.179-1.43-.716 0-1.253 0-1.79.179 0-.358 0-1.073-.358-1.43-.358.536-1.074.357-1.611.715-.358-.894-1.253-1.609-2.148-1.43.179-.179 0-.894.358-1.251-1.253-.715-2.685-.179-3.043-.179 0-1.43-1.253-2.323-2.685-1.787 0-.358 0-1.072-.179-1.251-.358-.536-1.253 0-1.79.357 0-.357 0-.715.537-1.251-.895-.357-1.611-.357-2.506.179-.179-.894-1.253-1.609-1.969-1.43-.179-.715-.537-1.43-1.074-1.608-.179.357-.537.536-1.074.715-.716-1.073-1.611-1.252-2.148-1.252l.358-1.072c-.895-.357-1.79-.179-2.506.179 0 0-.179 0-.179.179l-.179-.358c-.179-.357-.895-.893-1.253-.715-.358.358-.358.894-.537 1.251-.179 0-.179 0-.358-.178-.716-.179-1.969.357-2.685.357 0 .536.537.536.716.715-.358.179-.716.357-.895.894-.716 0-1.611.178-2.327 0-.179.357.358.714.537.893-1.074-.179-2.327.358-3.401.894 0 .357.895.357 1.074.357-.358.179-.895.536-1.074.715-.179.179-.179.536-.179.894-.716 0-1.432.536-1.969.536 0 .536 1.074.894 1.611.894-.358.536-.716 1.608-.895 1.966l2.327-.537c0 .537.179.894.537 1.251.358.358.716.358 1.253.358-.358.179-.895.715-1.432 1.072.537.358 1.253.536 1.969.536-.179 0-.537.537-.537.894.716.179 1.969.179 2.685-.179l-.358 1.251c.895-.178 1.79-.715 2.506-.715v.358c.179.536.537.894 1.074 1.072.537.358 1.432.358 2.148.179-.179.179 0 .894-.537 1.43.716.357 1.969.357 2.864 0 0 .715 0 1.787.179 2.502.716-.179 1.253-1.072 1.611-1.43.179.894 1.432 1.966 2.327 1.966-.358.536-.716.894-.358 1.251.537.179 2.148-.357 3.043-.715.179.715 1.074 1.251 1.969 1.251-.179.358-.179 1.073.179 1.966.716-.357 1.611-.536 2.148-.715.179 0 .358-.178.358-.178.179.715.716 1.072 1.432 1.429.358.179.895.179 1.253.179-.358.358-.895.715-1.253 1.43 1.074.179 2.148.357 3.222.179.179 0 .358 0 .716-.179-.358.894-.179 1.966.716 2.502.358-.715 1.074-1.072 1.432-1.43v1.073c.179.715.358 1.251 1.074 1.608.537-.536 1.253-.893 1.432-1.072 0 .179.537 1.251.895 1.966.716 0 1.253-.536 1.611-1.073 0 .537.537 1.252.716 1.966.358.179 1.074-.178 1.432-.536.179.715.716 1.43 1.074 1.609.537.357 1.432.357 1.969 0 0 .715.716 1.43 1.074 1.966.716-.894 1.79-.715 2.148-1.251.179.536.537.715 1.074 1.251.716-.179 1.969-1.609 1.79-2.502.358.178 2.148.536 2.506.357.537 0 1.253-.536 1.79-.894-.537-.536-.537-1.251-.537-1.429.895.178 2.148 0 2.685-.715.179-.358.358-.894.358-1.251 1.074.178 2.506-.179 3.043-.894-1.79-.357-2.864-.536-3.222-.715z" fill="#593D3D"/><path d="M4.631 183.888l42.061 24.307c1.074.715 3.043.536 4.475-.179l6.801-3.932c1.253-.715 1.432-1.966.358-2.502l-42.061-24.485c-1.074-.715-3.043-.536-4.475.179l-6.801 3.932c-1.253.893-1.432 1.966-.358 2.68z" fill="#729CF0"/><path d="M6.958 182.637l40.092 23.235c.895.536 2.506.536 3.58-.179l5.548-3.217c1.074-.536 1.253-1.609.179-2.145l-39.913-23.234c-.895-.536-2.506-.536-3.58.179l-5.548 3.217c-1.074.536-1.253 1.608-.358 2.144z" fill="#E3EDFF"/><path d="M31.299 188.357c-2.506 0-4.654 1.072-4.654 2.502 0 1.429 2.148 2.502 4.654 2.502s4.653-1.073 4.653-2.502c0-1.43-2.148-2.502-4.653-2.502z" fill="#4C73EB"/><path d="M75.329 90.416l-1.969-.894-43.135 100.801v.178c0 .358.537.536 1.074.536s1.074-.178 1.074-.536l42.956-100.085z" fill="#fff"/><path d="M74.792 92.739h-6.443s-2.148 3.574-2.506 5.898c-.358 2.502 2.148 3.932 2.148 3.932l1.611-3.753h.358c0 .536-.179 1.072.179 1.429.358.715 1.432 1.073 1.79-.178l.537-1.609c.358-.179.895-.357 1.253-.715 1.432-.894 1.074-5.004 1.074-5.004z" fill="#FFC9B6"/><path d="M69.601 70.398s-2.685 0-3.938 6.077c-.895 4.468 4.653 7.685 4.653 7.685l5.37-10.545-6.085-3.217z" fill="#FDA12D"/><path d="M68.348 129.378s-.895 5.719 2.327 11.08c1.79 2.86 5.19 7.507 8.949 11.975 2.864 3.217 4.474 6.97 4.474 8.043-.179 1.251-4.653 4.825-4.653 4.825l1.79 2.681 9.307-6.613s-2.685-4.647-3.58-7.864c-.895-3.574-1.969-8.4-3.938-12.332-3.759-7.506-5.548-11.617-5.548-11.617h-9.128v-.178z" fill="#FFB9A4"/><path d="M89.826 159.761s-1.432 2.323-2.327 3.038c-1.611 1.43-3.043 2.502-5.011 2.502-1.432 0-2.327-.715-2.327-.715s-6.443 4.111-4.653 5.541c1.432 1.251 2.864 1.608 6.085.715 1.432-.358 4.475-2.324 5.906-4.111 1.253-.358 3.58-1.609 4.117-2.86.537-.536-.537-2.859-1.79-4.11z" fill="#fff"/><path d="M86.784 116.688c-2.327-2.323-6.264 0-8.054 2.323-3.222 3.932-2.506 10.366-2.864 15.013-.358 5.898-.537 11.975-1.074 17.873-.358 4.11-.895 11.796-2.148 17.872-1.074 5.183-3.043 6.613-4.117 8.4-.895 1.251 5.191 4.111 6.085 3.039.895-.894 3.938-3.932 3.938-7.149.179-4.469 2.148-9.115 4.654-16.622.537-1.43 1.611-2.859 1.253-9.651-.179-1.608-.179-4.825.358-6.255.358-1.251 1.79-2.502 2.327-3.753.537-1.252 1.074-2.503 1.432-3.754 1.432-5.54 2.327-13.404-1.79-17.336z" fill="#FFC9B6"/><path d="M71.391 73.258c3.043-3.932 4.654-4.289 8.412-2.145 4.654 2.681 8.77 3.753 10.739 5.362 3.401 2.86 4.832 9.115 5.548 16.443 0 1.072.537 4.289-1.074 6.613.895 3.218 2.327 4.468 1.253 7.864-5.37 3.039-16.466 4.469-20.583-3.038-.179-.536.358-2.145.716-2.502-.895-.536-1.432-1.609-1.432-2.681-1.611-.894-2.864-2.145-3.222-4.289-3.222-.715-6.443-2.502-5.548-6.255.537-1.787 3.043-6.077 3.401-8.221.716-4.289.895-6.077 1.79-7.149z" fill="#FFAF49"/><path d="M73.539 73.794c.895-.179 1.969-3.038 2.327-4.826.179-1.072 5.011-4.289 5.011-4.111 0 3.753.537 8.043 2.327 10.009-2.506 2.681-4.833 7.864-9.128 6.97-2.327-.358-2.327-3.217-.537-8.043z" fill="#FFB9A4"/><path d="M77.835 98.458s4.296-1.43 6.443-1.072c2.327.357 4.296 1.072 4.296 1.072s-3.222.536-5.369.536c-2.148 0-5.369-.536-5.369-.536zm1.789 5.183c.358 0 5.011-.178 7.517-.357 2.506-.179 3.58-.358 3.58-.358s-2.148 1.609-5.011 1.609c-3.043 0-6.085-.894-6.085-.894zm-7.517-6.434c-.537 1.609.716 3.396 1.611 4.647-.716 3.217-2.148 10.009-3.401 16.443-1.432 6.97-3.222 14.834-3.401 22.34 3.222 4.647 6.801 6.613 12.708 6.97 10.202.715 15.929-3.932 15.929-3.932s.716-14.298.716-24.306c4.832-9.651-.358-17.336-.358-17.336s-6.622-.536-10.56-3.217c-2.327-1.609-6.085-8.221-5.191-10.902 1.611-4.826 7.338-13.226 7.338-13.226l-2.148-.894s-6.622 10.902-8.412 13.225c-.537.715-3.222 0-4.654-.715-2.864-1.43-2.864-1.072-2.685-2.859.358-2.681 4.475-10.366 4.475-10.366l-2.864-1.787s-3.222 10.366-4.833 13.762c-1.432 2.86-1.79 4.647-.358 6.791.716 1.609 3.222 4.111 6.085 5.362z" fill="#4C73EB"/><path d="M72.107 71.828s-.716 3.932-1.253 5.362c-.537 1.43-1.611 4.826-1.611 4.826s1.432-.715 2.148-.357c.716.357 1.432 1.43 2.148 1.608.716.179 1.611 0 1.611 0l.537-1.787s-1.432-.358-1.432-2.681l.179-5.541-2.327-1.43z" fill="#FDA12D"/><path d="M69.422 58.781c3.401-.715 5.191-.894 8.054.358 1.611.536 3.222 1.251 4.833 2.145.179 0 .179.179.179.357-.716 4.468-2.327 9.115-7.159 11.081-4.117 1.608-6.443-2.86-7.159-5.898-.895-3.396-1.074-7.506 1.253-8.043z" fill="#FFC9B6"/><path d="M85.531 55.386c-1.253-4.468-3.938-6.613-5.906-4.647-.358-2.145-2.506-3.396-3.58-1.966-.895-2.324-3.401-1.787-4.833-.715-2.506 1.966-8.054 9.472-3.938 12.332.179 3.753 4.832 4.111 7.338 2.145 1.432 1.251 4.117 1.251 5.011 0 .537 2.323 1.253 4.647 1.611 6.613 1.611-.894 6.085-7.149 4.296-13.762z" fill="#2C1D1B"/><path d="M78.372 65.216s.716-2.681 2.506-1.251c1.79 1.43-.716 4.111-.716 4.111l-1.79-2.86z" fill="#FFC9B6"/><path d="M81.414 70.756s-1.253 2.323-2.506 4.289c-1.253 2.145-2.685 4.289-3.938 5.362-1.969 1.609-1.253 4.111-1.253 4.111s.716-1.609 1.611-1.43c.895.179 1.79 1.072 2.864 1.966.716-1.251 1.969-2.681 3.222-4.826 1.253-2.145 3.043-4.468 2.327-7.149-.537-2.323-2.327-2.323-2.327-2.323z" fill="#FDA12D"/><path d="M64.053 183.71c-1.432 2.323-1.611 3.932.179 4.825 2.864 1.609 4.475.358 7.696-2.323 2.148-1.787 2.506-3.396 4.475-5.541 1.074-.178 2.148-1.608 2.327-3.038.179-1.787 0-3.932 0-3.932s-.895 1.787-1.79 3.396c-.895 1.966-2.864 2.859-3.938 2.681-1.611-.358-4.475-1.966-4.475-1.966s-3.401 3.932-4.475 5.898z" fill="#fff"/><path d="M75.329 102.748s.895 1.787 4.117 3.753c3.222 1.966 8.949 0 8.949 0s-5.011-.358-7.696-1.43c-1.969-.715-5.37-2.323-5.37-2.323zm-1.79-4.647c.179 0 2.327 2.144 4.654 2.323 2.327.179 4.653-1.43 4.653-1.43s-2.864.179-4.653-.179c-1.969-.179-4.654-.715-4.654-.715zm7.696 21.447s-3.043 3.753-4.296 6.97c-1.253 3.396-2.506 13.94-2.506 13.94s2.327-8.042 3.759-12.51c1.253-4.29 3.043-8.4 3.043-8.4z" fill="#729CF0"/><path d="M83.92 91.488s-2.506 4.647-5.191 9.651c-6.085 3.217-13.245 8.579-13.245 8.579l1.79 2.681s6.264-.715 11.634-3.575c3.043-1.608 4.296-.893 5.728-3.396 3.222-5.183 6.98-11.438 6.98-11.438s-4.117-3.038-7.696-2.502z" fill="#FFC9B6"/><path d="M90.363 76.475c-3.58.536-5.37 4.468-6.622 9.115-1.432 4.647-1.253 8.579-1.253 8.579s3.58 1.43 6.98 3.575c4.117-3.753 6.98-8.936 7.338-13.226.358-4.289-3.58-7.149-6.443-8.043z" fill="#FDA12D"/><path d="M82.488 92.739s2.148.179 4.475 1.43c2.327 1.251 3.58 2.502 3.58 2.502l-1.79 2.145s-1.969-1.787-3.401-2.502c-1.432-.715-3.401-.894-3.401-.894l.537-2.681z" fill="#FFCB89"/><path d="M70.138 109.718l-3.759-.715s-2.864 1.251-4.296 1.966c-1.432.715-2.327 3.217-2.864 5.54-.537 2.324.179 2.86 0 3.932-.179 1.251 1.253 1.251 1.611 0 .358-1.251 1.074-3.574 1.074-3.574s1.432-.536 3.58-1.251c2.148-.715 5.011-3.932 5.011-3.932l-.358-1.966z" fill="#FFC9B6"/><defs><linearGradient id="a" x1="364.777" x2="155.097" y2="179.457" gradientUnits="userSpaceOnUse"><stop stop-color="#5274B5"/><stop offset=".216" stop-color="#4C73EB"/><stop offset=".667" stop-color="#729CF0"/><stop offset=".979" stop-color="#A3BFF9"/></linearGradient><linearGradient id="b" x1="108.501" y1="147.304" x2="118.12" y2="147.304" gradientUnits="userSpaceOnUse"><stop stop-color="#8DA3FF"/><stop offset="1" stop-color="#6781EF"/></linearGradient></defs></svg>