<svg width="754" height="536" viewBox="0 0 754 536" xmlns="http://www.w3.org/2000/svg" fill="none"><circle cx="719.5" cy="66.5" r="2.5" fill="#F8F9FE"/><circle cx="218.5" cy="23.5" r="2.5" fill="#F8F9FE"/><circle cx="377" cy="114" r="6.5" stroke="#fff"/><circle cx="710" cy="203" r="6.5" stroke="#fff"/><circle cx="675" cy="491" r="6.5" stroke="#fff"/><path fill="#3ED9B0" d="M331.598 349.983l4.95 4.95-4.95 4.95-4.95-4.95zM221.289 837.886l4.95 4.95-4.95 4.95-4.95-4.95z"/><circle cx="4.5" cy="2.5" r="2.5" transform="rotate(-180 4.5 2.5)" fill="#4C73EB"/><circle cx="2.5" cy="520.5" r="2.5" transform="rotate(-180 2.5 520.5)" fill="#4C73EB"/><circle cx="37" cy="383" r="6.5" transform="rotate(-180 37 383)" stroke="#3ED9B0"/><circle cx="194" cy="190" r="6.5" transform="rotate(-180 194 190)" stroke="#3ED9B0"/><path fill="#FFAF49" d="M190.176-567.701l-4.95-4.95 4.95-4.95 4.95 4.95zM94.01-332.941l-4.95-4.95 4.95-4.95 4.95 4.95z"/></svg>