<svg width="266" height="184" viewBox="0 0 266 184" xmlns="http://www.w3.org/2000/svg" fill="none"><circle cx="245.267" cy="24.905" r=".858" fill="#F8F9FE"/><circle cx="66.423" cy="8.772" r=".858" fill="#F8F9FE"/><circle cx="124.264" cy="28.853" r="1.903" stroke="#fff"/><circle cx="242.006" cy="59.404" r="1.903" stroke="#fff"/><circle cx="231.708" cy="168.564" r="1.903" stroke="#fff"/><path fill="#3ED9B0" d="M89.358 113.806l1.699 1.699-1.699 1.699-1.699-1.699zM75.949 287.634l1.699 1.699-1.699 1.699-1.699-1.699zM125.709 248.069l1.699 1.699-1.699 1.699-1.699-1.699z"/><circle cx="1.545" cy=".876" r=".858" transform="rotate(-180 1.545 .876)" fill="#4C73EB"/><circle cx=".858" cy="178.691" r=".858" transform="rotate(-180 .858 178.691)" fill="#4C73EB"/><circle cx="12.701" cy="131.491" r="1.903" transform="rotate(-180 12.701 131.491)" stroke="#3ED9B0"/><circle cx="66.594" cy="65.24" r="1.903" transform="rotate(-180 66.594 65.24)" stroke="#3ED9B0"/><path fill="#FFAF49" d="M65.295-194.888l-1.699-1.699 1.699-1.699 1.699 1.699zM32.284-114.301l-1.699-1.699 1.699-1.699 1.699 1.699z"/></svg>