<svg width="365" height="273" viewBox="0 0 365 273" fill="none" xmlns="http://www.w3.org/2000/svg">
<path d="M364.778 272.018H277.435C274.929 248.248 265.085 224.835 243.249 212.861C222.666 201.601 197.608 201.065 178.099 187.66C169.866 182.12 163.244 174.256 158.948 165.32C153.4 153.882 154.474 141.728 151.431 129.754C141.229 89.0047 118.14 86.5025 95.7673 72.7408C69.9938 56.8343 57.823 25.0214 58.0019 2.66473e-06H364.778V272.018Z" fill="url(#paint0_linear)"/>
<g opacity="0.5">
<path opacity="0.5" d="M1.05103 186.212L46.3336 212.663C47.9445 213.557 50.6292 213.378 52.419 212.484L62.0841 206.944C63.8739 205.871 64.0529 204.263 62.442 203.369L17.1595 176.918C15.5486 176.025 12.8639 176.203 11.074 177.097L1.40899 182.637C-0.201857 183.71 -0.559816 185.318 1.05103 186.212Z" fill="#476FC7"/>
<path opacity="0.5" d="M75.3288 167.088C70.8542 169.054 69.4223 172.271 65.4847 177.812C61.5471 183.352 57.7885 186.927 62.8 190.144C67.8115 193.54 77.8345 187.642 80.1613 181.565C81.2352 178.884 82.1301 176.382 83.562 174.952C87.3206 171.199 93.406 169.769 93.048 166.91C92.5111 163.871 88.7525 163.693 85.8887 163.871C83.204 164.229 78.0135 165.837 75.3288 167.088Z" fill="#476FC7"/>
<path opacity="0.5" d="M133.319 182.28L180.571 209.625C183.613 211.412 189.162 211.233 192.921 209.088L215.472 196.22C219.052 194.076 219.41 191.037 216.367 189.071L169.116 161.727C166.073 159.939 160.525 160.118 156.766 162.263L134.214 175.131C130.635 177.276 130.277 180.493 133.319 182.28Z" fill="#476FC7"/>
<path opacity="0.5" d="M143.342 201.94L102.176 225.531L78.0134 211.591L119.179 187.999L143.342 201.94Z" fill="#476FC7"/>
</g>
<path d="M187.015 203.369C187.015 200.331 185.225 196.756 182.898 195.505C182.361 195.148 181.645 194.969 181.108 194.969C180.75 194.969 179.676 194.969 178.424 195.684C177.171 196.399 176.992 198.365 176.992 198.365L181.645 207.837C181.645 207.837 183.077 208.552 184.688 207.659C185.583 207.122 186.299 206.229 186.478 205.871C186.657 205.693 186.836 205.157 186.836 205.157C186.836 204.62 187.015 203.905 187.015 203.369Z" fill="black"/>
<path d="M176.812 199.616C176.812 202.654 178.602 206.229 180.929 207.48C183.256 208.731 185.046 207.48 185.046 204.442C185.046 201.403 183.256 197.829 180.929 196.578C178.781 195.327 176.812 196.578 176.812 199.616Z" fill="#3F2A28"/>
<path d="M178.423 200.867C178.423 202.476 179.497 204.442 180.75 205.156C182.003 205.871 183.077 205.156 183.077 203.369C183.077 201.761 182.003 199.795 180.75 199.08C179.497 198.365 178.423 199.259 178.423 200.867Z" fill="white"/>
<path d="M178.781 195.327H181.466V203.191C181.466 203.727 181.287 204.084 181.108 204.263L180.213 204.799L179.318 203.905L179.497 203.727C179.139 203.191 178.781 202.476 178.781 201.761V195.327Z" fill="#D8C4C3"/>
<path d="M180.571 195.327V203.548C180.571 204.62 180.034 204.978 179.318 204.62C178.602 204.263 178.065 203.012 178.065 202.118V195.505H180.571V195.327Z" fill="#EDDCDA"/>
<path d="M144.953 179.063C144.953 176.025 143.163 172.45 140.837 171.199C140.3 170.841 139.584 170.663 139.047 170.663C138.689 170.663 137.615 170.663 136.362 171.378C135.109 172.093 134.93 174.059 134.93 174.059L139.584 183.531C139.584 183.531 141.016 184.246 142.626 183.352C143.521 182.816 144.237 181.922 144.416 181.565C144.595 181.386 144.774 180.85 144.774 180.85C144.774 180.314 144.953 179.599 144.953 179.063Z" fill="black"/>
<path d="M134.751 175.31C134.751 178.348 136.541 181.922 138.868 183.173C141.195 184.425 142.985 183.173 142.985 180.135C142.985 177.097 141.195 173.522 138.868 172.271C136.541 170.842 134.751 172.271 134.751 175.31Z" fill="#3F2A28"/>
<path d="M136.362 176.561C136.362 178.169 137.436 180.135 138.689 180.85C139.942 181.565 141.016 180.85 141.016 179.063C141.016 177.454 139.942 175.488 138.689 174.773C137.436 174.059 136.362 174.952 136.362 176.561Z" fill="white"/>
<path d="M136.72 171.02H139.405V178.884C139.405 179.42 139.226 179.778 139.047 179.956L138.152 180.493L137.257 179.599L137.436 179.42C137.078 178.884 136.72 178.169 136.72 177.454V171.02V171.02Z" fill="#D8C4C3"/>
<path d="M138.51 171.02V179.242C138.51 180.314 137.973 180.671 137.257 180.314C136.541 179.956 136.004 178.705 136.004 177.812V171.199H138.51V171.02Z" fill="#EDDCDA"/>
<path d="M213.862 187.82C213.862 184.782 212.072 181.208 209.745 179.956C209.208 179.599 208.492 179.42 207.955 179.42C207.598 179.42 206.524 179.42 205.271 180.135C204.018 180.85 203.839 182.816 203.839 182.816L208.492 192.288C208.492 192.288 209.924 193.003 211.535 192.11C212.43 191.574 213.146 190.68 213.325 190.322C213.504 190.144 213.683 189.608 213.683 189.608C213.683 189.071 213.862 188.535 213.862 187.82Z" fill="black"/>
<path d="M203.66 184.246C203.66 187.284 205.45 190.859 207.777 192.11C210.104 193.361 211.893 192.11 211.893 189.071C211.893 186.033 210.104 182.459 207.777 181.207C205.45 179.778 203.66 181.207 203.66 184.246Z" fill="#3F2A28"/>
<path d="M205.271 185.318C205.271 186.927 206.345 188.893 207.598 189.608C208.851 190.322 209.925 189.608 209.925 187.82C209.925 186.212 208.851 184.246 207.598 183.531C206.166 182.995 205.271 183.71 205.271 185.318Z" fill="white"/>
<path d="M205.629 179.778H208.314V187.642C208.314 188.178 208.135 188.535 207.956 188.714L207.061 189.25L206.166 188.356L206.345 188.178C205.987 187.642 205.629 186.927 205.629 186.212V179.778Z" fill="#D8C4C3"/>
<path d="M207.419 179.778V187.999C207.419 189.071 206.882 189.429 206.166 189.071C205.45 188.714 204.913 187.463 204.913 186.569V179.956H207.419V179.778Z" fill="#EDDCDA"/>
<path d="M141.016 164.229L155.514 155.829C158.556 154.041 163.389 153.863 166.074 155.471L209.924 180.85V180.671H216.547V186.569C216.368 187.642 215.473 188.893 214.041 189.786L194.711 200.867C191.668 202.654 186.836 202.833 184.151 201.225L135.468 173.165C134.215 172.45 133.678 171.378 133.678 170.305V164.586L141.016 164.229Z" fill="#EDDCDA"/>
<path d="M135.467 167.267L184.151 195.327C186.835 196.935 191.668 196.757 194.711 194.969L214.041 183.888C217.083 182.101 217.441 179.42 214.757 177.812L166.073 149.752C163.389 148.144 158.556 148.322 155.513 150.109L136.183 161.19C133.141 162.978 132.783 165.837 135.467 167.267Z" fill="#F4EBEA"/>
<path d="M124.013 87.1986L151.576 71.2921C151.934 71.1134 152.292 71.1134 152.65 71.2921L124.192 87.7347L124.013 87.1986Z" fill="#E3EDFF"/>
<path d="M153.903 73.0794L125.087 89.7007L124.55 88.4496L153.366 71.8283C153.545 72.3645 153.724 72.7219 153.903 73.0794Z" fill="#E3EDFF"/>
<path d="M153.545 75.224L125.624 91.3092L125.266 90.5943L153.903 74.1517C153.903 74.6878 153.724 75.0453 153.545 75.224Z" fill="#E3EDFF"/>
<path d="M154.082 74.1517L125.444 90.773L125.086 89.8794L153.903 73.2581C153.903 73.4368 154.082 73.7942 154.082 74.1517Z" fill="#92B1FF"/>
<path d="M152.471 71.292C152.829 71.4707 153.008 71.6494 153.187 72.0069L124.371 88.6282L124.013 87.7346L152.471 71.292Z" fill="#92B1FF"/>
<path d="M126.339 90.0582C126.339 91.1305 125.623 91.6667 124.907 91.1305C124.013 90.5943 123.476 89.3433 123.476 88.2709C123.476 87.1986 124.192 86.6624 124.907 87.1986C125.623 87.7347 126.339 88.9858 126.339 90.0582Z" fill="#778DFD"/>
<path d="M138.689 90.773C135.288 88.807 131.35 86.4836 131.35 86.4836C131.171 86.4836 130.992 86.4836 130.813 86.4836L138.689 90.9517V90.773V90.773Z" fill="#352221"/>
<path d="M138.689 91.4879L130.455 86.8411C130.276 87.0198 130.276 87.1986 130.276 87.3773L138.689 92.2028V91.4879V91.4879Z" fill="#352221"/>
<path d="M138.689 92.7389L130.098 87.9134C130.098 88.0921 130.098 88.2708 130.277 88.4496L138.51 93.2751V92.7389H138.689Z" fill="#352221"/>
<path d="M138.689 92.2028L130.276 87.3773C130.276 87.556 130.276 87.7347 130.276 87.7347L138.867 92.5602V92.2028H138.689Z" fill="#352221"/>
<path d="M138.689 90.9517L130.814 86.4836C130.635 86.4836 130.635 86.6624 130.456 86.8411L138.689 91.4879V90.9517V90.9517Z" fill="#352221"/>
<path d="M156.766 79.8709C153.365 77.9049 149.428 75.5815 149.428 75.5815C149.249 75.5815 149.07 75.5815 148.891 75.5815L156.766 80.0496V79.8709Z" fill="#352221"/>
<path d="M156.766 80.5858L148.533 75.939C148.354 76.1177 148.354 76.2964 148.354 76.4751L156.766 81.3007V80.5858Z" fill="#352221"/>
<path d="M156.766 81.8368L148.175 77.0112C148.175 77.19 148.175 77.3687 148.354 77.5474L156.587 82.373V81.8368H156.766Z" fill="#352221"/>
<path d="M156.766 81.3007L148.354 76.4751C148.354 76.6538 148.354 76.8325 148.354 76.8325L156.945 81.6581V81.3007H156.766Z" fill="#352221"/>
<path d="M156.766 80.0496L148.891 75.5815C148.712 75.5815 148.712 75.7602 148.533 75.9389L156.766 80.5858V80.0496Z" fill="#352221"/>
<path d="M189.136 121.135L187.416 120.641L181.274 141.938L182.995 142.433L189.136 121.135Z" fill="#593D3D"/>
<path d="M193.279 114.543C193.1 113.65 191.847 113.65 191.131 114.722C191.489 113.65 191.847 112.22 190.594 111.862C189.878 111.684 189.341 112.22 188.804 112.577C188.625 112.22 188.446 112.041 188.088 111.862C187.73 111.862 187.372 112.22 187.193 112.577C187.014 111.862 186.477 111.148 185.94 110.969C185.045 110.79 184.687 111.326 184.508 112.041C184.329 111.862 183.971 111.684 183.434 111.684C182.898 111.684 182.182 111.862 181.824 112.399C181.108 113.471 182.361 114.543 183.077 115.258C182.719 115.794 182.54 116.509 182.898 117.224C182.182 117.224 181.645 117.76 181.645 118.475C181.645 119.548 182.54 120.263 183.434 120.441C182.719 120.799 182.182 121.156 182.719 121.871C183.255 122.586 184.329 122.407 185.045 122.228C184.866 123.122 184.866 124.016 185.94 124.016C186.656 124.016 187.551 123.301 188.088 122.586C188.446 123.301 189.162 123.658 189.878 123.48C190.415 123.301 190.773 122.943 190.773 122.586C191.847 123.122 193.1 123.48 193.994 122.407C194.352 121.871 194.352 121.156 193.994 120.62C194.352 120.62 194.889 120.263 195.068 119.726C195.247 119.369 195.068 119.011 194.889 118.654C195.605 118.297 195.963 117.582 195.963 116.688C195.963 116.331 195.784 115.794 195.605 115.437C195.605 115.079 194.71 114.365 193.279 114.543Z" fill="#3ED9B0"/>
<path d="M204.017 89.5219C203.659 89.1645 203.122 89.1645 202.764 89.3432C202.943 88.8071 202.943 88.2709 202.407 87.7347C202.049 87.3773 201.512 87.3773 200.796 87.7347C201.154 86.6624 199.901 85.4113 198.648 86.3049C198.111 85.4113 196.5 85.2326 196.142 85.9475C195.426 83.2666 193.278 84.6964 193.278 85.9475C192.562 85.7687 191.489 85.9475 190.952 86.6624C190.594 87.1985 190.594 87.7347 190.773 88.2709C190.415 88.2709 190.236 88.4496 189.878 88.6283C189.162 89.1645 189.162 89.7007 189.52 90.4156C188.983 90.4156 188.446 90.773 188.267 91.3092C187.909 92.0241 188.267 92.739 188.625 93.2752C188.446 93.4539 188.267 93.6326 188.088 93.8113C187.73 94.3475 187.909 94.8837 188.088 95.4199C187.73 95.4199 187.193 95.5986 186.835 95.7773C186.119 96.4922 186.298 97.5645 186.656 98.2794C186.119 98.2794 185.582 98.6369 185.403 99.1731C185.045 99.888 185.403 100.603 185.761 101.318C186.298 101.675 186.835 102.033 187.014 102.569C187.372 102.211 187.73 101.854 188.267 102.033C188.983 102.033 189.341 102.569 189.699 103.105C189.878 102.926 190.236 102.748 190.594 102.748C190.952 102.748 191.131 103.105 191.31 103.462C192.026 102.926 192.741 102.926 193.636 103.462C193.994 103.82 194.173 104.177 194.173 104.714C194.531 103.999 196.142 103.82 196.5 105.25C198.111 104.535 198.827 105.25 199.722 106.501H199.901C200.259 106.322 200.617 105.965 200.975 105.607C201.333 105.071 201.154 104.356 200.975 103.999C201.333 103.82 201.691 103.462 201.87 103.105C202.049 102.748 202.049 102.211 201.87 101.854C202.586 101.854 203.122 101.675 202.943 100.782C202.943 100.245 202.764 99.7092 202.407 99.1731C203.48 99.1731 204.375 98.8156 204.375 97.7433C204.375 97.0284 203.838 96.4922 203.301 96.1347C204.017 95.7773 204.733 94.8837 204.733 93.9901C204.733 93.4539 204.554 92.9177 204.017 92.5603C204.196 92.3815 204.196 92.0241 204.375 91.8454C204.733 90.773 204.554 90.0581 204.017 89.5219Z" fill="#4C73EB"/>
<path d="M196.679 105.071C196.321 103.82 194.71 103.999 194.352 104.535C194.352 103.999 194.173 103.641 193.816 103.284C193.1 102.748 192.205 102.748 191.489 103.284C191.31 102.926 191.131 102.748 190.773 102.569C190.415 102.569 190.057 102.569 189.878 102.926C189.52 102.39 189.162 102.033 188.446 101.854C187.909 101.854 187.372 102.033 187.193 102.39C186.835 102.033 186.298 101.496 185.94 101.139C185.403 101.139 184.866 101.496 184.687 102.033C184.329 102.748 184.508 103.462 185.045 103.999C184.687 104.356 184.329 104.714 184.329 105.428C184.329 105.786 184.687 106.322 184.866 106.501C184.329 106.501 183.793 106.679 183.435 107.216C183.077 107.931 183.614 108.824 184.15 109.539C183.614 109.539 183.256 109.539 183.077 110.075C182.898 110.611 183.077 111.148 183.256 111.505C183.256 111.505 183.256 111.505 183.077 111.505C183.435 111.505 183.792 111.684 184.15 111.862C184.329 111.148 184.687 110.611 185.582 110.79C186.119 110.969 186.656 111.684 186.835 112.399C187.014 112.041 187.193 111.684 187.73 111.684C188.088 111.684 188.267 112.041 188.446 112.399C188.983 111.862 189.699 111.505 190.236 111.684C191.489 111.862 191.131 113.471 190.773 114.543C191.489 113.471 192.921 113.471 192.921 114.365C194.352 114.007 195.068 114.901 195.426 115.258C195.605 115.258 195.963 115.08 196.142 115.08C196.679 114.722 197.037 113.828 196.679 113.114C197.932 112.756 198.648 111.326 197.932 110.254C198.827 109.897 199.543 109.182 199.722 108.109C199.901 107.573 199.722 106.858 199.364 106.501C199.006 105.071 198.29 104.356 196.679 105.071Z" fill="#FDA12D"/>
<path d="M145.311 148.68C145.669 149.037 146.027 149.216 146.385 149.573C146.922 145.463 148.354 140.995 150.859 136.705L153.544 132.058C153.186 131.701 152.649 131.522 152.291 131.522L149.607 135.99C147.28 140.101 145.848 144.39 145.311 148.68C145.311 148.68 145.311 148.501 145.311 148.68Z" fill="#3F2A28"/>
<path d="M146.385 140.101L147.638 159.403L148.175 166.552C150.859 169.233 156.229 171.199 162.314 171.199C168.579 171.199 173.948 169.233 176.454 166.552L176.991 159.403L178.244 140.101H146.385Z" fill="#FFAF49"/>
<path d="M162.314 131.701C153.544 131.701 146.385 135.454 146.385 140.101C146.385 144.748 153.544 148.501 162.314 148.501C171.084 148.501 178.244 144.748 178.244 140.101C178.065 135.454 171.084 131.701 162.314 131.701Z" fill="#FFBD69"/>
<path d="M162.314 138.314C168.579 138.314 173.948 140.28 176.096 142.96C176.812 142.067 177.17 140.995 177.17 140.101C177.17 135.812 170.368 132.416 162.135 132.416C153.902 132.416 147.101 135.812 147.101 140.101C147.101 141.173 147.459 142.067 148.174 142.96C150.68 140.28 156.05 138.314 162.314 138.314Z" fill="#EFA500"/>
<path d="M162.314 147.786C168.579 147.786 173.948 145.82 176.096 143.139C173.769 140.458 168.4 138.492 162.314 138.492C156.05 138.492 150.681 140.458 148.533 143.139C150.681 145.82 156.05 147.786 162.314 147.786Z" fill="#EFA500"/>
<path d="M162.314 158.688C154.439 158.688 148.175 162.084 148.175 166.195C148.175 170.305 154.439 173.701 162.314 173.701C170.19 173.701 176.454 170.305 176.454 166.195C176.454 162.084 170.011 158.688 162.314 158.688Z" fill="#FFAF49"/>
<path d="M171.085 144.39C171.875 144.39 172.517 143.75 172.517 142.96C172.517 142.171 171.875 141.531 171.085 141.531C170.294 141.531 169.653 142.171 169.653 142.96C169.653 143.75 170.294 144.39 171.085 144.39Z" fill="#3F2A28"/>
<path d="M174.485 140.637L173.949 140.28C173.949 140.28 173.949 140.28 173.77 140.28C173.412 140.101 173.054 140.101 172.517 140.458C171.443 140.995 170.548 142.603 170.548 144.033V146.714L171.264 147.071C171.622 146.714 174.485 145.641 174.485 144.212V141.709C174.485 141.352 174.485 141.173 174.306 140.995L174.485 140.637ZM172.696 144.569C172.517 144.748 172.338 144.748 172.159 144.748C172.159 144.569 172.159 144.39 172.159 144.212C172.159 143.318 172.696 142.246 173.412 141.709C173.591 141.531 173.77 141.531 173.949 141.531C173.949 141.709 173.949 141.888 173.949 142.067C173.949 142.96 173.412 144.033 172.696 144.569Z" fill="#FFBD69"/>
<path d="M173.232 140.816C172.159 141.352 171.264 142.96 171.264 144.39V147.071L175.022 145.463V142.246C175.201 140.816 174.306 140.101 173.232 140.816ZM172.696 144.569C172.517 144.748 172.338 144.748 172.159 144.748C172.159 144.569 172.159 144.39 172.159 144.212C172.159 143.318 172.696 142.246 173.411 141.709C173.59 141.531 173.769 141.531 173.948 141.531C173.948 141.709 173.948 141.888 173.948 142.067C173.948 142.96 173.411 144.033 172.696 144.569Z" fill="#FFAF49"/>
<path d="M173.769 141.531C173.769 141.709 173.769 141.888 173.769 142.067C173.769 142.961 173.232 144.033 172.516 144.569C172.337 144.748 172.158 144.748 171.979 144.748C172.158 145.284 172.695 145.463 173.232 145.284C173.948 144.926 174.485 143.854 174.485 142.782C174.664 141.888 174.306 141.531 173.769 141.531Z" fill="#FFBD69"/>
<path d="M153.902 128.841L153.365 128.484C153.365 128.484 153.365 128.484 153.187 128.484C152.829 128.305 152.471 128.305 151.934 128.663C150.86 129.199 149.965 130.807 149.965 132.237V134.918L150.681 135.275C151.039 134.918 153.902 133.846 153.902 132.416V129.914C153.902 129.556 153.902 129.377 153.723 129.199L153.902 128.841ZM152.113 132.594C151.934 132.773 151.755 132.773 151.576 132.773C151.576 132.594 151.576 132.416 151.576 132.237C151.576 131.343 152.113 130.271 152.829 129.735C153.008 129.556 153.187 129.556 153.365 129.556C153.365 129.735 153.365 129.914 153.365 130.092C153.365 131.165 152.829 132.237 152.113 132.594Z" fill="#FFBD69"/>
<path d="M152.649 128.841C151.576 129.377 150.681 130.986 150.681 132.416V135.097L154.439 133.488V130.271C154.618 129.02 153.723 128.305 152.649 128.841ZM152.113 132.595C151.934 132.773 151.755 132.773 151.576 132.773C151.576 132.595 151.576 132.416 151.576 132.237C151.576 131.343 152.113 130.271 152.828 129.735C153.007 129.556 153.186 129.556 153.365 129.556C153.365 129.735 153.365 129.914 153.365 130.092C153.365 131.165 152.828 132.237 152.113 132.595Z" fill="#FFAF49"/>
<path d="M153.366 129.735C153.366 129.914 153.366 130.092 153.366 130.271C153.366 131.165 152.829 132.237 152.113 132.773C151.934 132.952 151.755 132.952 151.576 132.952C151.755 133.488 152.292 133.667 152.829 133.488C153.544 133.131 154.081 132.058 154.081 130.986C154.081 130.092 153.723 129.735 153.366 129.735Z" fill="#FFBD69"/>
<path d="M167.684 151.539C164.104 157.795 159.093 162.084 154.618 162.978C152.47 163.335 150.86 162.799 149.428 161.727C146.385 159.224 145.669 153.684 146.922 147.429C146.743 145.641 146.743 144.748 146.564 143.139C143.879 151.361 144.416 159.224 148.533 162.62C149.965 163.871 151.576 164.407 153.365 164.407C153.902 164.407 154.439 164.407 154.976 164.229C159.809 163.335 165.178 158.867 169.116 152.254L173.59 144.569C173.948 143.675 173.769 143.139 172.696 142.603C172.338 143.139 172.159 144.033 172.159 144.033L167.684 151.539Z" fill="#3F2A28"/>
<path d="M153.186 133.846C153.977 133.846 154.618 133.205 154.618 132.416C154.618 131.626 153.977 130.986 153.186 130.986C152.395 130.986 151.754 131.626 151.754 132.416C151.754 133.205 152.395 133.846 153.186 133.846Z" fill="#3F2A28"/>
<path d="M182.003 63.6069H180.034L180.571 151.897H182.539L182.003 63.6069Z" fill="#352221"/>
<path d="M158.198 91.3092V175.846C158.198 176.203 158.735 176.382 159.272 176.382C159.809 176.382 160.346 176.203 160.346 175.846V91.3092H158.198Z" fill="#352221"/>
<path d="M170.19 91.3092V175.846C170.19 176.203 170.727 176.382 171.264 176.382C171.801 176.382 172.338 176.203 172.338 175.846V91.3092H170.19Z" fill="#352221"/>
<path d="M133.677 132.773C133.677 132.773 133.677 135.633 133.677 135.99C133.677 136.169 135.288 137.063 135.288 137.063C135.288 137.063 134.393 134.918 136.004 133.846C137.615 132.773 153.365 123.48 155.692 122.407C158.019 121.156 161.956 119.905 165.536 121.692C169.295 123.48 188.625 135.097 188.625 135.097L189.52 132.773C189.52 132.773 166.968 119.548 164.641 118.475C162.314 117.582 159.451 118.118 157.124 119.011C154.797 119.905 133.677 132.773 133.677 132.773Z" fill="#778DFD"/>
<path d="M166.252 120.799C163.567 119.19 158.735 119.369 155.692 121.156L136.362 132.237C133.319 134.024 132.961 136.705 135.646 138.314L164.104 154.578L193.994 136.705L166.252 120.799ZM138.51 136.884C136.183 135.633 136.541 134.561 139.226 132.952L156.587 122.943C159.272 121.514 163.209 121.335 165.357 122.586L188.983 136.348L163.925 151.361L138.51 136.884Z" fill="#778DFD"/>
<path d="M166.252 117.76C163.567 116.152 158.735 116.331 155.692 118.118L136.362 129.199C133.319 130.986 132.961 133.667 135.646 135.275L164.104 151.539L193.994 133.667L166.252 117.76ZM138.51 133.846C136.183 132.595 136.541 131.522 139.226 129.914L156.587 119.905C159.272 118.475 163.209 118.297 165.357 119.548L188.983 133.309L163.925 148.322L138.51 133.846Z" fill="#729CF0"/>
<path d="M163.925 183.352L161.599 181.922V110.969L163.925 112.399V183.352Z" fill="#729CF0"/>
<path d="M163.926 183.352L166.432 181.922V110.969L163.926 112.399V183.352Z" fill="#4C73EB"/>
<path d="M191.489 167.267L188.983 165.837V94.5262L191.489 95.956V167.267Z" fill="#4C73EB"/>
<path d="M191.489 167.267L193.816 165.837V94.5262L191.489 95.956V167.267Z" fill="#729CF0"/>
<path d="M208.492 164.765C208.134 165.122 207.597 165.48 207.239 165.658C206.703 161.012 205.092 156.007 202.407 151.361L199.364 146.178C199.722 145.82 200.259 145.641 200.796 145.641L203.66 150.646C206.166 155.292 207.955 160.118 208.492 164.765Z" fill="#3F2A28"/>
<path d="M207.239 180.493C207.239 182.101 206.523 183.531 205.271 184.782L205.807 176.918C206.881 177.99 207.239 179.242 207.239 180.493Z" fill="#D3BCBA"/>
<path d="M173.411 176.918L173.948 184.782C172.695 183.531 171.979 182.101 171.979 180.493C171.979 179.242 172.516 177.99 173.411 176.918Z" fill="#D3BCBA"/>
<path d="M207.239 155.292L205.807 176.918L205.271 184.782C202.407 187.82 196.321 189.965 189.52 189.965C182.54 189.965 176.633 187.82 173.77 184.782L173.233 176.918L171.801 155.292H207.239Z" fill="#3ED9B0"/>
<path d="M189.699 145.999C199.543 145.999 207.418 150.288 207.418 155.471C207.418 160.654 199.543 164.944 189.699 164.944C179.855 164.944 171.979 160.654 171.979 155.471C171.979 150.11 179.855 145.999 189.699 145.999Z" fill="#6BF2CE"/>
<path d="M189.699 153.327C182.719 153.327 176.812 155.471 174.307 158.51C173.412 157.437 173.054 156.365 173.054 155.293C173.054 150.646 180.571 146.714 189.699 146.714C199.006 146.714 206.344 150.467 206.344 155.293C206.344 156.365 205.808 157.616 205.092 158.51C202.586 155.471 196.5 153.327 189.699 153.327Z" fill="#39BF9C"/>
<path d="M189.699 163.871C182.719 163.871 176.812 161.727 174.307 158.688C176.812 155.65 182.719 153.505 189.699 153.505C196.679 153.505 202.586 155.65 205.092 158.688C202.586 161.727 196.501 163.871 189.699 163.871Z" fill="#BBCDFF"/>
<path d="M181.824 150.646C181.824 151.003 182.182 151.361 182.54 151.361C182.898 151.361 183.256 151.003 183.256 150.646C183.256 150.288 182.898 149.931 182.54 149.931C182.182 150.11 181.824 150.288 181.824 150.646Z" fill="white"/>
<path d="M184.15 160.118C184.15 160.475 184.508 160.833 184.866 160.833C185.224 160.833 185.582 160.475 185.582 160.118C185.582 159.761 185.224 159.403 184.866 159.403C184.508 159.403 184.15 159.761 184.15 160.118Z" fill="white"/>
<path d="M192.384 154.22C192.563 153.863 193.1 153.148 193.637 152.969C193.458 152.076 193.816 151.182 194.711 150.646C195.784 150.11 197.574 150.824 197.753 151.897C198.111 151.539 198.648 151.539 199.185 151.718C199.901 152.076 200.08 152.79 199.901 153.327C200.796 153.148 201.87 153.505 202.407 154.399C202.765 154.935 202.407 156.007 201.87 156.365C202.228 156.901 202.049 157.973 201.333 158.331C200.617 158.688 199.901 158.688 199.185 158.331C198.648 158.688 198.111 159.046 197.395 158.867C196.679 158.688 196.142 158.331 195.784 157.795C194.71 158.152 193.458 157.616 192.563 156.722C191.847 156.186 191.847 155.293 192.384 154.22Z" fill="white"/>
<path d="M175.38 154.756C175.738 154.578 176.096 154.578 176.633 154.578C176.633 153.863 176.991 153.148 177.886 152.79C178.423 152.612 178.96 152.612 179.318 152.969C179.497 152.433 180.034 152.075 180.75 152.075C181.287 152.075 181.466 152.433 181.645 152.969C182.182 152.433 183.256 152.254 183.792 152.254C184.508 152.433 185.045 152.79 185.403 153.505C186.119 152.969 187.372 152.969 187.73 153.684C188.446 154.756 187.193 155.292 186.298 155.65C186.477 155.829 186.656 156.007 186.656 156.186C186.835 156.901 186.298 157.616 185.582 157.795C184.866 158.152 183.971 157.973 183.256 157.616C183.256 158.51 182.719 159.046 181.466 159.046C181.108 159.046 180.571 158.867 180.213 158.51C179.855 159.403 179.139 160.118 177.886 160.118C177.349 160.118 176.454 159.939 176.096 159.403C175.917 159.046 175.738 158.688 175.738 158.331C175.559 158.331 175.201 158.152 175.022 158.152C174.485 157.795 174.127 157.08 174.127 156.365C174.306 155.65 174.843 154.935 175.38 154.756Z" fill="white"/>
<path d="M190.594 150.646C190.594 151.182 190.952 151.539 191.489 151.539C192.026 151.539 192.384 151.182 192.384 150.646C192.384 150.109 192.026 149.752 191.489 149.752C191.131 149.752 190.594 150.109 190.594 150.646Z" fill="white"/>
<path d="M202.407 152.612C202.407 153.148 202.765 153.505 203.302 153.505C203.839 153.505 204.197 153.148 204.197 152.612C204.197 152.076 203.839 151.718 203.302 151.718C202.765 151.718 202.407 152.254 202.407 152.612Z" fill="white"/>
<path d="M188.804 160.833C189.694 160.833 190.415 160.113 190.415 159.224C190.415 158.336 189.694 157.616 188.804 157.616C187.915 157.616 187.193 158.336 187.193 159.224C187.193 160.113 187.915 160.833 188.804 160.833Z" fill="white"/>
<path d="M191.131 160.654C191.131 161.19 191.668 161.727 192.205 161.727C192.742 161.727 193.279 161.19 193.279 160.654C193.279 160.118 192.742 159.582 192.205 159.582C191.668 159.403 191.131 159.939 191.131 160.654Z" fill="white"/>
<path d="M186.835 151.182C187.33 151.182 187.73 150.782 187.73 150.288C187.73 149.795 187.33 149.395 186.835 149.395C186.341 149.395 185.94 149.795 185.94 150.288C185.94 150.782 186.341 151.182 186.835 151.182Z" fill="white"/>
<path d="M201.154 151.003C201.154 151.361 201.512 151.718 201.87 151.718C202.228 151.718 202.586 151.361 202.586 151.003C202.586 150.646 202.228 150.288 201.87 150.288C201.512 150.288 201.154 150.646 201.154 151.003Z" fill="white"/>
<path d="M188.088 149.395C188.483 149.395 188.804 149.075 188.804 148.68C188.804 148.285 188.483 147.965 188.088 147.965C187.693 147.965 187.372 148.285 187.372 148.68C187.372 149.075 187.693 149.395 188.088 149.395Z" fill="white"/>
<path d="M196.679 160.833C196.679 161.19 197.037 161.548 197.395 161.548C197.753 161.548 198.111 161.19 198.111 160.833C198.111 160.475 197.753 160.118 197.395 160.118C197.037 160.118 196.679 160.475 196.679 160.833Z" fill="white"/>
<path d="M179.676 159.939C180.565 159.939 181.287 159.219 181.287 158.331C181.287 157.442 180.565 156.722 179.676 156.722C178.786 156.722 178.065 157.442 178.065 158.331C178.065 159.219 178.786 159.939 179.676 159.939Z" fill="#3F2A28"/>
<path d="M175.917 156.007L176.454 155.65C176.454 155.65 176.454 155.65 176.633 155.65C176.991 155.471 177.528 155.471 178.065 155.829C179.139 156.544 180.213 158.331 180.213 159.939V162.978L179.497 163.335C178.96 162.978 175.917 161.727 175.917 160.118V157.437C175.917 157.08 175.917 156.901 176.096 156.722L175.917 156.007ZM178.065 160.297C178.244 160.475 178.423 160.475 178.602 160.475C178.602 160.297 178.781 160.118 178.781 159.939C178.781 158.867 178.065 157.616 177.349 157.258C177.17 157.08 176.991 157.08 176.812 157.08C176.812 157.258 176.633 157.437 176.633 157.616C176.633 158.51 177.349 159.761 178.065 160.297Z" fill="#39BF9C"/>
<path d="M177.349 156.007C178.423 156.722 179.497 158.509 179.497 160.118V163.156L175.201 161.369V157.794C175.201 156.007 176.275 155.292 177.349 156.007ZM178.065 160.297C178.244 160.475 178.423 160.475 178.602 160.475C178.602 160.297 178.781 160.118 178.781 159.939C178.781 158.867 178.065 157.616 177.349 157.258C177.17 157.08 176.991 157.08 176.812 157.08C176.812 157.258 176.633 157.437 176.633 157.616C176.633 158.509 177.349 159.76 178.065 160.297Z" fill="#3ED9B0"/>
<path d="M176.633 156.901C176.633 157.08 176.454 157.258 176.454 157.437C176.454 158.51 177.17 159.761 177.886 160.118C178.065 160.297 178.244 160.297 178.423 160.297C178.244 161.012 177.707 161.19 177.17 160.833C176.454 160.297 175.738 159.224 175.738 158.152C175.738 157.437 176.096 156.901 176.633 156.901Z" fill="#39BF9C"/>
<path d="M198.827 142.782L199.364 142.424C199.364 142.424 199.364 142.424 199.543 142.424C199.901 142.246 200.438 142.246 200.974 142.603C202.048 143.318 203.122 145.105 203.122 146.714V149.752L202.406 150.109C201.869 149.752 198.827 148.501 198.827 146.892V144.212C198.827 143.854 198.827 143.675 199.006 143.497L198.827 142.782ZM200.974 147.071C201.153 147.25 201.332 147.25 201.511 147.25C201.511 147.071 201.69 146.892 201.69 146.714C201.69 145.641 200.974 144.39 200.259 144.033C200.08 143.854 199.901 143.854 199.722 143.854C199.722 144.033 199.543 144.212 199.543 144.39C199.543 145.284 200.08 146.535 200.974 147.071Z" fill="#3ED9B0"/>
<path d="M200.259 142.781C201.333 143.496 202.406 145.284 202.406 146.892V149.93L198.111 148.143V144.569C198.111 142.781 199.006 142.067 200.259 142.781ZM200.975 147.071C201.154 147.25 201.333 147.25 201.512 147.25C201.512 147.071 201.69 146.892 201.69 146.713C201.69 145.641 200.975 144.39 200.259 144.033C200.08 143.854 199.901 143.854 199.722 143.854C199.722 144.033 199.543 144.211 199.543 144.39C199.543 145.284 200.08 146.535 200.975 147.071Z" fill="#39BF9C"/>
<path d="M199.543 143.675C199.543 143.854 199.364 144.033 199.364 144.212C199.364 145.284 200.08 146.535 200.796 146.892C200.975 147.071 201.154 147.071 201.333 147.071C201.154 147.786 200.617 147.965 200.08 147.607C199.364 147.071 198.648 145.999 198.648 144.926C198.648 144.212 199.006 143.675 199.543 143.675Z" fill="#3ED9B0"/>
<path d="M183.434 167.982C187.372 174.952 193.099 179.778 198.111 180.671C200.438 181.029 202.407 180.493 204.017 179.242C207.239 176.382 208.134 170.127 206.881 163.335C207.06 161.369 207.06 160.297 207.239 158.509C210.282 167.624 209.566 176.382 205.091 180.314C203.659 181.565 201.691 182.28 199.722 182.28C199.185 182.28 198.648 182.28 197.932 182.101C192.563 181.207 186.477 176.024 182.182 168.697L177.17 160.118C176.633 159.224 176.991 158.51 178.065 157.973C178.423 158.51 178.602 159.582 178.602 159.582L183.434 167.982Z" fill="#3F2A28"/>
<path d="M197.932 146.714C197.932 147.607 198.648 148.322 199.543 148.322C200.438 148.322 201.154 147.607 201.154 146.714C201.154 145.82 200.438 145.105 199.543 145.105C198.648 145.105 197.932 145.82 197.932 146.714Z" fill="#3F2A28"/>
<path d="M192.92 134.382L165.536 150.646V154.22L193.099 137.778L192.92 134.382Z" fill="#4C73EB"/>
<path d="M133.677 93.454C133.677 93.454 133.677 96.3136 133.677 96.671C133.677 96.8497 135.288 97.7433 135.288 97.7433C135.288 97.7433 134.393 95.5987 136.004 94.5263C137.615 93.454 153.365 84.1603 155.692 83.088C158.019 81.8369 161.956 80.5858 165.536 82.3731C169.295 84.1603 188.625 95.7774 188.625 95.7774L189.52 93.454C189.52 93.454 166.968 80.2284 164.641 79.156C162.314 78.2624 159.451 78.7986 157.124 79.6922C154.797 80.5858 133.677 93.454 133.677 93.454Z" fill="#778DFD"/>
<path d="M166.252 81.6582C163.567 80.0496 158.735 80.2284 155.692 82.0156L136.362 93.0965C133.319 94.8837 132.961 97.5646 135.646 99.1731L164.104 115.437L193.994 97.5646L166.252 81.6582ZM138.51 97.7433C136.183 96.4923 136.541 95.4199 139.226 93.8114L156.587 83.8029C159.272 82.3731 163.209 82.1943 165.357 83.4454L188.983 97.2072L163.925 112.22L138.51 97.7433Z" fill="#778DFD"/>
<path d="M166.252 78.6198C163.567 77.0113 158.735 77.19 155.692 78.9773L136.362 90.0582C133.319 91.8454 132.961 94.5263 135.646 96.1348L164.104 112.399L193.994 94.5263L166.252 78.6198ZM138.51 94.705C136.183 93.4539 136.541 92.3816 139.226 90.7731L156.587 80.7645C159.272 79.3347 163.209 79.156 165.357 80.4071L188.983 94.1688L163.925 109.182L138.51 94.705Z" fill="#729CF0"/>
<path d="M163.925 115.437L193.815 97.5645V94.5262L163.925 112.399V115.437Z" fill="#4C73EB"/>
<path d="M191.489 135.097L187.909 137.241L185.224 135.633L188.804 133.488L191.489 135.097Z" fill="#729CF0"/>
<path d="M160.167 115.08H158.198V125.446H160.167V115.08Z" fill="#352221"/>
<path d="M172.159 116.688H170.19V127.054H172.159V116.688Z" fill="#352221"/>
<path d="M160.167 74.3304H158.198V93.4539H160.167V74.3304Z" fill="#352221"/>
<path d="M156.945 76.8325V78.0836C156.945 78.7985 158.019 79.3347 159.272 79.3347C160.524 79.3347 161.598 78.7985 161.598 78.0836V76.8325H156.945Z" fill="#493130"/>
<path d="M159.272 75.5815C158.019 75.5815 156.945 76.1177 156.945 76.8325C156.945 77.5474 158.019 78.0836 159.272 78.0836C160.524 78.0836 161.598 77.5474 161.598 76.8325C161.598 76.1177 160.524 75.5815 159.272 75.5815Z" fill="#472F2E"/>
<path d="M171.264 69.3261L151.039 81.1219L144.237 77.19L164.641 65.3942L171.264 69.3261Z" fill="#C6AFAF"/>
<path d="M151.039 81.1219V83.624L171.264 71.8282V69.3261L151.039 81.1219Z" fill="#9E8282"/>
<path d="M144.237 77.1899V79.6921L151.039 83.624V81.1219L144.237 77.1899Z" fill="#B29A9A"/>
<path d="M171.085 63.4282C170.548 64.1431 170.19 65.7516 170.19 65.7516C170.19 65.7516 169.832 65.2154 169.653 64.858C169.295 64.3218 168.579 64.1431 168.579 64.1431C168.579 64.1431 168.758 65.0367 168.758 65.5729C168.579 66.4665 167.863 67.3601 167.863 67.3601C167.863 67.3601 167.684 66.8239 167.326 66.2878C166.968 65.7516 166.252 65.3942 166.252 65.3942C166.252 65.3942 165.715 66.4665 165.536 66.8239C165.357 67.3601 164.82 68.4325 164.82 68.4325C164.82 68.4325 164.283 67.7176 163.925 67.3601C163.567 67.0027 162.672 66.6452 162.672 66.6452C162.672 66.6452 162.672 67.0027 162.493 67.7176C162.314 68.4325 161.599 69.5048 161.599 69.5048C161.599 69.5048 161.062 68.7899 160.883 68.6112C160.704 68.4325 160.167 67.7176 160.167 67.7176C160.167 67.7176 159.63 68.2537 159.451 68.9686C159.272 69.6835 158.914 70.2197 158.914 70.2197C158.914 70.2197 158.556 69.8623 157.84 69.3261C157.303 68.9686 156.587 68.9686 156.587 68.9686C156.587 68.9686 156.766 69.5048 156.945 70.2197C156.945 70.9346 156.587 71.8282 156.587 71.8282C156.587 71.8282 155.692 71.4708 155.692 70.9346C155.513 70.3984 155.513 69.5048 155.513 69.5048C155.513 69.5048 154.618 70.3984 154.26 71.1133C153.902 71.8282 153.365 73.0793 153.365 73.0793C153.365 73.0793 153.007 72.5431 153.007 72.007C152.828 71.4708 152.291 70.5772 152.291 70.5772C152.291 70.5772 151.754 71.1133 151.218 72.007C150.681 72.9006 150.144 73.4367 150.144 73.4367C150.144 73.4367 149.786 72.5431 149.786 71.6495C149.786 70.7559 149.786 70.2197 149.786 70.2197C149.786 70.2197 149.249 70.3984 148.712 70.7559C148.175 71.1133 147.817 71.6495 147.817 71.6495C147.817 71.6495 147.638 70.9346 146.922 70.2197C146.385 69.5048 144.953 68.6112 144.953 68.6112C144.953 68.6112 145.49 69.8623 145.311 71.8282C145.132 73.7942 145.49 76.1176 145.848 76.2963C146.027 76.4751 147.638 77.5474 148.891 78.2623C149.786 78.7985 150.86 79.5134 151.575 79.1559C152.47 78.7985 154.439 77.3687 157.661 75.5814C159.451 74.5091 161.599 73.258 163.209 72.3644C165.894 70.9346 168.221 69.8623 169.832 68.7899C170.906 68.075 170.906 67.7176 171.085 67.0027C171.443 65.2154 172.337 61.4622 172.337 61.4622C172.337 61.4622 171.622 62.7133 171.085 63.4282Z" fill="#FDA12D"/>
<path d="M169.295 60.3899C169.295 60.3899 168.042 60.9261 167.863 61.641C167.505 59.8537 166.431 59.4963 166.431 59.4963C166.431 59.4963 165.178 60.2112 164.641 61.2835C164.104 60.5686 162.135 60.0324 162.135 60.0324C162.135 60.0324 161.241 61.4622 160.883 62.7133C160.167 61.9984 158.556 61.8197 158.556 61.8197C158.556 61.8197 157.84 63.0708 157.84 64.1431C157.303 63.6069 156.229 63.6069 155.155 63.9644C154.439 64.858 154.081 67.0027 154.081 67.0027C154.081 67.0027 152.649 66.4665 151.576 66.2878C151.039 67.1814 150.502 69.1474 150.502 69.1474C150.502 69.1474 149.428 67.5389 148.175 67.5389C148.175 68.7899 147.638 69.1474 147.459 70.3985L144.595 69.5048C144.595 69.5048 146.027 70.3985 146.564 71.1134C147.101 71.8283 147.459 72.5432 147.459 72.5432C147.459 72.5432 147.996 72.007 148.354 71.6495C148.891 71.2921 149.428 71.1134 149.428 71.1134C149.428 71.1134 149.428 71.8283 149.428 72.5432C149.428 73.4368 149.786 74.3304 149.786 74.3304C149.786 74.3304 150.323 73.6155 150.86 72.9006C151.397 72.007 151.933 71.4708 151.933 71.4708C151.933 71.4708 152.47 72.3644 152.649 72.9006C152.828 73.4368 153.007 73.9729 153.007 73.9729C153.007 73.9729 153.544 72.7219 153.902 72.007C154.26 71.2921 155.155 70.3985 155.155 70.3985C155.155 70.3985 155.155 71.2921 155.334 71.8283C155.513 72.3644 156.229 72.7219 156.229 72.7219C156.229 72.7219 156.587 71.8283 156.587 71.1134C156.587 70.3985 156.229 69.8623 156.229 69.8623C156.229 69.8623 156.945 69.6836 157.482 70.2197C158.019 70.5772 158.556 71.1134 158.556 71.1134C158.556 71.1134 158.914 70.3985 159.093 69.8623C159.272 69.1474 159.809 68.6112 159.809 68.6112C159.809 68.6112 160.346 69.3261 160.525 69.5048C160.704 69.6836 161.241 70.3985 161.241 70.3985C161.241 70.3985 161.778 69.3261 162.135 68.6112C162.314 67.8963 162.314 67.5389 162.314 67.5389C162.314 67.5389 163.209 67.7176 163.567 68.2538C163.925 68.6112 164.462 69.3261 164.462 69.3261C164.462 69.3261 164.999 68.075 165.178 67.7176C165.357 67.1814 165.894 66.2878 165.894 66.2878C165.894 66.2878 166.789 66.824 166.968 67.1814C167.326 67.7176 167.505 68.2538 167.505 68.2538C167.505 68.2538 168.4 67.5389 168.4 66.4665C168.4 65.9303 168.221 65.0367 168.221 65.0367C168.221 65.0367 168.937 65.2155 169.295 65.7516C169.653 66.1091 169.832 66.6453 169.832 66.6453C169.832 66.6453 170.19 65.2155 170.727 64.3218C171.264 63.6069 171.98 63.0708 171.98 63.0708C171.98 63.0708 170.727 63.2495 170.369 63.7857C170.548 61.9984 169.295 60.3899 169.295 60.3899Z" fill="#FFAF49"/>
<path d="M183.971 63.2495V64.5006C183.971 65.2155 182.897 65.7517 181.644 65.7517C180.391 65.7517 179.317 65.2155 179.317 64.5006V63.2495H183.971Z" fill="#493130"/>
<path d="M181.465 62.1772C182.718 62.1772 183.792 62.7134 183.792 63.4283C183.792 64.1432 182.718 64.6793 181.465 64.6793C180.213 64.6793 179.139 64.1432 179.139 63.4283C179.139 62.7134 180.213 62.1772 181.465 62.1772Z" fill="#472F2E"/>
<path d="M169.474 55.7431L189.878 67.5389L196.679 63.6069L176.275 51.9899L169.474 55.7431Z" fill="#C6AFAF"/>
<path d="M189.878 67.5388V70.2197L169.474 58.4239V55.743L189.878 67.5388Z" fill="#9E8282"/>
<path d="M196.679 63.6069V66.2878L189.877 70.2197V67.5389L196.679 63.6069Z" fill="#B29A9A"/>
<path d="M169.653 50.0239C170.19 50.7388 170.548 52.3473 170.548 52.3473C170.548 52.3473 170.906 51.8111 171.085 51.4537C171.443 50.9175 172.159 50.7388 172.159 50.7388C172.159 50.7388 171.98 51.6324 171.98 52.1686C172.159 53.0622 172.874 53.9558 172.874 53.9558C172.874 53.9558 173.053 53.4196 173.411 52.8835C173.769 52.3473 174.485 51.9899 174.485 51.9899C174.485 51.9899 175.022 53.0622 175.201 53.4196C175.38 53.9558 175.917 55.0282 175.917 55.0282C175.917 55.0282 176.454 54.3133 176.812 53.9558C177.17 53.5984 178.065 53.2409 178.065 53.2409C178.065 53.2409 178.065 53.5984 178.244 54.3133C178.423 55.0282 179.139 56.1005 179.139 56.1005C179.139 56.1005 179.676 55.3856 179.855 55.2069C180.034 55.0282 180.571 54.3133 180.571 54.3133C180.571 54.3133 181.108 54.8494 181.287 55.5643C181.466 56.2792 181.824 56.8154 181.824 56.8154C181.824 56.8154 182.182 56.458 182.898 55.9218C183.434 55.5643 184.15 55.5643 184.15 55.5643C184.15 55.5643 183.971 56.1005 183.792 56.8154C183.792 57.5303 184.15 58.4239 184.15 58.4239C184.15 58.4239 185.045 58.0665 185.045 57.5303C185.224 56.9941 185.224 56.1005 185.224 56.1005C185.224 56.1005 186.119 56.9941 186.477 57.709C186.835 58.4239 187.372 59.675 187.372 59.675C187.372 59.675 187.73 59.1388 187.73 58.6027C187.909 58.0665 188.446 57.1729 188.446 57.1729C188.446 57.1729 188.983 57.709 189.52 58.6027C190.057 59.4963 190.594 60.0324 190.594 60.0324C190.594 60.0324 190.952 59.1388 190.952 58.2452C190.952 57.3516 190.952 56.8154 190.952 56.8154C190.952 56.8154 191.489 56.9941 192.026 57.3516C192.563 57.709 192.921 58.2452 192.921 58.2452C192.921 58.2452 193.1 57.5303 193.815 56.8154C194.352 56.1005 195.784 55.2069 195.784 55.2069C195.784 55.2069 195.247 56.458 195.426 58.4239C195.605 60.3899 195.247 62.7133 194.889 62.892C194.71 63.0708 193.1 64.1431 191.847 64.858C190.952 65.3942 189.878 66.1091 189.162 65.7516C188.267 65.3942 186.298 63.9644 183.076 62.1771C181.287 61.1048 179.139 59.8537 177.528 58.9601C174.843 57.5303 172.517 56.458 170.906 55.3856C169.832 54.6707 169.832 54.3133 169.653 53.5984C169.295 51.8111 168.4 48.0579 168.4 48.0579C168.4 48.0579 169.116 49.1303 169.653 50.0239Z" fill="#3ED9B0"/>
<path d="M171.443 46.9856C171.443 46.9856 172.695 47.5218 172.874 48.2367C173.232 46.4494 174.306 46.092 174.306 46.092C174.306 46.092 175.559 46.8069 176.096 47.8792C176.633 47.1643 178.602 46.6282 178.602 46.6282C178.602 46.6282 179.497 48.0579 179.855 49.309C180.571 48.5941 182.182 48.4154 182.182 48.4154C182.182 48.4154 182.897 49.6665 182.897 50.7388C183.434 50.2026 184.508 50.2026 185.582 50.5601C186.298 51.4537 186.656 53.5984 186.656 53.5984C186.656 53.5984 188.088 53.0622 189.162 52.8835C189.699 53.7771 190.236 55.7431 190.236 55.7431C190.236 55.7431 191.31 54.1346 192.562 54.1346C192.562 55.3856 193.099 55.7431 193.278 56.9942L196.142 56.1005C196.142 56.1005 194.71 56.9942 194.173 57.7091C193.636 58.424 193.278 59.1389 193.278 59.1389C193.278 59.1389 192.741 58.6027 192.384 58.2452C191.847 57.8878 191.31 57.7091 191.31 57.7091C191.31 57.7091 191.31 58.424 191.31 59.1389C191.31 60.0325 190.952 60.9261 190.952 60.9261C190.952 60.9261 190.415 60.2112 189.878 59.4963C189.341 58.6027 188.804 58.0665 188.804 58.0665C188.804 58.0665 188.267 58.9601 188.088 59.4963C187.909 60.0325 187.73 60.5686 187.73 60.5686C187.73 60.5686 187.193 59.3176 186.835 58.6027C186.477 57.8878 185.582 56.9942 185.582 56.9942C185.582 56.9942 185.582 57.8878 185.403 58.424C185.224 58.9601 184.508 59.3176 184.508 59.3176C184.508 59.3176 184.15 58.424 184.15 57.7091C184.15 56.9942 184.508 56.458 184.508 56.458C184.508 56.458 183.792 56.2793 183.255 56.8154C182.718 57.1729 182.182 57.7091 182.182 57.7091C182.182 57.7091 181.824 56.9942 181.645 56.458C181.466 55.9218 180.929 55.2069 180.929 55.2069C180.929 55.2069 180.392 55.9218 180.213 56.1005C180.034 56.2793 179.497 56.9942 179.497 56.9942C179.497 56.9942 178.96 55.9218 178.602 55.2069C178.423 54.492 178.423 54.1346 178.423 54.1346C178.423 54.1346 177.528 54.3133 177.17 54.8495C176.812 55.2069 176.275 55.9218 176.275 55.9218C176.275 55.9218 175.738 54.6707 175.559 54.3133C175.38 53.7771 174.843 52.8835 174.843 52.8835C174.843 52.8835 173.948 53.4197 173.769 53.7771C173.411 54.3133 173.232 54.8495 173.232 54.8495C173.232 54.8495 172.337 54.1346 172.337 53.0622C172.337 52.526 172.516 51.6324 172.516 51.6324C172.516 51.6324 171.801 51.8112 171.443 52.3473C171.085 52.7048 170.906 53.241 170.906 53.241C170.906 53.241 170.548 51.8112 170.011 50.9175C169.474 50.2026 168.758 49.6665 168.758 49.6665C168.758 49.6665 170.011 49.8452 170.369 50.3814C170.369 48.5941 171.443 46.9856 171.443 46.9856Z" fill="#6BF2CE"/>
<path d="M182.182 96.3135H180.213L180.034 82.0156H182.182V96.3135Z" fill="#352221"/>
<path d="M182.361 123.837H180.392V135.812H182.361V123.837Z" fill="#352221"/>
<path d="M168.042 94.5263V95.7774C168.042 96.4923 169.116 97.0284 170.369 97.0284C171.622 97.0284 172.696 96.4923 172.696 95.7774V94.5263H168.042Z" fill="#493130"/>
<path d="M170.37 93.2752C169.117 93.2752 168.043 93.8114 168.043 94.5263C168.043 95.2412 169.117 95.7773 170.37 95.7773C171.623 95.7773 172.697 95.2412 172.697 94.5263C172.876 93.9901 171.802 93.2752 170.37 93.2752Z" fill="#472F2E"/>
<path d="M182.54 87.0198L162.136 98.8156L155.334 94.8837L175.738 83.0879L182.54 87.0198Z" fill="#C6AFAF"/>
<path d="M162.136 98.8156V101.496L182.54 89.7007V87.0198L162.136 98.8156Z" fill="#9E8282"/>
<path d="M155.334 94.8837V97.5645L162.136 101.496V98.8156L155.334 94.8837Z" fill="#B29A9A"/>
<path d="M156.587 85.59C156.587 85.59 157.124 86.3049 157.482 87.0198C157.84 87.556 157.661 88.8071 157.661 88.8071C157.661 88.8071 158.198 88.0922 158.377 87.7347C158.735 87.0198 159.093 86.8411 159.093 86.8411C159.093 86.8411 159.451 87.7347 159.809 88.4496C159.988 88.8071 161.241 89.7007 161.241 89.7007C161.241 89.7007 161.241 88.6283 161.42 88.2709C161.599 87.556 161.42 86.3049 161.42 86.3049C161.42 86.3049 161.957 86.4837 162.493 86.4837C163.03 86.4837 163.746 87.0198 163.746 87.0198C163.746 87.0198 163.567 86.3049 163.567 85.59C163.567 85.0539 163.925 84.1602 163.925 84.1602C163.925 84.1602 164.283 84.6964 164.82 84.8751C165.357 85.2326 166.073 85.4113 166.073 85.4113C166.073 85.4113 166.073 84.339 166.073 83.8028C166.073 83.0879 166.073 82.1943 166.073 82.1943C166.073 82.1943 166.968 82.7304 167.326 83.0879C167.684 83.4453 168.221 83.6241 168.221 83.6241C168.221 83.6241 168.221 82.7304 168.221 82.1943C168.221 81.4794 168.221 80.5857 168.221 80.5857C168.221 80.5857 168.758 80.7645 169.116 80.7645C169.832 80.9432 170.011 81.3006 170.011 81.3006C170.011 81.3006 169.832 80.407 169.832 79.8708C169.832 79.3347 169.832 78.2623 169.832 78.2623C169.832 78.2623 170.548 78.2623 170.906 78.4411C171.622 78.6198 171.98 78.7985 171.98 78.7985C171.98 78.7985 171.98 78.0836 172.159 77.5474C172.338 76.8325 172.516 75.7602 172.516 75.7602C172.516 75.7602 173.053 76.1176 173.232 76.2964C173.769 76.6538 174.127 77.3687 174.127 77.3687C174.127 77.3687 174.127 76.2964 174.127 75.5815C174.127 74.8666 174.306 74.1517 174.306 74.1517C174.306 74.1517 174.843 74.6878 175.201 75.224C175.559 75.5815 175.917 76.1176 175.917 76.1176C175.917 76.1176 175.738 75.4027 175.917 74.8666C175.917 73.9729 175.738 73.2581 175.738 73.2581C175.738 73.2581 176.275 73.4368 176.812 73.6155C177.349 73.9729 177.707 74.5091 177.707 74.5091C177.707 74.5091 177.886 73.4368 177.707 72.7219C177.707 72.007 177.528 71.6495 177.528 71.6495C177.528 71.6495 178.065 71.6495 178.423 71.8283C178.96 72.1857 179.318 72.5432 179.318 72.5432C179.318 72.5432 179.676 70.7559 180.213 70.041C180.571 69.3261 181.466 68.4325 181.466 68.4325C181.466 68.4325 180.571 68.2538 180.034 69.1474C179.497 69.8623 179.318 70.7559 179.318 70.7559C179.318 70.7559 179.139 69.6836 178.602 68.9687C178.244 68.2538 177.349 67.5389 177.349 67.5389L176.454 69.5048L175.022 67.8963C175.022 67.8963 174.306 69.3261 174.306 69.8623C173.769 69.3261 172.695 68.9687 172.695 68.9687C172.695 68.9687 173.232 70.5772 173.053 71.6495C172.516 70.9346 171.443 70.3985 171.443 70.3985C171.443 70.3985 171.443 72.9006 171.264 73.2581C170.548 72.7219 169.832 73.0793 169.832 73.0793V75.4027C169.832 75.4027 168.579 74.8666 167.863 75.0453C167.863 75.9389 167.684 78.2623 167.684 78.2623C167.684 78.2623 166.789 77.7262 165.894 77.7262C165.536 78.4411 164.999 80.5857 164.999 80.5857C164.999 80.5857 164.283 79.6921 163.388 79.8708C163.567 80.9432 162.851 82.373 162.851 82.373C162.851 82.373 161.957 81.3006 161.241 81.3006C161.241 82.5517 160.704 84.339 160.704 84.339C160.704 84.339 160.167 82.9092 159.451 82.5517C159.093 83.8028 158.377 84.339 158.198 85.59C158.019 84.8751 157.303 84.1602 155.871 83.8028C156.587 84.6964 156.945 86.6624 156.945 86.6624L156.587 85.59Z" fill="#6BF2CE"/>
<path d="M156.945 94.8837C156.945 94.8837 158.556 95.9561 160.167 96.671C161.062 97.2071 162.494 97.922 163.03 97.7433C164.104 97.0284 169.116 94.1688 171.98 92.5603C174.843 90.9518 180.571 87.7347 181.108 87.1986C181.466 86.6624 180.929 75.0453 181.108 72.7219C181.108 70.3985 181.287 68.79 181.287 68.79C181.287 68.79 180.571 69.6836 180.034 70.3985C179.676 71.1134 179.139 72.9006 179.139 72.9006C179.139 72.9006 178.781 72.5432 178.244 72.1857C177.886 72.007 177.349 72.007 177.349 72.007C177.349 72.007 177.349 72.5432 177.528 73.0794C177.528 73.7943 177.528 74.8666 177.528 74.8666C177.528 74.8666 177.349 74.3304 176.633 73.973C176.096 73.6155 175.559 73.6155 175.559 73.6155C175.559 73.6155 175.738 74.3304 175.738 75.224C175.738 75.7602 175.738 76.4751 175.738 76.4751C175.738 76.4751 175.38 76.1177 175.022 75.5815C174.664 75.0453 174.127 74.5091 174.127 74.5091C174.127 74.5091 173.948 75.4028 173.948 75.9389C173.948 76.6538 173.948 77.7262 173.948 77.7262C173.948 77.7262 173.59 77.19 173.054 76.6538C172.696 76.4751 172.338 76.1177 172.338 76.1177C172.338 76.1177 172.159 77.0113 171.98 77.9049C171.98 78.4411 171.801 79.156 171.801 79.156C171.801 79.156 171.443 78.9773 170.727 78.7985C170.369 78.6198 169.653 78.6198 169.653 78.6198C169.653 78.6198 169.474 79.6922 169.653 80.2283C169.653 80.7645 169.832 81.6581 169.832 81.6581C169.832 81.6581 169.474 81.3007 168.937 81.1219C168.579 80.9432 168.042 80.9432 168.042 80.9432C168.042 80.9432 168.042 81.8368 168.042 82.5517C168.042 83.0879 168.042 83.9815 168.042 83.9815C168.042 83.9815 167.505 83.8028 167.147 83.4454C166.789 83.0879 165.894 82.5517 165.894 82.5517C165.894 82.5517 165.894 83.4454 165.894 84.1603C165.894 84.8752 165.894 85.7688 165.894 85.7688C165.894 85.7688 165.178 85.5901 164.641 85.2326C164.104 85.0539 163.746 84.5177 163.746 84.5177C163.746 84.5177 163.388 85.4113 163.388 85.9475C163.388 86.4837 163.567 87.3773 163.567 87.3773C163.567 87.3773 162.673 86.8411 162.315 86.8411C161.778 86.8411 161.241 86.6624 161.241 86.6624C161.241 86.6624 161.42 87.9135 161.241 88.6284C161.241 88.9858 161.062 90.0582 161.062 90.0582C161.062 90.0582 159.988 88.9858 159.63 88.8071C159.093 88.0922 158.914 87.1986 158.914 87.1986C158.914 87.1986 158.556 87.3773 158.198 88.0922C157.84 88.4496 157.482 89.1645 157.482 89.1645C157.482 89.1645 157.482 88.0922 157.303 87.3773C156.945 86.8411 156.408 85.9475 156.408 85.9475L156.229 87.3773C156.229 87.3773 156.05 85.59 155.155 84.5177C155.155 85.59 155.513 86.8411 155.513 87.9135C155.871 90.2369 156.945 94.8837 156.945 94.8837Z" fill="#3ED9B0"/>
<path d="M161.957 111.147C161.42 111.862 160.704 112.577 160.167 112.935C157.124 114.901 155.692 115.616 151.397 114.186C147.996 113.113 146.922 110.611 144.595 108.467C142.268 106.322 139.405 106.679 137.078 105.071C133.498 102.39 133.14 98.8154 133.14 98.8154C132.245 103.462 134.393 105.25 136.004 107.93C134.93 112.398 130.456 125.267 127.95 131.343C125.444 137.42 122.401 145.999 122.759 148.858C123.296 151.718 125.623 158.152 130.277 163.871C135.109 169.59 145.311 168.16 149.965 166.194C154.618 164.229 155.513 160.118 157.482 154.399C159.451 148.501 161.957 127.59 161.957 121.335C162.136 115.794 162.851 113.828 161.957 111.147Z" fill="#593D3D"/>
<path d="M137.257 104.892C139.584 106.501 142.448 106.143 144.774 108.288C147.101 110.433 148.175 112.935 151.576 114.007C155.871 115.437 157.124 114.722 160.346 112.756C160.883 112.399 161.599 111.684 162.136 110.969C161.957 110.611 161.957 110.254 161.778 109.897C160.167 106.68 155.871 109.539 155.871 109.539C155.871 109.539 154.797 105.965 153.008 104.892C151.218 103.82 147.817 104.892 147.817 104.892C147.817 104.892 147.817 101.497 144.416 99.5306C141.016 97.5646 138.51 99.3519 137.257 101.318C135.288 98.637 133.499 98.637 133.499 98.637C133.499 98.637 133.678 102.39 137.257 104.892Z" fill="#3F2A28"/>
<path d="M158.556 119.369C157.482 120.084 155.692 125.088 154.976 130.45C154.439 134.024 148.712 147.607 146.743 152.254C144.774 156.901 142.09 162.978 142.984 164.229C143.879 165.659 147.638 164.586 150.502 163.156C153.365 161.727 155.334 158.688 155.692 154.22C156.05 149.752 158.914 133.488 159.63 129.199C160.346 123.658 161.42 117.403 158.556 119.369Z" fill="#472F2E"/>
<path d="M139.584 112.399C139.584 112.399 137.257 115.08 136.004 116.688C134.572 118.297 133.319 120.977 133.319 120.977C133.319 120.977 135.646 119.19 137.078 117.76C138.51 116.152 139.584 112.399 139.584 112.399Z" fill="#472F2E"/>
<path d="M144.416 116.688C144.416 116.688 142.09 122.05 141.732 123.837C141.374 125.624 141.016 129.914 141.016 129.914C141.016 129.914 143.163 126.697 143.879 123.837C144.416 120.977 144.416 116.688 144.416 116.688Z" fill="#472F2E"/>
<path d="M150.144 118.833C150.144 118.833 147.996 120.977 146.385 124.194C145.311 126.16 144.059 130.092 144.059 130.092C144.059 130.092 146.743 127.59 147.817 125.446C148.891 123.48 150.144 118.833 150.144 118.833Z" fill="#472F2E"/>
<path d="M186.477 127.59H185.403L183.435 134.203L185.224 134.739L187.014 128.663L186.477 127.59Z" fill="#593D3D"/>
<path d="M166.789 107.394C166.789 107.394 168.221 107.216 168.221 109.718C168.221 112.22 168.221 120.977 168.221 125.267C168.221 129.556 168.937 141.888 168.937 141.888C168.937 141.888 171.801 143.497 173.232 143.318C174.664 143.318 174.843 142.246 175.917 140.28C176.991 138.314 178.96 138.135 179.855 138.135C180.929 137.956 184.15 138.492 184.687 136.526C185.224 134.56 185.045 133.667 186.477 133.488C187.909 133.309 190.236 132.952 190.236 131.343C190.236 129.735 190.594 110.254 190.236 105.428C189.878 100.603 188.983 97.5645 186.835 96.1347C184.687 94.7049 182.003 95.5986 180.034 97.0284C178.065 98.4582 174.843 100.424 172.517 101.854C168.937 104.177 166.252 104.535 164.999 105.428C163.925 106.322 164.999 108.288 164.999 108.288L166.789 107.394Z" fill="#FDA12D"/>
<path d="M171.979 109.182C171.979 109.182 172.337 115.08 172.695 117.76C172.874 120.441 173.948 133.309 174.664 135.99C175.201 138.492 175.38 139.743 175.38 139.743C175.38 139.743 176.454 136.884 175.917 132.058C175.738 129.556 175.38 124.373 174.664 119.011C173.769 113.65 171.979 109.182 171.979 109.182Z" fill="#FFAF49"/>
<path d="M183.435 102.39C183.435 102.39 183.793 110.075 184.687 115.437C185.582 120.977 185.761 131.165 185.761 131.165C185.761 131.165 186.835 125.624 186.656 121.692C186.477 117.939 185.582 112.577 185.045 109.003C184.508 105.607 183.435 102.39 183.435 102.39Z" fill="#FFAF49"/>
<path d="M129.919 208.195L127.771 206.944L126.876 203.727L128.666 202.833L129.919 208.195Z" fill="#EFA500"/>
<path d="M101.639 144.748L122.043 132.952L118.106 190.501L108.62 195.863L107.546 191.037L101.102 194.79L98.4176 196.399L92.1532 199.973L91.0793 206.05L81.5933 211.412L101.639 144.748Z" fill="#FDA12D"/>
<path d="M103.071 145.463L123.475 133.667L119.538 191.216L110.052 196.756L108.978 191.931L102.534 195.684L99.8495 197.114L93.5851 200.867L92.5112 206.765L83.0251 212.305L103.071 145.463Z" fill="#EFA500"/>
<path d="M104.682 146.535L125.086 134.739L139.405 202.654L129.918 208.195L128.845 203.369L122.401 207.123L119.716 208.552L113.273 212.305L112.378 218.203L102.892 223.744L104.682 146.535Z" fill="#FDA12D"/>
<path d="M104.682 146.535L101.639 144.748L81.5933 211.412L83.0251 212.305L102.892 145.641L101.102 222.85L102.892 223.744L104.682 146.535Z" fill="#FFCB89"/>
<path d="M122.043 132.952L125.086 134.739L104.682 146.535L101.639 144.748L122.043 132.952Z" fill="#FFAF49"/>
<path d="M122.759 140.637L121.148 141.531C121.148 144.033 120.79 148.501 116.853 151.36C116.495 151.539 114.884 152.612 114.526 152.612C113.094 153.148 112.02 153.326 110.946 152.969C112.199 154.041 113.989 154.578 116.137 153.505C116.495 153.326 118.106 152.433 118.464 152.254C124.37 148.143 122.759 140.637 122.759 140.637Z" fill="#FFB600"/>
<path d="M121.327 141.531L120.253 142.067C119.716 144.569 118.284 148.322 114.347 150.824C113.989 151.003 112.199 152.075 111.841 152.075C111.483 152.254 111.125 152.433 110.767 152.433C110.946 152.612 110.946 152.612 111.125 152.79C112.02 153.148 113.273 152.969 114.705 152.433C115.063 152.254 116.674 151.36 117.031 151.182C120.79 148.501 121.327 144.033 121.327 141.531Z" fill="#EFA500"/>
<path d="M114.347 151.003C118.284 148.501 119.716 144.748 120.253 142.246L118.105 143.497C117.21 145.641 115.779 147.965 112.915 149.752C112.557 149.931 110.767 151.003 110.409 151.003C110.051 151.182 109.872 151.182 109.514 151.36C109.872 151.897 110.23 152.254 110.588 152.79C110.946 152.79 111.304 152.612 111.662 152.433C112.199 152.075 113.989 151.182 114.347 151.003Z" fill="#FFB600"/>
<path d="M109.514 151.182C109.872 151.182 110.051 151.003 110.409 150.824C110.767 150.646 112.557 149.752 112.915 149.573C115.6 147.786 117.211 145.463 118.105 143.318L108.44 148.858C108.44 148.858 108.798 150.109 109.514 151.182Z" fill="url(#paint1_linear)"/>
<path d="M128.549 184.186C127.807 184.435 127.56 184.435 126.819 184.933C126.819 183.44 125.831 180.207 125.584 179.212C124.596 177.72 122.619 177.471 121.384 177.223C121.631 175.979 121.137 175.482 120.89 174.238C120.643 173.243 120.643 172.995 120.643 172C120.643 171.005 121.631 170.01 121.878 169.264C122.867 166.528 122.619 163.792 121.631 161.803C121.631 161.554 121.384 161.803 121.384 162.051C121.137 164.29 122.125 165.285 121.137 168.518C120.643 169.264 120.149 170.01 119.408 171.254C119.161 171.751 118.914 172.497 118.914 172.746C118.667 172.497 118.667 172.248 118.667 172C118.667 171.751 118.914 171.502 118.914 171.254C118.914 170.259 118.173 169.264 117.679 169.264C117.679 169.015 117.926 168.767 117.679 168.269C117.432 168.767 117.184 169.015 116.937 169.015C116.69 169.264 116.196 169.513 116.196 170.01C115.949 170.756 115.949 171.254 116.196 171.751C115.949 172.248 116.196 172.746 116.443 172.995C116.69 173.492 117.432 172.746 117.432 172.746C117.432 172.995 117.679 173.492 117.679 173.989C117.679 174.238 117.184 174.487 116.937 174.984C116.443 175.73 116.196 176.725 115.702 177.72C115.208 179.212 114.961 180.953 114.714 182.445C114.467 183.192 114.22 184.186 113.973 184.933C113.726 186.425 113.973 186.674 114.467 186.425C114.961 185.679 114.961 183.689 115.208 182.943C115.455 181.948 115.949 180.953 116.196 179.71C116.443 178.715 116.937 177.471 117.679 176.974C117.926 177.72 118.173 179.71 118.914 179.958C118.914 180.953 118.914 181.451 119.161 182.445C119.408 183.44 120.149 184.435 120.643 185.927C120.396 188.166 120.396 189.161 119.655 191.896C119.161 192.394 119.161 193.14 119.408 193.637C120.149 194.632 120.643 194.881 121.631 194.135C121.878 194.135 121.878 193.637 121.878 193.637C121.631 193.14 120.89 192.643 120.396 192.394C120.89 191.399 122.125 187.42 122.372 185.927C122.619 184.684 122.125 182.445 121.384 180.456C121.878 181.202 123.361 181.451 124.102 181.202C124.349 183.192 125.337 184.684 125.584 185.927C125.584 186.674 125.584 187.171 126.078 187.171C126.819 186.674 127.807 186.176 128.301 184.933C128.796 184.435 128.549 184.186 128.549 184.186Z" fill="black"/>
<path d="M111.231 200.613L131.255 189.279L131.001 187.768L111.231 199.354V200.613Z" fill="black"/>
<path d="M59.2205 201.582C59.3994 201.403 59.3994 201.046 59.7574 200.689C59.5784 200.331 58.8625 200.331 58.1466 200.331C58.1466 199.616 57.2517 198.186 56.5357 197.65C55.8198 197.65 55.4618 198.186 55.1039 198.365C55.1039 197.829 54.7459 197.114 54.3879 196.757C53.672 196.22 52.2401 195.863 51.1662 196.399C50.9873 195.863 50.9873 195.327 50.6293 194.969C49.9134 194.969 49.5554 194.791 49.0184 195.148C49.0184 194.969 48.4815 194.254 49.0184 193.897C48.3025 193.54 46.8707 193.718 46.3337 194.076C46.1547 193.718 45.9757 193.361 45.7968 193.182C45.2598 192.467 44.3649 191.574 43.47 191.752C43.47 191.216 42.933 190.501 42.5751 190.144C41.8591 189.608 41.3222 189.429 40.4273 189.786C40.0693 189.429 39.3534 188.893 38.6375 188.893C38.4585 188.357 38.2795 187.82 38.4585 187.463C37.7426 187.463 37.2056 187.463 36.6687 187.642C36.6687 187.284 36.6686 186.569 36.3107 186.212C35.9527 186.748 35.2368 186.569 34.6998 186.927C34.3419 186.033 33.447 185.318 32.552 185.497C32.731 185.318 32.5521 184.603 32.91 184.246C31.6571 183.531 30.2253 184.067 29.8673 184.067C29.8673 182.637 28.6144 181.744 27.1826 182.28C27.1826 181.922 27.1826 181.208 27.0036 181.029C26.6456 180.493 25.7507 181.029 25.2138 181.386C25.2138 181.029 25.2138 180.671 25.7507 180.135C24.8558 179.778 24.1399 179.778 23.245 180.314C23.066 179.42 21.9921 178.705 21.2761 178.884C21.0972 178.169 20.7392 177.454 20.2022 177.276C20.0233 177.633 19.6653 177.812 19.1284 177.991C18.4124 176.918 17.5175 176.739 16.9806 176.739C17.1595 176.382 17.1595 176.025 17.3385 175.667C16.4436 175.31 15.5487 175.488 14.8328 175.846C14.8328 175.846 14.6538 175.846 14.6538 176.025C14.6538 175.846 14.4748 175.846 14.4748 175.667C14.2958 175.31 13.5799 174.774 13.2219 174.952C12.864 175.31 12.864 175.846 12.685 176.203C12.506 176.203 12.506 176.203 12.327 176.025C11.6111 175.846 10.3582 176.382 9.64227 176.382C9.64227 176.918 10.1792 176.918 10.3582 177.097C10.0002 177.276 9.64227 177.454 9.46329 177.991C8.74735 177.991 7.85244 178.169 7.13651 177.991C6.95753 178.348 7.49448 178.705 7.67346 178.884C6.59956 178.705 5.34669 179.242 4.27279 179.778C4.27279 180.135 5.1677 180.135 5.34669 180.135C4.98872 180.314 4.45178 180.671 4.27279 180.85C4.09381 181.029 4.09381 181.386 4.09381 181.744C3.37788 181.744 2.66195 182.28 2.125 182.28C2.125 182.816 3.1989 183.174 3.73585 183.174C3.37788 183.71 3.01992 184.782 2.84093 185.14C3.37788 184.961 4.63076 184.782 5.16771 184.603C5.16771 185.14 5.34669 185.497 5.70465 185.854C6.06262 186.212 6.42058 186.212 6.95753 186.212C6.59957 186.391 6.06262 186.927 5.52567 187.284C6.06262 187.642 6.77855 187.82 7.49448 187.82C7.3155 187.82 6.95753 188.357 6.95753 188.714C7.67346 188.893 8.92634 188.893 9.64227 188.535C9.46329 188.893 9.46329 189.429 9.28431 189.786C10.1792 189.608 11.0741 189.071 11.7901 189.071C11.7901 189.25 11.7901 189.25 11.7901 189.429C11.969 189.965 12.327 190.323 12.864 190.501C13.4009 190.859 14.2958 190.859 15.0118 190.68C14.8328 190.859 15.0118 191.574 14.4748 192.11C15.1907 192.467 16.4436 192.467 17.3385 192.11C17.3385 192.825 17.3385 193.897 17.5175 194.612C18.2334 194.433 18.7704 193.54 19.1284 193.182C19.3073 194.076 20.5602 195.148 21.4551 195.148C21.0972 195.684 20.7392 196.042 21.0972 196.399C21.6341 196.578 23.245 196.042 24.1399 195.684C24.3188 196.399 25.2138 196.935 26.1087 196.935C25.9297 197.293 25.9297 198.008 26.2877 198.901C27.0036 198.544 27.8985 198.365 28.4354 198.186C28.6144 198.186 28.7934 198.008 28.7934 198.008C28.9724 198.723 29.5093 199.08 30.2253 199.437C30.5832 199.616 31.1202 199.616 31.4782 199.616C31.1202 199.974 30.5832 200.331 30.2253 201.046C31.2992 201.225 32.3731 201.403 33.447 201.225C33.6259 201.225 33.8049 201.225 34.1629 201.046C33.8049 201.94 33.9839 203.012 34.8788 203.548C35.2368 202.833 35.9527 202.476 36.3107 202.118C36.3107 202.476 36.3107 202.833 36.3107 203.191C36.4897 203.906 36.6686 204.442 37.3846 204.799C37.9215 204.263 38.6375 203.906 38.8164 203.727C38.8164 203.906 39.3534 204.978 39.7114 205.693C40.4273 205.693 40.9642 205.157 41.3222 204.62C41.3222 205.157 41.8592 205.872 42.0381 206.586C42.3961 206.765 43.112 206.408 43.47 206.05C43.649 206.765 44.1859 207.48 44.5439 207.659C45.0808 208.016 45.9758 208.016 46.5127 207.659C46.5127 208.374 47.2286 209.089 47.5866 209.625C48.3025 208.731 49.3764 208.91 49.7344 208.374C49.9134 208.91 50.2713 209.089 50.8083 209.625C51.5242 209.446 52.7771 208.016 52.5981 207.123C52.9561 207.301 54.7459 207.659 55.1039 207.48C55.6408 207.48 56.3567 206.944 56.8937 206.586C56.3567 206.05 56.3567 205.335 56.3567 205.157C57.2517 205.335 58.5045 205.157 59.0415 204.442C59.2205 204.084 59.3994 203.548 59.3994 203.191C60.4733 203.369 61.9052 203.012 62.4421 202.297C60.6523 201.94 59.5784 201.761 59.2205 201.582Z" fill="#593D3D"/>
<path d="M4.63068 183.888L46.6916 208.195C47.7655 208.91 49.7343 208.731 51.1662 208.016L57.9675 204.084C59.2204 203.369 59.3994 202.118 58.3255 201.582L16.2645 177.097C15.1907 176.382 13.2218 176.561 11.79 177.276L4.98864 181.208C3.73576 182.101 3.55678 183.174 4.63068 183.888Z" fill="#729CF0"/>
<path d="M6.95751 182.637L47.0496 205.872C47.9445 206.408 49.5554 206.408 50.6293 205.693L56.1777 202.476C57.2516 201.94 57.4306 200.867 56.3567 200.331L16.4436 177.097C15.5487 176.561 13.9378 176.561 12.8639 177.276L7.31548 180.493C6.24159 181.029 6.0626 182.101 6.95751 182.637Z" fill="#E3EDFF"/>
<path d="M31.2991 188.357C28.7933 188.357 26.6455 189.429 26.6455 190.859C26.6455 192.288 28.7933 193.361 31.2991 193.361C33.8048 193.361 35.9526 192.288 35.9526 190.859C35.9526 189.429 33.8048 188.357 31.2991 188.357Z" fill="#4C73EB"/>
<path d="M75.3287 90.4157L73.3599 89.522L30.2251 190.323C30.2251 190.323 30.2251 190.323 30.2251 190.501C30.2251 190.859 30.762 191.037 31.299 191.037C31.8359 191.037 32.3729 190.859 32.3729 190.501L75.3287 90.4157Z" fill="white"/>
<path d="M74.792 92.7391H68.3486C68.3486 92.7391 66.2008 96.3135 65.8429 98.637C65.4849 101.139 67.9907 102.569 67.9907 102.569L69.6015 98.8157C69.6015 98.8157 69.7805 98.8157 69.9595 98.8157C69.9595 99.3519 69.7805 99.888 70.1385 100.245C70.4964 100.96 71.5703 101.318 71.9283 100.067C72.1073 99.5306 72.2863 98.9944 72.4652 98.4582C72.8232 98.2795 73.3602 98.1008 73.7181 97.7433C75.15 96.8497 74.792 92.7391 74.792 92.7391Z" fill="#FFC9B6"/>
<path d="M69.6012 70.3985C69.6012 70.3985 66.9165 70.3985 65.6636 76.4751C64.7687 80.9432 70.3171 84.1603 70.3171 84.1603L75.6866 73.6155L69.6012 70.3985Z" fill="#FDA12D"/>
<path d="M68.3483 129.378C68.3483 129.378 67.4534 135.097 70.6751 140.458C72.4649 143.318 75.8655 147.965 79.6242 152.433C82.4879 155.65 84.0987 159.403 84.0987 160.476C83.9198 161.727 79.4452 165.301 79.4452 165.301L81.235 167.982L90.5421 161.369C90.5421 161.369 87.8574 156.722 86.9625 153.505C86.0676 149.931 84.9936 145.105 83.0248 141.173C79.2662 133.667 77.4764 129.556 77.4764 129.556H68.3483V129.378Z" fill="#FFB9A4"/>
<path d="M89.8263 159.761C89.8263 159.761 88.3944 162.084 87.4995 162.799C85.8887 164.229 84.4568 165.301 82.488 165.301C81.0562 165.301 80.1612 164.586 80.1612 164.586C80.1612 164.586 73.7179 168.697 75.5077 170.127C76.9396 171.378 78.3714 171.735 81.5931 170.842C83.025 170.484 86.0677 168.518 87.4995 166.731C88.7524 166.373 91.0792 165.122 91.6161 163.871C92.1531 163.335 91.0792 161.012 89.8263 159.761Z" fill="white"/>
<path d="M86.7835 116.688C84.4568 114.365 80.5191 116.688 78.7293 119.011C75.5076 122.943 76.2236 129.377 75.8656 134.024C75.5076 139.922 75.3286 145.999 74.7917 151.897C74.4337 156.007 73.8968 163.693 72.6439 169.769C71.57 174.952 69.6012 176.382 68.5273 178.169C67.6324 179.42 73.7178 182.28 74.6127 181.208C75.5076 180.314 78.5503 177.276 78.5503 174.059C78.7293 169.59 80.6981 164.944 83.2039 157.437C83.7408 156.007 84.8147 154.578 84.4568 147.786C84.2778 146.178 84.2778 142.961 84.8147 141.531C85.1727 140.28 86.6045 139.029 87.1415 137.778C87.6784 136.526 88.2154 135.275 88.5734 134.024C90.0052 128.484 90.9001 120.62 86.7835 116.688Z" fill="#FFC9B6"/>
<path d="M71.3912 73.2581C74.4339 69.3261 76.0448 68.9687 79.8034 71.1134C84.457 73.7942 88.5736 74.8666 90.5424 76.4751C93.9431 79.3347 95.3749 85.59 96.0908 92.9177C96.0908 93.9901 96.6278 97.2071 95.0169 99.5305C95.9119 102.748 97.3437 103.999 96.2698 107.394C90.9003 110.433 79.8034 111.863 75.6868 104.356C75.5078 103.82 76.0448 102.211 76.4028 101.854C75.5078 101.318 74.9709 100.245 74.9709 99.1731C73.36 98.2795 72.1072 97.0284 71.7492 94.8837C68.5275 94.1688 65.3058 92.3816 66.2008 88.6284C66.7377 86.8411 69.2434 82.5517 69.6014 80.407C70.3173 76.1177 70.4963 74.3304 71.3912 73.2581Z" fill="#FFAF49"/>
<path d="M73.5389 73.7943C74.4338 73.6155 75.5077 70.756 75.8657 68.9687C76.0447 67.8964 80.8772 64.6793 80.8772 64.8581C80.8772 68.6113 81.4142 72.9006 83.204 74.8666C80.6982 77.5475 78.3714 82.7305 74.0759 81.8369C71.7491 81.4794 71.7491 78.6198 73.5389 73.7943Z" fill="#FFB9A4"/>
<path d="M77.8345 98.4583C77.8345 98.4583 82.1301 97.0285 84.2779 97.3859C86.6046 97.7434 88.5734 98.4583 88.5734 98.4583C88.5734 98.4583 85.3518 98.9944 83.204 98.9944C81.0562 98.9944 77.8345 98.4583 77.8345 98.4583Z" fill="#4C73EB"/>
<path d="M79.6243 103.641C79.9822 103.641 84.6358 103.463 87.1415 103.284C89.6473 103.105 90.7212 102.926 90.7212 102.926C90.7212 102.926 88.5734 104.535 85.7097 104.535C82.667 104.535 79.6243 103.641 79.6243 103.641Z" fill="#4C73EB"/>
<path d="M72.107 97.2071C71.5701 98.8157 72.823 100.603 73.7179 101.854C73.002 105.071 71.5701 111.863 70.3172 118.297C68.8854 125.267 67.0955 133.131 66.9165 140.637C70.1382 145.284 73.7179 147.25 79.6243 147.607C89.8263 148.322 95.5538 143.675 95.5538 143.675C95.5538 143.675 96.2697 129.377 96.2697 119.369C101.102 109.718 95.9117 102.033 95.9117 102.033C95.9117 102.033 89.2894 101.497 85.3518 98.8156C83.025 97.2071 79.2663 90.5943 80.1613 87.9135C81.7721 83.0879 87.4995 74.6879 87.4995 74.6879L85.3518 73.7943C85.3518 73.7943 78.7294 84.6964 76.9396 87.0198C76.4026 87.7347 73.7179 87.0198 72.286 86.3049C69.4223 84.8752 69.4223 85.2326 69.6013 83.4454C69.9592 80.7645 74.0758 73.0794 74.0758 73.0794L71.2121 71.2921C71.2121 71.2921 67.9904 81.6581 66.3796 85.0539C64.9477 87.9135 64.5898 89.7007 66.0216 91.8454C66.7376 93.4539 69.2433 95.9561 72.107 97.2071Z" fill="#4C73EB"/>
<path d="M72.1071 71.8282C72.1071 71.8282 71.3912 75.7602 70.8543 77.19C70.3173 78.6198 69.2434 82.0155 69.2434 82.0155C69.2434 82.0155 70.6753 81.3006 71.3912 81.6581C72.1071 82.0155 72.8231 83.0879 73.539 83.2666C74.2549 83.4453 75.1498 83.2666 75.1498 83.2666L75.6868 81.4794C75.6868 81.4794 74.2549 81.1219 74.2549 78.7985C74.2549 76.4751 74.4339 73.258 74.4339 73.258L72.1071 71.8282Z" fill="#FDA12D"/>
<path d="M69.4222 58.7814C72.8229 58.0665 74.6127 57.8878 77.4764 59.1389C79.0873 59.675 80.6981 60.3899 82.309 61.2836C82.488 61.2836 82.488 61.4623 82.488 61.641C81.772 66.1091 80.1612 70.7559 75.3287 72.7219C71.2121 74.3304 68.8853 69.8623 68.1693 66.824C67.2744 63.4282 67.0954 59.3176 69.4222 58.7814Z" fill="#FFC9B6"/>
<path d="M85.5308 55.3857C84.2779 50.9176 81.5932 48.7729 79.6244 50.7388C79.2664 48.5941 77.1186 47.3431 76.0447 48.7729C75.1498 46.4494 72.644 46.9856 71.2122 48.058C68.7064 50.0239 63.158 57.5304 67.2746 60.3899C67.4536 64.1432 72.1071 64.5006 74.6129 62.5346C76.0447 63.7857 78.7295 63.7857 79.6244 62.5346C80.1613 64.8581 80.8772 67.1815 81.2352 69.1474C82.8461 68.2538 87.3206 61.9985 85.5308 55.3857Z" fill="#2C1D1B"/>
<path d="M78.3716 65.2155C78.3716 65.2155 79.0875 62.5347 80.8773 63.9644C82.6672 65.3942 80.1614 68.0751 80.1614 68.0751L78.3716 65.2155Z" fill="#FFC9B6"/>
<path d="M81.4142 70.756C81.4142 70.756 80.1614 73.0794 78.9085 75.0454C77.6556 77.1901 76.2237 79.3348 74.9709 80.4071C73.0021 82.0156 73.718 84.5178 73.718 84.5178C73.718 84.5178 74.4339 82.9092 75.3288 83.088C76.2237 83.2667 77.1187 84.1603 78.1926 85.0539C78.9085 83.8029 80.1614 82.3731 81.4142 80.2284C82.6671 78.0837 84.4569 75.7603 83.741 73.0794C83.2041 70.756 81.4142 70.756 81.4142 70.756Z" fill="#FDA12D"/>
<path d="M64.0527 183.71C62.6209 186.033 62.4419 187.642 64.2317 188.535C67.0954 190.144 68.7063 188.893 71.928 186.212C74.0758 184.425 74.4337 182.816 76.4025 180.671C77.4764 180.493 78.5503 179.063 78.7293 177.633C78.9083 175.846 78.7293 173.701 78.7293 173.701C78.7293 173.701 77.8344 175.488 76.9395 177.097C76.0446 179.063 74.0758 179.956 73.0019 179.778C71.391 179.42 68.5273 177.812 68.5273 177.812C68.5273 177.812 65.1266 181.744 64.0527 183.71Z" fill="white"/>
<path d="M75.3286 102.748C75.3286 102.748 76.2235 104.535 79.4452 106.501C82.6669 108.467 88.3943 106.501 88.3943 106.501C88.3943 106.501 83.3828 106.143 80.6981 105.071C78.7293 104.356 75.3286 102.748 75.3286 102.748Z" fill="#729CF0"/>
<path d="M73.5388 98.1008C73.7178 98.1008 75.8656 100.245 78.1924 100.424C80.5191 100.603 82.8459 98.9944 82.8459 98.9944C82.8459 98.9944 79.9822 99.1731 78.1924 98.8157C76.2236 98.6369 73.5388 98.1008 73.5388 98.1008Z" fill="#729CF0"/>
<path d="M81.2352 119.548C81.2352 119.548 78.1925 123.301 76.9396 126.518C75.6867 129.914 74.4338 140.458 74.4338 140.458C74.4338 140.458 76.7606 132.416 78.1925 127.948C79.4454 123.658 81.2352 119.548 81.2352 119.548Z" fill="#729CF0"/>
<path d="M83.9198 91.4879C83.9198 91.4879 81.4141 96.1347 78.7293 101.139C72.6439 104.356 65.4846 109.718 65.4846 109.718L67.2744 112.399C67.2744 112.399 73.5388 111.684 78.9083 108.824C81.951 107.216 83.2039 107.931 84.6358 105.428C87.8574 100.245 91.6161 93.99 91.6161 93.99C91.6161 93.99 87.4995 90.9517 83.9198 91.4879Z" fill="#FFC9B6"/>
<path d="M90.3634 76.4752C86.7837 77.0113 84.9939 80.9433 83.741 85.5901C82.3091 90.2369 82.4881 94.1689 82.4881 94.1689C82.4881 94.1689 86.0678 95.5987 89.4684 97.7434C93.585 93.9901 96.4488 88.8071 96.8067 84.5177C97.1647 80.2284 93.2271 77.3688 90.3634 76.4752Z" fill="#FDA12D"/>
<path d="M82.4881 92.739C82.4881 92.739 84.6359 92.9177 86.9627 94.1688C89.2895 95.4199 90.5423 96.6709 90.5423 96.6709L88.7525 98.8156C88.7525 98.8156 86.7837 97.0284 85.3518 96.3135C83.92 95.5986 81.9512 95.4199 81.9512 95.4199L82.4881 92.739Z" fill="#FFCB89"/>
<path d="M70.1383 109.718L66.3797 109.003C66.3797 109.003 63.516 110.254 62.0841 110.969C60.6522 111.684 59.7573 114.186 59.2204 116.509C58.6834 118.833 59.3994 119.369 59.2204 120.441C59.0414 121.692 60.4733 121.692 60.8312 120.441C61.1892 119.19 61.9051 116.867 61.9051 116.867C61.9051 116.867 63.337 116.331 65.4848 115.616C67.6326 114.901 70.4963 111.684 70.4963 111.684L70.1383 109.718Z" fill="#FFC9B6"/>
<defs>
<linearGradient id="paint0_linear" x1="364.777" y1="4.00617e-06" x2="155.097" y2="179.457" gradientUnits="userSpaceOnUse">
<stop stop-color="#5274B5"/>
<stop offset="0.216059" stop-color="#4C73EB"/>
<stop offset="0.666667" stop-color="#729CF0"/>
<stop offset="0.979167" stop-color="#A3BFF9"/>
</linearGradient>
<linearGradient id="paint1_linear" x1="108.501" y1="147.304" x2="118.12" y2="147.304" gradientUnits="userSpaceOnUse">
<stop stop-color="#8DA3FF"/>
<stop offset="1" stop-color="#6781EF"/>
</linearGradient>
</defs>
</svg>
