<svg width="173" height="43" viewBox="0 0 173 43" xmlns="http://www.w3.org/2000/svg" fill="none"><path d="M70.548 26.115h-5.496l-8.276-11.721v11.721h-4.841v-23.124h4.841v11.198l8.183-11.198h5.154l-8.323 11.104 8.758 12.02zM88.912 17.242c0 2.879-.75 5.13-2.249 6.754-1.499 1.624-3.586 2.436-6.261 2.436-1.676 0-3.155-.372-4.435-1.114-1.28-.743-2.265-1.812-2.952-3.203-.687-1.391-1.03-3.015-1.03-4.871 0-2.889.744-5.135 2.233-6.738 1.489-1.603 3.581-2.404 6.277-2.404 1.676 0 3.155.369 4.435 1.107 1.28.739 2.265 1.798 2.952 3.179.687 1.379 1.03 2.997 1.03 4.853zm-12.071 0c0 1.751.283 3.074.85 3.97.567.897 1.492 1.344 2.772 1.344 1.27 0 2.183-.445 2.74-1.337.557-.891.836-2.217.836-3.978 0-1.751-.281-3.064-.843-3.939-.563-.875-1.483-1.313-2.765-1.313-1.27 0-2.186.435-2.748 1.305-.561.872-.842 2.188-.842 3.948zM114.848 26.115h-4.45v-13.934l-.25.981c-.563 2.225-1.067 3.907-1.516 5.046l-3.09 7.907h-3.388l-3.139-7.972c-.447-1.16-.926-2.789-1.436-4.887l-.297-1.076v13.935h-4.435v-17.683h6.558l2.998 7.544c.313.813.601 1.745.867 2.8.266 1.054.446 1.957.539 2.704.343-1.582.611-2.717.804-3.409.193-.691.403-1.326.632-1.906.23-.58 1.266-3.159 3.108-7.735h6.497v17.684h-.002zM129.026 26.115h-4.839v-19.043h-6.2v-4.081h17.239v4.081h-6.2v19.043zM145.172 26.432c-2.811 0-5.007-.786-6.59-2.356-1.582-1.57-2.373-3.796-2.373-6.675 0-2.963.731-5.254 2.194-6.872 1.462-1.619 3.485-2.427 6.067-2.427 2.466 0 4.388.712 5.761 2.136 1.374 1.424 2.062 3.391 2.062 5.9v2.341h-11.259c.053 1.371.453 2.441 1.203 3.21.749.77 1.8 1.155 3.155 1.155 1.05 0 2.045-.111 2.982-.332.937-.222 1.916-.574 2.935-1.06v3.733c-.832.422-1.722.736-2.669.941-.948.204-2.104.306-3.468.306zm-.67-14.9c-1.01 0-1.802.324-2.373.972-.573.648-.9 1.569-.984 2.76h6.684c-.021-1.191-.327-2.112-.921-2.76-.596-.647-1.397-.972-2.406-.972zM159.742 17.083l-5.621-8.653h5.403l3.389 5.63 3.419-5.63h5.404l-5.684 8.653 5.95 9.032h-5.418l-3.67-6.058-3.685 6.058h-5.402l5.915-9.032z" fill="#305893"/><path d="M39.851 26.843c-.659-4.748-2.846-8.998-6.045-12.221-1.48-1.492-3.178-2.763-5.038-3.764 3.218 2.365 5.31 6.205 5.31 10.54l-.001.175c-.032 2.476-.747 4.787-1.964 6.745-1.046 2.182-2.446 4.158-4.123 5.851-3.161 3.19-7.308 5.374-11.938 6.048-.994.145-2.009.221-3.042.221-.681 0-1.353-.034-2.018-.098 2.788 1.557 5.959 2.497 9.333 2.64.3.013.599.021.902.021 8.142 0 15.211-4.643 18.77-11.459.042-.555.064-1.114.064-1.681 0-1.024-.072-2.031-.209-3.016z" fill="url(#a)"/><path d="M21.227 34.412c-.472 0-.937-.027-1.396-.077-1.41-.154-2.75-.539-3.986-1.117-2.595-1.014-4.943-2.53-6.93-4.429-3.418-3.268-5.763-7.673-6.448-12.618-.137-.986-.209-1.994-.209-3.018 0-.472.016-.941.047-1.406-1.236 2.455-2.019 5.183-2.24 8.071-.042.555-.064 1.114-.064 1.681 0 8.115 4.439 15.178 10.991 18.839.665.064 1.337.098 2.018.098 1.033 0 2.049-.077 3.042-.221 4.629-.673 8.777-2.858 11.938-6.048 1.677-1.693 3.077-3.669 4.123-5.851-2.275 3.662-6.299 6.095-10.886 6.095z" fill="url(#b)"/><path d="M30.418 2.115c-.3-.013-.599-.021-.902-.021-1.033 0-2.049.077-3.042.221-4.893.712-9.248 3.114-12.468 6.604-1.597 1.73-2.914 3.728-3.879 5.92 2.084-3.613 5.837-6.117 10.189-6.427.301-.022.606-.033.913-.033 2.817 0 5.422.919 7.54 2.476 1.862 1 3.558 2.272 5.038 3.764 3.199 3.224 5.386 7.474 6.045 12.221.137.986.209 1.994.209 3.018 0 .565-.022 1.126-.064 1.681 1.362-2.607 2.209-5.531 2.408-8.635.029-.465.047-.934.047-1.406 0-8.539-4.914-15.914-12.033-19.385z" fill="url(#c)"/><path d="M23.243.098c-.665-.064-1.337-.098-2.018-.098-8.257 0-15.411 4.775-18.921 11.748-.029.465-.047.934-.047 1.406 0 1.024.073 2.032.209 3.018.685 4.945 3.032 9.35 6.448 12.618 1.987 1.901 4.335 3.415 6.93 4.429-4.346-2.032-7.379-6.45-7.465-11.597l-.003-.227c0-2.39.637-4.631 1.748-6.557.966-2.192 2.284-4.19 3.88-5.92 3.22-3.49 7.575-5.892 12.468-6.604.994-.145 2.009-.221 3.042-.221.302 0 .602.007.901.021-2.205-1.073-4.623-1.773-7.173-2.016z" fill="url(#d)"/><path d="M52.224 39.656v-6.738h5.245v6.738h-.751v-6.046h-3.745v6.046h-.749zM59.228 41.197v-6.517h.732v1.002c.495-.737 1.121-1.108 1.881-1.108.627 0 1.175.236 1.645.708.468.471.703 1.103.703 1.891 0 .776-.235 1.403-.703 1.877-.468.474-1.017.712-1.645.712-.772 0-1.4-.353-1.881-1.059v2.493h-.732zm2.481-2.1c.494 0 .906-.174 1.236-.524.329-.35.494-.82.494-1.411 0-.571-.167-1.034-.504-1.39-.336-.356-.745-.535-1.225-.535-.474 0-.891.184-1.245.549-.355.366-.533.828-.533 1.386 0 .558.177 1.019.533 1.381.353.364.768.544 1.244.544zM69.616 39.007c-.494.51-1.106.765-1.835.765-.729 0-1.336-.253-1.82-.761-.485-.507-.726-1.12-.726-1.839 0-.712.246-1.324.737-1.834s1.101-.765 1.829-.765 1.337.254 1.824.761c.488.507.733 1.12.733 1.838 0 .712-.247 1.324-.742 1.834zm-1.815.101c.525 0 .958-.187 1.297-.558.339-.372.508-.831.508-1.377 0-.54-.177-.999-.528-1.377-.352-.378-.785-.568-1.298-.568-.527 0-.957.188-1.293.563-.336.375-.504.835-.504 1.381 0 .54.174.997.522 1.372.35.375.782.563 1.294.563zM71.678 39.656v-4.977h.694l1.835 2.618 1.835-2.618h.703v4.977h-.743v-3.794l-1.815 2.523-1.797-2.523v3.794h-.712zM78.379 39.656v-4.977h.733v1.868h1.311c.57 0 1.036.123 1.397.37s.542.621.542 1.121c0 .495-.167.887-.504 1.179-.336.293-.786.439-1.35.439h-2.13zm.731-.653h1.33c.373 0 .663-.081.869-.241.206-.16.309-.395.309-.703 0-.283-.106-.499-.318-.65-.212-.151-.508-.226-.889-.226h-1.302v1.82h.002zm4.134.653v-4.977h.733v4.977h-.733zM85.61 39.656v-4.977h.732v4.322h2.395v-4.322h.732v4.322h2.395v-4.322h.742v4.977h-6.998zM94.003 39.734c-.19 0-.387-.026-.59-.078l.086-.635c.146.045.263.067.352.067.14 0 .253-.017.342-.053.089-.036.186-.128.29-.279.104-.151.186-.364.243-.641.057-.275.106-.667.147-1.174.041-.507.061-1.123.061-1.848v-.414h3.478v4.977h-.732v-4.322h-2.053v.115c0 .758-.029 1.403-.086 1.935-.057.533-.129.95-.213 1.252-.086.302-.204.537-.356.703-.152.166-.299.274-.442.322-.143.048-.318.072-.527.072zM102.195 39.772c-.691 0-1.271-.243-1.744-.726-.471-.484-.708-1.109-.708-1.873 0-.725.224-1.339.674-1.843.45-.504 1.011-.756 1.683-.756.704 0 1.261.25 1.672.751.412.501.618 1.129.618 1.887l-.009.26h-3.898c.051.507.24.91.565 1.209.326.299.714.448 1.164.448.59 0 1.106-.235 1.55-.703l.456.414c-.55.622-1.224.933-2.023.933zm-1.71-2.898h3.165c-.045-.481-.202-.88-.47-1.199-.269-.317-.636-.476-1.098-.476-.418 0-.776.157-1.074.471-.299.314-.472.715-.523 1.204zM105.674 39.656v-4.977h.732v2.147h2.832v-2.147h.732v4.977h-.732v-2.176h-2.832v2.176h-.732zM111.604 39.656v-4.977h.732v2.147h2.832v-2.147h.733v4.977h-.733v-2.176h-2.832v2.176h-.732zM117.534 39.656v-4.977h.733v1.868h1.311c.57 0 1.036.123 1.397.37s.542.621.542 1.121c0 .495-.167.887-.503 1.179-.337.293-.786.439-1.35.439h-2.13zm.733-.653h1.329c.374 0 .664-.081.87-.241.205-.16.308-.395.308-.703 0-.283-.106-.499-.318-.65-.212-.151-.508-.226-.889-.226h-1.302v1.82h.002zm4.133.653v-4.977h.733v4.977h-.733zM124.767 39.656v-4.977h.732v3.937l2.918-3.937h.712v4.977h-.732v-3.937l-2.927 3.937h-.703zm3.046-6.016c-.244.218-.54.327-.889.327s-.645-.109-.889-.327c-.244-.218-.395-.501-.451-.848l.503-.106c.126.45.406.673.837.673.432 0 .709-.224.837-.673l.504.106c-.059.347-.209.63-.452.848zM133.614 39.656v-4.977h.733v2.868l2.69-2.868h.903l-2.055 2.157 2.11 2.82h-.864l-1.749-2.28-1.037 1.078v1.204h-.731v-.002zM138.764 39.734c-.19 0-.387-.026-.589-.078l.086-.635c.146.045.262.067.351.067.14 0 .254-.017.343-.053.089-.036.186-.128.29-.279.104-.151.186-.364.243-.641.057-.275.106-.667.147-1.174.042-.507.062-1.123.062-1.848v-.414h3.478v4.977h-.733v-4.322h-2.053v.115c0 .758-.029 1.403-.086 1.935-.057.533-.129.95-.213 1.252-.086.302-.205.537-.357.703-.152.166-.299.274-.442.322-.141.048-.316.072-.527.072zM144.81 39.656v-4.977h.733v3.937l2.917-3.937h.713v4.977h-.733v-3.937l-2.927 3.937h-.703zM150.807 39.656v-4.977h.732v2.147h2.832v-2.147h.732v4.977h-.732v-2.176h-2.832v2.176h-.732zM156.737 39.656v-4.977h.732v3.937l2.918-3.937h.712v4.977h-.732v-3.937l-2.927 3.937h-.703zM162.734 39.656v-4.977h.733v2.147h2.831v-2.147h.733v4.977h-.733v-2.176h-2.831v2.176h-.733zM168.665 39.656v-4.977h3.335v.655h-2.604v4.323h-.731z" fill="#305893"/><defs><linearGradient id="a" x1="18.643" y1="41.171" x2="35.709" y2="20.407" gradientUnits="userSpaceOnUse"><stop offset=".028" stop-color="#A1D4C5"/><stop offset=".382" stop-color="#62BDA4"/><stop offset=".573" stop-color="#4CA98C"/><stop offset=".81" stop-color="#309676"/><stop offset=".948" stop-color="#238F6E"/></linearGradient><linearGradient id="b" y1="26.092" x2="32.112" y2="26.092" gradientUnits="userSpaceOnUse"><stop offset=".014" stop-color="#7698CC"/><stop offset=".382" stop-color="#4B6DB1"/><stop offset=".96" stop-color="#305893"/></linearGradient><linearGradient id="c" x1="41.754" y1="21.276" x2="16.683" y2="6.669" gradientUnits="userSpaceOnUse"><stop offset=".014" stop-color="#7698CC"/><stop offset=".382" stop-color="#4B6DB1"/><stop offset=".96" stop-color="#305893"/></linearGradient><linearGradient id="d" x1="27.861" y1="2.848" x2="7.614" y2="22.675" gradientUnits="userSpaceOnUse"><stop offset=".036" stop-color="#F2B065"/><stop offset=".093" stop-color="#F2A951"/><stop offset=".156" stop-color="#F2A341"/><stop offset=".221" stop-color="#F2A037"/><stop offset=".29" stop-color="#F29E34"/><stop offset=".937" stop-color="#E1821E"/></linearGradient></defs></svg>