<svg width="117" height="29" viewBox="0 0 117 29" xmlns="http://www.w3.org/2000/svg" fill="none"><path d="M47.579 17.612h-3.706l-5.582-7.905v7.905h-3.265v-15.595h3.265v7.552l5.519-7.552h3.476l-5.613 7.489 5.907 8.106zM59.964 11.628c0 1.942-.506 3.46-1.517 4.555-1.011 1.095-2.418 1.643-4.223 1.643-1.13 0-2.128-.25-2.991-.752-.863-.501-1.528-1.222-1.991-2.16-.463-.938-.695-2.033-.695-3.285 0-1.948.502-3.463 1.506-4.544 1.004-1.081 2.415-1.621 4.233-1.621 1.13 0 2.128.249 2.991.747s1.527 1.213 1.991 2.144c.463.93.695 2.021.695 3.273zm-8.141 0c0 1.181.191 2.073.573 2.677.382.605 1.006.906 1.869.906.856 0 1.472-.301 1.848-.901.376-.601.564-1.495.564-2.683 0-1.181-.189-2.066-.569-2.656-.379-.59-1-.885-1.864-.885-.856 0-1.474.293-1.854.88-.378.588-.568 1.475-.568 2.662zM77.456 17.612h-3.002v-9.397l-.168.662c-.379 1.5-.719 2.635-1.022 3.403l-2.084 5.332h-2.285l-2.117-5.376c-.302-.783-.625-1.881-.969-3.296l-.2-.726v9.398h-2.991v-11.926h4.423l2.022 5.088c.211.548.405 1.177.584 1.889.179.711.3 1.32.364 1.824.232-1.067.412-1.833.542-2.299.13-.466.272-.894.427-1.286.155-.391.853-2.13 2.096-5.217h4.381v11.927h-.001zM87.018 17.612h-3.264v-12.843h-4.181v-2.752h11.626v2.752h-4.181v12.843zM97.907 17.826c-1.896 0-3.377-.53-4.444-1.589-1.067-1.059-1.6-2.56-1.6-4.502 0-1.998.493-3.544 1.479-4.635.986-1.092 2.35-1.637 4.092-1.637 1.663 0 2.959.48 3.886 1.44.926.96 1.39 2.287 1.39 3.979v1.579h-7.593c.035.924.305 1.646.811 2.165.505.519 1.214.779 2.128.779.709 0 1.38-.075 2.011-.224.632-.15 1.292-.387 1.98-.715v2.518c-.562.285-1.162.496-1.801.635-.639.138-1.419.207-2.338.207zm-.452-10.049c-.681 0-1.215.219-1.6.656-.386.437-.607 1.058-.663 1.862h4.508c-.014-.804-.221-1.424-.621-1.862-.402-.436-.942-.656-1.623-.656zM107.733 11.521l-3.791-5.836h3.644l2.286 3.797 2.306-3.797h3.644l-3.834 5.836 4.013 6.091h-3.654l-2.474-4.086-2.486 4.086h-3.643l3.989-6.091z" fill="#333"/><path d="M26.876 18.104c-.444-3.202-1.92-6.068-4.077-8.242-.998-1.006-2.143-1.864-3.398-2.538 2.17 1.595 3.581 4.185 3.581 7.108l-.001.118c-.022 1.67-.504 3.228-1.324 4.549-.706 1.471-1.65 2.804-2.781 3.946-2.131 2.151-4.928 3.624-8.051 4.079-.67.098-1.355.149-2.052.149-.459 0-.913-.023-1.361-.066 1.88 1.05 4.019 1.684 6.294 1.781l.608.014c5.491 0 10.259-3.131 12.659-7.728.029-.374.043-.752.043-1.134 0-.691-.048-1.369-.141-2.034z" fill="url(#a)"/><path d="M14.316 23.208c-.318 0-.632-.018-.941-.052-.951-.104-1.855-.363-2.688-.754-1.75-.684-3.334-1.706-4.674-2.987-2.305-2.204-3.887-5.175-4.349-8.51-.093-.665-.141-1.345-.141-2.035 0-.318.011-.635.032-.948-.834 1.656-1.362 3.496-1.511 5.443-.029.374-.043.752-.043 1.134 0 5.473 2.994 10.237 7.413 12.705.448.043.902.066 1.361.066.697 0 1.382-.052 2.052-.149 3.122-.454 5.92-1.928 8.051-4.079 1.131-1.142 2.075-2.475 2.781-3.946-1.534 2.47-4.248 4.111-7.342 4.111z" fill="url(#b)"/><path d="M20.514 1.426l-.608-.014c-.697 0-1.382.052-2.052.149-3.3.48-6.237 2.1-8.409 4.454-1.077 1.167-1.965 2.514-2.616 3.993 1.405-2.437 3.937-4.126 6.872-4.334.203-.015.409-.022.616-.022 1.9 0 3.657.62 5.085 1.67 1.255.675 2.4 1.532 3.398 2.538 2.157 2.174 3.632 5.041 4.077 8.242.093.665.141 1.345.141 2.035 0 .381-.015.76-.043 1.134.918-1.758 1.49-3.73 1.624-5.824.02-.313.032-.63.032-.948 0-5.759-3.314-10.733-8.115-13.074z" fill="url(#c)"/><path d="M15.676.066c-.448-.043-.902-.066-1.361-.066-5.569 0-10.394 3.22-12.761 7.923-.02.313-.032.63-.032.948 0 .691.049 1.371.141 2.035.462 3.335 2.045 6.306 4.349 8.51 1.34 1.282 2.924 2.303 4.674 2.987-2.931-1.37-4.977-4.35-5.035-7.821l-.002-.153c0-1.612.43-3.123 1.179-4.422.651-1.478 1.54-2.826 2.616-3.993 2.172-2.354 5.109-3.974 8.409-4.454.67-.098 1.355-.149 2.052-.149l.608.014c-1.487-.724-3.118-1.196-4.838-1.36z" fill="url(#d)"/><path d="M35.221 26.745v-4.544h3.538v4.544h-.506v-4.077h-2.526v4.077h-.505zM39.944 27.784v-4.395h.494v.676c.334-.497.756-.747 1.269-.747.423 0 .792.159 1.109.477.316.318.474.744.474 1.276 0 .523-.158.946-.474 1.266-.316.32-.686.48-1.109.48-.521 0-.944-.238-1.269-.714v1.682h-.494zm1.674-1.416c.333 0 .611-.117.834-.353.222-.236.333-.553.333-.952 0-.385-.113-.698-.34-.938-.227-.24-.502-.361-.826-.361-.32 0-.601.124-.84.37-.239.247-.359.558-.359.935s.119.687.359.932c.238.245.518.367.839.367zM46.95 26.307c-.334.344-.746.516-1.238.516s-.901-.171-1.227-.513c-.327-.342-.49-.755-.49-1.24 0-.48.166-.893.497-1.237.331-.344.742-.516 1.233-.516.491 0 .902.171 1.23.513.329.342.494.755.494 1.24 0 .48-.167.893-.5 1.237zm-1.224.068c.354 0 .646-.126.875-.377.229-.251.343-.56.343-.928 0-.364-.119-.674-.356-.928-.237-.255-.529-.383-.875-.383-.355 0-.645.127-.872.38-.227.253-.34.563-.34.931 0 .364.117.672.352.925.236.253.527.38.873.38zM48.341 26.745v-3.357h.468l1.238 1.765 1.238-1.765h.474v3.357h-.501v-2.558l-1.224 1.701-1.212-1.701v2.558h-.48zM52.86 26.745v-3.357h.494v1.26h.884c.384 0 .699.083.942.25.243.167.366.418.366.756 0 .334-.113.598-.34.795-.227.197-.53.296-.91.296h-1.436zm.493-.441h.897c.252 0 .447-.054.586-.163.139-.108.208-.266.208-.474 0-.191-.071-.337-.214-.439-.143-.102-.343-.152-.6-.152h-.878v1.227h.001zm2.788.441v-3.357h.494v3.357h-.494zM57.737 26.745v-3.357h.494v2.915h1.616v-2.915h.494v2.915h1.615v-2.915h.5v3.357h-4.719zM63.398 26.797c-.128 0-.261-.018-.398-.052l.058-.428.237.045.231-.036c.06-.024.125-.086.196-.188.07-.102.125-.245.164-.432.038-.186.072-.45.1-.792.028-.342.041-.757.041-1.246v-.279h2.346v3.357h-.494v-2.915h-1.385v.078c0 .511-.02.946-.058 1.305-.038.36-.087.641-.144.845-.058.203-.138.362-.24.474-.103.112-.202.185-.298.217-.096.033-.214.048-.355.048zM68.923 26.823c-.466 0-.858-.164-1.177-.49-.318-.326-.477-.748-.477-1.263 0-.489.151-.903.455-1.243.303-.34.681-.51 1.135-.51.474 0 .85.169 1.128.507.278.338.416.761.416 1.272l-.006.175h-2.628c.034.342.162.614.381.815.219.201.481.302.785.302.398 0 .746-.158 1.045-.474l.308.279c-.371.42-.825.629-1.364.629zm-1.154-1.954h2.134c-.03-.324-.136-.594-.317-.809-.181-.214-.429-.321-.74-.321-.282 0-.523.106-.724.318-.202.212-.319.483-.353.812zM71.268 26.745v-3.357h.494v1.448h1.91v-1.448h.494v3.357h-.494v-1.468h-1.91v1.468h-.494zM75.268 26.745v-3.357h.494v1.448h1.91v-1.448h.494v3.357h-.494v-1.468h-1.91v1.468h-.494zM79.267 26.745v-3.357h.494v1.26h.884c.384 0 .699.083.942.25.243.167.366.418.366.756 0 .334-.113.598-.34.795-.227.197-.53.296-.91.296h-1.436zm.494-.441h.897c.252 0 .447-.054.586-.163.139-.108.208-.266.208-.474 0-.191-.071-.337-.214-.439-.143-.102-.343-.152-.6-.152h-.878v1.227h.001zm2.788.441v-3.357h.494v3.357h-.494zM84.145 26.745v-3.357h.494v2.655l1.968-2.655h.481v3.357h-.494v-2.655l-1.974 2.655h-.474zm2.055-4.058c-.165.147-.364.22-.6.22-.235 0-.435-.073-.6-.22-.165-.147-.266-.338-.305-.572l.34-.071c.085.303.273.454.564.454.291 0 .478-.151.564-.454l.34.071c-.039.234-.141.425-.305.572zM90.112 26.745v-3.357h.494v1.934l1.814-1.934h.609l-1.386 1.455 1.423 1.902h-.583l-1.18-1.538-.699.727v.812h-.493v-.001zM93.585 26.797c-.128 0-.261-.018-.398-.052l.058-.428.237.045.231-.036c.06-.024.125-.086.196-.188.07-.102.125-.245.164-.432.038-.186.071-.45.099-.792.028-.342.041-.757.041-1.246v-.279h2.346v3.357h-.494v-2.915h-1.385v.078c0 .511-.02.946-.058 1.305-.038.36-.087.641-.144.845-.058.203-.138.362-.24.474-.103.112-.202.185-.298.217-.095.033-.213.048-.355.048zM97.663 26.745v-3.357h.494v2.655l1.967-2.655h.481v3.357h-.494v-2.655l-1.974 2.655h-.474zM101.707 26.745v-3.357h.494v1.448h1.909v-1.448h.494v3.357h-.494v-1.468h-1.909v1.468h-.494zM105.706 26.745v-3.357h.494v2.655l1.968-2.655h.48v3.357h-.494v-2.655l-1.974 2.655h-.474zM109.751 26.745v-3.357h.494v1.448h1.91v-1.448h.494v3.357h-.494v-1.468h-1.91v1.468h-.494zM113.751 26.745v-3.357h2.249v.442h-1.756v2.915h-.493z" fill="#333"/><defs><linearGradient id="a" x1="12.573" y1="27.766" x2="24.083" y2="13.763" gradientUnits="userSpaceOnUse"><stop offset=".028" stop-color="#A1D4C5"/><stop offset=".382" stop-color="#62BDA4"/><stop offset=".573" stop-color="#4CA98C"/><stop offset=".81" stop-color="#309676"/><stop offset=".948" stop-color="#238F6E"/></linearGradient><linearGradient id="b" y1="17.597" x2="21.657" y2="17.597" gradientUnits="userSpaceOnUse"><stop offset=".014" stop-color="#7698CC"/><stop offset=".382" stop-color="#4B6DB1"/><stop offset=".96" stop-color="#305893"/></linearGradient><linearGradient id="c" x1="28.16" y1="14.349" x2="11.252" y2="4.498" gradientUnits="userSpaceOnUse"><stop offset=".014" stop-color="#7698CC"/><stop offset=".382" stop-color="#4B6DB1"/><stop offset=".96" stop-color="#305893"/></linearGradient><linearGradient id="d" x1="18.79" y1="1.921" x2="5.135" y2="15.293" gradientUnits="userSpaceOnUse"><stop offset=".036" stop-color="#F2B065"/><stop offset=".093" stop-color="#F2A951"/><stop offset=".156" stop-color="#F2A341"/><stop offset=".221" stop-color="#F2A037"/><stop offset=".29" stop-color="#F29E34"/><stop offset=".937" stop-color="#E1821E"/></linearGradient></defs></svg>