<svg width="43" height="43" viewBox="0 0 43 43" xmlns="http://www.w3.org/2000/svg" fill="none"><path d="M39.851 26.843c-.659-4.748-2.846-8.998-6.045-12.221-1.48-1.492-3.178-2.763-5.038-3.764 3.218 2.365 5.31 6.205 5.31 10.54l-.001.175c-.032 2.476-.747 4.787-1.964 6.745-1.046 2.182-2.446 4.158-4.123 5.851-3.161 3.19-7.308 5.374-11.938 6.048-.994.145-2.009.221-3.042.221-.681 0-1.353-.034-2.018-.098 2.788 1.557 5.959 2.497 9.333 2.641.3.013.599.021.902.021 8.142 0 15.211-4.643 18.77-11.459.042-.555.064-1.115.064-1.681 0-1.024-.072-2.031-.209-3.017z" fill="url(#a)"/><path d="M21.227 34.413c-.472 0-.937-.027-1.396-.077-1.41-.154-2.75-.539-3.986-1.117-2.595-1.014-4.943-2.53-6.93-4.429-3.418-3.268-5.763-7.673-6.448-12.618-.137-.986-.209-1.994-.209-3.018 0-.472.016-.941.047-1.406-1.236 2.455-2.019 5.183-2.24 8.071-.042.555-.064 1.114-.064 1.681 0 8.115 4.439 15.178 10.991 18.839.665.064 1.337.098 2.018.098 1.033 0 2.049-.077 3.042-.221 4.629-.673 8.777-2.858 11.938-6.048 1.677-1.693 3.077-3.669 4.123-5.851-2.275 3.662-6.299 6.095-10.886 6.095z" fill="url(#b)"/><path d="M30.418 2.115c-.3-.013-.599-.021-.902-.021-1.033 0-2.049.077-3.042.221-4.893.712-9.248 3.114-12.468 6.604-1.597 1.73-2.914 3.728-3.879 5.92 2.084-3.613 5.837-6.117 10.189-6.427.301-.022.606-.033.913-.033 2.817 0 5.422.919 7.54 2.476 1.862 1.001 3.558 2.272 5.038 3.764 3.199 3.224 5.386 7.474 6.045 12.221.137.986.209 1.994.209 3.018 0 .565-.022 1.126-.064 1.681 1.362-2.607 2.209-5.531 2.408-8.635.029-.465.047-.934.047-1.406 0-8.539-4.914-15.914-12.033-19.385z" fill="url(#c)"/><path d="M23.243.098c-.665-.064-1.337-.098-2.018-.098-8.257 0-15.411 4.775-18.921 11.748-.029.465-.047.934-.047 1.406 0 1.024.073 2.032.209 3.018.685 4.945 3.032 9.35 6.448 12.618 1.987 1.901 4.335 3.415 6.93 4.429-4.346-2.032-7.379-6.45-7.465-11.597l-.003-.227c0-2.39.637-4.631 1.748-6.557.966-2.192 2.284-4.19 3.88-5.92 3.22-3.49 7.575-5.892 12.468-6.604.994-.145 2.009-.221 3.042-.221.302 0 .602.007.901.021-2.205-1.073-4.623-1.773-7.173-2.016z" fill="url(#d)"/><defs><linearGradient id="a" x1="18.643" y1="41.171" x2="35.709" y2="20.407" gradientUnits="userSpaceOnUse"><stop offset=".028" stop-color="#A1D4C5"/><stop offset=".382" stop-color="#62BDA4"/><stop offset=".573" stop-color="#4CA98C"/><stop offset=".81" stop-color="#309676"/><stop offset=".948" stop-color="#238F6E"/></linearGradient><linearGradient id="b" y1="26.092" x2="32.112" y2="26.092" gradientUnits="userSpaceOnUse"><stop offset=".014" stop-color="#7698CC"/><stop offset=".382" stop-color="#4B6DB1"/><stop offset=".96" stop-color="#305893"/></linearGradient><linearGradient id="c" x1="41.754" y1="21.276" x2="16.683" y2="6.669" gradientUnits="userSpaceOnUse"><stop offset=".014" stop-color="#7698CC"/><stop offset=".382" stop-color="#4B6DB1"/><stop offset=".96" stop-color="#305893"/></linearGradient><linearGradient id="d" x1="27.861" y1="2.848" x2="7.614" y2="22.675" gradientUnits="userSpaceOnUse"><stop offset=".036" stop-color="#F2B065"/><stop offset=".093" stop-color="#F2A951"/><stop offset=".156" stop-color="#F2A341"/><stop offset=".221" stop-color="#F2A037"/><stop offset=".29" stop-color="#F29E34"/><stop offset=".937" stop-color="#E1821E"/></linearGradient></defs></svg>