<svg width="40" height="40" viewBox="0 0 40 40" xmlns="http://www.w3.org/2000/svg" fill="none"><rect y="20" width="20" height="20" rx="8" fill="#3ED9B0"/><path d="M17.171 29.063c.163.287.4.524.685.689.286.165.61.25.94.248h3.079c.166 0 .325-.066.442-.183.117-.117.183-.276.183-.442 0-.166-.066-.325-.183-.442-.117-.117-.276-.183-.442-.183h-3.08c-.11 0-.217-.029-.313-.084-.095-.055-.174-.134-.229-.229-.055-.095-.084-.203-.084-.313 0-.11.029-.218.084-.313l1.094-1.895.266.994c.043.16.148.297.291.38.144.083.314.105.474.062.16-.043.297-.148.38-.291.083-.144.105-.314.062-.474l-.688-2.563c-.021-.079-.058-.154-.108-.219-.05-.065-.112-.12-.183-.161-.071-.041-.15-.068-.231-.078-.081-.011-.164-.005-.243.016l-2.563.688c-.16.043-.297.148-.38.291-.083.144-.105.314-.062.474.043.16.148.297.291.38.144.083.314.105.474.062l1.214-.326-1.172 2.035c-.166.284-.254.608-.254.938 0 .329.088.653.254.938zM29.079 29.062c.166-.284.254-.608.254-.938 0-.329-.088-.653-.254-.938l-1.579-2.74c-.041-.072-.095-.134-.16-.185-.065-.05-.14-.088-.219-.109-.079-.022-.163-.027-.244-.017-.082.011-.161.037-.232.078-.071.041-.134.096-.184.162-.05.066-.087.14-.108.22-.021.08-.026.163-.015.244.011.082.038.16.08.231l1.579 2.74c.055.095.084.203.084.313 0 .11-.029.218-.084.313-.055.095-.134.174-.229.229-.095.055-.203.084-.313.084h-1.571l.808-.808c.114-.118.177-.276.175-.44-.002-.164-.067-.321-.183-.436-.116-.116-.273-.182-.437-.183-.164-.001-.322.062-.44.175l-1.875 1.875c-.117.117-.183.276-.183.442 0 .166.066.325.183.442l1.875 1.875c.118.114.276.177.44.175.164-.001.321-.067.437-.183.116-.116.182-.273.183-.437.001-.164-.062-.322-.175-.44l-.808-.808h1.571c.33.002.654-.084.939-.249.285-.165.522-.402.685-.689zM26.785 19.991c-.16-.043-.331-.02-.474.063-.143.083-.248.219-.291.379l-.266.995-1.004-1.74c-.164-.286-.401-.523-.686-.688-.285-.165-.609-.252-.939-.252-.329 0-.653.087-.939.252-.285.165-.522.402-.686.688l-1.5 2.594c-.042.071-.069.15-.08.231-.011.082-.006.165.015.244.021.08.058.154.108.22.05.066.113.12.184.162.071.041.15.068.232.079.082.011.165.005.244-.017.08-.022.154-.059.219-.109s.12-.113.16-.185l1.5-2.594c.055-.095.134-.174.229-.229.095-.055.203-.084.312-.084.11 0 .218.029.313.084.095.055.174.134.229.229l1.085 1.878-1.212-.325c-.16-.042-.33-.019-.473.064-.143.083-.247.219-.29.379-.043.16-.02.33.062.473.082.143.218.248.378.291l2.563.688.162.021c.137 0 .271-.046.38-.129.109-.084.187-.201.223-.334l.688-2.563c.021-.079.026-.162.016-.244-.011-.081-.038-.16-.079-.231-.041-.071-.096-.133-.162-.183-.066-.05-.14-.086-.22-.107zM23.125 35c1.854 0 3.667-.55 5.209-1.58 1.542-1.03 2.743-2.494 3.453-4.207.71-1.713.895-3.598.533-5.417s-1.255-3.489-2.566-4.8-2.982-2.204-4.8-2.566c-1.819-.362-3.704-.176-5.417.534-1.713.71-3.177 1.911-4.207 3.453-1.03 1.542-1.58 3.354-1.58 5.209-.002 2.024.656 3.993 1.875 5.608.049.066.111.121.182.163.071.042.149.069.23.081.081.012.164.007.244-.013.079-.02.154-.056.22-.105.066-.049.121-.111.163-.182.042-.071.069-.149.081-.23.012-.081.007-.164-.013-.244-.02-.079-.056-.154-.105-.22-1.056-1.399-1.627-3.105-1.625-4.858 0-1.607.476-3.178 1.369-4.514.893-1.336 2.162-2.378 3.646-2.992 1.485-.615 3.118-.776 4.694-.462s3.024 1.087 4.16 2.224c1.136 1.136 1.91 2.584 2.224 4.16.313 1.576.153 3.21-.462 4.694-.615 1.485-1.656 2.754-2.992 3.646-1.336.893-2.907 1.369-4.514 1.369-1.753.002-3.459-.568-4.858-1.625-.133-.099-.299-.142-.463-.119-.164.023-.312.111-.412.244-.099.133-.142.299-.119.463.023.164.111.312.244.412 1.615 1.219 3.585 1.877 5.608 1.875zM35.738 32.313c-.19-.136-.344-.314-.451-.521-.107-.207-.162-.437-.162-.67v-4.246c0-.166-.066-.325-.183-.442-.117-.117-.276-.183-.442-.183-.166 0-.325.066-.442.183-.117.117-.183.276-.183.442v4.246c0 .432.104.857.302 1.241.198.384.484.715.835.967.225.16.399.381.504.637.105.255.135.535.087.807-.048.272-.171.525-.357.73-.185.205-.425.353-.691.427-7.476 2.094-15.384 2.094-22.86 0-.266-.075-.505-.223-.691-.427-.185-.205-.309-.458-.357-.73-.048-.272-.018-.552.087-.807.104-.255.279-.476.504-.637.351-.251.637-.583.835-.967.197-.384.301-.809.301-1.241v-9.036c-.003-1.986.546-3.933 1.586-5.625 1.04-1.692 2.529-3.061 4.302-3.956.138.357.393.657.724.851 1.261.717 2.687 1.094 4.138 1.094s2.877-.377 4.138-1.094c.32-.188.569-.476.71-.819 1.778.953 3.265 2.369 4.304 4.098 1.039 1.729 1.591 3.707 1.598 5.724v2.018c0 .166.066.325.183.442.117.117.276.183.442.183.166 0 .325-.066.442-.183.117-.117.183-.276.183-.442v-2.018c.012-2.362-.658-4.678-1.931-6.668-1.273-1.99-3.094-3.57-5.243-4.549-.099-.214-.241-.405-.417-.56-.177-.156-.384-.273-.608-.344-.224-.071-.461-.095-.695-.069-.234.026-.46.1-.664.218-.298.166-.612.301-.938.402l.368-2.573c.012-.081.007-.164-.013-.244-.02-.08-.056-.154-.105-.22-.049-.066-.111-.121-.181-.163-.071-.042-.149-.069-.23-.081-.164-.024-.331.019-.464.118-.066.049-.121.111-.163.181-.042.071-.069.149-.081.23l-.426 2.981-.35.004-.486-4.834c-.008-.082-.032-.161-.071-.233-.039-.072-.091-.136-.155-.188-.063-.052-.137-.091-.215-.115-.079-.024-.161-.032-.243-.023-.082.008-.161.032-.233.071-.072.039-.136.092-.188.155-.052.064-.091.137-.114.215-.024.079-.032.161-.023.243l.45 4.5c-.355-.104-.697-.248-1.019-.429l-.239-.098-1.771-5.531c-.111-.347-.109-.721.006-1.067s.337-.647.634-.858c.297-.212.654-.323 1.019-.318.365.005.719.125 1.01.344.515.383 1.14.59 1.781.59.642 0 1.266-.207 1.781-.59.292-.219.646-.339 1.01-.344.365-.005.721.107 1.019.318.297.212.519.512.634.858.115.346.117.72.006 1.067l-1.097 3.433c-.025.078-.035.161-.029.243.007.082.029.162.067.235.038.073.089.138.152.192.063.053.136.094.214.119.078.025.161.034.243.027.082-.007.162-.03.235-.068.073-.038.138-.09.191-.153.053-.063.093-.136.118-.214l1.098-3.431c.192-.6.189-1.245-.01-1.843-.199-.598-.582-1.117-1.096-1.482-.513-.365-1.129-.558-1.759-.55-.63.008-1.241.216-1.745.594-.298.222-.66.341-1.031.341-.371 0-.733-.12-1.031-.341-.504-.378-1.115-.586-1.745-.594-.63-.008-1.246.185-1.759.55-.513.365-.897.884-1.096 1.482-.199.598-.203 1.243-.011 1.843l1.659 5.188-.166.07c-.286.167-.516.415-.663.712-.157-.187-.35-.34-.567-.451-.212-.108-.443-.172-.68-.19-.237-.017-.475.013-.7.09l-.369.106.853-2.987c.026-.08.036-.164.028-.248-.007-.084-.031-.165-.071-.239-.04-.074-.094-.14-.159-.193-.065-.053-.141-.092-.222-.115-.081-.023-.165-.03-.249-.019-.083.01-.164.038-.236.08-.073.042-.136.099-.187.166-.05.067-.087.144-.107.226l-1.011 3.53-.424.004-.474-2.844c-.011-.083-.039-.163-.082-.235-.043-.072-.099-.135-.167-.184-.067-.05-.144-.085-.225-.105-.081-.02-.166-.022-.248-.009-.083.014-.162.044-.232.089-.071.045-.132.103-.179.172-.048.069-.081.146-.098.228-.017.082-.017.166-.001.248l.413 2.475c-.181-.043-.361-.092-.538-.151-.127-.041-.258-.068-.391-.081l-1.198-3.746c-.087-.266-.087-.553 0-.819.087-.266.257-.497.486-.659.228-.162.502-.248.782-.243.28.004.551.098.774.267.445.331.985.51 1.539.51.555 0 1.094-.179 1.539-.51.133-.099.22-.248.244-.412.023-.164-.019-.331-.119-.463-.1-.133-.248-.22-.412-.244-.164-.023-.331.019-.463.119-.228.17-.505.261-.789.261-.284 0-.561-.092-.789-.261-.435-.329-.963-.51-1.508-.518-.545-.008-1.078.158-1.522.475-.444.316-.776.765-.947 1.283-.171.517-.173 1.076-.005 1.595l1.177 3.679-.029.016c-.382.276-.639.692-.716 1.157-1.646.81-3.033 2.064-4.004 3.62-.971 1.556-1.487 3.353-1.491 5.188v4.859c0 .166.066.325.183.442.117.117.276.183.442.183.166 0 .325-.066.442-.183.117-.117.183-.276.183-.442v-4.859c.003-1.543.421-3.057 1.212-4.383.79-1.325 1.923-2.414 3.28-3.15.221.355.559.622.955.755.846.28 1.726.443 2.616.485-.588.712-1.092 1.49-1.5 2.318-1.249.524-2.316 1.404-3.068 2.53-.752 1.126-1.156 2.449-1.161 3.803-.002 1.116.271 2.216.794 3.202.523.986 1.28 1.829 2.206 2.453v2.341c0 .233-.056.462-.162.67-.107.207-.261.386-.45.522-.205.147-.389.32-.546.517-1.625-.208-3.234-.532-4.813-.971-.194-.054-.368-.162-.503-.311s-.225-.333-.26-.531-.013-.402.063-.588c.076-.186.203-.347.367-.464.3-.214.544-.497.713-.825.169-.328.257-.691.257-1.059 0-.166-.066-.325-.183-.442-.117-.117-.276-.183-.442-.183-.166 0-.325.066-.442.183-.117.117-.183.276-.183.442 0 .169-.041.337-.118.487-.078.151-.19.281-.328.38-.357.253-.634.602-.801 1.007-.166.405-.214.848-.139 1.279.076.431.272.831.566 1.155.294.324.674.557 1.096.674 1.514.42 3.053.739 4.609.954-.129.667-.002 1.359.356 1.937.358.578.92.999 1.575 1.181 3.83 1.072 7.789 1.616 11.767 1.616 3.978 0 7.937-.544 11.767-1.617.493-.138.937-.412 1.28-.792.344-.379.573-.848.661-1.352.088-.504.033-1.023-.161-1.496-.194-.474-.518-.883-.934-1.18zm-13.352-20.079l.024.004h.028c1.299.148 2.612-.12 3.75-.766.07-.04.149-.06.229-.06.081 0 .159.022.229.062s.127.098.167.168c.04.07.061.149.062.229 0 .081-.022.161-.063.231s-.099.129-.17.169c-1.072.609-2.284.93-3.517.93s-2.445-.321-3.518-.93c-.07-.04-.129-.099-.17-.169-.041-.07-.062-.15-.063-.231-.001-.081.02-.16.06-.23.04-.07.099-.128.169-.168.097-.059.213-.078.323-.052l.021.003.116.048c.715.406 1.504.665 2.321.761zm-11.125.12l-.006-.036-.006-.047c0-.089.021-.177.061-.256.04-.079.1-.148.172-.199.069-.049.149-.082.233-.096h.018c.084-.012.17-.004.25.022.537.178 1.093.294 1.657.346l.036.007h.01c.472.042.946.04 1.418-.006h.01l.063-.01c.538-.055 1.069-.168 1.582-.337.103-.035.213-.038.318-.008-.721.419-1.396.913-2.015 1.472-1.159.099-2.325-.038-3.429-.403-.097-.033-.183-.093-.248-.172-.065-.079-.107-.175-.121-.277h-.002zm-1.886 10.772c.004-.871.209-1.729.6-2.508.391-.778.957-1.455 1.654-1.978-.334 1.118-.504 2.279-.504 3.446v5.098c-.553-.521-.994-1.15-1.295-1.848-.301-.698-.456-1.45-.455-2.21z" fill="#333"/></svg>