<svg width="247" height="429" xmlns="http://www.w3.org/2000/svg" fill="none"><path d="M78.218 416.294c0-8.042 4.737-17.503 10.896-20.814 1.421-.946 3.316-1.42 4.737-1.42.948 0 3.79 0 7.107 1.893 3.316 1.892 3.79 7.096 3.79 7.096l-12.318 25.072s-3.79 1.892-8.054-.473c-2.368-1.419-4.263-3.785-4.737-4.731-.474-.473-.947-1.892-.947-1.892l-.474-4.731z"/><path d="M105.221 406.36c0 8.042-4.737 17.503-10.896 20.815-6.159 3.311-10.896 0-10.896-8.042s4.737-17.504 10.896-20.815c5.685-3.312 10.896 0 10.896 8.042z" fill="#3F2A28"/><path d="M100.957 409.671c0 4.258-2.842 9.462-6.158 11.354-3.317 1.892-6.159 0-6.159-4.731 0-4.257 2.843-9.461 6.159-11.353 3.316-1.892 6.158.473 6.158 4.73z" fill="#fff"/><path d="M100.01 395.007h-7.106v20.814c0 1.42.474 2.366.947 2.839l2.37 1.419 2.368-2.365-.474-.474c.948-1.419 1.895-3.311 1.895-5.203v-17.03z" fill="#D8C4C3"/><path d="M95.273 395.007v21.76c0 2.839 1.421 3.785 3.316 2.839 1.895-.946 3.316-4.258 3.316-6.623v-17.503h-6.632v-.473z" fill="#EDDCDA"/><path d="M189.548 351.958c0-8.042 4.738-17.503 10.897-20.815 1.421-.946 3.316-1.419 4.737-1.419.948 0 3.79 0 7.106 1.892 3.316 1.893 3.79 7.096 3.79 7.096l-12.317 25.072s-3.79 1.893-8.054-.473c-2.369-1.419-4.264-3.784-4.737-4.73-.474-.473-.948-1.892-.948-1.892l-.474-4.731z"/><path d="M216.552 342.024c0 8.042-4.738 17.503-10.896 20.814-6.159 3.312-10.896 0-10.896-8.042s4.737-17.503 10.896-20.814c6.158-3.785 10.896 0 10.896 8.042z" fill="#3F2A28"/><path d="M212.288 345.335c0 4.258-2.842 9.461-6.159 11.354-3.316 1.892-6.158 0-6.158-4.731 0-4.258 2.842-9.461 6.158-11.354 3.317-1.892 6.159.473 6.159 4.731z" fill="#fff"/><path d="M211.341 330.67h-7.106v20.815c0 1.419.473 2.365.947 2.838l2.369 1.419 2.369-2.365-.474-.473c.947-1.419 1.895-3.311 1.895-5.204v-17.03z" fill="#D8C4C3"/><path d="M206.603 330.67v21.761c0 2.838 1.422 3.785 3.317 2.838 1.895-.946 3.316-4.257 3.316-6.622v-17.504h-6.633v-.473z" fill="#EDDCDA"/><path d="M7.156 375.138c0-8.042 4.737-17.503 10.896-20.815 1.421-.946 3.316-1.419 4.738-1.419.947 0 3.79 0 7.106 1.892 3.316 1.893 3.79 7.096 3.79 7.096l-12.318 25.072s-3.79 1.893-8.053-.473c-2.37-1.419-4.264-3.784-4.738-4.73-.474-.473-.947-1.892-.947-1.892 0-1.42-.474-2.839-.474-4.731z"/><path d="M34.16 365.677c0 8.042-4.738 17.503-10.897 20.814-6.159 3.312-10.896 0-10.896-8.042s4.738-17.503 10.896-20.814c6.159-3.785 10.896 0 10.896 8.042z" fill="#3F2A28"/><path d="M29.895 368.515c0 4.257-2.842 9.461-6.158 11.353-3.316 1.893-6.159 0-6.159-4.73 0-4.258 2.843-9.461 6.159-11.354 3.79-1.419 6.159.473 6.159 4.731z" fill="#fff"/><path d="M28.948 353.85h-7.106v20.815c0 1.419.474 2.365.948 2.838l2.368 1.419 2.369-2.365-.474-.473c.948-1.419 1.895-3.311 1.895-5.204v-17.03z" fill="#D8C4C3"/><path d="M24.21 353.85v21.761c0 2.838 1.422 3.784 3.317 2.838 1.895-.946 3.316-4.257 3.316-6.622v-17.504h-6.632v-.473zM199.971 312.694l-38.374-22.234c-8.053-4.731-20.845-5.204-27.951-.946l-116.067 67.175v-.474h-17.531v15.612c.475 2.838 2.843 6.149 6.633 8.515l51.165 29.329c8.054 4.731 20.845 5.204 27.95.947l128.86-74.271c3.316-1.892 4.737-4.731 4.737-7.569v-15.138l-19.423-.946z" fill="#EDDCDA"/><path d="M214.657 320.736l-128.86 74.271c-7.105 4.257-19.897 3.784-27.95-.947l-51.165-29.329c-8.053-4.731-9-11.827-1.895-16.085l128.859-74.27c7.106-4.258 19.897-3.785 27.951.946l51.165 29.33c8.053 4.73 9.001 12.299 1.895 16.084z" fill="#F4EBEA"/><path d="M244.976 108.804l-72.957-42.102c-.947-.473-1.895-.473-2.842 0l75.325 43.521.474-1.419zm-79.116-37.372l76.273 43.995 1.422-3.311-76.273-43.995c-.474 1.42-.948 2.365-1.422 3.311zm.948 5.677l73.905 42.576.947-1.893-75.799-43.521c0 1.419.474 2.365.947 2.838z" fill="#E3EDFF"/><path d="M165.387 74.27l75.799 43.995.948-2.365-76.273-43.995c0 .474-.474 1.42-.474 2.366zm4.264-7.569c-.948.473-1.422.946-1.895 1.893l76.273 43.994.947-2.365-75.325-43.522z" fill="#92B1FF"/><path d="M238.818 116.373c0 2.839 1.895 4.258 3.79 2.839 2.368-1.42 3.79-4.731 3.79-7.569 0-2.839-1.895-4.258-3.79-2.839s-3.79 4.731-3.79 7.569z" fill="#778DFD"/><path d="M206.129 118.265c9.001-5.203 19.424-11.353 19.424-11.353h1.421l-20.845 11.826v-.473zm0 1.893l21.793-12.3c.473.473.473.946.473 1.419l-22.266 12.773v-1.892zm0 3.311l22.74-12.773c0 .473 0 .946-.474 1.42l-21.792 12.772v-1.419h-.474zM206.129 122.05l22.266-12.773v.946l-22.739 12.773v-.946h.473zm.001-3.312l20.844-11.826c.474 0 .474.473.948.946l-21.792 12.3v-1.42zm-47.849-29.329c9.001-5.204 19.423-11.354 19.423-11.354h1.421l-20.844 11.827v-.473zm0 1.892l21.792-12.3c.474.473.474.947.474 1.42l-22.266 12.772v-1.892zm0 3.311l22.74-12.772c0 .473 0 .946-.474 1.419l-21.793 12.771v-1.419h-.473zM158.281 93.193l22.266-12.772v.946l-22.74 12.772v-.946h.474zm0-3.311l20.845-11.827c.474 0 .473.473.947.946l-21.792 12.3v-1.42z" fill="#352221"/><path d="M72.603 198.63l4.553-1.309 16.255 56.372-4.553 1.309-16.255-56.372z" fill="#593D3D"/><path d="M61.637 181.183c.473-2.366 3.79-2.366 5.684.473-.947-2.839-1.894-6.623 1.422-7.569 1.895-.473 3.316.946 4.737 1.892.474-.946.948-1.419 1.895-1.892.948 0 1.895.946 2.369 1.892.474-1.892 1.895-3.785 3.316-4.258 2.369-.473 3.316.946 3.79 2.839.474-.473 1.421-.946 2.843-.946 1.42 0 3.316.473 4.263 1.892 1.895 2.838-1.42 5.677-3.316 7.569.948 1.419 1.421 3.311.474 5.203 1.895 0 3.316 1.42 3.316 3.312 0 2.838-2.369 4.731-4.737 5.204 1.895.946 3.316 1.892 1.895 3.784-1.422 1.892-4.264 1.419-6.159.946.474 2.366.474 4.731-2.369 4.731-1.895 0-4.264-1.892-5.685-3.785-.947 1.893-2.842 2.839-4.737 2.366-1.421-.473-2.369-1.42-2.369-2.366-2.842 1.42-6.159 2.366-8.527-.473a4.29 4.29 0 10-4.73c-.948 0-2.37-.946-2.843-2.366-.474-.946 0-1.892.474-2.838-1.895-.946-2.843-2.838-2.843-5.204 0-.946.474-2.365.948-3.311 0-.946 2.369-2.839 6.159-2.365z" fill="#3ED9B0"/><path d="M33.212 114.954c.948-.946 2.369-.946 3.316-.473-.473-1.419-.473-2.838.948-4.258.947-.946 2.369-.946 4.264 0-.948-2.838 2.368-6.15 5.685-3.784 1.42-2.366 5.685-2.839 6.632-.946 1.895-7.096 7.58-3.312 7.58 0 1.895-.473 4.737 0 6.159 1.892.947 1.419.947 2.838.473 4.258.948 0 1.422.473 2.37.946 1.894 1.419 1.894 2.838.947 4.73 1.42 0 2.842.946 3.316 2.366.947 1.892 0 3.784-.948 5.203l1.422 1.419c.947 1.42.473 2.839 0 4.258.947 0 2.368.473 3.316.946 1.895 1.892 1.421 4.731.474 6.623 1.42 0 2.842.946 3.316 2.365.947 1.893 0 3.785-.948 5.677-1.421.946-2.842 1.892-3.316 3.311-.947-.946-1.895-1.892-3.316-1.419-1.895 0-2.843 1.419-3.79 2.839-.474-.473-1.421-.946-2.369-.946-.947 0-1.421.946-1.895 1.892-1.895-1.419-3.79-1.419-6.158 0-.948.946-1.422 1.892-1.422 3.311-.947-1.892-5.211-2.365-6.159 1.419-4.263-1.892-6.158 0-8.527 3.312h-.474c-.947-.473-1.895-1.419-2.842-2.365-.948-1.42-.474-3.312 0-4.258-.948-.473-1.895-1.419-2.369-2.365-.474-.946-.474-2.366 0-3.312-1.895 0-3.316-.473-2.842-2.838 0-1.419.474-2.839 1.421-4.258-2.843 0-5.211-.946-5.211-3.784 0-1.892 1.421-3.312 2.842-4.258-1.895-.946-3.79-3.311-3.79-5.677 0-1.419.474-2.838 1.895-3.784l-.947-1.892c-.948-2.839-.474-4.731.947-6.15z" fill="#4C73EB"/><path d="M52.636 156.11c.947-3.311 5.211-2.838 6.158-1.419 0-1.419.474-2.365 1.422-3.311 1.895-1.419 4.263-1.419 6.158 0 .474-.946.948-1.419 1.895-1.892.948 0 1.895-.001 2.37.946.947-1.42 1.894-2.366 3.789-2.839 1.421 0 2.843.473 3.316 1.419l3.316-3.311c1.422 0 2.843.946 3.317 2.365.947 1.893.473 3.785-.948 5.204.948.946 1.895 1.892 1.895 3.784 0 .947-.947 2.366-1.421 2.839 1.421 0 2.842.473 3.79 1.892.947 1.892-.474 4.258-1.895 6.15 1.421 0 2.369 0 2.842 1.419.474 1.419 0 2.838-.473 3.785h.473c-.947 0-1.895.473-2.842.946-.474-1.893-1.421-3.312-3.79-2.839-1.421.473-2.843 2.366-3.316 4.258-.474-.946-.948-1.892-2.369-1.892-.947 0-1.421.946-1.895 1.892-1.421-1.419-3.316-2.365-4.737-1.892-3.317.473-2.37 4.73-1.422 7.569-1.895-2.839-5.685-2.839-5.685-.473-3.79-.947-5.685 1.419-6.632 2.365l-1.895-.473c-1.421-.946-2.369-3.312-1.421-5.204-3.317-.946-5.211-4.73-3.317-7.569-2.368-.946-4.263-2.838-4.737-5.677-.474-1.419 0-3.311.948-4.257.947-3.785 2.842-5.677 7.106-3.785z" fill="#FDA12D"/><path d="M188.601 271.537l-2.843 2.366c-1.421-10.881-5.211-22.707-11.843-34.061l-7.106-12.299c.947-.946 2.368-1.42 3.316-1.42l7.106 11.827c6.159 10.88 9.949 22.234 11.37 33.587z" fill="#3F2A28"/><path d="M185.759 248.83l-3.317 51.091-1.421 18.923c-7.106 7.095-21.318 12.299-37.426 12.299-16.581 0-30.793-5.204-37.426-12.299l-1.421-18.923-3.316-51.091h84.327z" fill="#FFAF49"/><path d="M143.595 226.596c23.214 0 42.164 9.935 42.164 22.234 0 12.3-18.95 22.234-42.164 22.234-23.213 0-42.163-9.934-42.163-22.234.474-12.299 18.95-22.234 42.163-22.234z" fill="#FFBD69"/><path d="M143.595 244.1c-16.581 0-30.793 5.204-36.478 12.299-1.895-2.365-2.843-5.203-2.843-7.569 0-11.353 18.003-20.341 39.795-20.341s39.795 8.988 39.795 20.341c0 2.839-.948 5.204-2.843 7.569-6.632-7.095-20.845-12.299-37.426-12.299zM143.595 269.172c-16.581 0-30.793-5.204-36.478-12.299 6.158-7.096 20.371-12.3 36.478-12.3 16.581 0 30.794 5.204 36.478 12.3-5.684 7.095-19.897 12.299-36.478 12.299z" fill="#EFA500"/><path d="M143.595 298.029c20.845 0 37.426 8.988 37.426 19.868 0 10.881-16.581 19.869-37.426 19.869-20.845 0-37.426-8.988-37.426-19.869 0-10.88 17.055-19.868 37.426-19.868z" fill="#FFAF49"/><path d="M120.381 260.184a3.788 3.788 0 1-3.79-3.785 3.787h3.786a13.79 3.784 3.787 3.787 0 1-3.79 3.785z" fill="#3F2A28"/><path d="M111.38 250.25l1.422-.947h.473c.948-.473 1.895-.473 3.317.473 2.842 1.42 5.211 5.677 5.211 9.462v7.096l-1.895.946c-.948-.946-8.528-3.785-8.528-7.569v-6.623c0-.946 0-1.419.474-1.892l-.474-.946zm4.738 10.407c.474.473.947.473 1.421.473v-1.419c0-2.366-1.421-5.204-3.316-6.623-.474-.473-.948-.473-1.421-.473v1.419c0 2.365 1.421 5.204 3.316 6.623z" fill="#FFBD69"/><path d="M114.696 250.723c2.843 1.419 5.212 5.676 5.212 9.461v7.096l-9.949-4.258v-8.515c-.474-3.784 1.895-5.677 4.737-3.784zm1.422 9.934c.473.473.947.473 1.421.473v-1.419c0-2.366-1.421-5.204-3.316-6.623-.474-.473-.948-.473-1.422-.473v1.419c0 2.365 1.422 5.204 3.317 6.623z" fill="#FFAF49"/><path d="M113.275 252.615v1.419c0 2.365 1.422 5.204 3.317 6.623.473.473.947.473 1.421.473-.474 1.419-1.895 1.892-3.316 1.419-1.895-.946-3.317-3.784-3.317-6.623-.473-2.365.474-3.311 1.895-3.311zm52.586-33.587l1.421-.947h.474c.948-.473 1.895-.473 3.316.473 2.843 1.42 5.211 5.677 5.211 9.462v7.096l-1.895.946c-.947-.946-8.527-3.785-8.527-7.569v-6.623c0-.946 0-1.419.474-1.892l-.474-.946zm4.738 9.934c.473.473.947.473 1.421.473v-1.419c0-2.366-1.421-5.204-3.316-6.623-.474-.473-.948-.473-1.422-.473v1.419c0 2.838 1.422 5.677 3.317 6.623z" fill="#FFBD69"/><path d="M169.177 219.028c2.843 1.419 5.211 5.676 5.211 9.461v7.096l-9.948-4.258v-8.515c-.474-3.311 1.895-5.204 4.737-3.784zm1.421 9.934c.474.473.948.473 1.422.473v-1.419c0-2.366-1.422-5.204-3.317-6.623-.473-.473-.947-.473-1.421-.473v1.419c0 2.838 1.421 5.677 3.316 6.623z" fill="#FFAF49"/><path d="M167.282 221.393v1.419c0 2.365 1.421 5.204 3.316 6.623.474.473.948.473 1.422.473-.474 1.419-1.895 1.892-3.317 1.419-1.895-.946-3.316-3.784-3.316-6.623 0-2.365.948-3.311 1.895-3.311z" fill="#FFBD69"/><path d="M129.383 279.106c9.474 16.558 22.739 27.911 34.583 30.276 5.685.947 9.949-.473 13.739-3.311 8.053-6.623 9.948-21.288 6.632-37.845.474-4.731.474-7.096.948-11.353 7.106 21.76 5.684 42.575-5.212 51.563-3.79 3.312-8.053 4.731-12.791 4.731-1.421 0-2.842 0-4.263-.473-12.792-2.365-27.004-14.192-37.426-31.695l-11.844-20.342c-.948-2.365-.474-3.785 2.369-5.204.947 1.419 1.421 3.785 1.421 3.785l11.844 19.868zm38.373-46.833a3.787 3.787 0 1-3.79-3.784 3.788h3.788a13.79 3.785 3.787 3.787 0 1-3.79 3.784z" fill="#3F2A28"/><path d="M91.483 46.36h5.211l-1.421 233.692h-5.211l1.42-233.692zm63.008 73.325v223.758c0 .946-1.421 1.419-2.843 1.419-1.421 0-2.842-.473-2.842-1.419v-223.758h5.685zm-31.741 0v223.758c0 .946-1.421 1.419-2.842 1.419-1.422 0-2.843-.473-2.843-1.419v-223.758h5.685z" fill="#352221"/><path d="M219.394 229.435v8.515c0 .473-4.263 2.838-4.263 2.838s2.368-5.676-1.895-8.515c-4.264-2.838-45.954-27.437-52.112-30.276-6.159-3.311-16.582-6.622-26.056-1.892-9.949 4.731-61.114 35.48-61.114 35.48l-2.368-6.15s59.692-35.007 65.85-37.845c6.159-2.365 13.739-.946 19.898 1.419 6.158 2.366 62.06 36.426 62.06 36.426zM133.173 197.74c7.106-4.258 19.897-3.785 27.951.946l51.164 29.33c8.054 4.731 9.001 11.826 1.895 16.084l-75.325 43.049-79.116-47.307 73.431-42.102zm73.43 42.576c6.159-3.312 5.211-6.15-1.895-10.408l-45.953-26.491c-7.106-3.785-17.529-4.258-23.214-.946l-62.534 36.425 66.324 39.737 67.272-38.317z" fill="#778DFD"/><path d="M133.173 189.698c7.106-4.258 19.897-3.785 27.951.946l51.164 29.33c8.054 4.73 9.001 11.826 1.895 16.084l-75.325 43.049-79.116-47.307 73.431-42.102zm73.43 42.575c6.159-3.311 5.211-6.149-1.895-10.407l-45.953-26.491c-7.106-3.785-17.529-4.258-23.214-.947l-62.534 36.426 66.324 39.737 67.272-38.318zM139.331 363.311l6.159-3.784v-187.806l-6.159 3.785v187.805z" fill="#729CF0"/><path d="M139.331 363.311l-6.633-3.784v-187.806l6.633 3.785v187.805zm-72.957-42.575l6.633-3.785v-188.751l-6.633 3.784v188.752z" fill="#4C73EB"/><path d="M66.374 320.736l-6.158-3.785v-188.751l6.158 3.784v188.752z" fill="#729CF0"/><path d="M21.368 314.113c.948.946 2.369 1.892 3.317 2.365 1.42-12.299 5.684-25.545 12.79-37.845l8.054-13.718c-.947-.947-2.368-1.42-3.79-1.42l-7.58 13.246c-6.632 12.3-11.37 25.072-12.79 37.372z" fill="#3F2A28"/><path d="M24.685 355.743c0 4.257 1.895 8.042 5.211 11.353l-1.421-20.815c-2.843 2.839-3.79 6.15-3.79 9.462zm89.538-9.462l-1.422 20.815c3.316-3.311 5.211-7.096 5.211-11.353 0-3.312-1.421-6.623-3.789-9.462z" fill="#D3BCBA"/><path d="M24.685 289.041l3.79 57.24 1.42 20.815c7.58 8.042 23.688 13.719 41.69 13.719 18.477 0 34.11-5.677 41.69-13.719l1.421-20.815 3.79-57.24h-93.801z" fill="#3ED9B0"/><path d="M71.112 264.442c-26.056 0-46.901 11.353-46.901 25.072s20.845 25.072 46.9 25.072c26.057 0 46.901-11.353 46.901-25.072 0-14.192-20.844-25.072-46.9-25.072z" fill="#6BF2CE"/><path d="M71.112 283.837c18.476 0 34.11 5.677 40.742 13.719 2.369-2.838 3.316-5.677 3.316-8.515 0-12.3-19.897-22.707-44.058-22.707-24.635 0-44.058 9.934-44.058 22.707 0 2.838 1.42 6.15 3.316 8.515 6.632-8.042 22.74-13.719 40.742-13.719z" fill="#39BF9C"/><path d="M71.112 311.748c18.476 0 34.11-5.677 40.742-13.719-6.632-8.042-22.266-13.719-40.742-13.719s-34.11 5.677-40.742 13.719c6.632 8.042 22.74 13.719 40.742 13.719z" fill="#BBCDFF"/><path d="M91.956 276.741c0 .946-.947 1.892-1.895 1.892-.947 0-1.895-.946-1.895-1.892s.948-1.892 1.895-1.892c.948.473 1.895.946 1.895 1.892zm-6.158 25.072c0 .947-.948 1.893-1.895 1.893-.948 0-1.895-.946-1.895-1.893 0-.946.947-1.892 1.895-1.892.947 0 1.895.946 1.895 1.892zm-21.792-15.61c-.474-.947-1.895-2.839-3.317-3.312.474-2.365-.473-4.731-2.842-6.15-2.843-1.419-7.58.473-8.054 3.312-.947-.946-2.368-.946-3.79-.473-1.895.946-2.368 2.838-1.895 4.257-2.368-.473-5.21.473-6.632 2.839-.948 1.419 0 4.257 1.421 5.203-.947 1.419-.474 4.258 1.421 5.204 1.895.946 3.79.946 5.685 0 1.422.946 2.843 1.892 4.738 1.419 1.895-.473 3.316-1.419 4.263-2.838 2.843.946 6.16-.473 8.528-2.839 1.895-1.419 1.895-3.784.474-6.622zm45.005 1.419c-.947-.474-1.895-.474-3.316-.474 0-1.892-.947-3.784-3.316-4.73-1.421-.473-2.843-.473-3.79.473-.474-1.419-1.895-2.365-3.79-2.365-1.421 0-1.895.946-2.369 2.365-1.421-1.419-4.264-1.892-5.685-1.892-1.895.473-3.316 1.419-4.264 3.311-1.894-1.419-5.21-1.419-6.158.473-1.895 2.839 1.421 4.258 3.79 5.204-.474.473-.948.946-.948 1.419-.474 1.892.948 3.784 2.843 4.258 1.895.946 4.263.473 6.158-.474 0 2.366 1.422 3.785 4.738 3.785.947 0 2.369-.473 3.316-1.419.948 2.365 2.843 4.257 6.159 4.257 1.421 0 3.79-.473 4.737-1.892.474-.946.948-1.892.948-2.838l1.895-.473c1.421-.946 2.368-2.839 2.368-4.731-.473-1.892-1.895-3.784-3.316-4.257zm-40.268-10.881c0 1.419-.948 2.366-2.369 2.366-1.421 0-2.368-.947-2.368-2.366s.947-2.365 2.368-2.365c.948 0 2.369.946 2.369 2.365zm-31.268 5.204c0 1.419-.947 2.365-2.368 2.365-1.422 0-2.37-.946-2.37-2.365 0-1.419.948-2.365 2.37-2.365 1.42 0 2.368 1.419 2.368 2.365zm36.005 21.761a4.26 4.26 0 1-4.264-4.258 4.26h4.26a14.264 4.257 4.26 4.26 0 1-4.264 4.258zm-6.158-.473c0 1.419-1.422 2.838-2.843 2.838s-2.842-1.419-2.842-2.838 1.421-2.839 2.842-2.839c1.421-.473 2.843.947 2.843 2.839zm11.37-25.073a2.367 2.367 0 1-2.37-2.365 2.367h2.367a12.368 2.365 2.367 2.367 0 1-2.368 2.365zm-37.9-.473c0 .946-.948 1.892-1.895 1.892-.947 0-1.895-.946-1.895-1.892s.947-1.892 1.895-1.892c.947 0 1.895.946 1.895 1.892zm34.583-4.257a1.894 1.894 0 111.895-1.893 1.894 1.894l-1.895 1.893zm-22.739 30.276c0 .946-.948 1.892-1.896 1.892-.947 0-1.894-.946-1.894-1.892 0-.947.947-1.893 1.895-1.893.947 0 1.895.946 1.895 1.893z" fill="#fff"/><path d="M97.641 301.34a4.26 4.26 0 1-4.263-4.257 4.26h4.26a14.264 4.258 4.26 4.26 0 1-4.264 4.257z" fill="#3F2A28"/><path d="M107.59 290.933l-1.421-.946h-.474c-.948-.473-2.369-.473-3.79.473-2.843 1.892-5.685 6.623-5.685 10.88v8.042l1.895.947c1.421-.947 9.475-4.258 9.475-8.516v-7.096c0-.946 0-1.419-.474-1.892l.474-1.892zm-5.685 11.353c-.474.474-.948.473-1.421.473l-.474-1.419c0-2.838 1.895-6.149 3.79-7.096.474-.473.947-.473 1.421-.473l.474 1.42c0 2.365-1.895 5.676-3.79 7.095z" fill="#39BF9C"/><path d="M103.8 290.932c-2.842 1.893-5.685 6.623-5.685 10.881v8.042l11.37-4.731v-9.461c0-4.731-2.842-6.623-5.685-4.731zm-1.895 11.354c-.474.473-.947.473-1.421.473l-.474-1.419c0-2.839 1.895-6.15 3.79-7.096.474-.473.947-.473 1.421-.473l.474 1.419c0 2.365-1.895 5.677-3.79 7.096z" fill="#3ED9B0"/><path d="M105.695 293.298l.474 1.419c0 2.839-1.895 6.15-3.79 7.096-.474.473-.948.473-1.422.473.474 1.893 1.895 2.366 3.317 1.42 1.894-1.42 3.789-4.258 3.789-7.096 0-1.893-.947-3.312-2.368-3.312z" fill="#39BF9C"/><path d="M46.95 255.926l-1.42-.946h-.474c-.948-.473-2.369-.473-3.79.473-2.843 1.892-5.685 6.623-5.685 10.881v8.042l1.895.946c1.421-.946 9.475-4.258 9.475-8.515v-7.096c0-.946 0-1.419-.474-1.892l.474-1.893zm-5.684 11.354c-.474.473-.948.473-1.421.473l-.474-1.419c0-2.839 1.895-6.15 3.79-7.096.474-.473.947-.473 1.421-.473l.474 1.419c0 2.365-1.421 5.677-3.79 7.096z" fill="#3ED9B0"/><path d="M43.16 255.926c-2.842 1.892-5.684 6.623-5.684 10.88v8.042l11.37-4.73v-9.462c0-4.73-2.369-6.623-5.685-4.73zm-1.894 11.353c-.474.473-.948.473-1.421.473l-.474-1.419c0-2.838 1.895-6.15 3.79-7.096.474-.473.947-.473 1.421-.473l.474 1.419c0 2.366-1.421 5.677-3.79 7.096z" fill="#39BF9C"/><path d="M45.056 258.292l.474 1.419c0 2.838-1.895 6.15-3.79 7.096-.474.473-.948.473-1.422.473.474 1.892 1.895 2.365 3.317 1.419 1.894-1.419 3.79-4.258 3.79-7.096 0-1.892-.948-3.311-2.37-3.311z" fill="#3ED9B0"/><path d="M87.693 322.628c-10.423 18.449-25.583 31.222-38.847 33.587-6.159.947-11.37-.473-15.634-3.784-8.527-7.569-10.896-24.126-7.58-42.103-.474-5.203-.474-8.042-.947-12.772-8.054 24.126-6.159 47.306 5.685 57.713 3.79 3.312 9 5.204 14.212 5.204 1.421 0 2.843 0 4.737-.473 14.213-2.365 30.32-16.084 41.69-35.48l13.265-22.707c1.421-2.365.474-4.257-2.369-5.676-.947 1.419-1.421 4.257-1.421 4.257l-12.791 22.234zm-38.373-56.294a4.243 4.243 0 1-4.264 4.257 4.243l4.243 4.243v14.264a4.258z" fill="#3F2A28"/><path d="M62.584 233.693l72.483 43.048v9.461l-72.956-43.521.473-8.988z" fill="#4C73EB"/><path d="M219.394 125.361v8.516c0 .473-4.263 2.838-4.263 2.838s2.368-5.677-1.895-8.515c-4.264-2.839-45.954-27.438-52.112-30.276-6.159-3.312-16.582-6.623-26.056-1.892-9.949 4.73-61.114 35.479-61.114 35.479l-2.368-6.15s59.692-35.006 65.85-37.845c6.159-2.365 13.739-.946 19.898 1.42 6.158 2.365 62.06 36.425 62.06 36.425zM133.173 94.14c7.106-4.258 19.897-3.785 27.951.945l51.164 29.33c8.054 4.731 9.001 11.827 1.895 16.084l-75.325 43.049-79.116-47.306 73.431-42.103zm73.43 42.575c6.159-3.312 5.211-6.15-1.895-10.407l-45.953-26.492c-7.106-3.784-17.529-4.257-23.214-.946l-62.534 36.426 66.324 39.737 67.272-38.318z" fill="#778DFD"/><path d="M133.173 86.097c7.106-4.257 19.897-3.784 27.951.946l51.164 29.33c8.054 4.731 9.001 11.827 1.895 16.084l-75.325 43.049-79.116-47.306 73.431-42.103zm73.43 42.576c6.159-3.312 5.211-6.15-1.895-10.408l-45.953-26.491c-7.106-3.784-17.529-4.258-23.214-.946l-62.534 36.426 66.324 39.737 67.272-38.318z" fill="#729CF0"/><path d="M139.331 183.548l-79.115-47.306v-8.042l79.115 47.306v8.042z" fill="#4C73EB"/><path d="M66.374 235.585l9.475 5.677 7.106-4.258-9.475-5.677-7.106 4.258z" fill="#729CF0"/><path d="M149.28 182.602h5.211v27.437h-5.211v-27.437zm-31.741 4.257h5.211v27.438h-5.211v-27.438zm31.741-112.115h5.211v50.617h-5.211v-50.617z" fill="#352221"/><path d="M157.807 81.367v3.311c0 1.892-2.842 3.312-6.158 3.312-3.317 0-6.159-1.42-6.159-3.312v-3.311h12.317z" fill="#493130"/><path d="M151.649 78.055c3.316 0 6.158 1.42 6.158 3.312s-2.842 3.311-6.158 3.311c-3.317 0-6.159-1.42-6.159-3.311 0-1.893 2.842-3.312 6.159-3.312z" fill="#472F2E"/><path d="M119.908 61.498l53.533 31.222 18.002-10.407-54.007-31.222-17.528 10.407z" fill="#C6AFAF"/><path d="M173.441 92.72v6.623l-53.534-31.222v-6.623l53.534 31.222z" fill="#9E8282"/><path d="M191.443 82.313v6.623l-18.002 10.407v-6.623l18.002-10.407z" fill="#B29A9A"/><path d="M120.382 45.887c1.421 1.892 2.368 6.15 2.368 6.15s.948-1.42 1.421-2.366c.948-1.419 2.843-1.892 2.843-1.892s-.474 2.365-.474 3.785c.474 2.365 2.369 4.73 2.369 4.73s.474-1.419 1.421-2.838c.948-1.42 2.843-2.365 2.843-2.365l1.895 3.784c.473 1.42 1.895 4.258 1.895 4.258s1.421-1.893 2.368-2.839c.948-.946 3.317-1.892 3.317-1.892s0 .946.473 2.838c.474 1.893 2.369 4.731 2.369 4.731s1.421-1.892 1.895-2.365c.474-.473 1.895-2.366 1.895-2.366s1.421 1.42 1.895 3.312a11.776 11.776 0 1.421 3.311s.948-.946 2.843-2.365c1.421-.946 3.316-.946 3.316-.946s-.474 1.419-.948 3.311c0 1.892.948 4.258.948 4.258s2.369-.946 2.369-2.365c.473-1.42.473-3.785.473-3.785s2.369 2.365 3.317 4.258c.947 1.892 2.368 5.203 2.368 5.203s.948-1.419.948-2.838c.474-1.42 1.895-3.785 1.895-3.785s1.421 1.42 2.842 3.785l2.843 3.784s.947-2.365.947-4.73v-3.785s1.421.473 2.843 1.42c1.421.946 2.368 2.365 2.368 2.365s.474-1.892 2.369-3.785c1.421-1.892 5.211-4.257 5.211-4.257s-1.421 3.311-.947 8.515c.474 5.204-.474 11.353-1.421 11.826-.474.473-4.738 3.312-8.054 5.204-2.369 1.42-5.211 3.312-7.106 2.365-2.369-.946-7.58-4.73-16.108-9.46-4.737-2.84-10.422-6.15-14.686-8.516-7.106-3.785-13.265-6.623-17.528-9.461-2.843-1.892-2.843-2.839-3.316-4.73-.948-4.731-3.317-14.666-3.317-14.666s1.895 3.312 3.317 5.204z" fill="#FDA12D"/><path d="M125.119 37.845s3.316 1.42 3.79 3.311c.947-4.73 3.79-5.676 3.79-5.676s3.316 1.892 4.737 4.73c1.421-1.892 6.633-3.311 6.633-3.311s2.368 3.784 3.316 7.096c1.895-1.892 6.159-2.366 6.159-2.366s1.895 3.312 1.895 6.15c1.421-1.419 4.263-1.419 7.106-.473 1.895 2.366 2.842 8.042 2.842 8.042s3.79-1.419 6.633-1.892c1.421 2.365 2.842 7.569 2.842 7.569s2.843-4.258 6.159-4.258c0 3.312 1.421 4.258 1.895 7.57l7.58-2.366s-3.79 2.365-5.211 4.258a27.883 27.883 0 0-2.369 3.784l-2.369-2.365c-1.421-.946-2.842-1.42-2.842-1.42v3.785c0 2.365-.948 4.73-.948 4.73l-2.842-3.784c-1.422-2.365-2.843-3.784-2.843-3.784s-1.421 2.365-1.895 3.784l-.947 2.839s-1.422-3.312-2.369-5.204c-.948-1.892-3.316-4.258-3.316-4.258s0 2.366-.474 3.785c-.474 1.42-2.369 2.365-2.369 2.365s-.947-2.365-.947-4.257c0-1.893.947-3.312.947-3.312s-1.895-.473-3.316.946c-1.421.947-2.842 2.366-2.842 2.366s-.948-1.893-1.422-3.312c-.473-1.892-1.895-3.311-1.895-3.311s-1.421 1.892-1.895 2.365c-.473.473-1.895 2.365-1.895 2.365l-2.368-4.73c-.474-1.892-.474-2.839-.474-2.839s-2.369.473-3.316 1.893c-.948.946-2.369 2.838-2.369 2.838s-1.421-3.311-1.895-4.258c-.474-1.419-1.895-3.784-1.895-3.784s-2.369 1.42-2.842 2.365c-.948 1.42-1.422 2.839-1.422 2.839s-2.368-1.893-2.368-4.731c0-1.42.473-3.785.473-3.785s-1.895.474-2.842 1.893c-.948.946-1.421 2.365-1.421 2.365s-.948-3.784-2.369-6.15c-1.421-1.892-3.316-3.311-3.316-3.311s3.316.473 4.263 1.892c-.473-4.73 2.843-8.988 2.843-8.988z" fill="#FFAF49"/><path d="M86.272 45.414v3.311c0 1.892 2.842 3.312 6.158 3.312 3.317 0 6.16-1.42 6.16-3.312v-3.311h-12.319z" fill="#493130"/><path d="M92.904 42.576c-3.316 0-6.159 1.419-6.159 3.311s2.843 3.311 6.16 3.311c3.315 0 6.158-1.419 6.158-3.311s-2.843-3.311-6.159-3.311z" fill="#472F2E"/><path d="M124.645 25.545l-54.007 31.222-18.002-10.407 54.007-30.749 18.002 9.934z" fill="#C6AFAF"/><path d="M70.638 56.767v7.096l54.007-31.222v-7.096l-54.007 31.222z" fill="#9E8282"/><path d="M52.636 46.36v7.096l18.002 10.407v-7.096l-18.002-10.407z" fill="#B29A9A"/><path d="M124.171 10.407c-1.421 1.893-2.368 6.15-2.368 6.15s-.948-1.42-1.422-2.365c-.947-1.42-2.842-1.893-2.842-1.893s.474 2.366.474 3.785c-.474 2.365-2.369 4.73-2.369 4.73s-.474-1.419-1.421-2.838c-.948-1.419-2.843-2.365-2.843-2.365l-1.895 3.784c-.474 1.42-1.895 4.258-1.895 4.258s-1.421-1.892-2.369-2.838c-.947-.947-3.316-1.893-3.316-1.893s0 .947-.473 2.839c-.474 1.892-2.37 4.73-2.37 4.73s-1.42-1.892-1.894-2.365c-.474-.473-1.895-2.365-1.895-2.365s-1.421 1.419-1.895 3.311c-.474 1.893-1.421 3.312-1.421 3.312s-.948-.947-2.843-2.366c-1.421-.946-3.316-.946-3.316-.946s.474 1.42.947 3.312c0 1.892-.947 4.257-.947 4.257s-2.369-.946-2.369-2.365c-.474-1.42-.474-3.785-.474-3.785s-2.368 2.366-3.316 4.258c-.947 1.892-2.368 5.204-2.368 5.204s-.948-1.42-.948-2.839c-.474-1.419-1.895-3.784-1.895-3.784s-1.421 1.419-2.843 3.784c-1.42 2.366-2.842 3.785-2.842 3.785s-.947-2.366-.947-4.73v-3.785s-1.422.473-2.843 1.419c-1.421.946-2.369 2.365-2.369 2.365s-.473-1.892-2.368-3.784c-1.422-1.893-5.212-4.258-5.212-4.258s1.422 3.311.948 8.515c-.474 5.204.474 11.354 1.421 11.827.474.473 4.738 3.311 8.054 5.203 2.369 1.42 5.211 3.312 7.106 2.366 2.369-.946 7.58-4.73 16.107-9.462 4.738-2.838 10.423-6.15 14.686-8.515 7.107-3.784 13.265-6.623 17.529-9.46 2.843-1.893 2.843-2.84 3.316-4.732.948-4.73 3.317-14.664 3.317-14.664s-1.895 2.838-3.317 5.203z" fill="#3ED9B0"/><path d="M119.434 2.365s-3.317 1.42-3.79 3.312c-.948-4.73-3.79-5.677-3.79-5.677s-3.316 1.892-4.738 4.73c-1.421-1.892-6.632-3.31-6.632-3.31s-2.369 3.784-3.316 7.095c-1.895-1.892-6.16-2.365-6.16-2.365s-1.894 3.311-1.894 6.15c-1.421-1.42-4.264-1.42-7.106-.474-1.895 2.366-2.843 8.043-2.843 8.043s-3.79-1.42-6.632-1.893c-1.421 2.366-2.843 7.57-2.843 7.57s-2.842-4.258-6.158-4.258c0 3.311-1.422 4.257-1.895 7.569l-7.58-2.366s3.79 2.366 5.21 4.258c1.422 1.892 2.37 3.784 2.37 3.784l2.368-2.365a13.411 13.411 0 12.843-1.419v3.784c0 2.366.947 4.731.947 4.731l2.843-3.784c1.421-2.366 2.842-3.785 2.842-3.785s1.422 2.365 1.895 3.785l.948 2.838s1.421-3.311 2.369-5.204c.947-1.892 3.316-4.257 3.316-4.257s0 2.365.474 3.784c.473 1.42 2.368 2.366 2.368 2.366s.948-2.366.948-4.258l-.948-3.311s1.895-.473 3.316.946c1.422.946 2.843 2.365 2.843 2.365s.947-1.892 1.421-3.311c.474-1.42 1.895-3.312 1.895-3.312s1.421 1.892 1.895 2.365c.474.474 1.895 2.366 1.895 2.366l2.369-4.73c.474-1.893.474-2.84.474-2.84s2.368.474 3.316 1.893c.947.946 2.368 2.838 2.368 2.838s1.422-3.311 1.896-4.257c.473-1.42 1.894-3.785 1.894-3.785s2.369 1.42 2.843 2.366a13.393 13.393 0 11.421 2.838s2.369-1.892 2.369-4.73c0-1.42-.474-3.785-.474-3.785s1.895.473 2.843 1.892c.947.946 1.421 2.366 1.421 2.366s.947-3.785 2.369-6.15c1.421-1.893 3.316-3.312 3.316-3.312s-3.316.473-4.264 1.893c0-4.731-2.842-8.989-2.842-8.989z" fill="#6BF2CE"/><path d="M91.009 132.93h5.211l.474-37.845h-5.684v37.845zm-.474 72.852h5.211v31.695h-5.211v-31.695z" fill="#352221"/><path d="M128.435 128.2v3.311c0 1.893-2.843 3.312-6.159 3.312s-6.159-1.419-6.159-3.312v-3.311h12.318z" fill="#493130"/><path d="M122.276 124.888c3.316 0 6.159 1.42 6.159 3.312s-2.843 3.311-6.159 3.311-6.159-1.419-6.159-3.311c-.473-1.419 2.369-3.312 6.159-3.312z" fill="#472F2E"/><path d="M90.061 108.331l54.007 31.222 18.003-10.407-54.007-31.222-18.003 10.407z" fill="#C6AFAF"/><path d="M144.068 139.553v7.096l-54.007-31.222v-7.096l54.007 31.222z" fill="#9E8282"/><path d="M162.071 129.146v7.096l-18.003 10.407v-7.096l18.003-10.407z" fill="#B29A9A"/><path d="M158.755 104.547s-1.422 1.892-2.369 3.784c-.948 1.419-.474 4.731-.474 4.731s-1.421-1.892-1.895-2.839c-.947-1.892-1.895-2.365-1.895-2.365s-.947 2.365-1.895 4.258c-.474.946-3.79 3.311-3.79 3.311s0-2.838-.473-3.784c-.474-1.893 0-5.204 0-5.204s-1.422.473-2.843.473l-3.316 1.419s.474-1.892.474-3.784c0-1.419-.948-3.785-.948-3.785s-.947 1.419-2.369 1.892c-1.421.947-3.316 1.42-3.316 1.42v-8.516s-2.369 1.42-3.316 2.366c-.948.946-2.369 1.419-2.369 1.419v-8.042s-1.421.473-2.369.473c-1.895.473-2.368 1.42-2.368 1.42s.473-2.366.473-3.785v-4.259s-1.895 0-2.842.473c-1.895.473-2.842.946-2.842.946s0-1.892-.474-3.311c-.474-1.892-.948-4.73-.948-4.73s-1.421.945-1.895 1.419c-1.421.946-2.368 2.838-2.368 2.838v-4.73c0-1.893-.474-3.785-.474-3.785s-1.421 1.419-2.369 2.838c-.947.946-1.895 2.365-1.895 2.365s.474-1.892 0-3.311c0-2.365.474-4.258.474-4.258l-2.843.947c-1.421.946-2.368 2.365-2.368 2.365s-.474-2.838 0-4.73c0-1.893.473-2.84.473-2.84s-1.421 0-2.368.474a17.081 17.081 0 0-2.37 1.892s-.947-4.73-2.368-6.623c-.947-1.892-3.316-4.257-3.316-4.257s2.369-.473 3.79 1.892c1.421 1.892 1.895 4.258 1.895 4.258s.474-2.839 1.895-4.731c.947-1.892 3.316-3.785 3.316-3.785l2.369 5.204 3.79-4.257s1.895 3.784 1.895 5.203c1.421-1.419 4.264-2.365 4.264-2.365s-1.422 4.258-.948 7.096c1.421-1.892 4.264-3.312 4.264-3.312s0 6.623.473 7.57c1.895-1.42 3.79-.474 3.79-.474v6.15s3.317-1.419 5.212-.946c0 2.365.473 8.515.473 8.515s2.369-1.419 4.738-1.419c.947 1.892 2.369 7.569 2.369 7.569s1.895-2.365 4.263-1.892c-.473 2.838 1.422 6.623 1.422 6.623s2.368-2.839 4.263-2.839c0 3.312 1.421 8.042 1.421 8.042s1.422-3.784 3.317-4.73c.947 3.311 2.842 4.73 3.316 8.042.474-1.893 2.369-3.785 6.159-4.73-1.895 2.364-2.843 7.568-2.843 7.568l.948-2.838z" fill="#6BF2CE"/><path d="M157.807 129.146s-4.264 2.838-8.527 4.73c-2.369 1.42-6.159 3.312-7.58 2.839-2.843-1.892-16.107-9.461-23.687-13.719-7.58-4.258-22.74-12.773-24.161-14.192-.948-1.419.473-32.168 0-38.318 0-6.15-.474-10.407-.474-10.407s1.895 2.365 3.316 4.257c.948 1.893 2.369 6.623 2.369 6.623s.947-.946 2.369-1.892c.947-.473 2.368-.473 2.368-.473s0 1.42-.474 2.838v4.73s.474-1.418 2.369-2.364c1.421-.947 2.843-.947 2.843-.947s-.474 1.893-.474 4.258v3.312s.947-.947 1.895-2.366c.947-1.419 2.369-2.838 2.369-2.838s.473 2.365.473 3.784v4.73s.948-1.418 2.369-2.837c.948-.474 1.895-1.42 1.895-1.42l.948 4.731c0 1.42.473 3.311.473 3.311s.948-.473 2.843-.946c.947-.473 2.842-.473 2.842-.473s.474 2.839 0 4.258c0 1.419-.473 3.784-.473 3.784s.947-.946 2.368-1.419c.948-.473 2.369-.473 2.369-.473v8.042s1.421-.473 2.369-1.42c.947-.945 3.316-2.364 3.316-2.364v8.515s1.895-.473 3.316-1.419c1.421-.474 2.369-1.893 2.369-1.893s.947 2.366.947 3.785l-.473 3.784s2.368-1.419 3.316-1.419c1.421 0 2.842-.473 2.842-.473s-.473 3.311 0 5.204c0 .946.474 3.784.474 3.784s2.843-2.838 3.79-3.311c1.421-1.892 1.895-4.258 1.895-4.258s.948.473 1.895 2.366c.948.946 1.895 2.838 1.895 2.838s0-2.838.474-4.731c.947-1.419 2.368-3.784 2.368-3.784l.474 3.784s.474-4.73 2.843-7.569l-.948 8.988c-.947 6.15-3.79 18.45-3.79 18.45z" fill="#3ED9B0"/><path d="M79.64 215.716h2.842l5.21 17.503-4.737 1.42-4.737-16.085 1.421-2.838z" fill="#593D3D"/><path d="M131.751 162.26s-3.79-.473-3.79 6.15v41.156c0 11.354-1.895 43.995-1.895 43.995s-7.58 4.258-11.37 3.785c-3.79 0-4.264-2.839-7.106-8.043-2.843-5.203-8.054-5.676-10.422-5.676-2.843-.473-11.37.946-12.792-4.258-1.42-5.203-.947-7.569-4.737-8.042-3.79-.473-9.949-1.419-9.949-5.677 0-4.257-.947-55.821 0-68.594.948-12.772 3.317-20.814 9.001-24.599 5.685-3.784 12.792-1.419 18.003 2.365 5.211 3.785 13.738 8.989 19.897 12.773 9.475 6.15 16.581 7.096 19.897 9.461 2.843 2.366 0 7.569 0 7.569l-4.737-2.365z" fill="#FDA12D"/><path d="M118.012 166.991s-.947 15.611-1.895 22.707c-.473 7.096-3.316 41.156-5.211 48.252-1.421 6.623-1.895 9.934-1.895 9.934s-2.842-7.569-1.421-20.341c.474-6.623 1.421-20.342 3.316-34.534 2.369-14.192 7.106-26.018 7.106-26.018zm-30.319-17.977s-.948 20.342-3.317 34.534c-2.368 14.665-2.842 41.629-2.842 41.629s-2.842-14.665-2.369-25.072c.474-9.934 2.843-24.126 4.264-33.587 1.421-8.988 4.264-17.504 4.264-17.504z" fill="#FFAF49"/></svg>