<svg width="40" height="40" viewBox="0 0 40 40" xmlns="http://www.w3.org/2000/svg" fill="none"><rect y="20" width="20" height="20" rx="8" fill="#3ED9B0"/><path d="M36.766 35.471h-1.29v1.29h1.29v-1.29zM23.867 36.116h-1.29v1.29h1.29v-1.29zM39.946 35.498c-.09-.542-.294-1.06-.599-1.517v-11.409c-.005-2.919-1.796-5.538-4.515-6.602v-2.428c0-.356-.289-.645-.645-.645h-3.603l1.935-1.935h4.248c.171 0 .335-.068.456-.189l2.58-2.58c.121-.121.189-.285.189-.456v-3.225c0-.171-.068-.335-.189-.456l-2.58-2.58c-.121-.121-.285-.189-.456-.189h-2.58v-.645c0-.356-.289-.645-.645-.645h-9.029c-.171 0-.335.068-.456.189l-5.16 5.159-12.752 12.752-3.666.611v.011c-.132.018-.255.077-.351.169l-1.935 1.935c-.252.252-.252.66 0 .912l5.804 5.804c.252.252.66.252.912 0l1.935-1.935c.092-.096.152-.22.169-.352h.011l.611-3.666 12.754-12.75 4.971-4.97h6.182c.356 0 .645-.289.645-.645v-.645h2.313l2.202 2.202v2.691l-2.202 2.202h-4.248c-.171 0-.335.068-.456.189l-3.036 3.036h-3.603c-.356 0-.645.289-.645.645v2.428c-2.719 1.063-4.51 3.682-4.515 6.602v14.189c0 1.781 1.444 3.225 3.225 3.225 1.781 0 3.225-1.444 3.225-3.225h5.863c.349 2.108 2.341 3.535 4.449 3.186 2.109-.349 3.535-2.341 3.187-4.449zm-33.491-9.323l-4.892-4.892 1.023-1.023 4.892 4.893-1.023 1.023zm2.124-5.348c-.095.095-.158.218-.18.35l-.439 2.633-4.032-4.032 2.634-.439c.132-.022.255-.085.35-.18l12.443-12.443 1.668 1.668-12.443 12.443zm13.355-13.355l-1.668-1.668 4.248-4.248 1.668 1.668-4.248 4.248zm10.964-4.892h-5.537l-1.29-1.29h6.827v1.29zm-7.094 11.609h7.739v1.413c-.425-.08-.857-.122-1.29-.123h-5.159c-.433.002-.865.043-1.29.123v-1.413zm1.29 2.58h5.159c2.955.004 5.437 2.223 5.769 5.16h-16.697c.332-2.936 2.814-5.156 5.769-5.16zm-5.804 6.449h16.768v1.29h-16.768v-1.29zm16.768 2.58v2.58h-3.87v-2.58h3.87zm-16.768 0h11.609v1.29h-11.609v-1.29zm0 2.58h11.609v.645c0 .356.289.645.645.645h4.514v3.103c-.399-.231-.835-.389-1.29-.466v-.703c0-.356-.289-.645-.645-.645h-12.899c-.356 0-.645.289-.645.645v1.999c-.469.099-.91.303-1.29.596v-5.82zm1.935 10.319c-1.069 0-1.935-.866-1.935-1.935s.866-1.935 1.935-1.935 1.935.866 1.935 1.935-.866 1.935-1.935 1.935zm9.087-3.225h-6.136c-.42-.96-1.28-1.658-2.306-1.87v-1.354h11.609v.058c-1.62.277-2.89 1.546-3.167 3.167zm3.811 3.225c-1.425 0-2.58-1.155-2.58-2.58s1.155-2.58 2.58-2.58 2.58 1.155 2.58 2.58-1.155 2.58-2.58 2.58zM3.874 27.732c0-1.069-.866-1.935-1.935-1.935s-1.935.866-1.935 1.935.866 1.935 1.935 1.935 1.935-.866 1.935-1.935zm-2.58 0c0-.356.289-.645.645-.645.356 0 .645.289.645.645 0 .356-.289.645-.645.645-.356 0-.645-.289-.645-.645zM2.584 34.826c-1.425 0-2.58 1.155-2.58 2.58s1.155 2.58 2.58 2.58 2.58-1.155 2.58-2.58-1.155-2.58-2.58-2.58zm0 3.87c-.712 0-1.29-.578-1.29-1.29 0-.712.577-1.29 1.29-1.29.712 0 1.29.577 1.29 1.29 0 .712-.577 1.29-1.29 1.29zM5.809 29.667c-1.069 0-1.935.866-1.935 1.935s.866 1.935 1.935 1.935 1.935-.866 1.935-1.935-.866-1.935-1.935-1.935zm0 2.58c-.356 0-.645-.289-.645-.645 0-.356.289-.645.645-.645.356 0 .645.289.645.645 0 .356-.289.645-.645.645zM11.613 31.602c-1.069 0-1.935.866-1.935 1.935s.866 1.935 1.935 1.935 1.935-.866 1.935-1.935-.866-1.935-1.935-1.935zm0 2.58c-.356 0-.645-.289-.645-.645 0-.356.289-.645.645-.645.356 0 .645.289.645.645 0 .356-.289.645-.645.645zM12.258 24.507c-1.425 0-2.58 1.155-2.58 2.58s1.155 2.58 2.58 2.58 2.58-1.155 2.58-2.58-1.155-2.58-2.58-2.58zm0 3.87c-.712 0-1.29-.577-1.29-1.29 0-.712.578-1.29 1.29-1.29.712 0 1.29.578 1.29 1.29 0 .712-.578 1.29-1.29 1.29zM7.744 34.826h-1.29v1.29h1.29v-1.29zM10.324 36.761h-1.29v1.29h1.29v-1.29z" fill="#333"/></svg>