<svg width="40" height="40" viewBox="0 0 40 40" xmlns="http://www.w3.org/2000/svg" fill="none"><rect y="20" width="20" height="20" rx="8" fill="#3ED9B0"/><g clip-path="url(#a)" fill="#333"><path d="M36 29.667c-1.344.004-2.596.683-3.333 1.807v-3.14c.736 0 1.333-.597 1.333-1.333v-2.667c.001-.078-.015-.155-.047-.227v-.04l-.06-.113c-1.392-1.855-3.574-2.949-5.893-2.953h-5.333c-1.105 0-2 .895-2 2v2.453c-2.94-2.22-8-6.213-12-9.427v-3.693c0-.368-.298-.667-.667-.667-.368 0-.667.298-.667.667v2.627l-3.42-2.74c.056-.179.085-.366.087-.553v-3.333c0-1.105-.895-2-2-2s-2 .895-2 2v3.333c0 1.105.895 2 2 2 .408-.001.806-.127 1.14-.36 3.667 2.953 13.6 10.907 17.54 13.82.065.681.636 1.203 1.32 1.207v.753l-1.393-.333c-1-1.104-2.417-1.74-3.907-1.753l-12.807-9.893-2.72-2.107c-.291-.224-.708-.17-.933.12-.112.141-.162.32-.139.499.023.178.116.34.259.448l2 1.513c-1.447 1.28-1.627 3.42-1.693 4.653-.32 3.433.227 6.347 1.607 8.573 2.393 3.86 6.827 4.787 10.253 4.86 1.606 2.024 4.441 2.588 6.7 1.333h14.593c.645.432 1.404.664 2.18.667 2.209 0 4-1.791 4-4s-1.791-4-4-4zm-34.667-18v-3.333c0-.368.298-.667.667-.667.368 0 .667.298.667.667v3.333c0 .368-.298.667-.667.667-.368 0-.667-.299-.667-.667zm30.513 21.113l.247.06c-.058.272-.089.549-.093.827.001.703.188 1.392.54 2h-11.727c1.227-1.495 1.536-3.542.807-5.333 2.453.62 7.227 1.753 10.227 2.447zm.82-5.78h-10.667v-2h10.667v2zm-10.667-4c0-.368.299-.667.667-.667h5.333c1.371.001 2.7.472 3.767 1.333h-9.767v-.667zm1.333 5.333h8v2.96c-2.447-.567-5.68-1.333-8-1.887v-1.073zm-19.927 1.773c-1.22-2-1.713-4.593-1.447-7.767.127-1.487.36-3.113 1.453-3.913l11.493 8.873c-2.14.748-3.573 2.767-3.573 5.033.002.686.136 1.365.393 2-2.947-.227-6.393-1.167-8.32-4.227zm10 4.527l-.053-.067c-.809-1.199-.908-2.742-.258-4.034.65-1.292 1.947-2.133 3.392-2.199h.18c1.897-.003 3.535 1.328 3.922 3.185s-.585 3.731-2.326 4.485c-1.741.754-3.772.182-4.863-1.37h.007zm22.593 1.7c-1.473 0-2.667-1.194-2.667-2.667 0-1.473 1.194-2.667 2.667-2.667 1.473 0 2.667 1.194 2.667 2.667 0 1.473-1.194 2.667-2.667 2.667zM8.86 31.1c-1.124-.343-2.12-1.014-2.86-1.927-1.333-1.733-1.507-4.3-1.413-6.14.02-.368-.262-.683-.63-.703-.368-.02-.683.262-.703.63-.107 2.073.1 4.967 1.687 7.027.907 1.11 2.123 1.927 3.493 2.347l.213.04c.368.059.714-.192.773-.56.059-.368-.192-.715-.56-.773v.06zM16.667 30.334c-1.104 0-2 .895-2 2s.896 2 2 2c1.105 0 2-.895 2-2s-.895-2-2-2zm0 2.667c-.368 0-.667-.298-.667-.667 0-.368.299-.667.667-.667.368 0 .667.299.667.667 0 .368-.299.667-.667.667zM36 34.334c.368 0 .667-.298.667-.667 0-.368-.299-.667-.667-.667-.368 0-.667.298-.667.667 0 .368.298.667.667.667zM14.667 3.667h.667c.368 0 .667-.298.667-.667 0-.368-.299-.667-.667-.667h-.667c-.368 0-.667.298-.667.667 0 .368.299.667.667.667zM25.5 8.693c.126.159.317.252.52.253.154-.001.302-.055.42-.153.282-.233.323-.649.093-.933-.3-.373-.62-.733-.94-1.073-.125-.126-.296-.197-.473-.197-.178 0-.348.071-.473.197-.126.125-.197.296-.197.473 0 .178.071.348.197.473.287.293.573.6.853.96zM28.52 14.5c.127.42.24.853.34 1.28.073.307.351.522.667.513h.153c.356-.086.577-.443.493-.8-.107-.453-.227-.913-.367-1.333-.057-.241-.244-.431-.484-.492s-.495.016-.661.201c-.166.185-.215.446-.128.678l-.013-.047zM27.573 12.04c.11.231.344.379.6.38.099 0 .196-.02.287-.06.333-.156.476-.553.32-.887-.2-.433-.42-.853-.667-1.26-.184-.32-.593-.431-.913-.247-.32.184-.431.593-.247.913.227.367.433.787.62 1.16zM17.9 4c.427.087.847.2 1.26.327l.173.007c.29-.001.546-.19.633-.467.054-.169.039-.352-.042-.51-.081-.158-.222-.276-.391-.33-.453-.14-.913-.26-1.387-.36-.359-.074-.71.155-.787.513-.045.181-.013.373.09.529.103.156.266.262.45.291zM21.547 5.347c.38.213.747.44 1.107.667.111.078.244.12.38.12.291-.001.548-.19.635-.467.087-.278-.016-.579-.255-.746-.393-.273-.807-.527-1.22-.76-.155-.086-.337-.107-.507-.058-.17.049-.314.163-.399.318-.092.156-.117.344-.068.519.049.175.167.322.328.408zM29.293 18.393v.646c.01.177.091.343.223.46.133.118.307.178.483.167h.04c.178-.01.345-.091.463-.226.118-.134.177-.31.164-.488v-.6739999999999999c-.013-.188-.104-.361-.251-.478-.147-.117-.337-.166-.522-.136-.366.035-.635.36-.6.727zM13.333 6.334h.667c.368.009.674-.282.683-.65.009-.368-.282-.674-.65-.683h-.7c-.368 0-.667.298-.667.667 0 .368.298.667.667.667zM19.827 7.413c-.203.302-.126.712.173.92.349.249.681.52.993.813.124.113.286.175.453.173.185-.001.361-.078.487-.213.259-.26.259-.68 0-.94-.353-.329-.727-.634-1.12-.913-.148-.121-.341-.173-.529-.143-.189.031-.355.141-.457.303zM25.627 16.294c.352-.097.56-.46.467-.813-.12-.46-.267-.913-.42-1.333-.125-.348-.509-.529-.857-.403-.348.125-.529.509-.403.857.147.407.28.827.393 1.247.08.3.357.504.667.493l.153-.047zM16.52 6.727c.414.106.822.237 1.22.393.078.032.162.048.247.047.319-.002.592-.231.65-.544.059-.314-.114-.625-.41-.742-.447-.174-.903-.323-1.367-.447-.231-.061-.477.006-.645.176-.168.17-.233.416-.17.647.063.23.244.41.475.471zM22.813 10.174c-.295.216-.36.63-.147.927.247.347.473.72.667 1.1.118.21.339.339.58.34.114 0 .226-.028.327-.08.155-.087.27-.232.317-.404.047-.172.024-.355-.064-.51-.233-.42-.493-.827-.753-1.207-.21-.301-.625-.376-.927-.167zM26 19.667h.033c.355-.018.634-.311.633-.667 0-.22 0-.453-.053-.667-.017-.177-.104-.34-.242-.453-.138-.113-.315-.166-.492-.147-.364.038-.628.363-.593.727 0 .22.033.433.047.633.047.331.332.577.667.573zM22 19.667h.04c.178-.01.345-.091.463-.226.118-.134.177-.31.164-.488 0 0 0-.26-.08-.707-.052-.368-.392-.625-.76-.573-.368.052-.625.392-.573.76.053.367.067.593.067.607.021.358.322.635.68.627zM15.54 8.234c-.348-.121-.729.062-.85.41s.062.729.41.85c.394.134.775.301 1.14.5.324.172.726.05.9-.273.173-.322.054-.724-.267-.9-.428-.231-.874-.427-1.333-.587zM19.173 10.587c-.164-.173-.408-.245-.64-.189-.232.056-.416.231-.483.46s-.008.476.157.649c.289.303.557.626.8.967.125.175.326.279.54.28.141-.002.278-.046.393-.127.143-.104.24-.261.267-.436.027-.175-.016-.354-.121-.497-.279-.389-.584-.759-.913-1.107zM20.667 15.913c.093.286.366.475.667.46h.2c.349-.112.542-.484.433-.833-.147-.46-.313-.9-.487-1.333-.144-.341-.536-.5-.877-.357-.341.144-.5.536-.357.877.16.36.307.767.42 1.187zM12 9h.667c.368.011.676-.278.687-.647.011-.368-.279-.676-.647-.687h-.707c-.368 0-.667.298-.667.667 0 .368.298.667.667.667z"/></g><defs><clipPath id="a"><path fill="#fff" d="M0 0h40v40h-40z"/></clipPath></defs></svg>