<svg width="40" height="40" viewBox="0 0 40 40" xmlns="http://www.w3.org/2000/svg" fill="none"><rect y="20" width="20" height="20" rx="8" fill="#3ED9B0"/><path d="M19.032 19.355h-16.774c-1.069 0-1.935.866-1.935 1.935.001 2.65 1.092 5.183 3.018 7.004l.853 11.11c.026.337.307.596.645.596h11.613c.338.001.619-.259.645-.596l.855-11.11c1.925-1.821 3.016-4.354 3.016-7.004 0-1.069-.867-1.935-1.936-1.935zm-17.198 3.821c.139.032.281.049.424.05h.693l.225 2.923c-.638-.893-1.094-1.903-1.341-2.972zm14.02 15.534h-10.418l-.099-1.29h10.617l-.099 1.29zm.198-2.581h-10.814l-.516-6.739c1.568 1.03 3.402 1.578 5.278 1.578h1.29c1.877.001 3.712-.548 5.281-1.578l-.519 6.739zm.65-8.442c-1.51 1.286-3.428 1.991-5.412 1.99h-1.29c-1.983.001-3.902-.705-5.412-1.99l-.343-4.461h12.8l-.343 4.461zm1.413-1.539l.225-2.923h.693c.143-.001.285-.018.424-.05-.247 1.069-.703 2.079-1.341 2.972zm.917-4.213h-16.774c-.356 0-.645-.289-.645-.645 0-.356.289-.645.645-.645h16.774c.356 0 .645.289.645.645 0 .356-.289.645-.645.645zM3.312 16.799l.81-.15-.34-.75c-.153-.332-.233-.694-.234-1.06 0-1.425 1.155-2.581 2.581-2.581.816-.001 1.583.388 2.065 1.046l.387.521.516-.392c.589-.449 1.343-.623 2.069-.477l.786.163-.011-.803-.006-.057c-.006-1.425 1.144-2.586 2.569-2.592 1.425-.006 2.586 1.144 2.592 2.569.001.197-.021.393-.064.585l-.146.658.664.117c1.231.215 2.129 1.284 2.128 2.534h1.29c.001-1.642-1.037-3.105-2.588-3.646l.007-.225c.002-2.138-1.73-3.873-3.867-3.875-1.892-.002-3.507 1.364-3.821 3.229-.653-.008-1.297.152-1.871.463-.717-.712-1.688-1.111-2.699-1.108-2.137.002-3.869 1.734-3.871 3.871 0 .314.039.626.117.93-.863.441-1.406 1.327-1.407 2.296h1.29c.002-.62.444-1.152 1.054-1.265zM16.451 15.484c-1.425 0-2.581 1.155-2.581 2.581h1.29c0-.713.578-1.29 1.29-1.29.713 0 1.29.578 1.29 1.29h1.29c0-1.425-1.155-2.581-2.581-2.581zM39.677 38.71h-19.355v1.29h19.355v-1.29zM39.233 33.589v-.008l-7.298-2.434v-30.503c0-.356-.289-.645-.645-.645h-2.581c-.356 0-.645.289-.645.645v30.503l-7.301 2.434v.008c-.262.085-.44.329-.441.605v2.581c0 .356.289.645.645.645h18.065c.356 0 .645-.289.645-.645v-2.581c-.002-.276-.181-.52-.444-.605zm-9.879-32.299h1.29v1.29h-1.29v-1.29zm0 2.581h1.29v2.581h-1.29v-2.581zm0 3.871h1.29v18.064h-1.29v-18.064zm0 19.355h1.29v3.871h-1.29v-3.871zm-.541 5.161h2.372l3.871 1.29h-10.113l3.871-1.29zm9.573 3.871h-16.774v-1.29h16.774v1.29zM38.387 27.742h-1.29v1.29h1.29v-1.29zM38.387 30.323h-1.29v1.29h1.29v-1.29zM37.097 29.032h-1.29v1.29h1.29v-1.29zM39.677 29.032h-1.29v1.29h1.29v-1.29z" fill="#333"/></svg>