<svg width="39" height="39" viewBox="0 0 39 39" xmlns="http://www.w3.org/2000/svg" fill="none"><rect y="19" width="20" height="20" rx="8" fill="#3ED9B0"/><path d="M21.328 20.109v-1.452l1.556.778.545-1.09-1.498-.749.954-.636-.676-1.014-1.534 1.023-1.128-.564 2.095-1.257-.627-1.045-2.76 1.656-1.145-.573 2.095-1.257c.182-.109.294-.308.294-.522 0-.214-.113-.412-.296-.522l-2.095-1.257 1.145-.573 2.76 1.656.627-1.045-2.095-1.257 1.128-.564 1.534 1.023.676-1.014-.954-.636 1.498-.749-.545-1.09-1.555.778v-1.452h-1.219v2.061l-1.219.609v-2.67h-1.219v3.28l-1.219.609v-3.28c0-.225-.124-.431-.322-.537-.197-.106-.439-.094-.625.03l-2.709 1.806v-1.623l3.438-2.865-.781-.936-2.657 2.214v-1.494l1.65-1.65-.862-.862-.788.788v-.966h-1.219v.966l-.788-.788-.862.862 1.65 1.65v1.494l-2.656-2.214-.781.936 3.437 2.865v1.623l-2.709-1.806c-.187-.125-.428-.137-.625-.03-.199.106-.322.313-.322.537v3.28l-1.219-.609v-3.28h-1.219v2.67l-1.219-.609v-2.061h-1.219v1.452l-1.556-.778-.545 1.09 1.498.749-.954.636.676 1.014 1.534-1.023 1.128.564-2.095 1.257.627 1.045 2.76-1.656 1.145.573-2.095 1.257c-.182.109-.294.308-.294.522 0 .214.113.413.296.522l2.095 1.257-1.145.573-2.76-1.656-.627 1.045 2.095 1.257-1.128.564-1.534-1.023-.676 1.014.954.636-1.498.749.545 1.09 1.555-.778v1.452h1.219v-2.061l1.219-.609v2.67h1.219v-3.28l1.219-.609v3.28c0 .225.124.431.322.538.197.105.439.094.625-.03l2.709-1.806v1.623l-3.438 2.865.781.936 2.657-2.214v1.494l-1.65 1.649.862.862.788-.788v.966h1.219v-.966l.788.788.862-.862-1.65-1.649v-1.494l2.656 2.214.781-.936-3.437-2.865v-1.623l2.709 1.806c.102.068.22.102.338.102.099 0 .197-.024.288-.072.198-.106.322-.313.322-.538v-3.28l1.219.609v3.28h1.219v-2.67l1.219.609v2.061h1.219zm-3.621-6.703l-1.889 1.133-2.268-1.133 2.267-1.133 1.89 1.133zm-2.472-4.955v2.75l-2.438 1.219v-2.344l2.438-1.625zm-6.094 0l2.438 1.625v2.344l-2.438-1.219v-2.751zm-2.472 4.955l1.889-1.133 2.267 1.133-2.267 1.133-1.889-1.133zm2.472 4.955v-2.75l2.438-1.219v2.344l-2.438 1.625zm6.094 0l-2.438-1.625v-2.344l2.438 1.219v2.751zM37.51 30.366l-.676-1.014-1.712 1.142-1.47-.63 1.357-.678c.205-.104.336-.314.336-.545 0-.231-.13-.442-.337-.545l-1.356-.678 1.47-.63 1.712 1.142.676-1.014-1.051-.701 1.562-.67-.48-1.12-1.587.681v-1.339h-1.219v1.862l-1.828.784v-2.036c0-.202-.1-.391-.267-.505-.168-.114-.382-.137-.568-.061l-2.211.885v-1.77l2.101-1.051-.545-1.09-1.555.778v-2.061h-1.219v2.061l-1.556-.778-.545 1.09 2.101 1.05v1.77l-2.211-.885c-.186-.074-.399-.052-.568.061-.167.113-.268.302-.268.505v2.036l-1.828-.784v-1.862h-1.219v1.339l-1.588-.681-.48 1.12 1.563.67-1.051.701.676 1.014 1.712-1.142 1.47.63-1.357.678c-.206.104-.336.315-.336.545 0 .231.13.442.337.545l1.356.678-1.47.63-1.712-1.142-.676 1.014 1.051.701-1.562.67.479 1.12 1.588-.681v1.339h1.219v-1.862l1.828-.784v2.036c0 .202.101.391.268.505.102.069.222.105.342.105l.226-.043 2.211-.885v1.77l-2.101 1.05.545 1.09 1.555-.778v2.061h1.219v-2.061l1.556.778.545-1.09-2.101-1.05v-1.77l2.211.885.226.043c.12 0 .239-.035.342-.105.167-.113.267-.302.267-.505v-2.036l1.828.784v1.862h1.219v-1.339l1.588.681.48-1.12-1.562-.67 1.052-.701zm-4.138-1.726l-1.188.594-1.387-.594 1.386-.594 1.189.594zm-1.684-3.366v1.658l-1.828.784v-1.71l1.828-.731zm-4.875 0l1.828.731v1.71l-1.828-.784v-1.658zm-1.684 3.366l1.188-.594 1.387.594-1.386.594-1.189-.594zm1.684 3.366v-1.658l1.828-.784v1.711l-1.828.731zm4.875 0l-1.828-.731v-1.711l1.828.784v1.658zM28.24 9.898l.862.862 1.976-1.976v2.795h1.219v-2.795l1.976 1.976.862-.862-1.976-1.976h2.795v-1.219h-2.795l1.976-1.976-.862-.862-1.976 1.976v-2.795h-1.219v2.795l-1.976-1.976-.862.862 1.976 1.976h-2.795v1.219h2.795l-1.976 1.976zM10.76 29.102l-.862-.862-1.976 1.976v-2.795h-1.219v2.795l-1.976-1.976-.862.862 1.976 1.976h-2.795v1.219h2.795l-1.976 1.976.862.862 1.976-1.976v2.795h1.219v-2.795l1.976 1.976.862-.862-1.976-1.976h2.795v-1.219h-2.795l1.976-1.976zM25.594 14.625c.673 0 1.219-.546 1.219-1.219s-.546-1.219-1.219-1.219-1.219.546-1.219 1.219.546 1.219 1.219 1.219zM34.734 20.719c.673 0 1.219-.546 1.219-1.219s-.546-1.219-1.219-1.219-1.219.546-1.219 1.219.546 1.219 1.219 1.219zM16.453 32.906c.673 0 1.219-.546 1.219-1.219s-.546-1.219-1.219-1.219-1.219.546-1.219 1.219.546 1.219 1.219 1.219zM4.266 24.984c.673 0 1.219-.546 1.219-1.219s-.546-1.219-1.219-1.219-1.219.546-1.219 1.219.546 1.219 1.219 1.219z" fill="#333"/></svg>