<svg width="40" height="39" viewBox="0 0 40 39" xmlns="http://www.w3.org/2000/svg" fill="none"><rect y="19" width="20" height="20" rx="8" fill="#3ED9B0"/><path d="M10.136 32.221l-1.209.151.609 4.875c.018.147.09.283.201.381.111.098.255.153.403.153h8.531v-1.219h-7.993l-.543-4.341zM26.931 5.42l2.187 1.093.487 1.947-1.11 2.22-1.211 2.119 1.058.605.971-1.699 2.766.922v.78h1.219v-1.144l.575-2.3.294-.588 1.792 1.004c.185.104.395.157.607.155.213-.002.421-.06.604-.167.183-.107.336-.261.441-.446.106-.184.161-.393.161-.606v-.326c.003-.88-.26-1.741-.753-2.47-.494-.729-1.195-1.292-2.014-1.617l-2.036-.815-.002-.001-2.467-.987-2.415-1.208c-.082-.041-.171-.063-.263-.064-.091-.001-.182.018-.264.056-.083.038-.156.094-.214.165-.058.07-.1.153-.122.241l-.609 2.438c-.034.135-.02.276.038.402.058.126.157.228.281.29zm2.96 5.193l.654-1.308 2.032.813-.321 1.283-2.365-.789zm6.663-1.623v.326l-.973-.545c.102-.182.155-.388.154-.596.001-.551-.102-1.098-.302-1.611.352.298.635.67.829 1.089.194.419.293.876.292 1.337zm-4.039-3.771l.005.002c.591.235 1.097.643 1.453 1.169.356.527.545 1.149.543 1.784l-.312-.175c-.072-.04-.151-.066-.233-.074-.082-.009-.165-.001-.244.023-.079.024-.152.064-.215.117-.063.053-.114.119-.151.192l-.359.717-2.237-.895-.497-1.987.403-1.612 1.843.737zm-4.295-1.896l1.321.66-.307 1.226-1.321-.66.307-1.226zM19.549 13.425l1.218-.038c-.021-.685-.162-1.36-.417-1.996-.105-.263-.131-.55-.074-.827.057-.277.194-.531.394-.731l1.301-1.301h1.933l1.301 1.301c.2.2.337.454.394.731.057.277.031.565-.074.827-.103.259-.188.525-.254.797h-2.69v1.219h3.047v-.003l.698.022c.017-.543.129-1.078.33-1.582.194-.484.242-1.014.137-1.525-.105-.511-.357-.979-.726-1.348l-1.301-1.301v-2.185c0-.162-.064-.317-.178-.431-.114-.114-.269-.178-.431-.178h-2.438c-.162 0-.317.064-.431.178-.114.114-.178.269-.178.431v2.185l-1.301 1.301c-.369.368-.622.837-.726 1.348-.105.511-.057 1.041.137 1.525.202.504.314 1.039.33 1.582zm3.998-7.332v1.219h-1.219v-1.219h1.219zM10.141 9.141h3.656c.162 0 .317-.064.431-.178l2.23-2.23.701 3.739 1.198-.225-.914-4.875h-.002c-.024-.14-.098-.267-.207-.359-.109-.091-.248-.14-.39-.139h-.093l-.524-3.147c-.024-.142-.097-.272-.207-.365-.11-.093-.25-.144-.394-.144h-3.656c-.144 0-.284.051-.394.144-.11.093-.183.222-.207.365l-.59 3.542-1.769 2.948c-.057.095-.087.203-.086.314v1.828h1.219v-1.219zm2.344-6.703h2.624l.46 2.76c-.537.318-1.149.485-1.772.485s-1.236-.168-1.772-.485l.46-2.76zm-.925 3.897c.687.372 1.456.567 2.237.566.284 0 .567-.026.846-.077l-1.099 1.099h-2.937l.953-1.588zM14.092 29.163c.099.059.212.089.327.087.115-.002.227-.037.323-.1s.172-.152.22-.257c.048-.105.065-.22.049-.334l-1.335-9.784c-.05-.365-.021-.737.085-1.09.106-.353.286-.679.528-.957.242-.278.541-.5.877-.653.336-.152.7-.231 1.068-.231h19.5c.162 0 .317.064.431.179.114.114.178.269.178.431 0 .162-.064.317-.178.431-.114.114-.269.178-.431.178h-20.719v1.219h19.419l-1.362 10.893 1.209.151 1.38-11.044h.071c.485 0 .95-.193 1.293-.535.343-.343.536-.808.536-1.293 0-.485-.193-.95-.536-1.293-.343-.343-.808-.535-1.293-.535h-19.5c-.543 0-1.079.116-1.573.341-.494.225-.934.552-1.291.961-.357.409-.622.889-.778 1.409-.156.52-.198 1.067-.125 1.604l1.181 8.662c-1.495-.561-3.143-.554-4.633.021l.759-8.362c.098-1.091.49-2.135 1.133-3.021.644-.886 1.515-1.582 2.522-2.012l.05-.021c.287-.124.595-.188.907-.189h.018v-1.219h-.018c-.477 0-.949.098-1.387.288l-.05.021c-1.209.517-2.255 1.352-3.028 2.416-.773 1.064-1.243 2.317-1.361 3.627l-.856 9.437-.002.055v1.312l-.142.024c-.747.126-1.514.057-2.226-.201s-1.345-.697-1.838-1.273l2.344-8.595c.769-2.828 2.357-5.366 4.564-7.295.439-.384.954-.673 1.512-.846.557-.173 1.145-.228 1.725-.16.58.068 1.139.256 1.642.553.503.297.938.696 1.277 1.171l.308.431.992-.708-.309-.431c-.438-.614-1-1.129-1.649-1.512s-1.372-.626-2.121-.713c-.749-.087-1.508-.017-2.228.207-.72.224-1.385.596-1.952 1.092-2.388 2.086-4.106 4.832-4.938 7.891l-2.425 8.894c-.024.089-.028.183-.011.274.017.091.055.177.111.251.617.825 1.449 1.464 2.406 1.847.956.383 2 .495 3.016.324l.651-.108c.142-.024.271-.097.365-.207.093-.11.144-.25.144-.394v-1.47c.804-.417 1.702-.62 2.607-.591.905.029 1.788.289 2.564.756zM38.172 30.469h-17.672c-.162 0-.317.064-.431.178-.114.114-.178.269-.178.431v6.094c0 .162.064.317.178.431.114.114.269.178.431.178h17.672c.162 0 .317-.064.431-.178.114-.114.178-.269.178-.431v-6.094c0-.162-.064-.317-.178-.431-.114-.114-.269-.178-.431-.178zm-7.313 6.094h-9.75v-4.875h9.75v4.875zm6.703 0h-5.484v-4.875h5.484v4.875zM22.938 34.125c.337 0 .609-.273.609-.609 0-.337-.273-.609-.609-.609-.337 0-.609.273-.609.609 0 .337.273.609.609.609zM25.375 35.344c.337 0 .609-.273.609-.609 0-.337-.273-.609-.609-.609-.337 0-.609.273-.609.609 0 .337.273.609.609.609zM29.031 35.344c.337 0 .609-.273.609-.609 0-.337-.273-.609-.609-.609-.336 0-.609.273-.609.609 0 .337.273.609.609.609zM35.734 34.125c.337 0 .609-.273.609-.609 0-.337-.273-.609-.609-.609-.337 0-.609.273-.609.609 0 .337.273.609.609.609zM33.906 35.344c.337 0 .609-.273.609-.609 0-.337-.273-.609-.609-.609-.337 0-.609.273-.609.609 0 .337.273.609.609.609zM27.203 34.125c.337 0 .609-.273.609-.609 0-.337-.273-.609-.609-.609-.337 0-.609.273-.609.609 0 .337.273.609.609.609zM24.766 29.25h4.266v-.609c0-.12-.036-.238-.102-.338-.295-.441-.453-.96-.453-1.49 0-.531.158-1.049.453-1.49.06-.089.095-.193.101-.3.007-.107-.015-.214-.063-.31l-1.219-2.438c-.051-.101-.128-.186-.225-.246-.096-.059-.207-.091-.32-.091v-1.828c0-.162-.064-.317-.178-.431-.114-.114-.269-.178-.431-.178h-2.438c-.162 0-.317.064-.431.178-.114.114-.178.269-.178.431v1.828c-.113 0-.224.032-.32.091s-.174.145-.225.246l-1.219 2.438c-.048.096-.07.203-.063.31.007.107.042.211.101.3.295.441.453.96.453 1.49 0 .531-.158 1.049-.453 1.49-.067.1-.102.218-.102.338v.609h1.219v-.433c.349-.58.54-1.241.555-1.918.015-.677-.147-1.346-.469-1.941l.901-1.802h2.903l.609 1.219h-2.67v1.219h2.689c-.261.791-.261 1.646 0 2.437h-2.689v1.219zm0-8.531h1.219v1.219h-1.219v-1.219z" fill="#333"/></svg>