<svg width="866" height="378" viewBox="0 0 866 378" xmlns="http://www.w3.org/2000/svg" fill="none"><path fill="#3ED9B0" d="M860.152 319.829l4.95-4.95-4.95-4.95-4.95 4.95z"/><circle r="2.5" transform="matrix(-1 0 0 1 712.425 250.57)" fill="#4C73EB"/><circle r="2.5" transform="matrix(-1 0 0 1 363.862 46.036)" fill="#4C73EB"/><circle r="2.5" transform="matrix(-1 0 0 1 13.877 3.019)" fill="#4C73EB"/><circle r="6.5" transform="matrix(-1 0 0 1 7.406 370.618)" stroke="#3ED9B0"/><circle r="6.5" transform="matrix(-1 0 0 1 297.7 227.555)" stroke="#3ED9B0"/><circle r="6.5" transform="matrix(-1 0 0 1 787.429 77.937)" stroke="#3ED9B0"/><path fill="#FFAF49" d="M570.111 166.356l-4.95 4.95 4.95 4.95 4.95-4.95zM107.292 171.554l-4.95 4.95 4.95 4.95 4.95-4.95z"/></svg>