<svg width="293" height="440" viewBox="0 0 293 440" fill="none" xmlns="http://www.w3.org/2000/svg">
<g clip-path="url(#clip0)">
<path opacity="0.5" d="M150.564 401.012L97.0965 431.859C76.9929 443.427 41.9184 442.142 18.8206 428.432C-4.27721 415.151 -6.84363 394.586 13.26 383.018L66.7272 352.171C86.8308 340.603 121.905 341.889 145.003 355.598C168.101 369.308 170.667 389.445 150.564 401.012Z" fill="#D8C4C3"/>
<path opacity="0.5" d="M293 300.76L245.093 274.625L120.622 346.602L168.528 372.737L293 300.76Z" fill="#D8C4C3"/>
<path opacity="0.5" d="M10.2657 276.339L58.1723 249.776L182.216 321.753L134.737 348.316L10.2657 276.339Z" fill="#D8C4C3"/>
<path d="M129.177 152.95C119.339 127.244 106.934 88.6855 106.934 88.6855L97.5242 83.1159L94.9578 81.8306L79.5593 72.8335C79.5593 72.8335 67.1549 96.8257 57.3169 111.392C47.479 125.959 48.3344 139.669 48.3344 181.655C48.3344 223.642 48.3344 262.201 48.3344 262.201L94.9578 289.192L97.5242 290.477L138.159 314.041C138.159 314.041 138.159 275.482 138.159 233.496C138.159 191.509 138.587 178.656 129.177 152.95Z" fill="#DDC9C7"/>
<path d="M64.5884 22.2783C64.5884 22.2783 62.022 34.2744 53.895 44.5568C46.1957 54.8392 39.7797 55.2676 39.7797 55.2676L43.6293 66.4068C43.6293 66.4068 58.1724 65.9784 65.4439 54.8392C72.7154 43.6999 77.4206 37.7019 77.4206 37.7019L64.5884 22.2783Z" fill="#DDC9C7"/>
<path d="M106.934 33.8462L48.3345 0V14.1383C48.3345 14.1383 57.317 22.2785 66.7272 31.2756C76.1374 40.2726 79.5593 49.6982 79.5593 58.6952C79.5593 67.6923 79.5593 72.8335 79.5593 72.8335L107.362 88.6855L106.934 33.8462Z" fill="#FFB600"/>
<path d="M27.3752 0.857004C26.5197 0.000139321 25.2365 0.000139321 23.9533 0.857004C21.3869 2.1423 19.2482 6.42662 19.2482 9.85408C19.2482 11.5678 19.6759 12.8531 20.9591 13.71L33.7912 21.4218L39.7796 8.14035L27.3752 0.857004Z" fill="white"/>
<path d="M41.0628 11.568C41.0628 14.9955 38.9241 19.2798 36.3577 20.5651C33.7913 22.2788 31.6526 20.5651 31.6526 17.1376C31.6526 13.7102 33.7913 9.42586 36.3577 8.14057C38.9241 6.42684 41.0628 8.14057 41.0628 11.568Z" fill="#493130"/>
<path d="M21.8145 65.9791L40.2072 55.2683C40.2072 55.2683 36.7853 62.9801 31.6524 65.5507C26.5196 68.1213 21.8145 65.9791 21.8145 65.9791Z" fill="#DDC9C7"/>
<path d="M41.0627 71.9764L54.3226 64.2646L48.3343 60.8372L41.0627 68.1205V71.9764Z" fill="#DDC9C7"/>
<path d="M46.1956 32.989C46.1956 32.989 43.6292 44.9851 35.5022 55.2675C27.8029 65.5499 21.3868 65.9783 21.3868 65.9783L25.6642 77.546C25.6642 77.546 40.2073 77.1175 47.4788 65.9783C54.7504 54.8391 59.4555 48.841 59.4555 48.841L46.1956 32.989Z" fill="#F4EBEA"/>
<path d="M82.9809 47.9846L24.3809 14.1384V28.2767C24.3809 28.2767 33.3633 36.4169 42.7736 45.414C51.756 54.4111 55.6057 63.8366 55.6057 72.8336C55.6057 81.8307 55.6057 86.9719 55.6057 86.9719L83.4086 102.824L82.9809 47.9846Z" fill="#FFAF49"/>
<path d="M106.934 89.114L83.4087 103.252L114.206 328.608L138.159 314.469L106.934 89.114Z" fill="#DDC9C7"/>
<path d="M83.4088 103.252L106.934 89.1137V33.8459L82.9811 47.9842L83.4088 103.252Z" fill="#FFB600"/>
<path d="M105.223 167.089C95.3855 141.383 82.9811 102.824 82.9811 102.824L73.5709 97.2543L71.0045 95.969L55.606 86.9719C55.606 86.9719 43.2016 110.964 33.3636 125.531C23.9534 140.098 24.3811 154.236 24.3811 196.222C24.3811 238.209 24.3811 276.767 24.3811 276.767L71.0045 303.759L73.5709 305.044L114.206 328.608C114.206 328.608 114.206 290.049 114.206 248.062C114.206 206.076 114.634 192.795 105.223 167.089Z" fill="#F4EBEA"/>
<path d="M48.3341 0L24.3809 14.1383L82.9808 47.9844L106.934 33.8462L48.3341 0Z" fill="#FFCB87"/>
<path d="M94.9578 294.762L35.9301 260.487V158.52L94.9578 192.795V294.762Z" fill="#3F2A28"/>
<path d="M90.6804 195.794L39.7797 166.232V171.373L90.6804 200.935V195.794Z" fill="white"/>
<path d="M90.6804 178.657L39.7797 149.095V151.665L90.6804 181.227V178.657Z" fill="#DDC9C7"/>
<path d="M90.6804 172.23L39.7797 142.668V145.239L90.6804 174.801V172.23Z" fill="#DDC9C7"/>
<path d="M90.6804 207.79L39.7797 178.228V183.369L90.6804 212.931V207.79Z" fill="white"/>
<path d="M78.2758 221.928C76.1371 220.643 73.9984 220.215 71.8597 219.786C68.8655 208.647 56.4612 198.793 50.0451 210.789C47.0509 215.93 46.6232 222.785 47.9064 229.212C44.9122 233.496 45.34 239.922 46.6232 244.635C50.0451 258.773 67.5823 268.627 79.9867 258.345C89.3969 250.205 89.8247 228.783 78.2758 221.928ZM51.3283 218.072C52.1838 211.217 60.7385 207.362 66.2991 213.36C68.0101 215.073 69.2933 217.644 69.721 220.215C65.4436 220.215 61.1663 222.357 58.5998 225.356C56.0334 224.927 53.467 225.356 51.3283 226.641C51.3283 226.213 51.3283 225.784 51.3283 225.356C50.9006 222.785 50.9006 220.215 51.3283 218.072Z" fill="#FFAF49"/>
<path d="M85.9753 248.063C85.5475 245.921 84.692 243.35 82.1256 242.065C80.8424 241.208 78.7037 241.208 76.9928 241.208C76.9928 240.779 76.565 240.351 76.565 239.922C74.8541 236.495 71.4322 233.924 67.5826 234.353C57.7446 236.067 59.8833 248.491 63.7329 255.346C62.8774 256.203 62.022 257.488 62.022 258.345C60.311 263.915 68.0103 269.913 72.7154 272.055C80.8424 275.911 86.403 265.2 83.8366 258.774C85.5475 255.774 86.403 251.49 85.9753 248.063Z" fill="white"/>
<path d="M47.4787 199.221C44.9123 198.792 41.0627 204.791 45.7678 210.36C48.3342 212.931 53.0393 212.502 53.0393 208.218C53.467 204.362 51.3284 199.649 47.4787 199.221Z" fill="white"/>
<path d="M77.8483 219.357C75.7096 218.5 70.5767 221.928 74.4264 227.498C76.1373 230.068 80.4147 230.497 81.6979 226.641C82.9811 224.07 80.8424 220.643 77.8483 219.357Z" fill="white"/>
<path d="M180.505 94.2549C180.505 94.2549 177.939 109.25 169.812 128.958C162.112 148.237 155.696 155.949 155.696 155.949L159.546 162.804C159.546 162.804 174.089 145.238 181.361 125.959C188.632 106.679 193.337 95.1118 193.337 95.1118L180.505 94.2549Z" fill="#DDC9C7"/>
<path d="M218.574 55.2673L159.974 89.1135V103.252C159.974 103.252 168.956 101.11 178.366 99.3959C187.349 97.6821 191.199 102.823 191.199 111.82C191.199 120.817 191.199 125.959 191.199 125.959L219.001 110.107L218.574 55.2673Z" fill="#FFB600"/>
<path d="M232.261 140.097C223.279 126.816 211.73 104.537 211.73 104.537L203.175 109.678L201.037 110.964L194.193 124.245C194.193 124.245 149.28 170.087 140.298 194.079C131.315 217.643 132.171 229.639 132.171 268.198C132.171 306.757 132.171 341.889 132.171 341.889L240.388 278.481C240.388 278.481 240.388 243.349 240.388 204.79C240.388 166.231 240.816 153.378 232.261 140.097Z" fill="#CEB7B6"/>
<path d="M169.812 363.739L132.171 342.317L154.841 302.044L178.794 331.178L169.812 363.739Z" fill="#CEB7B6"/>
<path d="M269.475 161.519C260.492 148.237 240.389 120.818 240.389 120.818L215.152 135.384C215.152 135.384 186.921 182.083 177.939 205.647C168.956 229.211 169.812 251.061 169.812 289.62C169.812 328.179 169.812 363.31 169.812 363.31L278.029 299.902C278.029 299.902 278.029 264.771 278.029 226.212C278.029 187.653 278.029 175.229 269.475 161.519Z" fill="#F4EBEA"/>
<path d="M261.775 177.371C254.504 166.232 237.822 143.525 237.822 143.525L216.863 155.521C216.863 155.521 193.337 194.08 186.066 213.788C178.794 233.495 179.222 251.49 179.222 283.622C179.222 315.754 179.222 344.888 179.222 344.888L269.047 292.191C269.047 292.191 269.047 262.629 269.047 230.925C269.047 199.221 269.047 188.51 261.775 177.371Z" fill="#4C73EB"/>
<path d="M213.869 138.383L191.199 125.959L198.043 103.252L219.002 107.964L213.869 138.383Z" fill="#4C73EB"/>
<path d="M168.956 163.232L155.696 155.52L165.962 146.523L180.505 106.679L196.759 108.821L189.488 136.241L168.956 163.232Z" fill="#DDC9C7"/>
<path d="M193.765 101.966C193.765 101.966 191.199 116.961 183.072 136.669C175.372 155.949 168.956 163.661 168.956 163.661L172.806 170.515C172.806 170.515 187.349 152.95 194.62 133.67C201.892 114.391 206.597 102.823 206.597 102.823L193.765 101.966Z" fill="#F4EBEA"/>
<path d="M241.244 67.6917L182.644 101.538V115.676C182.644 115.676 191.627 113.534 201.037 111.82C210.019 110.106 213.869 115.248 213.869 124.245C213.869 133.67 213.869 138.383 213.869 138.383L241.672 122.531L241.244 67.6917Z" fill="#4C73EB"/>
<path d="M182.644 101.538L159.974 89.1133V103.252L182.644 115.676V101.538Z" fill="#4C73EB"/>
<path d="M167.673 98.1106C168.101 97.6822 168.956 97.6822 170.24 98.1106C171.95 99.3959 173.661 101.967 173.661 104.537C173.661 105.822 173.234 106.679 172.378 107.108L165.534 111.392L161.257 101.967L167.673 98.1106Z" fill="#3F2A28"/>
<path d="M159.974 104.537C159.974 107.108 161.685 110.107 163.396 110.963C165.107 112.249 166.818 110.963 166.818 108.393C166.818 105.822 165.107 102.823 163.396 101.966C161.685 101.11 159.974 102.395 159.974 104.537Z" fill="#493130"/>
<path d="M172.806 170.087L168.956 163.232L155.696 155.52L159.546 162.375L172.806 170.087Z" fill="#EDD9D9"/>
<path d="M241.244 67.6919L218.574 55.2673L159.974 89.1135L182.644 101.538L241.244 67.6919Z" fill="#A9BEFF"/>
<path d="M198.898 208.218L250.226 178.656V184.226L198.898 213.359V208.218Z" fill="white"/>
<path d="M198.898 218.929L250.226 189.367V194.508L198.898 224.07V218.929Z" fill="white"/>
<path d="M253.221 266.913C256.643 257.916 252.793 252.346 246.377 249.347C247.232 244.634 247.232 239.922 245.521 235.637C238.678 217.215 211.302 225.355 206.17 235.637C202.748 237.779 199.326 241.207 197.187 245.063C194.621 250.632 193.337 260.058 200.609 261.343C200.609 261.343 201.037 260.915 200.609 260.915C193.337 258.344 196.759 248.919 199.326 244.634C201.892 240.35 206.17 236.923 210.875 235.209C219.429 231.781 230.551 231.353 236.111 240.35C237.394 242.492 238.25 244.634 238.678 247.205C234.4 246.777 229.695 246.777 225.845 248.062C219.002 250.204 210.447 254.488 210.019 263.485C210.019 264.771 210.019 266.056 210.447 266.913C206.597 270.769 204.459 275.482 204.031 281.051C203.603 287.049 206.17 293.047 212.586 293.047C221.568 293.047 231.406 282.336 236.111 275.053C238.678 271.197 240.388 266.056 240.816 260.915C247.232 263.057 252.793 268.198 252.793 276.767C252.793 288.334 242.527 293.047 234.4 297.332C233.545 297.76 233.972 299.474 235.256 299.045C243.81 295.189 253.648 290.477 255.359 279.766C256.643 275.053 255.359 270.34 253.221 266.913ZM222.424 285.764C217.718 288.763 208.308 295.618 206.597 282.336C206.17 278.481 209.591 272.911 212.158 269.912C213.441 272.054 216.007 273.768 219.002 274.196C225.845 275.053 233.117 269.912 238.25 264.342C235.683 272.911 229.695 280.623 222.424 285.764Z" fill="white"/>
<path d="M211.302 284.907C209.591 286.192 208.308 287.477 207.025 289.191C206.169 287.906 205.314 286.62 204.886 284.907C201.464 275.481 204.886 263.485 214.296 261.343C217.291 260.486 220.285 261.771 222.851 263.913C210.447 249.775 189.488 262.628 192.91 285.335C193.765 290.905 197.187 296.903 201.037 299.473C197.615 308.47 199.753 317.468 213.869 318.324C214.724 318.324 214.724 317.467 213.869 317.039C201.037 312.755 204.458 304.186 205.314 301.616C205.314 301.616 220.712 306.757 230.978 297.331C247.66 281.908 222.851 276.338 211.302 284.907ZM231.834 286.192C233.545 289.191 227.984 293.047 220.712 293.475C215.152 293.904 209.591 291.762 208.736 290.905C209.591 290.048 212.585 286.192 218.146 284.478C222.423 282.764 229.267 281.908 231.834 286.192Z" fill="#493130"/>
<path d="M157.835 321.752C157.835 321.752 142.436 334.605 129.176 346.173C108.645 339.318 84.2641 340.175 68.8655 349.172L37.6407 367.166C23.9531 355.599 8.12684 343.174 8.12684 343.174C3.42173 350.457 -3.8498 378.734 6.41589 401.012C8.12684 407.867 14.1152 414.722 23.9531 420.72C45.7677 433.145 78.7035 434.859 97.5239 423.719L147.997 394.586C153.557 391.158 157.407 387.303 159.118 382.59C159.974 381.733 160.401 380.876 160.829 379.591C170.667 357.741 162.54 329.036 157.835 321.752Z" fill="#FFB600"/>
<path d="M147.569 350.029L97.0961 379.163C78.2757 389.874 44.9122 388.588 23.5253 376.164C1.71071 363.739 -0.427972 344.46 18.3925 333.32L68.4377 304.187C87.2582 293.476 120.622 294.762 142.009 307.186C164.251 319.611 166.39 338.89 147.569 350.029Z" fill="#FFCB87"/>
<path d="M60.7386 372.737C59.0276 370.166 50.4729 371.88 51.7561 375.307C52.6116 377.449 56.8889 377.449 58.5999 377.021C60.7386 376.593 62.0218 374.879 60.7386 372.737Z" fill="#FFB600"/>
<path d="M69.2934 316.183C67.5824 313.612 59.0277 315.326 60.3109 318.754C61.1664 320.896 65.4437 320.896 67.1547 320.467C69.2934 320.467 70.5766 318.325 69.2934 316.183Z" fill="#FFB600"/>
<path d="M90.2526 353.885C88.5416 351.315 79.9869 353.028 81.2701 356.456C82.1256 358.598 86.403 358.598 88.1139 358.17C90.2526 357.741 91.5358 356.027 90.2526 353.885Z" fill="#FFB600"/>
<path d="M97.0962 315.326C95.3853 312.755 86.8305 314.469 88.1137 317.897C88.9692 320.039 93.2466 320.039 94.9575 319.61C97.0962 319.61 98.3794 317.468 97.0962 315.326Z" fill="#FFB600"/>
<path d="M148.852 334.178C147.141 331.607 138.587 333.321 139.87 336.748C140.725 338.89 145.003 338.89 146.714 338.462C148.852 338.462 150.136 336.32 148.852 334.178Z" fill="#FFB600"/>
<path d="M119.338 345.316C117.627 342.746 109.073 344.459 110.356 347.887C111.211 350.029 115.489 350.029 117.2 349.601C119.338 349.172 121.049 347.03 119.338 345.316Z" fill="#FFB600"/>
<path d="M31.6525 342.746C29.9416 340.176 21.3868 341.889 23.0978 344.888C23.9533 347.031 28.2306 347.031 29.5138 346.602C31.6525 346.602 33.3635 344.46 31.6525 342.746Z" fill="#FFB600"/>
<path d="M139.014 318.325C137.303 315.755 128.749 317.468 130.032 320.896C130.887 323.038 135.165 323.038 136.876 322.609C139.014 322.181 140.725 320.039 139.014 318.325Z" fill="#FFB600"/>
<path d="M87.2582 336.748C81.6977 334.178 77.4203 338.462 77.4203 339.747C77.848 342.318 83.4086 341.889 85.1195 341.461C87.2582 341.032 90.2524 338.033 87.2582 336.748Z" fill="#FFB600"/>
<path d="M44.4845 356.028C41.4903 354.742 39.3516 356.885 39.7794 357.313C40.2071 358.598 42.7735 358.17 43.629 358.17C44.9122 358.17 46.1954 356.456 44.4845 356.028Z" fill="#FFB600"/>
<path d="M121.05 310.614C118.055 309.328 115.917 311.47 116.344 311.899C116.772 313.184 119.339 312.756 120.194 312.756C121.05 312.756 122.333 311.042 121.05 310.614Z" fill="#FFB600"/>
<path d="M107.362 363.739C104.368 362.453 102.229 364.595 102.657 365.024C103.084 366.309 105.651 365.881 106.506 365.881C107.362 365.881 108.645 364.595 107.362 363.739Z" fill="#FFB600"/>
<path d="M101.374 307.615C98.3796 306.329 96.2409 308.471 96.6686 308.9C97.0964 310.185 99.6628 309.757 100.518 309.757C101.374 309.757 102.657 308.471 101.374 307.615Z" fill="#FFB600"/>
<path d="M56.0333 326.465C53.0391 325.18 50.9004 327.322 51.3282 327.75C51.7559 329.036 54.3223 328.607 55.1778 328.607C56.0333 328.607 57.3165 327.322 56.0333 326.465Z" fill="#FFB600"/>
<path d="M29.5137 356.456C23.9532 353.885 19.6758 358.17 19.6758 359.455C20.1035 362.025 25.6641 361.597 27.3751 361.169C29.5137 360.74 32.5079 357.741 29.5137 356.456Z" fill="#FFB600"/>
<path d="M79.9869 374.879C74.4263 372.308 70.1489 376.592 70.1489 377.878C70.5767 380.448 76.1372 380.02 77.8482 379.591C79.9869 379.163 82.981 376.592 79.9869 374.879Z" fill="#FFB600"/>
<path d="M155.269 355.17C153.13 355.17 151.847 358.169 151.847 360.74C151.847 364.167 155.269 365.024 156.98 362.454C159.118 359.883 158.69 355.599 155.269 355.17Z" fill="#FDA32D"/>
<path d="M130.46 389.445C129.177 389.445 128.321 391.159 128.321 392.872C128.321 395.014 130.46 395.443 131.743 393.729C132.599 392.444 132.171 389.873 130.46 389.445Z" fill="#FDA32D"/>
<path d="M81.27 392.444C79.9868 392.444 79.1313 394.158 79.1313 395.871C79.1313 398.013 81.27 398.442 82.5532 396.728C83.4087 395.014 83.4087 392.444 81.27 392.444Z" fill="#FDA32D"/>
<path d="M35.502 400.156C36.7852 400.156 37.6407 401.869 37.6407 403.583C37.6407 405.725 35.502 406.154 34.2188 404.44C33.3633 402.726 33.3633 400.156 35.502 400.156Z" fill="#FDA32D"/>
<path d="M55.6059 393.301C56.8891 393.301 57.7446 395.015 57.7446 396.729C57.7446 398.871 55.6059 399.299 54.3227 397.586C53.4672 396.3 53.4672 393.73 55.6059 393.301Z" fill="#FDA32D"/>
<path d="M11.9763 392.444C13.2595 392.444 14.115 394.158 14.115 395.871C14.115 398.013 11.9763 398.442 10.6931 396.728C9.40991 395.014 9.83765 392.444 11.9763 392.444Z" fill="#FDA32D"/>
<path d="M124.044 374.45C122.761 374.45 121.905 376.163 121.905 377.877C121.905 380.019 124.044 380.448 125.327 378.734C126.182 377.02 125.755 374.45 124.044 374.45Z" fill="#FDA32D"/>
<path d="M151.847 373.593C149.28 370.166 145.858 374.45 145.858 376.164C145.858 378.306 147.569 379.163 149.28 378.735C151.419 377.878 153.13 375.307 151.847 373.593Z" fill="#FDA32D"/>
<path d="M116.344 377.878C113.778 374.45 110.356 378.734 110.356 380.448C110.356 382.59 112.067 383.447 113.778 383.019C115.489 382.162 117.628 379.591 116.344 377.878Z" fill="#FDA32D"/>
<path d="M102.229 406.583C99.6627 403.155 96.2408 407.439 96.2408 409.153C96.2408 411.295 97.9518 412.152 99.6627 411.724C101.801 410.867 103.512 408.296 102.229 406.583Z" fill="#FDA32D"/>
<path d="M66.299 419.007C68.0099 415.151 62.4494 414.294 61.1662 415.151C59.4552 416.008 59.4552 418.15 60.7384 419.436C62.4494 420.721 65.4435 421.149 66.299 419.007Z" fill="#FDA32D"/>
<path d="M17.9647 386.446C22.2421 386.446 20.5312 381.305 19.248 380.019C17.537 378.734 15.8261 379.591 15.3983 381.305C14.9706 383.447 15.8261 386.446 17.9647 386.446Z" fill="#FDA32D"/>
<path d="M43.6289 420.292C47.9063 420.292 46.1953 415.151 44.9121 413.866C43.2012 412.581 41.4902 413.437 41.0625 415.151C40.6348 417.293 41.4902 420.292 43.6289 420.292Z" fill="#FDA32D"/>
</g>
<defs>
<clipPath id="clip0">
<rect width="293" height="440" fill="white"/>
</clipPath>
</defs>
</svg>
