<svg width="1137" height="483" viewBox="0 0 1137 483" xmlns="http://www.w3.org/2000/svg" fill="none"><path fill="#3ED9B0" d="M142.8 268.665l4.95 4.95-4.95 4.95-4.95-4.95zM339.376 981.429l4.95 4.95-4.95 4.95-4.95-4.95zM784.146 816.673l4.95 4.95-4.95 4.95-4.95-4.95z"/><circle cx="131.5" cy="18.5" r="2.5" transform="rotate(-180 131.5 18.5)" fill="#4C73EB"/><circle cx="802.5" cy="480.5" r="2.5" transform="rotate(-180 802.5 480.5)" fill="#4C73EB"/><circle cx="990.5" cy="78.5" r="2.5" transform="rotate(-180 990.5 78.5)" fill="#4C73EB"/><circle cx="211" cy="440" r="6.5" transform="rotate(-180 211 440)" stroke="#3ED9B0"/><circle cx="7" cy="21" r="6.5" transform="rotate(-180 7 21)" stroke="#3ED9B0"/><circle cx="987" cy="250" r="6.5" transform="rotate(-180 987 250)" stroke="#3ED9B0"/><circle cx="852" cy="7" r="6.5" transform="rotate(-180 852 7)" stroke="#3ED9B0"/><path fill="#FFAF49" d="M60.068-611.541l-4.95-4.95 4.95-4.95 4.95 4.95zM21.177-241.724l-4.95-4.95 4.95-4.95 4.95 4.95zM-448.342-697.101l-4.95-4.95 4.95-4.95 4.95 4.95z"/></svg>