<svg width="369" height="410" viewBox="0 0 369 410" fill="none" xmlns="http://www.w3.org/2000/svg">
<g clip-path="url(#clip0)">
<path opacity="0.5" d="M76.652 346.441L186.282 410L270.065 361.212L160.435 297.653L76.652 346.441Z" fill="#D8C4C3"/>
<path opacity="0.5" d="M117.207 276.168C146.742 276.168 170.685 263.342 170.685 247.521C170.685 231.7 146.742 218.875 117.207 218.875C87.6715 218.875 63.7284 231.7 63.7284 247.521C63.7284 263.342 87.6715 276.168 117.207 276.168Z" fill="#D8C4C3"/>
<path opacity="0.5" d="M53.4783 322.718C83.0135 322.718 106.957 309.893 106.957 294.072C106.957 278.251 83.0135 265.426 53.4783 265.426C23.943 265.426 0 278.251 0 294.072C0 309.893 23.943 322.718 53.4783 322.718Z" fill="#D8C4C3"/>
<path opacity="0.5" d="M200.989 299.443L286.109 348.679C299.924 356.736 323.989 355.84 340.033 346.441L351.174 340.174C367.218 330.775 369 316.899 355.185 308.843L270.065 259.607C256.25 251.55 232.185 252.445 216.141 261.845L205 268.111C188.957 277.063 187.174 291.386 200.989 299.443Z" fill="#D8C4C3"/>
<path d="M115.424 200.971C112.305 204.104 112.305 207.685 115.424 210.818C122.109 218.428 141.272 217.98 172.022 230.513C209.011 245.731 220.152 264.53 222.826 269.454L215.696 274.825C215.696 274.825 207.229 252.445 164.446 234.989C133.696 222.456 114.979 222.904 107.848 215.294C102.946 209.923 105.62 204.104 115.424 200.971Z" fill="#472F2E"/>
<path d="M172.022 230.513C141.272 217.98 122.555 218.428 115.424 210.819C112.305 207.685 112.305 204.105 115.424 200.971C119.881 199.629 125.229 198.733 132.359 198.733C146.174 198.733 170.685 204.105 197.87 222.456C216.142 234.989 235.75 259.607 235.75 259.607L222.381 269.454C220.153 264.978 209.011 246.179 172.022 230.513Z" fill="#593D3D"/>
<path d="M200.098 285.568V274.378L204.555 275.273C206.337 273.035 209.011 270.797 212.577 269.006L222.827 263.188C237.533 254.683 259.816 253.788 272.74 260.95L351.174 306.605C352.511 307.5 353.848 308.395 355.185 309.29L360.087 310.185V321.375H359.642C358.75 326.299 354.74 331.223 347.609 335.699L337.359 341.517C322.653 350.022 300.37 350.917 287.446 343.755L208.566 298.1C203.218 294.52 200.544 290.491 200.098 285.568Z" fill="#472F2E"/>
<path d="M208.566 288.701L287 334.356C299.924 341.965 322.207 340.623 336.913 332.118L347.163 326.3C361.87 317.795 363.653 304.815 350.729 297.206L272.294 251.551C259.37 243.941 237.087 245.284 222.381 253.789L212.131 259.607C197.424 268.112 196.087 281.092 208.566 288.701Z" fill="#593D3D"/>
<path d="M349.392 256.474C349.392 256.474 348.5 251.55 348.055 246.627C348.055 243.941 344.49 234.094 344.49 234.094C344.49 234.094 343.598 240.36 343.153 247.97C342.707 252.893 338.25 265.873 338.25 265.873C338.25 265.873 338.25 260.055 337.359 253.788C336.468 247.522 332.011 243.494 332.011 243.494C332.011 243.494 329.337 253.341 326.663 258.712C323.544 264.531 319.979 269.454 319.979 269.454C319.979 269.454 317.305 261.845 319.087 256.474C320.87 250.655 319.087 247.074 319.087 247.074C319.087 247.074 314.185 254.236 311.511 256.921C308.837 259.607 305.718 269.454 305.718 269.454C305.718 269.454 305.718 261.845 305.718 256.921C305.718 251.55 302.598 241.256 302.598 241.256C302.598 241.256 301.261 248.417 299.033 252.893C296.359 258.712 291.011 264.531 291.011 264.531C291.011 264.531 293.685 256.026 293.685 251.103C293.24 243.941 290.566 234.542 290.566 234.542C290.566 234.542 289.229 241.703 285.218 247.522C282.99 250.655 276.305 256.474 276.305 256.474C276.305 256.474 277.196 249.312 278.087 245.284C279.424 239.913 283.435 235.437 283.435 235.437C283.435 235.437 275.859 237.675 271.848 240.808C268.283 243.494 261.598 251.103 261.598 251.103C261.598 251.103 262.935 243.941 264.718 237.675C266.5 231.408 262.49 221.561 262.49 221.561C262.49 221.561 260.707 229.17 257.142 234.542C253.576 239.913 250.903 243.941 250.903 243.941C250.903 243.941 251.348 234.542 250.903 229.17C250.457 222.456 245.555 217.085 245.555 217.085C245.555 217.085 245.109 227.38 244.218 230.066C242.881 232.751 238.424 241.256 238.424 241.256C238.424 241.256 239.316 233.199 238.424 226.932C237.533 221.561 233.968 214.847 233.968 214.847C233.968 214.847 234.413 221.561 232.185 226.037C230.403 230.513 225.946 234.989 225.946 234.989C225.946 234.989 223.718 226.037 225.055 220.666C226.392 214.4 227.729 211.266 227.729 211.266C227.729 211.266 223.718 213.504 217.924 218.876C211.685 224.247 209.011 230.961 209.011 230.961C209.011 230.961 208.566 224.247 206.783 217.98C204.555 209.924 198.316 198.734 198.316 198.734C198.316 198.734 205 206.79 207.229 212.162C209.903 217.533 210.348 222.456 210.348 222.456C210.348 222.456 213.022 214.847 215.25 206.79C217.924 198.734 218.37 190.677 218.37 190.677C218.37 190.677 222.826 196.943 224.163 200.972C225.055 205 225.055 207.686 225.055 207.686C225.055 207.686 230.848 201.419 233.076 196.496C235.305 191.572 237.087 186.201 237.087 186.201C237.087 186.201 240.653 193.81 241.098 198.734C241.544 203.657 243.326 206.79 243.326 206.79C243.326 206.79 245.555 196.943 245.555 190.677C245.555 184.411 245.555 181.277 245.555 181.277C245.555 181.277 250.011 189.334 250.903 193.81C252.24 198.286 252.24 200.972 252.24 200.972C252.24 200.972 255.805 195.153 259.37 191.125C262.935 187.096 267.837 183.515 267.837 183.515C267.837 183.515 266.055 186.201 265.609 189.334C265.163 192.915 266.946 199.181 266.946 199.181C266.946 199.181 272.294 195.6 275.413 192.915C278.533 190.229 281.653 183.963 281.653 183.963C281.653 183.963 283.881 189.334 284.326 192.467C284.772 196.943 282.544 203.21 282.544 203.21C282.544 203.21 287 199.181 291.011 196.943C295.022 194.258 294.131 187.096 294.131 187.096C294.131 187.096 297.25 190.229 299.479 195.153C301.261 199.181 301.261 209.028 301.261 209.028C301.261 209.028 306.609 193.362 314.185 190.677C313.739 203.657 315.522 212.609 315.522 212.609C315.522 212.609 316.413 207.238 319.979 201.419C323.098 196.048 327.555 194.258 327.555 194.258C327.555 194.258 327.109 198.286 327.109 204.105C327.555 210.371 326.663 217.533 326.663 217.533C326.663 217.533 331.12 213.952 333.794 209.924C337.805 204.105 339.142 197.838 339.142 197.838C339.142 197.838 340.924 205.448 341.37 209.924C341.816 216.638 340.479 225.142 340.479 225.142C340.479 225.142 344.49 216.19 351.174 211.266C356.968 206.79 362.316 207.686 362.316 207.686C362.316 207.686 358.75 212.609 356.968 215.742C354.294 221.561 354.739 228.723 354.739 228.723C354.739 228.723 362.761 218.428 369.892 217.98C369.892 217.98 366.326 223.799 363.207 233.199C352.066 239.465 349.392 256.474 349.392 256.474Z" fill="#EDDCDA"/>
<path d="M354.74 309.29C354.74 309.29 351.62 312.423 342.261 317.795C332.903 323.166 322.207 329.88 305.718 328.985C289.674 328.089 278.979 319.585 263.381 310.185C247.783 300.786 217.924 282.882 210.348 275.273C202.772 267.664 203.218 245.731 201.881 231.408C200.544 217.085 197.87 198.733 197.87 198.733C197.87 198.733 204.109 209.923 206.337 217.98C208.12 224.246 208.566 230.96 208.566 230.96C208.566 230.96 211.685 224.247 217.479 218.875C223.718 213.504 227.283 211.266 227.283 211.266C227.283 211.266 225.946 214.399 224.609 220.666C223.272 226.037 225.5 234.989 225.5 234.989C225.5 234.989 229.511 230.513 231.74 226.037C233.522 221.561 233.522 214.847 233.522 214.847C233.522 214.847 237.087 221.561 237.979 226.932C239.316 232.751 237.979 241.255 237.979 241.255C237.979 241.255 242.435 232.751 243.772 230.065C245.109 227.38 245.109 217.085 245.109 217.085C245.109 217.085 249.566 222.904 250.457 229.17C250.903 234.989 250.457 243.941 250.457 243.941C250.457 243.941 253.131 239.912 256.696 234.541C260.261 229.17 262.044 221.561 262.044 221.561C262.044 221.561 266.055 231.408 264.272 237.674C262.49 243.941 261.153 251.102 261.153 251.102C261.153 251.102 267.392 243.493 271.403 240.808C275.414 237.674 282.99 235.436 282.99 235.436C282.99 235.436 279.424 239.912 277.642 245.284C276.305 249.76 275.859 256.474 275.859 256.474C275.859 256.474 282.544 250.655 284.772 247.522C288.783 241.703 290.12 234.541 290.12 234.541C290.12 234.541 292.794 243.493 293.24 251.102C293.24 256.026 290.566 264.53 290.566 264.53C290.566 264.53 295.914 258.712 298.587 252.893C300.816 247.969 302.153 241.255 302.153 241.255C302.153 241.255 305.272 251.55 305.272 256.921C305.272 262.292 305.272 269.454 305.272 269.454C305.272 269.454 308.837 259.607 311.066 256.921C313.74 254.236 318.642 247.074 318.642 247.074C318.642 247.074 320.424 250.655 318.642 256.474C316.859 262.292 319.533 269.454 319.533 269.454C319.533 269.454 323.098 264.53 326.218 258.712C329.337 252.893 331.566 243.493 331.566 243.493C331.566 243.493 336.022 247.074 336.914 253.788C337.805 260.054 337.805 265.873 337.805 265.873C337.805 265.873 342.261 252.893 342.707 247.969C343.153 240.36 344.044 234.094 344.044 234.094C344.044 234.094 347.609 243.493 347.609 246.626C348.055 251.55 348.946 256.474 348.946 256.474C348.946 256.474 351.62 239.465 361.87 232.751C360.087 237.227 358.75 242.598 357.859 248.417C355.185 266.321 354.74 309.29 354.74 309.29Z" fill="#CEB7B6"/>
<path d="M90.4676 313.319L185.837 368.373L258.924 326.299L163.555 270.797L90.4676 313.319Z" fill="#FFCB87"/>
<path d="M90.4676 346.889L185.837 401.943L258.924 359.869L163.555 304.367L90.4676 346.889Z" fill="#FFCB87"/>
<path d="M185.837 368.373L258.924 326.299V351.364L185.837 393.439V368.373Z" fill="#FFAF49"/>
<path d="M185.837 368.373V393.439L90.4676 338.384V313.319L185.837 368.373Z" fill="#FDA32D"/>
<path d="M185.837 393.439L258.924 351.365V359.869L185.837 401.943V393.439Z" fill="#37C7A1"/>
<path d="M185.837 401.944L90.4676 346.889V338.385L185.837 393.439V401.944Z" fill="#3ED9B0"/>
<path d="M197.424 350.022C199.207 350.47 202.772 350.022 203.663 348.232C205 345.098 196.978 343.756 195.642 345.994C193.859 347.784 195.642 349.574 197.424 350.022Z" fill="#FDA32D"/>
<path d="M138.152 298.995C139.935 299.443 143.5 298.995 144.391 297.205C145.728 294.072 137.707 292.729 136.37 294.967C134.587 296.757 136.37 298.548 138.152 298.995Z" fill="#FDA32D"/>
<path d="M224.609 321.823C226.392 322.27 229.957 321.823 230.848 320.032C232.185 316.899 224.163 315.556 222.826 317.794C221.044 319.585 222.381 321.375 224.609 321.823Z" fill="#FDA32D"/>
<path d="M211.685 332.566C212.576 332.566 214.805 333.013 215.25 331.67C215.25 331.223 213.468 328.985 210.794 330.328C209.011 330.775 210.348 332.118 211.685 332.566Z" fill="#FDA32D"/>
<path d="M146.174 333.908C147.065 333.908 149.294 334.356 149.739 333.013C149.739 332.566 147.957 330.328 145.283 331.67C143.946 332.118 145.283 333.461 146.174 333.908Z" fill="#FDA32D"/>
<path d="M226.837 334.803C228.62 335.251 233.522 335.251 233.968 333.013C233.968 331.67 229.957 328.089 224.609 330.327C221.489 331.67 224.609 334.356 226.837 334.803Z" fill="#FDA32D"/>
<path d="M179.598 352.708C181.381 353.155 186.283 353.155 186.728 350.917C186.728 349.574 182.718 345.994 177.37 348.232C174.696 349.574 177.37 352.26 179.598 352.708Z" fill="#FDA32D"/>
<path d="M145.283 319.585C147.065 320.033 150.63 319.585 151.522 317.795C152.859 314.661 144.837 313.319 143.5 315.557C141.717 317.795 143.054 319.585 145.283 319.585Z" fill="#FDA32D"/>
<path d="M184.055 330.775C185.837 331.223 189.402 330.775 190.294 328.985C191.631 325.851 183.609 324.509 182.272 326.747C180.489 328.537 181.826 330.327 184.055 330.775Z" fill="#FDA32D"/>
<path d="M172.468 291.386C174.25 291.834 177.816 291.386 178.707 289.596C180.044 286.463 172.022 285.12 170.685 287.358C168.903 289.148 170.239 290.939 172.468 291.386Z" fill="#FDA32D"/>
<path d="M159.098 302.129C159.989 302.129 162.218 302.576 162.663 301.233C162.663 300.786 160.881 298.548 158.207 299.891C156.87 300.786 158.207 302.129 159.098 302.129Z" fill="#FDA32D"/>
<path d="M159.989 335.251C160.881 335.251 163.109 335.699 163.555 334.356C163.555 333.908 161.772 331.67 159.098 333.013C157.316 333.461 159.098 334.804 159.989 335.251Z" fill="#FDA32D"/>
<path d="M200.544 320.032C201.435 320.032 203.663 320.48 204.109 319.137C204.109 318.69 202.326 316.452 199.653 317.794C197.87 318.242 199.207 319.585 200.544 320.032Z" fill="#FDA32D"/>
<path d="M111.413 312.423C112.305 312.423 114.533 312.871 114.979 311.528C114.979 311.081 113.196 308.843 110.522 310.185C108.739 311.081 110.076 312.423 111.413 312.423Z" fill="#FDA32D"/>
<path d="M174.25 304.814C176.033 305.262 180.935 305.262 181.381 303.024C181.381 301.681 177.37 298.1 172.022 300.338C169.348 301.681 172.468 304.367 174.25 304.814Z" fill="#FDA32D"/>
<path d="M197.424 309.738C199.207 310.185 204.109 310.185 204.555 307.947C204.555 306.605 200.544 303.024 195.196 305.262C192.522 306.605 195.196 309.29 197.424 309.738Z" fill="#FDA32D"/>
<path d="M127.457 322.27C129.24 322.718 134.142 322.718 134.587 320.48C135.033 319.137 130.576 315.557 125.229 317.795C122.555 319.137 125.229 321.823 127.457 322.27Z" fill="#FDA32D"/>
<path d="M200.544 379.116C199.652 380.906 197.424 380.011 197.424 378.221C197.424 376.878 198.315 374.64 199.652 375.088C201.435 375.088 201.881 377.773 200.544 379.116Z" fill="#FDA32D"/>
<path d="M225.946 357.631C225.054 358.974 222.826 358.526 222.826 356.736C222.826 355.393 223.717 353.155 225.054 353.603C226.837 353.603 226.837 355.841 225.946 357.631Z" fill="#FDA32D"/>
<path d="M242.435 354.945C241.544 356.288 239.315 355.84 239.315 354.05C239.315 352.707 240.207 350.469 241.544 350.917C243.326 350.917 243.326 353.602 242.435 354.945Z" fill="#FDA32D"/>
<path d="M135.033 351.812C135.924 353.603 138.152 352.707 138.152 350.917C138.152 349.574 137.261 347.336 135.924 347.784C134.142 347.784 134.142 350.022 135.033 351.812Z" fill="#FFB049"/>
<path d="M120.772 342.412C121.663 344.203 123.891 343.308 123.891 341.517C123.891 340.174 123 337.936 121.663 338.384C119.88 338.384 119.88 340.622 120.772 342.412Z" fill="#FFB049"/>
<path d="M164 371.954C164.892 373.745 167.12 372.85 167.12 371.059C167.12 369.716 166.229 367.478 164.892 367.926C163.109 367.926 163.109 370.164 164 371.954Z" fill="#FFB049"/>
<path d="M145.729 355.393C147.511 356.288 149.294 354.945 149.294 353.155C149.294 351.812 146.174 347.784 143.946 350.917C142.163 352.707 143.946 354.945 145.729 355.393Z" fill="#FFB049"/>
<path d="M101.609 337.936C103.392 338.832 105.174 337.489 105.174 335.698C105.174 334.356 102.055 330.327 99.8264 333.46C98.4894 334.803 100.272 337.041 101.609 337.936Z" fill="#FFB049"/>
<path d="M177.37 382.696C179.152 383.591 180.935 382.249 180.935 380.458C180.935 379.115 177.815 375.087 175.587 378.22C173.805 380.011 175.587 382.249 177.37 382.696Z" fill="#FFB049"/>
<path d="M213.468 363.897C213.022 362.107 211.239 361.211 209.457 362.554C208.12 363.449 206.783 368.373 210.794 368.373C213.022 368.373 213.913 365.687 213.468 363.897Z" fill="#FDA32D"/>
<path d="M247.783 342.86C247.337 341.07 245.555 340.174 243.772 341.517C242.435 342.412 241.098 347.336 245.109 347.336C247.337 347.336 248.228 344.65 247.783 342.86Z" fill="#FDA32D"/>
<path d="M161.772 123.09V76.5396H74.4237V182.62C120.772 203.21 134.587 151.288 161.772 123.09Z" fill="#3ED9B0"/>
<path d="M118.098 267.664C142.163 267.664 161.772 257.369 161.772 244.388V123.089C134.587 151.736 120.326 203.657 74.4237 182.62V244.388C74.4237 256.921 94.0324 267.664 118.098 267.664Z" fill="#37C7A1"/>
<path d="M144.391 140.546C137.261 143.679 127.902 145.47 118.098 145.47C94.0324 145.47 74.4237 135.175 74.4237 122.195V190.677C74.4237 203.657 94.0324 213.952 118.098 213.952C127.902 213.952 137.261 212.162 144.391 209.029V140.546Z" fill="#3F2A28"/>
<path d="M132.359 154.422C127.902 155.317 123 155.764 118.098 155.764C94.0324 155.764 74.4237 145.47 74.4237 132.489V144.574C74.4237 157.555 94.0324 167.85 118.098 167.85C123 167.85 127.902 167.402 132.359 166.507V154.422Z" fill="white"/>
<path d="M159.989 69.8255C159.989 69.8255 159.543 68.9303 158.652 67.5875C158.206 67.1399 158.206 67.1399 157.761 66.6923C154.641 62.2163 147.065 54.6072 132.359 50.5788C127.456 49.236 124.337 50.5788 122.554 53.2644C120.772 53.2644 119.435 52.8168 117.652 52.8168C115.869 52.8168 114.087 52.8168 112.75 53.2644C111.413 50.5788 108.293 49.236 102.946 50.5788C81.9999 56.3976 75.7608 69.8255 75.7608 69.8255C74.8695 72.0635 73.9782 73.8539 73.9782 76.0919C73.9782 89.0722 93.5869 99.367 117.652 99.367C141.717 99.367 161.326 89.0722 161.326 76.0919C161.772 74.3015 160.88 72.0635 159.989 69.8255Z" fill="#37C7A1"/>
<path d="M118.098 48.3408C103.391 48.3408 91.3587 54.6072 91.3587 62.664C91.3587 70.7207 103.391 76.9871 118.098 76.9871C132.804 76.9871 144.837 70.7207 144.837 62.664C144.837 54.6072 132.804 48.3408 118.098 48.3408Z" fill="#3ED9B0"/>
<path d="M97.152 38.4939V55.9502C97.152 58.1882 98.4889 59.9786 100.272 61.3214V47.8935C100.272 46.9983 100.717 46.5507 101.609 46.9983C102.054 47.4459 102.945 48.3411 102.945 49.2363V63.1118C104.728 64.007 106.956 64.9022 109.185 65.7974V51.9218C109.185 51.0267 109.63 50.5791 110.522 50.5791C111.413 50.5791 111.859 51.0267 111.859 51.9218V66.245C113.641 66.6926 115.869 66.6926 118.098 66.6926V52.3694C118.098 51.4742 118.543 51.0266 119.435 51.0266C120.326 51.0266 120.772 51.4742 120.772 52.3694V67.1402C123 67.1402 125.228 66.6926 127.011 66.245V51.4742C127.011 50.5791 127.456 50.1315 128.348 50.1315C129.239 50.1315 129.685 50.5791 129.685 51.4742V65.3498C131.467 64.9022 133.25 64.007 135.032 63.1118V49.6839C135.032 48.7887 135.478 47.8935 136.369 47.4459C136.815 46.9983 137.706 47.4459 137.706 48.3411V61.3214C139.489 59.531 140.38 58.1882 140.38 55.9502V38.4939H97.152Z" fill="#CEB7B6"/>
<path d="M118.543 51.9219C117.652 51.9219 117.206 52.3695 117.206 53.2647V67.5878C117.652 67.5878 117.652 67.5878 118.098 67.5878C118.989 67.5878 119.435 67.5878 119.88 67.5878V53.7123C119.88 52.3695 119.435 51.9219 118.543 51.9219Z" fill="#DEC9C5"/>
<path d="M110.076 51.0269C109.185 51.0269 108.739 51.4745 108.739 52.3697V66.2452C109.63 66.6928 110.522 66.6928 111.413 66.6928V52.3697C111.413 51.4745 110.522 51.0269 110.076 51.0269Z" fill="#DEC9C5"/>
<path d="M127.456 50.5789C126.565 50.5789 126.119 51.0265 126.119 51.9217V66.6924C127.011 66.2448 127.902 66.2448 128.793 65.7972V51.9217C128.793 51.0265 128.348 50.5789 127.456 50.5789Z" fill="#DEC9C5"/>
<path d="M135.478 47.4456C135.033 47.8932 134.141 48.7884 134.141 49.6836V63.1116C135.033 62.664 135.924 61.7688 136.37 61.3212V48.3408C136.37 47.4456 135.924 46.998 135.478 47.4456Z" fill="#DEC9C5"/>
<path d="M101.163 47.4456C100.717 46.998 99.8258 47.4456 99.8258 48.3408V61.7688C100.717 62.2164 101.163 63.1115 102.054 63.5591V49.6836C102.5 48.7884 102.054 47.8932 101.163 47.4456Z" fill="#DEC9C5"/>
<path d="M118.098 27.3037C106.511 27.3037 97.152 32.2273 97.152 38.4937C97.152 44.76 106.511 49.6836 118.098 49.6836C129.685 49.6836 139.043 44.76 139.043 38.4937C139.043 32.2273 129.685 27.3037 118.098 27.3037Z" fill="#F4EBEA"/>
<path d="M118.097 27.3037C109.63 27.3037 102.5 31.3321 102.5 35.8081C102.5 40.2841 109.63 44.3124 118.543 44.3124C127.456 44.3124 134.587 40.2841 134.587 35.8081C134.587 31.3321 127.011 27.3037 118.097 27.3037Z" fill="#CEB7B6"/>
<path d="M130.576 6.26611L134.141 35.8076H102.5L106.956 6.26611H130.576Z" fill="#CEB7B6"/>
<path d="M118.543 0C112.304 0 106.956 2.68559 106.956 6.26638C106.956 9.84716 112.304 12.5328 118.543 12.5328C125.228 12.5328 130.13 9.84716 130.13 6.26638C130.576 2.68559 125.228 0 118.543 0Z" fill="#DEC9C5"/>
<path d="M99.3803 145.917V290.044C99.3803 303.472 78.8803 314.662 53.4781 314.662C28.0759 314.662 7.57593 303.472 7.57593 290.044V145.917H99.3803Z" fill="#6E8FF4"/>
<path d="M25.402 186.201C32.9781 189.335 42.7824 191.125 53.0324 191.125C78.4346 191.125 98.9346 179.935 98.9346 166.507V269.007C98.9346 282.435 78.4346 293.625 53.0324 293.625C42.7824 293.625 32.9781 291.835 25.402 288.701V186.201V186.201Z" fill="#3F2A28"/>
<path d="M35.6522 205C41 206.343 47.2391 207.238 53.4782 207.238C78.8804 207.238 99.3804 196.048 99.3804 182.62V190.677C99.3804 204.105 78.8804 215.295 53.4782 215.295C47.2391 215.295 41.4456 214.4 35.6522 213.057V205Z" fill="white"/>
<path d="M9.35866 139.651C9.35866 139.651 9.80431 138.756 10.6956 137.413C11.1413 136.965 11.1413 136.965 11.5869 136.518C14.7065 132.042 22.7282 123.537 38.326 119.509C43.6739 118.166 46.7934 119.509 48.576 122.194C50.3587 122.194 52.1413 121.747 53.9239 121.747C55.7065 121.747 57.4891 121.747 59.2717 122.194C61.0543 119.509 64.1739 117.718 69.5217 119.509C91.3587 125.775 98.4891 139.651 98.4891 139.651C99.826 141.889 100.272 144.127 100.272 146.365C100.272 159.793 79.7717 170.983 54.3695 170.983C28.9674 170.983 8.46736 159.793 8.46736 146.365C7.1304 144.127 8.0217 141.889 9.35866 139.651Z" fill="#4C73EB"/>
<path d="M79.7716 110.557L85.5651 133.384H20.9455L26.739 108.766L79.7716 110.557Z" fill="#FDA32D"/>
<path d="M53.0325 117.718C70.8586 117.718 85.5651 125.327 85.5651 135.175C85.5651 144.574 70.8586 152.631 53.0325 152.631C35.2064 152.631 20.4999 145.022 20.4999 135.175C20.4999 125.775 35.2064 117.718 53.0325 117.718Z" fill="#FDA32D"/>
<path d="M53.0323 96.6814C67.7388 96.6814 79.7714 102.948 79.7714 111.005C79.7714 119.061 67.7388 125.328 53.0323 125.328C38.3258 125.328 26.2932 119.061 26.2932 111.005C26.7388 102.948 38.3258 96.6814 53.0323 96.6814Z" fill="#FFCB87"/>
<path opacity="0.5" d="M53.4782 98.4714C65.5108 98.4714 75.3151 103.395 75.3151 109.661C75.3151 115.928 65.5108 120.851 53.4782 120.851C41.4456 120.851 31.6412 115.928 31.6412 109.661C31.6412 103.843 41.4456 98.4714 53.4782 98.4714Z" fill="#FDA32D"/>
</g>
<defs>
<clipPath id="clip0">
<rect width="369" height="410" fill="white"/>
</clipPath>
</defs>
</svg>
