<svg width="369" height="410" xmlns="http://www.w3.org/2000/svg" fill="none"><g clip-path="url(#a)"><path opacity=".5" d="M76.652 346.441l109.63 63.559 83.783-48.788-109.63-63.559-83.783 48.788zm40.555-70.273c29.535 0 53.478-12.826 53.478-28.647 0-15.821-23.943-28.646-53.478-28.646s-53.479 12.825-53.479 28.646c0 15.821 23.943 28.647 53.479 28.647zM53.478 322.718c29.535 0 53.479-12.825 53.479-28.646 0-15.821-23.944-28.646-53.479-28.646s-53.478 12.825-53.478 28.646c0 15.821 23.943 28.646 53.478 28.646zm147.511-23.275l85.12 49.236c13.815 8.057 37.88 7.161 53.924-2.238l11.141-6.267c16.044-9.399 17.826-23.275 4.011-31.331l-85.12-49.236c-13.815-8.057-37.88-7.162-53.924 2.238l-11.141 6.266c-16.043 8.952-17.826 23.275-4.011 31.332z" fill="#D8C4C3"/><path d="M115.424 200.971c-3.119 3.133-3.119 6.714 0 9.847 6.685 7.61 25.848 7.162 56.598 19.695 36.989 15.218 48.13 34.017 50.804 38.941l-7.13 5.371s-8.467-22.38-51.25-39.836c-30.75-12.533-49.467-12.085-56.598-19.695-4.902-5.371-2.228-11.19 7.576-14.323z" fill="#472F2E"/><path d="M172.022 230.513c-30.75-12.533-49.467-12.085-56.598-19.694-3.119-3.134-3.119-6.714 0-9.848 4.457-1.342 9.805-2.238 16.935-2.238 13.815 0 38.326 5.372 65.511 23.723 18.272 12.533 37.88 37.151 37.88 37.151l-13.369 9.847c-2.228-4.476-13.37-23.275-50.359-38.941z" fill="#593D3D"/><path d="M200.098 285.568v-11.19l4.457.895c1.782-2.238 4.456-4.476 8.022-6.267l10.25-5.818c14.706-8.505 36.989-9.4 49.913-2.238l78.434 45.655 4.011 2.685 4.902.895v11.19h-.445c-.892 4.924-4.902 9.848-12.033 14.324l-10.25 5.818c-14.706 8.505-36.989 9.4-49.913 2.238l-78.88-45.655c-5.348-3.58-8.022-7.609-8.468-12.532z" fill="#472F2E"/><path d="M208.566 288.701l78.434 45.655c12.924 7.609 35.207 6.267 49.913-2.238l10.25-5.818c14.707-8.505 16.49-21.485 3.566-29.094l-78.435-45.655c-12.924-7.61-35.207-6.267-49.913 2.238l-10.25 5.818c-14.707 8.505-16.044 21.485-3.565 29.094z" fill="#593D3D"/><path d="M349.392 256.474s-.892-4.924-1.337-9.847c0-2.686-3.565-12.533-3.565-12.533s-.892 6.266-1.337 13.876c-.446 4.923-4.903 17.903-4.903 17.903s0-5.818-.891-12.085c-.891-6.266-5.348-10.294-5.348-10.294s-2.674 9.847-5.348 15.218c-3.119 5.819-6.684 10.742-6.684 10.742s-2.674-7.609-.892-12.98c1.783-5.819 0-9.4 0-9.4s-4.902 7.162-7.576 9.847c-2.674 2.686-5.793 12.533-5.793 12.533v-12.533c0-5.371-3.12-15.665-3.12-15.665s-1.337 7.161-3.565 11.637c-2.674 5.819-8.022 11.638-8.022 11.638s2.674-8.505 2.674-13.428c-.445-7.162-3.119-16.561-3.119-16.561s-1.337 7.161-5.348 12.98c-2.228 3.133-8.913 8.952-8.913 8.952s.891-7.162 1.782-11.19c1.337-5.371 5.348-9.847 5.348-9.847s-7.576 2.238-11.587 5.371c-3.565 2.686-10.25 10.295-10.25 10.295s1.337-7.162 3.12-13.428c1.782-6.267-2.228-16.114-2.228-16.114s-1.783 7.609-5.348 12.981l-6.239 9.399s.445-9.399 0-14.771c-.446-6.714-5.348-12.085-5.348-12.085s-.446 10.295-1.337 12.981c-1.337 2.685-5.794 11.19-5.794 11.19s.892-8.057 0-14.324c-.891-5.371-4.456-12.085-4.456-12.085s.445 6.714-1.783 11.19c-1.782 4.476-6.239 8.952-6.239 8.952s-2.228-8.952-.891-14.323c1.337-6.266 2.674-9.4 2.674-9.4s-4.011 2.238-9.805 7.61c-6.239 5.371-8.913 12.085-8.913 12.085s-.445-6.714-2.228-12.981c-2.228-8.056-8.467-19.246-8.467-19.246s6.684 8.056 8.913 13.428c2.674 5.371 3.119 10.294 3.119 10.294s2.674-7.609 4.902-15.666c2.674-8.056 3.12-16.113 3.12-16.113s4.456 6.266 5.793 10.295c.892 4.028.892 6.714.892 6.714s5.793-6.267 8.021-11.19c2.229-4.924 4.011-10.295 4.011-10.295s3.566 7.609 4.011 12.533c.446 4.923 2.228 8.056 2.228 8.056s2.229-9.847 2.229-16.113v-9.4s4.456 8.057 5.348 12.533c1.337 4.476 1.337 7.162 1.337 7.162s3.565-5.819 7.13-9.847c3.565-4.029 8.467-7.61 8.467-7.61s-1.782 2.686-2.228 5.819c-.446 3.581 1.337 9.847 1.337 9.847s5.348-3.581 8.467-6.266c3.12-2.686 6.24-8.952 6.24-8.952s2.228 5.371 2.673 8.504c.446 4.476-1.782 10.743-1.782 10.743s4.456-4.029 8.467-6.267c4.011-2.685 3.12-9.847 3.12-9.847s3.119 3.133 5.348 8.057c1.782 4.028 1.782 13.875 1.782 13.875s5.348-15.666 12.924-18.351c-.446 12.98 1.337 21.932 1.337 21.932s.891-5.371 4.457-11.19c3.119-5.371 7.576-7.161 7.576-7.161s-.446 4.028-.446 9.847c.446 6.266-.446 13.428-.446 13.428s4.457-3.581 7.131-7.609c4.011-5.819 5.348-12.086 5.348-12.086s1.782 7.61 2.228 12.086c.446 6.714-.891 15.218-.891 15.218s4.011-8.952 10.695-13.876c5.794-4.476 11.142-3.58 11.142-3.58s-3.566 4.923-5.348 8.056c-2.674 5.819-2.229 12.981-2.229 12.981s8.022-10.295 15.153-10.743c0 0-3.566 5.819-6.685 15.219-11.141 6.266-13.815 23.275-13.815 23.275z" fill="#EDDCDA"/><path d="M354.74 309.29s-3.12 3.133-12.479 8.505c-9.358 5.371-20.054 12.085-36.543 11.19-16.044-.896-26.739-9.4-42.337-18.8-15.598-9.399-45.457-27.303-53.033-34.912-7.576-7.609-7.13-29.542-8.467-43.865-1.337-14.323-4.011-32.675-4.011-32.675s6.239 11.19 8.467 19.247c1.783 6.266 2.229 12.98 2.229 12.98s3.119-6.713 8.913-12.085c6.239-5.371 9.804-7.609 9.804-7.609s-1.337 3.133-2.674 9.4c-1.337 5.371.891 14.323.891 14.323s4.011-4.476 6.24-8.952c1.782-4.476 1.782-11.19 1.782-11.19s3.565 6.714 4.457 12.085c1.337 5.819 0 14.323 0 14.323s4.456-8.504 5.793-11.19c1.337-2.685 1.337-12.98 1.337-12.98s4.457 5.819 5.348 12.085c.446 5.819 0 14.771 0 14.771l6.239-9.4c3.565-5.371 5.348-12.98 5.348-12.98s4.011 9.847 2.228 16.113c-1.782 6.267-3.119 13.428-3.119 13.428s6.239-7.609 10.25-10.294c4.011-3.134 11.587-5.372 11.587-5.372s-3.566 4.476-5.348 9.848c-1.337 4.476-1.783 11.19-1.783 11.19s6.685-5.819 8.913-8.952c4.011-5.819 5.348-12.981 5.348-12.981s2.674 8.952 3.12 16.561c0 4.924-2.674 13.428-2.674 13.428s5.348-5.818 8.021-11.637c2.229-4.924 3.566-11.638 3.566-11.638s3.119 10.295 3.119 15.666v12.533s3.565-9.847 5.794-12.533c2.674-2.685 7.576-9.847 7.576-9.847s1.782 3.581 0 9.4c-1.783 5.818.891 12.98.891 12.98s3.565-4.924 6.685-10.742c3.119-5.819 5.348-15.219 5.348-15.219s4.456 3.581 5.348 10.295c.891 6.266.891 12.085.891 12.085s4.456-12.98 4.902-17.904c.446-7.609 1.337-13.875 1.337-13.875s3.565 9.399 3.565 12.532c.446 4.924 1.337 9.848 1.337 9.848s2.674-17.009 12.924-23.723c-1.783 4.476-3.12 9.847-4.011 15.666-2.674 17.904-3.119 60.873-3.119 60.873z" fill="#CEB7B6"/><path d="M90.468 313.319l95.369 55.054 73.087-42.074-95.369-55.502-73.087 42.522zM90.468 346.889l95.369 55.054 73.087-42.074-95.369-55.502-73.087 42.522z" fill="#FFCB87"/><path d="M185.837 368.373l73.087-42.074v25.065l-73.087 42.075v-25.066z" fill="#FFAF49"/><path d="M185.837 368.373v25.066l-95.37-55.055v-25.065l95.37 55.054z" fill="#FDA32D"/><path d="M185.837 393.439l73.087-42.074v8.504l-73.087 42.074v-8.504z" fill="#37C7A1"/><path d="M185.837 401.944l-95.37-55.055v-8.504l95.37 55.054v8.505z" fill="#3ED9B0"/><path d="M197.424 350.022c1.783.448 5.348 0 6.239-1.79 1.337-3.134-6.685-4.476-8.021-2.238-1.783 1.79 0 3.58 1.782 4.028zm-59.272-51.027c1.783.448 5.348 0 6.239-1.79 1.337-3.133-6.684-4.476-8.021-2.238-1.783 1.79 0 3.581 1.782 4.028zm86.457 22.828c1.783.447 5.348 0 6.239-1.791 1.337-3.133-6.685-4.476-8.022-2.238-1.782 1.791-.445 3.581 1.783 4.029zm-12.924 10.743c.891 0 3.12.447 3.565-.896 0-.447-1.782-2.685-4.456-1.342-1.783.447-.446 1.79.891 2.238zm-65.511 1.342c.891 0 3.12.448 3.565-.895 0-.447-1.782-2.685-4.456-1.343-1.337.448 0 1.791.891 2.238zm80.663.895c1.783.448 6.685.448 7.131-1.79 0-1.343-4.011-4.924-9.359-2.686-3.12 1.343 0 4.029 2.228 4.476zm-47.239 17.905c1.783.447 6.685.447 7.13-1.791 0-1.343-4.01-4.923-9.358-2.685-2.674 1.342 0 4.028 2.228 4.476zm-34.315-33.123c1.782.448 5.347 0 6.239-1.79 1.337-3.134-6.685-4.476-8.022-2.238-1.783 2.238-.446 4.028 1.783 4.028zm38.772 11.19c1.782.448 5.347 0 6.239-1.79 1.337-3.134-6.685-4.476-8.022-2.238-1.783 1.79-.446 3.58 1.783 4.028zm-11.587-39.389c1.782.448 5.348 0 6.239-1.79 1.337-3.133-6.685-4.476-8.022-2.238-1.782 1.79-.446 3.581 1.783 4.028zm-13.37 10.743c.891 0 3.12.447 3.565-.896 0-.447-1.782-2.685-4.456-1.342-1.337.895 0 2.238.891 2.238zm.891 33.122c.892 0 3.12.448 3.566-.895 0-.448-1.783-2.686-4.457-1.343-1.782.448 0 1.791.891 2.238zm40.555-15.219c.891 0 3.119.448 3.565-.895 0-.447-1.783-2.685-4.456-1.343-1.783.448-.446 1.791.891 2.238zm-89.131-7.609c.892 0 3.12.448 3.566-.895 0-.447-1.783-2.685-4.457-1.343-1.783.896-.446 2.238.891 2.238zm62.837-7.609c1.783.448 6.685.448 7.131-1.79 0-1.343-4.011-4.924-9.359-2.686-2.674 1.343.446 4.029 2.228 4.476zm23.174 4.924c1.783.447 6.685.447 7.131-1.791 0-1.342-4.011-4.923-9.359-2.685-2.674 1.343 0 4.028 2.228 4.476zm-69.967 12.532c1.783.448 6.685.448 7.13-1.79.446-1.343-4.011-4.923-9.358-2.685-2.674 1.342 0 4.028 2.228 4.475zm73.087 56.846c-.892 1.79-3.12.895-3.12-.895 0-1.343.891-3.581 2.228-3.133 1.783 0 2.229 2.685.892 4.028zm25.402-21.485c-.892 1.343-3.12.895-3.12-.895 0-1.343.891-3.581 2.228-3.133 1.783 0 1.783 2.238.892 4.028zm16.489-2.686c-.891 1.343-3.12.895-3.12-.895 0-1.343.892-3.581 2.229-3.133 1.782 0 1.782 2.685.891 4.028z" fill="#FDA32D"/><path d="M135.033 351.812c.891 1.791 3.119.895 3.119-.895 0-1.343-.891-3.581-2.228-3.133-1.782 0-1.782 2.238-.891 4.028zm-14.261-9.4c.891 1.791 3.119.896 3.119-.895 0-1.343-.891-3.581-2.228-3.133-1.783 0-1.783 2.238-.891 4.028zm43.228 29.542c.892 1.791 3.12.896 3.12-.895 0-1.343-.891-3.581-2.228-3.133-1.783 0-1.783 2.238-.892 4.028zm-18.271-16.561c1.782.895 3.565-.448 3.565-2.238 0-1.343-3.12-5.371-5.348-2.238-1.783 1.79 0 4.028 1.783 4.476zm-44.12-17.457c1.783.896 3.565-.447 3.565-2.238 0-1.342-3.119-5.371-5.348-2.238-1.337 1.343.446 3.581 1.783 4.476zm75.761 44.76c1.782.895 3.565-.447 3.565-2.238 0-1.343-3.12-5.371-5.348-2.238-1.782 1.791 0 4.029 1.783 4.476z" fill="#FFB049"/><path d="M213.468 363.897c-.446-1.79-2.229-2.686-4.011-1.343-1.337.895-2.674 5.819 1.337 5.819 2.228 0 3.119-2.686 2.674-4.476zm34.315-21.037c-.446-1.79-2.228-2.686-4.011-1.343-1.337.895-2.674 5.819 1.337 5.819 2.228 0 3.119-2.686 2.674-4.476z" fill="#FDA32D"/><path d="M161.772 123.09v-46.55h-87.348v106.08c46.348 20.59 60.163-31.332 87.348-59.53z" fill="#3ED9B0"/><path d="M118.098 267.664c24.065 0 43.674-10.295 43.674-23.276v-121.299c-27.185 28.647-41.446 80.568-87.348 59.531v61.768c0 12.533 19.608 23.276 43.674 23.276z" fill="#37C7A1"/><path d="M144.391 140.546c-7.13 3.133-16.489 4.924-26.293 4.924-24.066 0-43.674-10.295-43.674-23.275v68.482c0 12.98 19.608 23.275 43.674 23.275 9.804 0 19.163-1.79 26.293-4.923v-68.483z" fill="#3F2A28"/><path d="M132.359 154.422c-4.457.895-9.359 1.342-14.261 1.342-24.066 0-43.674-10.294-43.674-23.275v12.085c0 12.981 19.608 23.276 43.674 23.276 4.902 0 9.804-.448 14.261-1.343v-12.085z" fill="#fff"/><path d="M159.989 69.826s-.446-.896-1.337-2.238l-.891-.896c-3.12-4.476-10.696-12.085-25.402-16.113-4.903-1.343-8.022 0-9.805 2.685l-4.902-.447s-3.565 0-4.902.447c-1.337-2.685-4.457-4.028-9.804-2.685-20.946 5.819-27.185 19.247-27.185 19.247-.891 2.238-1.783 4.028-1.783 6.266 0 12.98 19.609 23.275 43.674 23.275 24.065 0 43.674-10.295 43.674-23.275.446-1.79-.446-4.028-1.337-6.266z" fill="#37C7A1"/><path d="M118.098 48.34c-14.707 0-26.74 6.267-26.74 14.324 0 8.057 12.033 14.323 26.74 14.323 14.706 0 26.739-6.266 26.739-14.323s-12.033-14.323-26.739-14.323z" fill="#3ED9B0"/><path d="M97.152 38.494v17.456c0 2.238 1.337 4.029 3.12 5.371v-13.427c0-.896.445-1.343 1.337-.896.445.448 1.336 1.343 1.336 2.238v13.876c1.783.895 4.011 1.79 6.24 2.685v-13.875c0-.895.445-1.343 1.337-1.343.891 0 1.337.448 1.337 1.343v14.323c1.782.448 4.01.448 6.239.448v-14.324c0-.895.445-1.342 1.337-1.342.891 0 1.337.447 1.337 1.342v14.771c2.228 0 4.456-.447 6.239-.895v-14.77c0-.896.445-1.343 1.337-1.343.891 0 1.337.447 1.337 1.342v13.876c1.782-.448 3.565-1.343 5.347-2.238v-13.428c0-.895.446-1.79 1.337-2.238.446-.448 1.337 0 1.337.895v12.98c1.783-1.79 2.674-3.133 2.674-5.37v-17.458h-43.228z" fill="#CEB7B6"/><path d="M118.543 51.922c-.891 0-1.337.448-1.337 1.343v14.323h2.674v-13.876c0-1.343-.445-1.79-1.337-1.79zm-8.467-.895c-.891 0-1.337.447-1.337 1.343v13.875c.891.448 1.783.448 2.674.448v-14.323c0-.895-.891-1.343-1.337-1.343zm17.38-.448c-.891 0-1.337.447-1.337 1.343v14.77l2.674-.895v-13.875c0-.895-.445-1.343-1.337-1.343zm8.022-3.133c-.445.447-1.337 1.342-1.337 2.238v13.428c.892-.448 1.783-1.343 2.229-1.79v-12.982c0-.895-.446-1.343-.892-.895zm-34.315 0c-.446-.448-1.337 0-1.337.895v13.428l2.228 1.79v-13.875c.446-.896 0-1.79-.891-2.238z" fill="#DEC9C5"/><path d="M118.098 27.304c-11.587 0-20.946 4.923-20.946 11.19 0 6.266 9.359 11.19 20.946 11.19 11.587 0 20.945-4.924 20.945-11.19 0-6.267-9.358-11.19-20.945-11.19z" fill="#F4EBEA"/><path d="M118.097 27.304c-8.467 0-15.597 4.028-15.597 8.504s7.13 8.504 16.043 8.504 16.044-4.028 16.044-8.504-7.576-8.504-16.49-8.504zM130.576 6.266l3.565 29.542h-31.641l4.456-29.542h23.62z" fill="#CEB7B6"/><path d="M118.543 0c-6.239 0-11.587 2.686-11.587 6.266 0 3.581 5.348 6.267 11.587 6.267 6.685 0 11.587-2.686 11.587-6.267.446-3.58-4.902-6.266-11.587-6.266z" fill="#DEC9C5"/><path d="M99.38 145.917v144.127c0 13.428-20.5 24.618-45.902 24.618s-45.902-11.19-45.902-24.618v-144.127h91.804z" fill="#6E8FF4"/><path d="M25.402 186.201c7.576 3.134 17.38 4.924 27.63 4.924 25.403 0 45.903-11.19 45.903-24.618v102.5c0 13.428-20.5 24.618-45.903 24.618-10.25 0-20.054-1.79-27.63-4.924v-102.5z" fill="#3F2A28"/><path d="M35.652 205c5.348 1.343 11.587 2.238 17.826 2.238 25.402 0 45.902-11.19 45.902-24.618v8.057c0 13.428-20.5 24.618-45.902 24.618-6.239 0-12.032-.895-17.826-2.238v-8.057z" fill="#fff"/><path d="M9.359 139.651s.445-.895 1.337-2.238l.89-.895c3.12-4.476 11.142-12.981 26.74-17.009 5.348-1.343 8.467 0 10.25 2.685l5.348-.447c1.782 0 3.565 0 5.348.447 1.782-2.685 4.902-4.476 10.25-2.685 21.837 6.266 28.967 20.142 28.967 20.142 1.337 2.238 1.783 4.476 1.783 6.714 0 13.428-20.5 24.618-45.903 24.618-25.402 0-45.902-11.19-45.902-24.618-1.337-2.238-.445-4.476.892-6.714z" fill="#4C73EB"/><path d="M79.772 110.557l5.793 22.827h-64.62l5.794-24.618 53.033 1.791zM53.032 117.718c17.827 0 32.533 7.609 32.533 17.457 0 9.399-14.706 17.456-32.532 17.456-17.827 0-32.533-7.609-32.533-17.456 0-9.4 14.706-17.457 32.532-17.457z" fill="#FDA32D"/><path d="M53.032 96.681c14.707 0 26.74 6.267 26.74 14.324 0 8.056-12.033 14.323-26.74 14.323-14.706 0-26.739-6.267-26.739-14.323.446-8.057 12.033-14.324 26.74-14.324z" fill="#FFCB87"/><path opacity=".5" d="M53.478 98.471c12.033 0 21.837 4.924 21.837 11.19 0 6.267-9.804 11.19-21.837 11.19-12.032 0-21.837-4.923-21.837-11.19 0-5.818 9.805-11.19 21.837-11.19z" fill="#FDA32D"/></g><defs><clipPath id="a"><path fill="#fff" d="M0 0h369v410h-369z"/></clipPath></defs></svg>