<svg width="293" height="440" xmlns="http://www.w3.org/2000/svg" fill="none"><g clip-path="url(#a)"><path opacity=".5" d="M150.564 401.012l-53.467 30.847c-20.104 11.568-55.179 10.283-78.276-3.427-23.098-13.281-25.665-33.846-5.561-45.414l53.467-30.847c20.104-11.568 55.178-10.282 78.276 3.427 23.098 13.71 25.664 33.847 5.561 45.414zM293 300.76l-47.907-26.135-124.471 71.977 47.906 26.135 124.472-71.977zM10.266 276.339l47.906-26.563 124.044 71.977-47.479 26.563-124.471-71.977z" fill="#D8C4C3"/><path d="M129.177 152.95c-9.838-25.706-22.243-64.264-22.243-64.264l-9.41-5.57-2.566-1.285-15.399-8.998s-12.404 23.993-22.242 38.559c-9.838 14.567-8.983 28.277-8.983 70.263v80.546l46.624 26.991 2.566 1.285 40.635 23.564v-80.545c0-41.987.428-54.84-8.982-80.546zm-64.589-130.672s-2.566 11.996-10.693 22.279c-7.7 10.282-14.115 10.71-14.115 10.71l3.85 11.14s14.542-.429 21.814-11.568c7.271-11.139 11.976-17.137 11.976-17.137l-12.832-15.424z" fill="#DDC9C7"/><path d="M106.934 33.846l-58.6-33.846v14.138s8.983 8.14 18.393 17.138c9.41 8.997 12.832 18.422 12.832 27.42v14.138l27.803 15.852-.428-54.84z" fill="#FFB600"/><path d="M27.375.857c-.855-.857-2.139-.857-3.422 0-2.566 1.285-4.705 5.57-4.705 8.997 0 1.714.428 3 1.711 3.856l12.832 7.712 5.989-13.282-12.405-7.283z" fill="#fff"/><path d="M41.063 11.568c0 3.428-2.139 7.712-4.705 8.997-2.567 1.714-4.705 0-4.705-3.427 0-3.428 2.138-7.712 4.705-8.997 2.566-1.714 4.705 0 4.705 3.427z" fill="#493130"/><path d="M21.814 65.98l18.393-10.712s-3.422 7.712-8.555 10.283c-5.132 2.57-9.838.428-9.838.428zm19.249 5.996l13.26-7.711-5.989-3.428-7.271 7.284v3.855z" fill="#DDC9C7"/><path d="M46.196 32.989s-2.567 11.996-10.694 22.279c-7.7 10.282-14.115 10.71-14.115 10.71l4.277 11.568s14.543-.428 21.815-11.568c7.271-11.138 11.977-17.137 11.977-17.137l-13.26-15.852z" fill="#F4EBEA"/><path d="M82.98 47.985l-58.6-33.847v14.139s8.983 8.14 18.394 17.137c8.982 8.997 12.832 18.423 12.832 27.42v14.138l27.803 15.852-.428-54.84z" fill="#FFAF49"/><path d="M106.934 89.114l-23.525 14.138 30.797 225.356 23.953-14.139-31.225-225.355z" fill="#DDC9C7"/><path d="M83.409 103.252l23.525-14.138v-55.268l-23.953 14.138.428 55.268z" fill="#FFB600"/><path d="M105.223 167.089c-9.838-25.706-22.242-64.265-22.242-64.265l-9.41-5.57-2.567-1.285-15.398-8.997s-12.404 23.992-22.242 38.559c-9.41 14.567-8.983 28.705-8.983 70.691v80.545l46.623 26.992 2.567 1.285 40.635 23.564v-80.546c0-41.986.428-55.267-8.983-80.973z" fill="#F4EBEA"/><path d="M48.334 0l-23.953 14.138 58.6 33.846 23.953-14.138-58.6-33.846z" fill="#FFCB87"/><path d="M94.958 294.762l-59.028-34.275v-101.967l59.028 34.275v101.967z" fill="#3F2A28"/><path d="M90.68 195.794l-50.9-29.562v5.141l50.9 29.562v-5.141z" fill="#fff"/><path d="M90.68 178.657l-50.9-29.562v2.57l50.9 29.562v-2.57zm0-6.427l-50.9-29.562v2.571l50.9 29.562v-2.571z" fill="#DDC9C7"/><path d="M90.68 207.79l-50.9-29.562v5.141l50.9 29.562v-5.141z" fill="#fff"/><path d="M78.276 221.928c-2.139-1.285-4.278-1.713-6.416-2.142-2.995-11.139-15.399-20.993-21.815-8.997-2.994 5.141-3.422 11.996-2.139 18.423-2.994 4.284-2.566 10.71-1.283 15.423 3.422 14.138 20.96 23.992 33.364 13.71 9.41-8.14 9.838-29.562-1.711-36.417zm-26.948-3.856c.856-6.855 9.41-10.71 14.971-4.712 1.711 1.713 2.994 4.284 3.422 6.855-4.277 0-8.555 2.142-11.121 5.141-2.567-.429-5.133 0-7.272 1.285v-1.285c-.427-2.571-.427-5.141 0-7.284z" fill="#FFAF49"/><path d="M85.975 248.063c-.427-2.142-1.283-4.713-3.85-5.998-1.283-.857-3.421-.857-5.132-.857l-.428-1.286c-1.71-3.427-5.133-5.998-8.982-5.569-9.838 1.714-7.7 14.138-3.85 20.993-.856.857-1.711 2.142-1.711 2.999-1.711 5.57 5.988 11.568 10.693 13.71 8.127 3.856 13.688-6.855 11.122-13.281 1.71-3 2.566-7.284 2.138-10.711zm-38.496-48.842c-2.567-.429-6.416 5.57-1.711 11.139 2.566 2.571 7.271 2.142 7.271-2.142.428-3.856-1.71-8.569-5.56-8.997zm30.369 20.136c-2.138-.857-7.271 2.571-3.422 8.141 1.711 2.57 5.989 2.999 7.272-.857 1.283-2.571-.856-5.998-3.85-7.284z" fill="#fff"/><path d="M180.505 94.255s-2.566 14.995-10.693 34.703c-7.7 19.279-14.116 26.991-14.116 26.991l3.85 6.855s14.543-17.566 21.815-36.845c7.271-19.28 11.976-30.847 11.976-30.847l-12.832-.857z" fill="#DDC9C7"/><path d="M218.574 55.267l-58.6 33.846v14.139s8.982-2.142 18.392-3.856c8.983-1.714 12.833 3.427 12.833 12.424v14.139l27.802-15.852-.427-54.84z" fill="#FFB600"/><path d="M232.261 140.097c-8.982-13.281-20.531-35.56-20.531-35.56l-8.555 5.141-2.138 1.286-6.844 13.281s-44.913 45.842-53.895 69.834c-8.983 23.564-8.127 35.56-8.127 74.119v73.691l108.217-63.408v-73.691c0-38.559.428-51.412-8.127-64.693zM169.812 363.739l-37.641-21.422 22.67-40.273 23.953 29.134-8.982 32.561z" fill="#CEB7B6"/><path d="M269.475 161.519c-8.983-13.282-29.086-40.701-29.086-40.701l-25.237 14.566s-28.231 46.699-37.213 70.263c-8.983 23.564-8.127 45.414-8.127 83.973v73.69l108.217-63.408v-73.69c0-38.559 0-50.983-8.554-64.693z" fill="#F4EBEA"/><path d="M261.775 177.371c-7.271-11.139-23.953-33.846-23.953-33.846l-20.959 11.996s-23.526 38.559-30.797 58.267c-7.272 19.707-6.844 37.702-6.844 69.834v61.266l89.825-52.697v-61.266c0-31.704 0-42.415-7.272-53.554zm-47.906-38.988l-22.67-12.424 6.844-22.707 20.959 4.712-5.133 30.419z" fill="#4C73EB"/><path d="M168.956 163.232l-13.26-7.712 10.266-8.997 14.543-39.844 16.254 2.142-7.271 27.42-20.532 26.991z" fill="#DDC9C7"/><path d="M193.765 101.966s-2.566 14.995-10.693 34.703c-7.7 19.28-14.116 26.992-14.116 26.992l3.85 6.854s14.543-17.565 21.814-36.845c7.272-19.279 11.977-30.847 11.977-30.847l-12.832-.857z" fill="#F4EBEA"/><path d="M241.244 67.692l-58.6 33.846v14.138s8.983-2.142 18.393-3.856c8.982-1.714 12.832 3.428 12.832 12.425v14.138l27.803-15.852-.428-54.84zm-58.6 33.846l-22.67-12.425v14.139l22.67 12.424v-14.138z" fill="#4C73EB"/><path d="M167.673 98.11c.428-.428 1.283-.428 2.567 0 1.71 1.286 3.421 3.857 3.421 6.427 0 1.285-.427 2.142-1.283 2.571l-6.844 4.284-4.277-9.425 6.416-3.856z" fill="#3F2A28"/><path d="M159.974 104.537c0 2.571 1.711 5.57 3.422 6.426 1.711 1.286 3.422 0 3.422-2.57 0-2.571-1.711-5.57-3.422-6.427-1.711-.856-3.422.429-3.422 2.571z" fill="#493130"/><path d="M172.806 170.087l-3.85-6.855-13.26-7.712 3.85 6.855 13.26 7.712z" fill="#EDD9D9"/><path d="M241.244 67.692l-22.67-12.425-58.6 33.846 22.67 12.425 58.6-33.846z" fill="#A9BEFF"/><path d="M198.898 208.218l51.328-29.562v5.57l-51.328 29.133v-5.141zm0 10.711l51.328-29.562v5.141l-51.328 29.562v-5.141zm54.323 47.984c3.422-8.997-.428-14.567-6.844-17.566.855-4.713.855-9.425-.856-13.71-6.843-18.422-34.219-10.282-39.351 0-3.422 2.142-6.844 5.57-8.983 9.426-2.566 5.569-3.85 14.995 3.422 16.28 0 0 .428-.428 0-.428-7.272-2.571-3.85-11.996-1.283-16.281 2.566-4.284 6.844-7.711 11.549-9.425 8.554-3.428 19.676-3.856 25.236 5.141 1.283 2.142 2.139 4.284 2.567 6.855-4.278-.428-8.983-.428-12.833.857-6.843 2.142-15.398 6.426-15.826 15.423 0 1.286 0 2.571.428 3.428-3.85 3.856-5.988 8.569-6.416 14.138-.428 5.998 2.139 11.996 8.555 11.996 8.982 0 18.82-10.711 23.525-17.994 2.567-3.856 4.277-8.997 4.705-14.138 6.416 2.142 11.977 7.283 11.977 15.852 0 11.567-10.266 16.28-18.393 20.565-.855.428-.428 2.142.856 1.713 8.554-3.856 18.392-8.568 20.103-19.279 1.284-4.713 0-9.426-2.138-12.853zm-30.797 18.851c-4.706 2.999-14.116 9.854-15.827-3.428-.427-3.855 2.994-9.425 5.561-12.424 1.283 2.142 3.849 3.856 6.844 4.284 6.843.857 14.115-4.284 19.248-9.854-2.567 8.569-8.555 16.281-15.826 21.422z" fill="#fff"/><path d="M211.302 284.907a20.27 20.27 0 0-4.277 4.284c-.856-1.285-1.711-2.571-2.139-4.284-3.422-9.426 0-21.422 9.41-23.564 2.995-.857 5.989.428 8.555 2.57-12.404-14.138-33.363-1.285-29.941 21.422.855 5.57 4.277 11.568 8.127 14.138-3.422 8.997-1.284 17.995 12.832 18.851.855 0 .855-.857 0-1.285-12.832-4.284-9.411-12.853-8.555-15.423 0 0 15.398 5.141 25.664-4.285 16.682-15.423-8.127-20.993-19.676-12.424zm20.532 1.285c1.711 2.999-3.85 6.855-11.122 7.283-5.56.429-11.121-1.713-11.976-2.57.855-.857 3.849-4.713 9.41-6.427 4.277-1.714 11.121-2.57 13.688 1.714z" fill="#493130"/><path d="M157.835 321.752s-15.399 12.853-28.659 24.421c-20.531-6.855-44.912-5.998-60.31 2.999l-31.226 17.994c-13.688-11.567-29.514-23.992-29.514-23.992-4.705 7.283-11.977 35.56-1.711 57.838 1.71 6.855 7.7 13.71 17.537 19.708 21.815 12.425 54.75 14.139 73.57 2.999l50.474-29.133c5.56-3.428 9.41-7.283 11.121-11.996.856-.857 1.283-1.714 1.711-2.999 9.838-21.85 1.711-50.555-2.994-57.839z" fill="#FFB600"/><path d="M147.569 350.029l-50.473 29.134c-18.82 10.711-52.184 9.425-73.57-2.999-21.816-12.425-23.955-31.704-5.135-42.844l50.046-29.133c18.82-10.711 52.184-9.425 73.571 2.999 22.242 12.425 24.381 31.704 5.56 42.843z" fill="#FFCB87"/><path d="M60.739 372.737c-1.711-2.571-10.266-.857-8.983 2.57.856 2.142 5.133 2.142 6.844 1.714 2.139-.428 3.422-2.142 2.139-4.284zm8.554-56.554c-1.71-2.571-10.265-.857-8.982 2.571.855 2.142 5.133 2.142 6.844 1.713 2.138 0 3.422-2.142 2.138-4.284zm20.96 37.702c-1.711-2.57-10.266-.857-8.983 2.571.856 2.142 5.133 2.142 6.844 1.714 2.139-.429 3.422-2.143 2.139-4.285zm6.843-38.559c-1.71-2.571-10.266-.857-8.982 2.571.855 2.142 5.133 2.142 6.843 1.713 2.14 0 3.422-2.142 2.14-4.284zm51.756 18.852c-1.711-2.571-10.265-.857-8.982 2.57.855 2.142 5.133 2.142 6.844 1.714 2.138 0 3.422-2.142 2.138-4.284zm-29.514 11.138c-1.711-2.57-10.265-.857-8.982 2.571.855 2.142 5.133 2.142 6.844 1.714 2.138-.429 3.849-2.571 2.138-4.285zm-87.686-2.57c-1.71-2.57-10.265-.857-8.554 2.142.855 2.143 5.133 2.143 6.416 1.714 2.139 0 3.85-2.142 2.139-3.856zm107.362-24.421c-1.711-2.57-10.265-.857-8.982 2.571.855 2.142 5.133 2.142 6.844 1.713 2.138-.428 3.849-2.57 2.138-4.284zm-51.756 18.423c-5.56-2.57-9.838 1.714-9.838 2.999.428 2.571 5.989 2.142 7.7 1.714 2.138-.429 5.132-3.428 2.138-4.713zm-42.774 19.28c-2.994-1.286-5.132.857-4.705 1.285.428 1.285 2.994.857 3.85.857 1.283 0 2.566-1.714.855-2.142zm76.566-45.414c-2.995-1.286-5.133.856-4.706 1.285.428 1.285 2.995.857 3.85.857.856 0 2.139-1.714.856-2.142zm-13.688 53.125c-2.994-1.286-5.133.856-4.705 1.285.427 1.285 2.994.857 3.849.857.856 0 2.139-1.286.856-2.142zm-5.988-56.124c-2.994-1.286-5.133.856-4.705 1.285.427 1.285 2.994.857 3.849.857.856 0 2.139-1.286.856-2.142zm-45.341 18.85c-2.994-1.285-5.133.857-4.705 1.285.428 1.286 2.994.857 3.85.857.855 0 2.139-1.285.855-2.142zm-26.519 29.991c-5.56-2.571-9.838 1.714-9.838 2.999.428 2.57 5.988 2.142 7.7 1.714 2.138-.429 5.132-3.428 2.138-4.713zm50.473 18.423c-5.56-2.571-9.838 1.713-9.838 2.999.428 2.57 5.988 2.142 7.7 1.713 2.138-.428 5.132-2.999 2.138-4.712z" fill="#FFB600"/><path d="M155.269 355.17c-2.139 0-3.422 2.999-3.422 5.57 0 3.427 3.422 4.284 5.133 1.714 2.138-2.571 1.71-6.855-1.711-7.284zm-24.809 34.275c-1.283 0-2.139 1.714-2.139 3.427 0 2.142 2.139 2.571 3.422.857.856-1.285.428-3.856-1.283-4.284zm-49.19 2.999c-1.283 0-2.139 1.714-2.139 3.427 0 2.142 2.139 2.571 3.422.857.856-1.714.856-4.284-1.283-4.284zm-45.768 7.712c1.283 0 2.139 1.713 2.139 3.427 0 2.142-2.139 2.571-3.422.857-.856-1.714-.856-4.284 1.283-4.284zm20.104-6.855c1.283 0 2.139 1.714 2.139 3.428 0 2.142-2.14 2.57-3.422.857-.856-1.286-.856-3.856 1.283-4.285zm-43.63-.857c1.283 0 2.139 1.714 2.139 3.427 0 2.142-2.139 2.571-3.422.857-1.283-1.714-.855-4.284 1.283-4.284zm112.068-17.994c-1.283 0-2.139 1.713-2.139 3.427 0 2.142 2.139 2.571 3.422.857.855-1.714.428-4.284-1.283-4.284zm27.803-.857c-2.567-3.427-5.989.857-5.989 2.571 0 2.142 1.711 2.999 3.422 2.571 2.139-.857 3.85-3.428 2.567-5.142zm-35.503 4.285c-2.566-3.428-5.988.856-5.988 2.57 0 2.142 1.711 2.999 3.422 2.571 1.711-.857 3.85-3.428 2.566-5.141zm-14.115 28.705c-2.566-3.428-5.988.856-5.988 2.57 0 2.142 1.71 2.999 3.422 2.571 2.138-.857 3.849-3.428 2.566-5.141zm-35.93 12.424c1.71-3.856-3.85-4.713-5.133-3.856-1.71.857-1.71 2.999-.428 4.285 1.711 1.285 4.706 1.713 5.561-.429zm-48.334-32.561c4.277 0 2.566-5.141 1.283-6.427-1.711-1.285-3.422-.428-3.85 1.286-.427 2.142.428 5.141 2.567 5.141zm25.664 33.846c4.277 0 2.566-5.141 1.283-6.426-1.71-1.285-3.422-.429-3.85 1.285-.427 2.142.428 5.141 2.567 5.141z" fill="#FDA32D"/></g><defs><clipPath id="a"><path fill="#fff" d="M0 0h293v440h-293z"/></clipPath></defs></svg>